<svg xmlns="http://www.w3.org/2000/svg" viewBox="0 0 109.8 26" fill="currentColor"><g><path d="M18.88 0C8.45 0 0 4.92 0 11.09c0 2.57 1.54 5 4.11 6.9a8.38 8.38 0 0 1-1.98-5.21c0-6.39 8.3-11.53 18.5-11.53 6.62 0 12.35 2.13 15.65 5.36-3-3.9-9.7-6.61-17.4-6.61z"/><path d="M10.43 9.77a3.14 3.14 0 0 1 2.06-.66c.8 0 1.47.22 1.98.66.59.44.88 1.03.88 1.76H9.33a3.6 3.6 0 0 1 1.1-1.76zm6.76 4.48c.73 0 1.4-.15 1.83-.52.52-.36.81-.88.81-1.54a5.9 5.9 0 0 0-1.25-3.52 7.33 7.33 0 0 0-3.15-2.43 7.87 7.87 0 0 0-3.02-.58c-2.2 0-4.04.73-5.5 2.2a7.09 7.09 0 0 0-2.14 5.21c0 2.06.74 3.82 2.28 5.22a7.95 7.95 0 0 0 5.66 2.13c1.17 0 2.35-.15 3.45-.52a5.42 5.42 0 0 0 2.86-1.69c.37-.44.52-.8.52-1.24 0-1.1-.59-1.62-1.84-1.62-.29 0-.95.22-2.05.66-1.1.44-1.99.66-2.8.66a4 4 0 0 1-2.34-.66 2.34 2.34 0 0 1-1.1-1.84h7.78zm5.21 4.04a7.48 7.48 0 0 0 5.51 2.13c1.4 0 2.5-.22 3.45-.59 1.25-.59 1.91-1.32 1.91-2.13 0-.51-.15-.88-.51-1.25-.3-.36-.74-.51-1.25-.51-.37 0-.8.07-1.32.3-.52.21-1.1.29-1.77.29-1.1 0-1.9-.37-2.5-1.03a3.7 3.7 0 0 1-.8-2.43c0-.95.22-1.76.73-2.42.59-.73 1.4-1.1 2.43-1.1.66 0 1.24.07 1.83.3.59.21 1.03.29 1.4.29.51 0 1.03-.15 1.32-.52.37-.36.51-.73.51-1.24 0-.96-.58-1.7-1.83-2.13a8.78 8.78 0 0 0-3.23-.52c-2.35 0-4.26.66-5.66 2.06a7.2 7.2 0 0 0-2.13 5.28 6.86 6.86 0 0 0 1.91 5.22z"/><path d="M38.78 10.72a2.66 2.66 0 0 1 2.28-1.1c.95 0 1.76.37 2.27 1.1.52.66.74 1.47.74 2.35 0 .96-.22 1.77-.74 2.35a2.66 2.66 0 0 1-2.27 1.1c-.96 0-1.77-.36-2.28-1.1a3.74 3.74 0 0 1-.73-2.35c.07-.95.29-1.76.73-2.35zm-3.23 7.57a7.52 7.52 0 0 0 5.58 2.2 7.6 7.6 0 0 0 5.58-2.13 7.1 7.1 0 0 0 2.06-5.21 7.2 7.2 0 0 0-2.13-5.3 7.52 7.52 0 0 0-5.58-2.12c-2.28 0-4.12.73-5.58 2.13a6.91 6.91 0 0 0-2.13 5.29 7.04 7.04 0 0 0 2.2 5.14zM55.16 17.26V14.1h3.16c2.2 0 3.96-.59 5.21-1.69s1.91-2.64 1.91-4.7-.73-3.6-2.13-4.7C62 1.91 60.15 1.4 57.88 1.4h-4.19c-1.25 0-2.06.22-2.5.66-.44.45-.73 1.25-.73 2.36v12.85c0 1.98.8 3.01 2.35 3.01 1.61 0 2.35-.95 2.35-3.01zm0-11.97h2.06c2.13 0 3.23.8 3.23 2.42 0 1.7-1.1 2.5-3.24 2.5h-2.05zm23.5 14.98c1.47 0 2.28-1.03 2.28-3.01v-8.3c0-1.98-.74-3.01-2.28-3.01-.95 0-1.61.44-2.13 1.32a4.92 4.92 0 0 0-3.67-1.47 6.5 6.5 0 0 0-5.14 2.28 7.49 7.49 0 0 0-1.91 5.07c0 1.9.59 3.6 1.84 4.99a6.34 6.34 0 0 0 5.06 2.28c1.62 0 2.87-.52 3.82-1.54.37.95 1.1 1.4 2.13 1.4zm-7.49-9.47c.51-.74 1.25-1.03 2.2-1.03.96 0 1.7.37 2.2 1.03.45.58.67 1.4.67 2.27a3.8 3.8 0 0 1-.66 2.28 2.53 2.53 0 0 1-2.2 1.1c-.96 0-1.7-.37-2.28-1.1a4 4 0 0 1-.74-2.28c.08-.88.3-1.69.8-2.27zm20.27-3.24l-2.79 6.61-2.57-6.24a4.56 4.56 0 0 0-.73-1.4 2.1 2.1 0 0 0-1.55-.58 2.4 2.4 0 0 0-1.61.59c-.44.36-.66.88-.66 1.47 0 .44.07.8.22 1.17l4.55 9.77-1.91 3.67a3.97 3.97 0 0 0-.37 1.4c0 .59.22 1.1.59 1.47.44.36.95.51 1.61.51.81 0 1.47-.59 1.99-1.69l6.97-14.98c.22-.52.37-1.03.37-1.47 0-1.32-.73-1.98-2.28-1.98-.73.07-1.4.58-1.83 1.69zm15.42 8.67h-4.48l6.03-7.05c.58-.73.95-1.32.95-1.84 0-.5-.22-.88-.73-1.03a7.52 7.52 0 0 0-2.13-.22h-7.27c-1.91 0-2.87.6-2.87 1.84 0 1.25.96 1.91 2.87 1.91h3.89l-6.24 7.35a2.42 2.42 0 0 0-.66 1.61c0 .88.8 1.25 2.42 1.25h8.3c1.9 0 2.86-.66 2.86-1.9-.15-1.26-1.03-1.92-2.94-1.92z"/></g></svg>

