<svg data-name="Layer 1" xmlns="http://www.w3.org/2000/svg" viewBox="0 0 190 31" fill="currentColor"><title>neteller</title><path d="M170.45 18.7L175 30.88h-9.44a.82.82 0 0 1-1-.71 1965.2 1965.2 0 0 0-3.87-13.09 1.45 1.45 0 0 0-.41-.7l-2.59 14.52H62.2l4.4-23.79h-4c-1.61 0-1.63 0-1.93 1.61l-4 21.54c-.1.58-.33.69-.85.69H20.89c-.61 0-.79-.26-1-.75l-6-17.5a1.33 1.33 0 0 0-.42-.64l-3.32 18.88H0L5.7.07h8c.85 0 1.88-.25 2.48.15s.67 1.43 1 2.2Q20 10.21 22.88 18l.28.73c.1-.32.17-.49.2-.67 1-5.69 2.09-11.38 3.11-17.08.12-.69.32-1 1.1-1h60c-.2 1.2-.38 2.31-.58 3.41s-.4 2-.54 3c-.08.55-.3.71-.85.71h-8c-.87 0-1.16.27-1.27 1.07-.2 1.39-.49 2.77-.77 4.29h9.33l-.52 3c-.13.76-.29 1.52-.38 2.28s-.34.9-1 .89h-7.81c-.59 0-.79.18-.88.76-.22 1.5-.52 3-.8 4.58h14.51c.78 0 1.09-.17 1.24-1C90.61 15.52 92 8.09 93.38.65 93.44.3 93.49 0 94 0h9.51a1.32 1.32 0 0 1 .25.08L99.54 22.7H105.74c.54 0 .77-.15.86-.7q1.72-9.49 3.47-19c.15-.83.28-1.67.49-2.49a.76.76 0 0 1 .52-.48h9.58s.09 0 .22.09l-4.17 22.5H123.01c.61 0 .84-.17.95-.78q1.68-9.3 3.41-18.59c.2-1.08.42-2.16.63-3.26h19.54c-.1.64-.19 1.24-.3 1.83-.28 1.52-.6 3-.85 4.55-.09.53-.3.67-.8.67h-8.11c-.71 0-.92.25-1 .89-.21 1.44-.5 2.88-.78 4.44h9.3c-.35 2-.67 3.81-1 5.66-.08.48-.4.51-.79.5h-7.57c-.81 0-1.18.16-1.29 1-.17 1.42-.51 2.82-.79 4.28h14.66c.62 0 .83-.21.94-.8l4-22c.24-1.26-.05-1.1 1.35-1.1 3.76 0 7.53-.09 11.28 0a29 29 0 0 1 6.1.78c6.29 1.58 7.91 6.23 6.33 11.66-1 3.41-3.54 5.17-6.88 5.94zm-137.2-.11l-1 5.34h14.62c.67 0 .86-.23 1-.85.76-4.2 1.57-8.39 2.34-12.58.2-1.1.36-2.2.55-3.4H36.11c-.35 0-.72-.08-.81.46-.25 1.57-.54 3.13-.83 4.83h9.63c-.38 2-.73 3.92-1.12 5.8 0 .16-.4.36-.62.36H38.5zm127.45-4a15.56 15.56 0 0 0 5.38-.49 4.69 4.69 0 0 0 1.15-.61 4.05 4.05 0 0 0 1.5-4.26 3.14 3.14 0 0 0-2.86-2.61 14.4 14.4 0 0 0-1.87-.27c-1.72-.09-1.72-.08-2 1.58-.47 2.17-.87 4.33-1.3 6.64zM190 26.49a4.52 4.52 0 0 1-4.65 4.51 4.56 4.56 0 1 1 .11-9.12 4.52 4.52 0 0 1 4.54 4.61zm-.92 0a3.6 3.6 0 0 0-3.61-3.83 3.77 3.77 0 0 0-.13 7.54 3.6 3.6 0 0 0 3.74-3.7z"/><path d="M187.3 28.86a.16.16 0 0 1 0 .07.13.13 0 0 1-.08 0L187 29h-.74a.17.17 0 0 1-.08-.06.31.31 0 0 1 0-.08l-.46-1.15q-.08-.19-.16-.35a1.1 1.1 0 0 0-.18-.25.64.64 0 0 0-.22-.15.78.78 0 0 0-.29-.05h-.33v2a.11.11 0 0 1 0 .07.18.18 0 0 1-.09.05H183.62a.17.17 0 0 1-.08-.05.12.12 0 0 1 0-.07v-4.72a.32.32 0 0 1 .09-.25.33.33 0 0 1 .22-.08h1.91a2.17 2.17 0 0 1 .56.15 1.34 1.34 0 0 1 .42.28 1.17 1.17 0 0 1 .26.41 1.49 1.49 0 0 1 .09.54 1.59 1.59 0 0 1-.07.47 1.21 1.21 0 0 1-.19.38 1.27 1.27 0 0 1-.31.29 1.7 1.7 0 0 1-.43.2 1.18 1.18 0 0 1 .22.14 1.14 1.14 0 0 1 .19.19 1.85 1.85 0 0 1 .17.26 3.32 3.32 0 0 1 .15.33l.43 1 .08.22a.42.42 0 0 1-.03.14zm-1.35-3.49a.76.76 0 0 0-.12-.43.63.63 0 0 0-.38-.25H184.52v1.46h.53a1.28 1.28 0 0 0 .39-.05.78.78 0 0 0 .28-.15.62.62 0 0 0 .17-.23.78.78 0 0 0 .06-.35z"/></svg>
