<svg fill="currentColor" viewBox="0 0 315 71" xmlns="http://www.w3.org/2000/svg">
    <path fill-rule="evenodd" clip-rule="evenodd" d="M70.8916 35.8184C70.8916 55.1483 55.2216 70.8184 35.8916 70.8184C16.5616 70.8184 0.891602 55.1483 0.891602 35.8184C0.891602 16.4884 16.5616 0.818359 35.8916 0.818359C55.2216 0.818359 70.8916 16.4884 70.8916 35.8184ZM24.8973 34.8621L30.342 14.2899V14.2783H43.6972L39.7041 29.4115L43.3824 27.995L41.5811 34.7455L37.9027 36.1271L35.6059 44.6847H55.7584L53.4616 53.4172H19.983L23.096 41.6475L19.3476 43.0641L21.1489 36.3136L24.8973 34.8621Z"/>
    <path d="M113.749 51.3075V56.9021H85.9764V10.7471H92.4368V51.3075H113.749Z"/>
    <path d="M126.307 56.9021H120.113V22.2692H126.307V56.9021ZM123.177 16.0086C122.067 16.0086 121.112 15.6534 120.313 14.943C119.558 14.1882 119.181 13.1892 119.181 11.9459C119.181 10.7027 119.558 9.72589 120.313 9.01547C121.112 8.26065 122.067 7.88324 123.177 7.88324C124.287 7.88324 125.22 8.26065 125.974 9.01547C126.774 9.72589 127.173 10.7027 127.173 11.9459C127.173 13.1892 126.774 14.1882 125.974 14.943C125.22 15.6534 124.287 16.0086 123.177 16.0086Z"/>
    <path d="M142.753 22.2692H155.874V27.4641H142.753V43.4485C142.753 45.1802 142.886 46.6232 143.153 47.7776C143.419 48.8877 143.819 49.7757 144.352 50.4417C144.885 51.0633 145.551 51.5073 146.35 51.7737C147.149 52.0401 148.081 52.1733 149.147 52.1733C151.012 52.1733 152.499 51.9735 153.609 51.5739C154.764 51.1299 155.563 50.8191 156.007 50.6415L157.206 55.7698C156.584 56.0806 155.496 56.458 153.942 56.9021C152.388 57.3905 150.612 57.6347 148.614 57.6347C146.261 57.6347 144.307 57.3461 142.753 56.7689C141.244 56.1472 140.023 55.237 139.09 54.0382C138.158 52.8394 137.492 51.3741 137.092 49.6425C136.737 47.8664 136.559 45.824 136.559 43.5151V12.612L142.753 11.5463V22.2692Z"/>
    <path d="M161.174 39.6522C161.174 36.5886 161.618 33.9245 162.506 31.66C163.394 29.3512 164.571 27.4419 166.036 25.9323C167.501 24.4226 169.188 23.2904 171.097 22.5356C173.007 21.7808 174.96 21.4034 176.958 21.4034C181.621 21.4034 185.195 22.8686 187.681 25.7991C190.168 28.6852 191.411 33.1031 191.411 39.0528C191.411 39.3192 191.411 39.6744 191.411 40.1184C191.411 40.518 191.389 40.8955 191.344 41.2507H167.634C167.901 44.8472 168.944 47.5778 170.764 49.4427C172.585 51.3075 175.427 52.2399 179.289 52.2399C181.465 52.2399 183.286 52.0623 184.751 51.7071C186.26 51.3075 187.393 50.9301 188.148 50.5749L189.013 55.7698C188.259 56.1694 186.926 56.5912 185.017 57.0353C183.152 57.4793 181.021 57.7013 178.623 57.7013C175.604 57.7013 172.985 57.2573 170.764 56.3692C168.589 55.4368 166.791 54.1714 165.37 52.5729C163.949 50.9745 162.883 49.0875 162.173 46.9118C161.507 44.6917 161.174 42.2719 161.174 39.6522ZM184.951 36.2555C184.995 33.4583 184.285 31.1716 182.819 29.3956C181.399 27.5751 179.423 26.6649 176.892 26.6649C175.471 26.6649 174.206 26.9535 173.096 27.5307C172.03 28.0635 171.12 28.774 170.365 29.662C169.61 30.55 169.011 31.5712 168.567 32.7257C168.167 33.8801 167.901 35.0567 167.767 36.2555H184.951Z"/>
    <path d="M215.361 57.7013C212.563 57.7013 210.099 57.2573 207.968 56.3692C205.881 55.4812 204.105 54.238 202.64 52.6395C201.219 51.0411 200.153 49.1541 199.443 46.9784C198.732 44.7584 198.377 42.3163 198.377 39.6522C198.377 36.9882 198.755 34.5461 199.509 32.326C200.309 30.106 201.419 28.1967 202.839 26.5983C204.26 24.9555 205.992 23.69 208.034 22.802C210.121 21.8696 212.43 21.4034 214.961 21.4034C216.515 21.4034 218.069 21.5366 219.623 21.803C221.177 22.0694 222.665 22.4912 224.085 23.0684L222.687 28.3299C221.754 27.8859 220.666 27.5307 219.423 27.2643C218.224 26.9979 216.937 26.8647 215.56 26.8647C212.097 26.8647 209.433 27.9525 207.568 30.1282C205.748 32.3038 204.837 35.4785 204.837 39.6522C204.837 41.5171 205.037 43.2265 205.437 44.7806C205.881 46.3346 206.547 47.6666 207.435 48.7766C208.367 49.8867 209.544 50.7525 210.965 51.3741C212.386 51.9513 214.117 52.2399 216.16 52.2399C217.803 52.2399 219.29 52.0845 220.622 51.7737C221.954 51.4629 222.998 51.1299 223.752 50.7747L224.618 55.9696C224.263 56.1916 223.752 56.4136 223.086 56.6356C222.42 56.8132 221.665 56.9687 220.822 57.1019C219.978 57.2795 219.068 57.4127 218.091 57.5015C217.159 57.6347 216.249 57.7013 215.361 57.7013Z"/>
    <path d="M260.993 39.5856C260.993 42.3385 260.593 44.825 259.794 47.045C258.994 49.2651 257.862 51.1743 256.397 52.7727C254.976 54.3712 253.267 55.6144 251.269 56.5024C249.271 57.3461 247.095 57.7679 244.742 57.7679C242.388 57.7679 240.213 57.3461 238.215 56.5024C236.217 55.6144 234.485 54.3712 233.02 52.7727C231.599 51.1743 230.489 49.2651 229.69 47.045C228.891 44.825 228.491 42.3385 228.491 39.5856C228.491 36.8772 228.891 34.4129 229.69 32.1928C230.489 29.9284 231.599 27.9969 233.02 26.3985C234.485 24.8001 236.217 23.579 238.215 22.7354C240.213 21.8474 242.388 21.4034 244.742 21.4034C247.095 21.4034 249.271 21.8474 251.269 22.7354C253.267 23.579 254.976 24.8001 256.397 26.3985C257.862 27.9969 258.994 29.9284 259.794 32.1928C260.593 34.4129 260.993 36.8772 260.993 39.5856ZM254.532 39.5856C254.532 35.6783 253.644 32.5925 251.868 30.328C250.136 28.0191 247.761 26.8647 244.742 26.8647C241.722 26.8647 239.325 28.0191 237.549 30.328C235.817 32.5925 234.951 35.6783 234.951 39.5856C234.951 43.4929 235.817 46.601 237.549 48.9099C239.325 51.1743 241.722 52.3065 244.742 52.3065C247.761 52.3065 250.136 51.1743 251.868 48.9099C253.644 46.601 254.532 43.4929 254.532 39.5856Z"/>
    <path d="M275.901 56.9021H269.707V22.2692H275.901V56.9021ZM272.771 16.0086C271.661 16.0086 270.706 15.6534 269.907 14.943C269.152 14.1882 268.775 13.1892 268.775 11.9459C268.775 10.7027 269.152 9.72589 269.907 9.01547C270.706 8.26065 271.661 7.88324 272.771 7.88324C273.881 7.88324 274.813 8.26065 275.568 9.01547C276.367 9.72589 276.767 10.7027 276.767 11.9459C276.767 13.1892 276.367 14.1882 275.568 14.943C274.813 15.6534 273.881 16.0086 272.771 16.0086Z"/>
    <path d="M286.552 23.2682C287.973 22.913 289.86 22.5356 292.214 22.136C294.567 21.7364 297.275 21.5366 300.339 21.5366C303.092 21.5366 305.379 21.9362 307.199 22.7354C309.019 23.4902 310.462 24.5781 311.528 25.9989C312.638 27.3753 313.415 29.0404 313.859 30.994C314.303 32.9477 314.525 35.1011 314.525 37.4544V56.9021H308.331V38.7864C308.331 36.6552 308.176 34.8347 307.865 33.3251C307.599 31.8154 307.132 30.5944 306.466 29.662C305.8 28.7296 304.912 28.0635 303.802 27.6639C302.692 27.2199 301.316 26.9979 299.673 26.9979C299.007 26.9979 298.319 27.0201 297.608 27.0645C296.898 27.1089 296.21 27.1755 295.544 27.2643C294.922 27.3087 294.345 27.3753 293.812 27.4641C293.324 27.5529 292.968 27.6195 292.746 27.6639V56.9021H286.552V23.2682Z"/>
</svg>
