<svg fill="currentColor" viewBox="0 0 321 71" xmlns="http://www.w3.org/2000/svg">
    <path d="M104.147 37.5558C104.147 38.0793 103.709 38.5053 103.186 38.5053H84.657C85.1196 43.0827 88.5648 47.2583 93.4099 47.2583C96.7212 47.2583 99.1803 45.9923 101.031 43.3505C101.299 42.9853 101.7 42.754 102.212 42.9731C102.492 43.0949 102.686 43.3505 102.735 43.6427C102.784 43.9471 102.699 44.1175 102.613 44.2879C100.751 47.5383 97.0377 49.1331 93.3978 49.1331C87.1648 49.1331 82.7213 43.5575 82.7213 37.5923C82.7213 31.6271 87.1648 26.0515 93.3978 26.0515C99.6308 26.0393 104.135 31.6028 104.147 37.5558ZM102.163 36.6549C101.761 32.0776 98.2551 27.9019 93.4099 27.9019C88.5648 27.9019 85.1196 32.0776 84.657 36.6549H102.163ZM126.632 26.5019C127.168 26.5019 127.558 26.9645 127.558 27.4271C127.558 27.9628 127.156 28.3524 126.632 28.3524H121.665V47.8427C121.665 48.3053 121.264 48.7679 120.74 48.7679C120.205 48.7679 119.815 48.3053 119.815 47.8427V28.3524H115.043C114.507 28.3524 114.118 27.9506 114.118 27.4271C114.118 26.9645 114.519 26.5019 115.043 26.5019H119.815V19.3681C119.815 18.9176 120.119 18.5037 120.558 18.4307C121.178 18.3333 121.665 18.7594 121.665 19.3437V26.5019H126.632ZM156.933 35.9245V47.7331C156.933 48.2688 156.47 48.6583 156.008 48.6583C155.472 48.6583 155.083 48.2566 155.083 47.7331V35.9245C155.083 31.9436 152.83 27.9628 148.387 27.9628C142.69 27.9628 140.231 32.9419 140.559 38.0427C140.559 38.1767 140.62 38.7732 140.62 38.834V47.6966C140.62 48.147 140.316 48.5609 139.877 48.634C139.257 48.7314 138.77 48.3053 138.77 47.7209V8.9351C138.77 8.47249 139.171 8.00989 139.695 8.00989C140.231 8.00989 140.62 8.47249 140.62 8.9351V30.8845C142.215 28.0358 145.064 26.1124 148.375 26.1124C153.817 26.1124 156.933 30.8845 156.933 35.9245ZM190.155 37.5558C190.155 38.0793 189.717 38.5053 189.194 38.5053H170.653C171.116 43.0827 174.561 47.2583 179.406 47.2583C182.717 47.2583 185.176 45.9923 187.027 43.3505C187.295 42.9853 187.696 42.754 188.208 42.9731C188.488 43.0949 188.682 43.3505 188.731 43.6427C188.78 43.9471 188.695 44.1175 188.609 44.2879C186.747 47.5383 183.034 49.1331 179.394 49.1331C173.161 49.1331 168.717 43.5575 168.717 37.5923C168.717 31.6271 173.161 26.0515 179.394 26.0515C185.639 26.0393 190.143 31.6028 190.155 37.5558ZM188.159 36.6549C187.757 32.0776 184.251 27.9019 179.406 27.9019C174.561 27.9019 171.116 32.0776 170.653 36.6549H188.159ZM212.896 27.3663C212.896 27.9628 212.567 28.2915 212.032 28.3645C206.59 29.1558 204.143 33.5993 204.143 38.7732V47.6357C204.143 48.0861 203.839 48.5001 203.401 48.5731C202.78 48.6705 202.293 48.2444 202.293 47.6601V27.4637C202.293 27.0132 202.597 26.5993 203.035 26.5263C203.656 26.4289 204.143 26.855 204.143 27.4393V31.5541C205.665 28.9732 208.721 26.5141 211.898 26.5141C212.36 26.5019 212.896 26.8428 212.896 27.3663ZM243.331 37.5558C243.331 38.0793 242.892 38.5053 242.369 38.5053H223.84C224.303 43.0827 227.748 47.2583 232.593 47.2583C235.905 47.2583 238.364 45.9923 240.214 43.3505C240.482 42.9853 240.884 42.754 241.395 42.9731C241.675 43.0949 241.87 43.3505 241.919 43.6427C241.967 43.9471 241.882 44.1175 241.797 44.2879C239.934 47.5383 236.221 49.1331 232.581 49.1331C226.348 49.1331 221.905 43.5575 221.905 37.5923C221.905 31.6271 226.348 26.0515 232.581 26.0515C238.814 26.0393 243.319 31.6028 243.331 37.5558ZM241.346 36.6549C240.945 32.0776 237.439 27.9019 232.593 27.9019C227.748 27.9019 224.303 32.0776 223.84 36.6549H241.346ZM273.242 27.5976V47.8427C273.242 48.3783 272.779 48.7679 272.317 48.7679C271.781 48.7679 271.391 48.3662 271.391 47.8427V43.9958C269.87 47.0514 267.143 49.2305 263.698 49.2305C258.195 49.2305 255.139 44.4583 255.139 39.4184V27.5489C255.139 27.0863 255.541 26.6237 256.065 26.6237C256.6 26.6237 256.99 27.0863 256.99 27.5489V39.4184C256.99 43.3992 259.242 47.3801 263.685 47.3801C269.918 47.3801 271.379 41.5488 271.379 35.1088V27.5489C271.379 27.0132 271.915 26.4654 272.572 26.6602C272.974 26.7941 273.242 27.1837 273.242 27.5976ZM320.111 35.8514V47.7209C320.111 48.2566 319.649 48.6461 319.186 48.6461C318.65 48.6461 318.261 48.2444 318.261 47.7209V35.8514C318.261 31.8706 316.009 27.9628 311.565 27.9628C305.989 27.9628 303.871 33.928 303.871 38.5662V47.7209C303.871 48.2566 303.409 48.6461 302.946 48.6461C302.41 48.6461 302.021 48.2444 302.021 47.7209V35.8514C302.021 31.8706 299.769 27.9628 295.325 27.9628C289.689 27.9628 287.363 32.4062 287.57 38.3106C287.57 38.4445 287.631 38.7123 287.57 38.7732V47.6966C287.57 48.147 287.266 48.5609 286.816 48.634C286.195 48.7314 285.708 48.3053 285.708 47.7209V27.4637C285.708 27.0132 286.012 26.5993 286.45 26.5263C287.071 26.4289 287.558 26.855 287.558 27.4393V30.8237C289.153 27.975 292.002 26.1124 295.313 26.1124C299.087 26.1124 302.009 28.4985 303.202 32.0167C304.723 28.5715 307.706 26.1124 311.553 26.1124C316.995 26.1124 320.111 30.8115 320.111 35.8514Z"/>
    <path fill-rule="evenodd" clip-rule="evenodd" d="M70.8916 35.9708C70.8916 55.3007 55.2216 70.9708 35.8916 70.9708C16.5616 70.9708 0.891602 55.3007 0.891602 35.9708C0.891602 16.6408 16.5616 0.970764 35.8916 0.970764C55.2216 0.970764 70.8916 16.6408 70.8916 35.9708ZM36.2687 8.25002V28.5207L53.0926 36.1752L36.2687 8.25002ZM35.8852 29.2641L18.5413 37.1521L35.8852 47.3989L53.2224 37.1521L35.8852 29.2641ZM35.5216 63.6915L18.5018 39.7139L35.5216 49.7693V63.6915ZM36.2549 49.7693V63.6915L53.2814 39.7139L36.2549 49.7693ZM35.5211 28.5086L18.7007 36.1584L35.5211 8.24998V28.5086Z"/>
</svg>
