<svg fill="currentColor" viewBox="0 0 317 71" xmlns="http://www.w3.org/2000/svg">
    <path fill-rule="evenodd" clip-rule="evenodd" d="M27.4267 69.8536C46.1789 74.5293 65.1695 63.1183 69.8441 44.3684C74.5188 25.6173 63.1089 6.62343 44.3578 1.94879C25.6112 -2.72585 6.62054 8.68621 1.94808 27.4384C-2.72874 46.1872 8.68225 65.1789 27.4267 69.8536ZM43.6295 22.0845C48.478 23.7547 52.0239 26.2583 51.3272 30.9154C50.823 34.3246 48.933 35.975 46.424 36.5536C49.8693 38.3474 51.6225 41.0981 49.9524 45.8668C47.8798 51.7894 42.9558 52.2892 36.4075 51.05L34.8183 57.4189L30.9782 56.4619L32.5466 50.1783C31.5513 49.9311 30.5342 49.6686 29.4864 49.3843L27.9125 55.6973L24.0767 54.7403L25.6659 48.3594C25.3075 48.2676 24.9468 48.1736 24.5836 48.0788C24.0379 47.9365 23.4864 47.7927 22.9283 47.6529L17.931 46.4071L19.8374 42.0114C19.8374 42.0114 22.6669 42.7639 22.6286 42.7081C23.7158 42.9771 24.1981 42.2684 24.3884 41.7959L26.8997 31.728C26.9938 31.7506 27.0859 31.7737 27.1748 31.796C27.2192 31.8072 27.2628 31.8181 27.3055 31.8287C27.1523 31.7674 27.0134 31.728 26.9062 31.7007L28.6978 24.5137C28.7448 23.6978 28.4637 22.6686 26.9084 22.2803C26.9686 22.2398 24.1194 21.5869 24.1194 21.5869L25.1409 17.4854L30.4368 18.8077L30.4324 18.8274C31.2287 19.0254 32.049 19.2135 32.8846 19.4038L34.4585 13.0973L38.2964 14.0543L36.7542 20.2372C37.7845 20.4724 38.8214 20.7097 39.831 20.9613L41.3622 14.8188L45.2023 15.7759L43.6295 22.0845ZM31.483 44.9576C34.6164 45.7852 41.4645 47.5939 42.5532 43.2189C43.6689 38.7455 37.0273 37.2552 33.7865 36.528C33.4244 36.4467 33.1047 36.375 32.843 36.3097L30.7343 44.7632C30.9492 44.8166 31.201 44.8831 31.483 44.9576ZM34.4376 32.605C37.0501 33.3022 42.7485 34.8229 43.741 30.8465C44.7547 26.7792 39.2163 25.5532 36.5115 24.9544C36.2072 24.887 35.9388 24.8276 35.7196 24.773L33.8077 32.4401C33.9883 32.4851 34.2002 32.5416 34.4376 32.605Z"/>
    <path d="M111.282 19.6151C113.791 19.6151 115.959 20.0648 117.781 20.9477C119.612 21.8392 121.122 23.0403 122.334 24.5508C123.529 26.069 124.419 27.8434 124.993 29.8771C125.564 31.9165 125.85 34.1087 125.85 36.4557C125.85 40.0607 125.189 43.4665 123.856 46.677C122.522 49.8923 120.713 52.6812 118.412 55.06C116.112 57.436 113.397 59.3091 110.265 60.6929C107.139 62.0777 103.74 62.77 100.091 62.77C99.6186 62.77 98.7889 62.7565 97.6169 62.7323C96.4449 62.7082 95.0978 62.5873 93.5893 62.3832C92.0711 62.1714 90.4658 61.8581 88.7707 61.4385C87.0764 61.0265 85.4673 60.4492 83.952 59.7162L97.5018 2.78234L109.638 0.901489L104.786 21.1053C105.825 20.6373 106.871 20.2746 107.916 20.0106C108.961 19.7505 110.083 19.6151 111.282 19.6151ZM101.102 53.1424C102.93 53.1424 104.652 52.6928 106.27 51.8099C107.892 50.926 109.293 49.7328 110.466 48.2465C111.639 46.7534 112.567 45.0718 113.244 43.1929C113.921 41.314 114.263 39.3538 114.263 37.3144C114.263 34.8088 113.844 32.8545 113.01 31.4417C112.175 30.0347 110.631 29.3268 108.388 29.3268C107.654 29.3268 106.707 29.467 105.533 29.7175C104.355 29.9834 103.301 30.5356 102.356 31.3663L97.1904 52.8224C97.5018 52.8775 97.7774 52.9297 98.0124 52.979C98.2425 53.0322 98.4969 53.0699 98.7502 53.096C99.0181 53.126 99.3246 53.1415 99.695 53.1415C100.065 53.1415 100.529 53.1424 101.102 53.1424Z"/>
    <path d="M138.435 61.6802H126.844L136.633 20.4883H148.304L138.435 61.6802ZM144.076 15.4695C142.458 15.4695 140.991 14.9879 139.69 14.0229C138.377 13.0636 137.728 11.587 137.728 9.59685C137.728 8.50219 137.95 7.4752 138.391 6.50626C138.839 5.53924 139.424 4.70666 140.157 3.9988C140.889 3.29675 141.737 2.73587 142.7 2.31329C143.669 1.89747 144.7 1.68958 145.798 1.68958C147.415 1.68958 148.874 2.17115 150.181 3.13623C151.482 4.10614 152.137 5.58277 152.137 7.56225C152.137 8.66077 151.916 9.69161 151.471 10.6586C151.029 11.6256 150.444 12.4582 149.711 13.1661C148.985 13.8691 148.129 14.428 147.168 14.8467C146.198 15.2693 145.171 15.4695 144.076 15.4695Z"/>
    <path d="M158.462 10.2254L170.603 8.34454L167.622 20.4864H180.624L178.276 30.0385H165.352L161.91 44.447C161.593 45.6481 161.413 46.7698 161.362 47.8122C161.305 48.8595 161.438 49.7588 161.751 50.516C162.062 51.2751 162.622 51.8602 163.435 52.274C164.243 52.6947 165.401 52.9065 166.919 52.9065C168.169 52.9065 169.388 52.7875 170.565 52.5516C171.736 52.3195 172.923 51.9965 174.124 51.5739L174.989 60.5053C173.422 61.0797 171.726 61.5738 169.898 61.9896C168.068 62.4112 165.901 62.6143 163.396 62.6143C159.795 62.6143 157.003 62.0796 155.014 61.0149C153.028 59.9425 151.624 58.4774 150.783 56.6227C149.955 54.7747 149.584 52.6444 149.688 50.2443C149.795 47.8384 150.158 45.3096 150.783 42.6465L158.462 10.2254Z"/>
    <path d="M180.114 45.2313C180.114 41.6833 180.688 38.3375 181.836 35.2053C182.982 32.0703 184.633 29.3288 186.775 26.976C188.909 24.6349 191.509 22.7802 194.57 21.4186C197.616 20.0648 201.026 19.3821 204.785 19.3821C207.138 19.3821 209.239 19.6045 211.088 20.0503C212.945 20.5 214.625 21.0811 216.144 21.8103L212.146 30.9002C211.102 30.4766 210.018 30.1034 208.897 29.7649C207.775 29.4197 206.406 29.2534 204.786 29.2534C200.917 29.2534 197.858 30.5869 195.582 33.2452C193.314 35.9054 192.172 39.4863 192.172 43.9781C192.172 46.6403 192.747 48.7928 193.9 50.4397C195.046 52.0865 197.165 52.9055 200.241 52.9055C201.759 52.9055 203.224 52.747 204.628 52.4375C206.041 52.1242 207.29 51.7296 208.389 51.2635L209.255 60.5817C207.789 61.1503 206.172 61.6638 204.398 62.1134C202.621 62.5476 200.505 62.7729 198.052 62.7729C194.813 62.7729 192.072 62.2991 189.829 61.366C187.586 60.4183 185.732 59.1602 184.272 57.5665C182.804 55.969 181.75 54.1037 181.098 51.9627C180.446 49.8237 180.114 47.5763 180.114 45.2313Z"/>
    <path d="M231.607 62.7729C228.841 62.7729 226.438 62.3513 224.399 61.5168C222.366 60.6822 220.683 59.5112 219.351 57.993C218.018 56.4825 217.02 54.6926 216.336 52.6299C215.653 50.5683 215.324 48.2851 215.324 45.7835C215.324 42.6455 215.828 39.5085 216.846 36.3802C217.859 33.2452 219.363 30.4283 221.353 27.9247C223.328 25.4172 225.764 23.3671 228.632 21.7687C231.497 20.1808 234.793 19.3821 238.494 19.3821C241.211 19.3821 243.601 19.8047 245.668 20.6392C247.724 21.4718 249.419 22.6525 250.758 24.163C252.083 25.6812 253.089 27.4634 253.766 29.529C254.448 31.5868 254.785 33.8757 254.785 36.3793C254.785 39.5076 254.288 42.6446 253.301 45.7825C252.314 48.905 250.849 51.7287 248.915 54.2381C246.985 56.7417 244.571 58.7908 241.672 60.3825C238.777 61.9742 235.419 62.7729 231.607 62.7729ZM237.401 29.2543C235.682 29.2543 234.163 29.7533 232.862 30.7387C231.557 31.7357 230.46 32.9889 229.577 34.5004C228.683 36.0186 228.021 37.6741 227.573 39.4737C227.129 41.2772 226.911 42.9821 226.911 44.6018C226.911 47.2156 227.333 49.2512 228.162 50.7162C229.002 52.1735 230.512 52.9065 232.706 52.9065C234.43 52.9065 235.941 52.4114 237.25 51.4154C238.548 50.4261 239.645 49.1719 240.536 47.6575C241.423 46.1471 242.092 44.4867 242.539 42.6842C242.977 40.8865 243.201 39.172 243.201 37.5552C243.201 34.9481 242.781 32.9077 241.945 31.4446C241.109 29.9873 239.593 29.2543 237.401 29.2543Z" />
    <path d="M267.416 61.6802H255.815L265.604 20.4883H277.28L267.416 61.6802ZM273.048 15.4695C271.431 15.4695 269.965 14.9879 268.665 14.0229C267.36 13.0636 266.704 11.587 266.704 9.59685C266.704 8.50219 266.929 7.4752 267.371 6.50626C267.813 5.53924 268.402 4.70666 269.135 3.9988C269.863 3.29675 270.719 2.73587 271.68 2.31329C272.643 1.89747 273.674 1.68958 274.769 1.68958C276.39 1.68958 277.854 2.17115 279.157 3.13623C280.462 4.10614 281.12 5.58277 281.12 7.56225C281.12 8.66077 280.886 9.69161 280.448 10.6586C280.01 11.6256 279.421 12.4582 278.691 13.1661C277.956 13.8691 277.111 14.428 276.148 14.8467C275.177 15.2693 274.148 15.4695 273.048 15.4695Z"/>
    <path d="M285.634 22.3614C286.514 22.1042 287.497 21.7948 288.565 21.4582C289.638 21.1217 290.836 20.8084 292.174 20.526C293.498 20.235 294.992 19.999 296.635 19.8162C298.278 19.6296 300.15 19.5387 302.23 19.5387C308.344 19.5387 312.558 21.319 314.885 24.8689C317.209 28.4188 317.612 33.2771 316.103 39.435L310.771 61.6763H299.103L304.271 39.9031C304.586 38.5434 304.834 37.2292 305.016 35.9451C305.201 34.6725 305.19 33.5507 304.975 32.5799C304.769 31.6206 304.283 30.8354 303.53 30.2271C302.765 29.6285 301.609 29.3278 300.042 29.3278C298.53 29.3278 296.993 29.4903 295.423 29.8036L287.826 61.6753H276.153L285.634 22.3614Z"/>
</svg>

