<svg viewBox="0 0 249 249" fill="currentColor" xmlns="http://www.w3.org/2000/svg"><title>INTERAC®</title><path fill-rule="evenodd" clip-rule="evenodd" d="M227.5 0.9457H21.5C18.7884 0.941794 16.1027 1.47292 13.5967 2.50881C11.0908 3.5447 8.81388 5.06484 6.89652 6.9822C4.9791 8.89956 3.45896 11.1765 2.42307 13.6825C1.38725 16.1884 0.856058 18.8742 0.860025 21.5857V227.586C0.854715 230.298 1.38499 232.984 2.42039 235.49C3.45579 237.997 4.97593 240.275 6.89359 242.192C8.8112 244.11 11.0887 245.63 13.5952 246.665C16.1017 247.701 18.7881 248.231 21.5 248.226H227.5C230.212 248.23 232.897 247.699 235.403 246.663C237.909 245.627 240.186 244.107 242.103 242.189C244.021 240.272 245.541 237.995 246.577 235.489C247.613 232.983 248.144 230.297 248.14 227.586V21.5857C248.144 18.8742 247.613 16.1884 246.577 13.6825C245.541 11.1765 244.021 8.89956 242.103 6.9822C240.186 5.06484 237.909 3.5447 235.403 2.50881C232.897 1.47292 230.212 0.941794 227.5 0.9457ZM229.042 54.8321C230.291 55.6645 231.759 56.1077 233.26 56.1057V56.0957C234.256 56.0957 235.243 55.8993 236.163 55.5177C237.083 55.1361 237.919 54.5769 238.623 53.872C239.327 53.1671 239.886 52.3303 240.266 51.4094C240.646 50.4887 240.841 49.502 240.84 48.5056C240.838 47.0045 240.391 45.5376 239.555 44.2905C238.72 43.0435 237.533 42.0723 236.145 41.4997C234.758 40.927 233.231 40.7787 231.759 41.0735C230.288 41.3683 228.936 42.0929 227.876 43.1558C226.816 44.2186 226.095 45.572 225.804 47.0447C225.513 48.5175 225.665 50.0434 226.242 51.4295C226.818 52.8156 227.792 53.9998 229.042 54.8321ZM229.57 42.9954C230.662 42.2654 231.946 41.8756 233.26 41.8756C234.131 41.8744 234.995 42.0448 235.8 42.3775C236.606 42.7101 237.338 43.1983 237.955 43.814C238.571 44.4298 239.061 45.1612 239.394 45.9662C239.728 46.7713 239.9 47.6342 239.9 48.5056C239.902 49.8194 239.514 51.1041 238.786 52.1974C238.057 53.2907 237.021 54.1432 235.808 54.6474C234.595 55.1515 233.259 55.2843 231.971 55.0293C230.682 54.7742 229.498 54.1426 228.568 53.2144C227.639 52.2862 227.005 51.103 226.748 49.8147C226.491 48.5265 226.622 47.1908 227.124 45.977C227.627 44.7631 228.478 43.7255 229.57 42.9954ZM223.29 61.8258C208.21 65.2357 204.75 75.9358 205.21 89.4258H205.13C205.6 103.256 208.59 112.056 223.81 108.486C234.88 105.906 240.81 98.8557 240.81 87.6658V85.8258L229.06 88.6057V90.8657C228.99 94.2858 228.38 98.1958 223.93 99.1157C218.8 100.186 217.63 96.2858 217.63 87.7457V83.8258C217.63 75.4258 219.43 71.2058 223.88 70.0857C227.62 69.1458 229.05 71.1057 229.05 76.2658V77.8958L240.82 75.1057V74.3058C240.82 69.9558 240.22 66.9657 238.37 64.5558C236.52 62.1458 232.88 59.6558 223.29 61.8258ZM138.93 82.9857V127.256L151.18 124.416V99.9757C151.18 94.3457 153.33 90.6657 157.6 88.9757C159.518 88.1735 161.571 87.7459 163.65 87.7157V76.4257C162.579 76.2295 161.476 76.3017 160.44 76.6358C153.5 78.4057 150.5 86.0457 150.5 86.0457V80.2357L138.93 82.9857ZM76.13 128.876C76.13 138.836 78.01 141.656 78.01 141.656L91.14 138.586C91.14 138.586 88.43 136.586 88.47 126.416V103.976L97.15 101.906V92.8357L88.47 94.9058V85.0058L76.18 87.9058V97.8058L70.18 99.2157V108.296L76.13 106.876V128.876ZM98.4 115.316C98.4 107.446 99.52 101.696 101.93 97.3157C104.79 92.0857 109.48 88.6757 116.32 87.1156C129.8 84.0557 134.67 92.0357 134.48 102.736C134.41 106.556 134.48 108.426 134.48 108.426L110.73 114.006V114.386C110.73 121.866 112.29 125.386 117.03 124.386C121.12 123.526 122.26 120.956 122.59 117.786C122.59 117.276 122.66 115.976 122.66 115.976L133.79 113.316V115.246C133.69 119.496 132.46 130.036 116.99 133.686C102.35 137.166 98.44 128.216 98.44 115.316H98.4ZM116.86 95.3157C112.92 96.2057 110.86 100.066 110.77 106.466L122.77 103.616V101.696C122.77 96.8656 121.25 94.3157 116.89 95.3157H116.86ZM164.5 108.296C164.5 98.0457 170.5 94.8057 179.55 91.0557C187.68 87.6957 187.86 86.0557 187.89 83.0557C187.94 80.5957 186.79 78.4857 182.75 79.5156C181.399 79.7893 180.179 80.5106 179.288 81.5631C178.397 82.6155 177.887 83.9376 177.84 85.3157C177.777 86.0706 177.753 86.8283 177.77 87.5857L166.37 90.2757C166.289 88.0026 166.552 85.7302 167.15 83.5357C168.98 77.4057 174.39 73.2757 183.72 71.1157C195.85 68.3257 199.9 73.6457 199.91 81.9257V101.586C199.91 111.076 201.67 112.466 201.67 112.466L190.5 115.106C189.882 113.82 189.38 112.481 189 111.106C189 111.106 186.55 117.286 178.09 119.266C169.22 121.366 164.52 115.866 164.52 108.266L164.5 108.296ZM187.83 94.2656C185.927 95.5878 183.92 96.7549 181.83 97.7556C178.1 99.5757 176.41 101.826 176.41 105.286C176.41 108.286 178.27 110.286 181.64 109.426C185.27 108.506 187.78 105.126 187.78 100.426L187.83 94.2656ZM10.0974 171.709C11.2071 172.36 12.4731 172.698 13.76 172.686L13.71 172.696C14.2005 172.696 14.6897 172.646 15.17 172.546C16.1 172.346 20.63 171.306 24.42 170.396L24.68 170.336V157.646L7.97001 161.586H7.83L7.75999 161.686C7.05302 162.761 6.65165 164.008 6.59873 165.294C6.54588 166.58 6.84342 167.856 7.4597 168.986C8.07597 170.116 8.98771 171.057 10.0974 171.709ZM13.76 188.926C12.4704 188.945 11.2002 188.611 10.0863 187.961C8.97245 187.311 8.05729 186.369 7.43974 185.237C6.82218 184.105 6.52555 182.825 6.58201 181.537C6.63847 180.248 7.04575 179 7.75999 177.926L7.83 177.806H7.97001L24.68 173.866V186.586L24.42 186.656L24.0947 186.734C20.3751 187.627 16.0735 188.66 15.17 188.796C14.6894 188.892 14.2002 188.939 13.71 188.936L13.76 188.926ZM8.74595 203.117C10.0766 204.446 11.8795 205.193 13.76 205.196V205.166C14.2499 205.164 14.7387 205.117 15.2199 205.026C16.02 204.876 20.47 203.876 24.47 202.876L24.73 202.806V190.116L7.87998 194.116L7.80998 194.246C7.05674 195.392 6.6569 196.734 6.65995 198.106C6.66526 199.986 7.41532 201.788 8.74595 203.117ZM11.79 157.136L11.78 86.1157L24.73 83.0557V154.076L11.79 157.136ZM41.6968 145.439C43.1971 146.939 44.04 148.974 44.04 151.096H44.06V189.196C44.06 189.652 44.2412 190.089 44.5638 190.412C44.8863 190.735 45.3238 190.916 45.78 190.916C46.2362 190.916 46.6737 190.735 46.9962 190.412C47.3188 190.089 47.5 189.652 47.5 189.196V158.106L67.64 171.796C69.0697 172.752 70.2412 174.046 71.0506 175.564C71.86 177.082 72.2823 178.776 72.28 180.496V211.386V239.106H49.66C43.9283 239.093 38.4354 236.809 34.3834 232.755C30.3314 228.701 28.0505 223.207 28.04 217.476V151.096C28.04 148.974 28.8829 146.939 30.3831 145.439C31.8834 143.939 33.9183 143.096 36.04 143.096C38.1617 143.096 40.1965 143.939 41.6968 145.439ZM54.83 101.586C52.3798 102.153 50.0811 103.243 48.0911 104.78C46.1011 106.318 44.4668 108.268 43.3 110.496V105.496L31.64 108.256V140.126C33.6844 139.317 35.9128 139.089 38.0785 139.469C40.2441 139.848 42.2625 140.82 43.91 142.276V121.686C43.91 116.756 46.37 112.816 49.91 112.046C52.55 111.466 54.75 112.406 54.75 117.106V147.106L67.03 144.226V112.486C67.03 104.786 64.03 99.3958 54.84 101.566L54.83 101.586ZM230.5 43.9957H233.77C234.333 43.9369 234.897 44.1039 235.338 44.46C235.778 44.8162 236.06 45.3325 236.12 45.8958C236.124 45.9249 236.127 45.9542 236.129 45.9835C236.131 46.0127 236.133 46.0419 236.134 46.0711C236.137 46.1728 236.133 46.2747 236.12 46.3758C236.12 47.5757 235.59 48.5058 234.57 48.6657C235.49 48.7658 235.98 49.2658 236.02 50.5757C236.02 51.1558 236.02 51.8858 236.08 52.4557C236.085 52.6144 236.127 52.7698 236.203 52.9088C236.28 53.048 236.388 53.1669 236.52 53.2558H234.85C234.688 53.0128 234.601 52.7277 234.6 52.4357C234.6 51.8758 234.6 51.3557 234.53 50.6857C234.53 49.6857 234.2 49.2357 233.18 49.2357H231.97V53.2357H230.5V43.9957ZM233.16 48.1258C233.338 48.1422 233.517 48.1236 233.688 48.0706C233.859 48.0177 234.017 47.9317 234.155 47.8175C234.292 47.7033 234.406 47.563 234.489 47.4049C234.572 47.2467 234.624 47.0738 234.64 46.8958C234.65 46.8061 234.65 46.7155 234.64 46.6258C234.64 45.6258 234.21 45.1157 233.24 45.1157H231.97V48.1157L233.16 48.1258Z"/>   </svg>
