<svg data-name="Layer 1" xmlns="http://www.w3.org/2000/svg" viewBox="0 0 120 40" fill="currentColor"><title>skrill</title><path d="M28.47 4.27v8.44l-.56-.21a34.21 34.21 0 0 0-8.72-2.19 15.79 15.79 0 0 0-5.31.08 5.79 5.79 0 0 0-1.53.56A2.49 2.49 0 0 0 11 13.58a2.41 2.41 0 0 0 1.71 2.08 8.88 8.88 0 0 0 2.7.47 22.55 22.55 0 0 1 7.5 1.71 11.7 11.7 0 0 1 5.56 4.6 10.85 10.85 0 0 1-1.52 13 14.47 14.47 0 0 1-7.07 3.9 26.73 26.73 0 0 1-7.8.65c-1.62-.07-3.23-.17-4.84-.31A39.48 39.48 0 0 1 1 38.56a.4.4 0 0 1-.24-.28v-8.29a.74.74 0 0 1 0-.13 1.42 1.42 0 0 1 .22 0 31.9 31.9 0 0 0 8.47 1.9 18.26 18.26 0 0 0 5.08-.11 6.63 6.63 0 0 0 2.43-.9 2.78 2.78 0 0 0 1.29-3A2.3 2.3 0 0 0 16.62 26a8.89 8.89 0 0 0-2.1-.43A24.36 24.36 0 0 1 7.11 24a10.8 10.8 0 0 1-6.22-5.7A11 11 0 0 1 5.3 4.61a16 16 0 0 1 6.44-2.19 37.12 37.12 0 0 1 7.49-.09 33.91 33.91 0 0 1 8.88 1.81zM42.78 39.57H32.5v-.38V4.56c0-.32.1-.41.41-.47 3.23-.61 6.45-1.24 9.68-1.86h.19v19.4h.09l.21-.23a33.54 33.54 0 0 0 5.29-8.86.5.5 0 0 1 .56-.37h11.32c-.07.23-.12.42-.18.61a43.74 43.74 0 0 1-6.83 12.4.43.43 0 0 0 0 .57 91.4 91.4 0 0 1 5.23 10.42c.44 1.08.81 2.19 1.23 3.36H47.74c-.33 0-.45-.09-.53-.4A37.6 37.6 0 0 0 43.67 30c-.25-.45-.53-.87-.79-1.31h-.1zM110.08 39.57V3.92L120 2.19v37.38zM105.41 2.2v37.36h-9.9v-.42V4.35c0-.37.13-.46.48-.52 2.78-.47 5.56-1 8.34-1.45zM78.22 12v7.91c-.72.08-1.42.13-2.12.24a9.05 9.05 0 0 0-1.52.38A3.8 3.8 0 0 0 72 23.81a17.78 17.78 0 0 0-.21 2.54V39.56h-10v-.31-15.59A12 12 0 0 1 63.53 17a10 10 0 0 1 5-3.9 21.52 21.52 0 0 1 9.26-1.23h.14zM81.28 39.57v-27.3h9.91v27.3zM91.13 4.78a4.9 4.9 0 0 1-9.8 0 4.9 4.9 0 0 1 9.8 0z"/></svg>
