<svg data-name="Layer 1" xmlns="http://www.w3.org/2000/svg" viewBox="0 0 512 102.18" fill="currentColor"><path d="M89.79 27.5h16.52l-6.87 21.8c-5.07 16.05-10.18 32.1-15.15 48.2-.62 2-1.49 2.66-3.54 2.58-3.88-.16-7.77-.13-11.66 0-1.75.05-2.43-.5-2.86-2.25-4-16.19-8.13-32.33-12.23-48.46-.2-.79-.46-1.56-.92-3.09-3.47 13.9-6.74 27-10 40.12-1 3.86-1.82 7.74-2.92 11.56-.24.82-1.32 1.95-2 2-5.1.17-10.21.09-15.5.09L0 27.39c5.71 0 11-.08 16.21.11.61 0 1.45 1.5 1.7 2.43q6.4 24 12.66 48c.24.91.51 1.82 1 3.47.73-2.62 1.31-4.56 1.81-6.53 3.82-15 7.65-30.08 11.38-45.15.44-1.77 1.08-2.49 3-2.43 4.54.14 9.08 0 14 0L74.6 80.44h.66zM444.21 41.61a81.22 81.22 0 0 1 5.35-6.87 31.34 31.34 0 0 1 45.73 1c.1.11.3.12.74.28V.09h16v99.77h-14.81V90.7c-.67.47-1 .59-1.18.84-4.46 6.88-11.18 9.78-19 10.28-20.91 1.32-35.13-11.31-36.86-32.26a58.19 58.19 0 0 1 4.11-28zm52.38 22.79c0-6.27-.78-11.58-3.46-16.43-3.62-6.58-9.32-9.79-16.77-9.75s-13.29 3.19-16.59 10c-4.78 9.79-5.15 19.92-.73 29.93 3.15 7.14 8.92 11 16.75 11.14s13.48-3.28 17.17-10a30.66 30.66 0 0 0 3.63-14.89zM326.43 49.75c.67-9.87 5-17 13.75-20.63a47.1 47.1 0 0 1 35.76-.7c8.91 3.37 13 9.74 13 19.29v33.28c0 7.76 0 7.76 7.77 8.38 0 3.17.06 6.38-.06 9.58 0 .55-.74 1.5-1.21 1.55-4.48.43-9 1.19-13.47.9-4.27-.27-6.82-3.37-8-7.82-1.19.84-2.19 1.65-3.28 2.3-10.38 6.23-21.42 7.93-33 4.21-9-2.88-14.09-10.33-14-19.57.05-10 4.58-16.88 14.17-19.52 7.35-2 15-2.78 22.59-4.13 2.6-.47 5.23-.86 7.77-1.56a6.76 6.76 0 0 0 5.38-5.94c.42-3.44-.53-6.38-3.48-8.46-5.57-3.92-18.06-3.76-23.18.71-1.8 1.57-2.64 4.21-4 6.3-.48.72-1.27 1.73-1.95 1.75-4.76.16-9.49.08-14.56.08zm46.11 15.05c-4.76.84-9.21 1.53-13.62 2.43s-9 1.59-13.15 3.15c-4.36 1.62-6 5.54-5.73 10.11.25 4.12 3.1 6.08 6.57 7.31a22.75 22.75 0 0 0 20.15-2c3.13-1.88 5.46-4.61 5.71-8.35.28-4.28.06-8.64.06-12.64zM193.49 67.97c-.5 16 14 25.83 28.23 19.6a15.14 15.14 0 0 0 8-8.41 2.68 2.68 0 0 1 3-1.93c4.25.11 8.51 0 13 0a16.84 16.84 0 0 1-.34 2.28 29.6 29.6 0 0 1-13.07 17.25c-14 8.72-34.48 6.43-45.61-5.22-5.36-5.61-8-12.55-9-20.12-1.63-11.88 0-23.14 7.56-32.83 8.77-11.3 20.69-15.05 34.39-12.39s22.1 11.58 25.9 24.68c1.32 4.55 1.21 9.51 1.72 14.29.23 2.21-.83 2.83-3 2.82-15.73-.09-31.46 0-47.19 0zm37.08-10.75c-.7-11.87-9.62-20.18-20-18.95-10 1.19-18.26 10.44-16.8 18.95zM319.67 51.75c-5.19 0-10 0-14.84-.06a2.28 2.28 0 0 1-1.65-1.36c-1.83-7.41-6.74-11.22-14.09-12-7.19-.74-13.37 1.41-17.62 7.54-6.16 8.9-6.23 26.22-.27 35.28 4.11 6.26 10 8.83 17.34 7.9 7.51-1 12.15-5.61 13.93-12.76.76-3 2-3.87 4.92-3.68 4 .27 7.93.07 11.89.07.11 10.64-8.15 22.69-18.47 26.64a39.17 39.17 0 0 1-29.43-.07c-13.66-5.52-19.38-16.82-20.56-30.8a46.69 46.69 0 0 1 3.29-22.56c5.3-12.45 14.95-19 28.21-20.23 7.45-.71 14.78.07 21.66 3.31 9.48 4.46 14.5 12.05 15.69 22.78zM138.57 27.5h14.81v12.48c6.28-10.82 15.13-16 27.84-14.08v15.36c-2.16-.15-4.19-.37-6.23-.4-8.3-.12-14.89 3.81-17.7 11.64a48 48 0 0 0-2.57 14.39c-.37 10.88-.12 21.79-.12 32.91h-16z"/><path d="M444.3 41.5l-.83-.14c-16-2.16-25.79 6.26-26 22.61-.12 10.9 0 21.79 0 32.69v3.19h-16V27.56h14.76v12.31l.51.13c.3-.5.63-1 .89-1.5a24.29 24.29 0 0 1 24.54-12.93c1.62.2 2 .9 2 2.39 0 4.54 0 9.09.07 13.63zM112.08 27.5h15.85v72.39h-15.85zM112.13 0H128v15.76h-15.87z"/></svg>
