<svg data-name="Layer 1" xmlns="http://www.w3.org/2000/svg" viewBox="0 0 200 53" fill="currentColor"><title>yandexmoney</title><path d="M86.18 53v-6.46V.81 0h98.51c0 .09.08.19.13.28L199.75 26a3.77 3.77 0 0 0 .25.34v.25c-.13.18-.27.36-.38.55q-4.67 8-9.33 16.1-2.81 4.86-5.6 9.73zm5.37-4.85h89.15a.87.87 0 0 0 .87-.51q6-10.33 12-20.65a.91.91 0 0 0 0-1.06q-6-10.26-11.9-20.54a1 1 0 0 0-1-.57h-89zM0 13.56c.89 0 1.77-.11 2.66-.07.2 0 .46.38.55.64C4.15 16.75 5.06 19.39 6 22c.53 1.5 1.08 3 1.66 4.58.44-1.58.85-3.04 1.34-4.5 1.11-3.48 2.25-7 3.35-10.44.16-.51.39-.75 1-.71h2.33a8.35 8.35 0 0 1-.21.84Q12.22 20.48 9 29.19a3.47 3.47 0 0 0-.2 1.14v8.4c0 .79 0 .82-.8.82H6.76c-.6.06-.74-.21-.74-.76V30.7a5.59 5.59 0 0 0-.34-1.86c-1.8-4.78-3.64-9.54-5.46-14.3a5 5 0 0 0-.22-.48zM46.71 22.18v-.73-7.27c0-.57.19-.8.76-.74s1.47-.15 1.84.18.13 1.16.14 1.78v23.24c0 .31.2.74-.31.89a1.52 1.52 0 0 1-1.62-.4l-.31-.52a14.43 14.43 0 0 1-1.48.93 4.29 4.29 0 0 1-5.54-1.8 9.48 9.48 0 0 1-1.41-4.38 18.7 18.7 0 0 1 .48-6.7 7.63 7.63 0 0 1 1.85-3.46 4.71 4.71 0 0 1 4.79-1.28c.23.08.48.16.81.26zm0 8.7v-5.71a.83.83 0 0 0-.49-.83 2.35 2.35 0 0 0-3.58 1.07 12 12 0 0 0-1.1 5.66 12.31 12.31 0 0 0 .68 4.5 2.77 2.77 0 0 0 4 1.79.73.73 0 0 0 .52-.82c-.04-1.89-.03-3.77-.03-5.66zM20.77 38.35a12.59 12.59 0 0 1-1.67 1.18 3.6 3.6 0 0 1-4.71-1.25 7.65 7.65 0 0 1 .33-8.91 4.31 4.31 0 0 1 5.1-1l.49.21a7.69 7.69 0 0 0-.71-3.76 1.6 1.6 0 0 0-2-.75 11.86 11.86 0 0 0-1.71.85c-.41.23-.68.18-.87-.28s-.44-.85-.58-1.3c-.06-.19 0-.6.17-.65a7.82 7.82 0 0 1 5-.79c2 .49 2.87 2 3.14 3.88a30.06 30.06 0 0 1 .25 3.78v9.14c0 .82 0 .76-.83.87-1 .14-1.17-.57-1.4-1.22zm-.47-4.47v-2.61a.75.75 0 0 0-.16-.49 2.21 2.21 0 0 0-3.74.83 6.42 6.42 0 0 0-.06 4.39 2.14 2.14 0 0 0 3.48 1.11.93.93 0 0 0 .49-.91c-.04-.75-.01-1.53-.01-2.32zM29 22.94a27.77 27.77 0 0 1 2.82-1 3.37 3.37 0 0 1 3.85 1.68 4.82 4.82 0 0 1 .3 1.75V38.8c0 .54-.16.77-.71.72h-1.18c-.78 0-.82 0-.82-.8v-4.91c0-2.4-.07-4.81 0-7.21s-1.36-2.6-2.98-2.3a1.09 1.09 0 0 0-.11 0c-1.17.38-1.17.38-1.17 1.53v12.93c0 .59-.15.85-.77.79a6.92 6.92 0 0 0-1.24 0c-.58.05-.74-.2-.74-.76V23.62v-.93c0-.31.17-.59.59-.57s.83 0 1.24 0c.92 0 .92 0 .92.82zM62 31.38h-7c-.25 1.87.31 4.37 1.65 5.38a4.09 4.09 0 0 0 3 .66c.23 0 .45-.06.67-.1 1.1-.19 1.31 0 1.37 1.08a.58.58 0 0 1-.21.46c-1.89 1-4.42 1.61-6.41.24a6.89 6.89 0 0 1-2.8-4.73 16.24 16.24 0 0 1 1-9.37 4.81 4.81 0 0 1 3.17-3.09A3.76 3.76 0 0 1 60.86 24 11 11 0 0 1 62 28.7v2.68zm-2.73-2.1a11.18 11.18 0 0 0-.67-4.21c-.24-.57-.58-1.1-1.28-1.11a1.53 1.53 0 0 0-1.41 1 13.61 13.61 0 0 0-.91 4.31zM69 28.15l1.41-3.79c.22-.6.43-1.21.69-1.79.08-.18.29-.41.45-.42h2.27a7.22 7.22 0 0 1-.24.77c-1.07 2.39-2.17 4.78-3.22 7.18a1.46 1.46 0 0 0 0 1c1 2.54 2.13 5.06 3.2 7.59.31.74.25.85-.52.84-2.27 0-1.76.35-2.6-1.79-.62-1.59-1.2-3.21-1.83-4.9-.24.7-.45 1.34-.67 2-.47 1.34-1 2.68-1.41 4a.91.91 0 0 1-1.07.71H64.4c-.7 0-.82-.19-.55-.82 1.12-2.64 2.23-5.29 3.37-7.92a1.09 1.09 0 0 0 0-1c-1-2.3-2-4.61-3-6.92-.3-.7-.24-.78.52-.79 2 0 2 0 2.73 1.84z"/><path d="M106.48 20.91v14.76H104V17.3h3.16c.16 0 .36.28.44.48q2.05 5.12 4.1 10.22c.08.21.18.41.31.71l2.43-6.1c.64-1.61 1.29-3.22 1.91-4.84a.67.67 0 0 1 .77-.51h2.84v18.41h-2.49V20.92h-.11c-.09.19-.19.38-.27.57-1.37 3.45-2.76 6.9-4.1 10.37a.72.72 0 0 1-.86.55c-.45 0-.89.11-1.14-.53-1.38-3.54-2.81-7.06-4.23-10.58-.05-.13-.11-.25-.17-.38zM123.41 29.58c0-3.14 1.69-5.55 4.58-6.22 5-1.14 8.48 2.17 7.91 7.25a5.59 5.59 0 0 1-3.14 4.75c-2.39 1.15-6.41.94-8.19-1.74a6.74 6.74 0 0 1-1.16-4.04zm2.34 0a19.33 19.33 0 0 0 .66 2.29 3.57 3.57 0 0 0 6.24.59 5.21 5.21 0 0 0 .18-5.58 3.57 3.57 0 0 0-5.7-.8 5.52 5.52 0 0 0-1.38 3.54zM163.65 30h-9a4.09 4.09 0 0 0 1.82 3.56c1.22.78 3.2.81 5.21-.8l1.49 1.24a5.21 5.21 0 0 1-3.66 1.91 10.82 10.82 0 0 1-2.42 0 5.21 5.21 0 0 1-4.39-3.65 7.28 7.28 0 0 1 .64-6.6 5.18 5.18 0 0 1 5.36-2.5 4.84 4.84 0 0 1 4.3 3.65 30.43 30.43 0 0 1 .65 3.19zm-2.8-1.92a3 3 0 0 0-2.79-3 3.12 3.12 0 0 0-3.23 3zM165.33 39c.48 0 .87.06 1.26.06a2.12 2.12 0 0 0 2-1.19 21 21 0 0 0 1-2.47 1.15 1.15 0 0 0-.14-.7q-2.24-5.31-4.5-10.61c-.09-.2-.16-.41-.26-.69h2.25c.17 0 .39.26.47.45 1 2.45 2.07 4.91 3.1 7.37.1.23.2.45.36.81.11-.31.19-.51.26-.71.83-2.46 1.67-4.92 2.47-7.4a.66.66 0 0 1 .78-.55h1.71a1.64 1.64 0 0 1 0 .38q-2.41 6.93-4.83 13.86a10.61 10.61 0 0 1-.65 1.4c-1.09 2.07-3 2.21-4.74 2a.52.52 0 0 1-.31-.36c-.13-.53-.17-1.07-.23-1.65zM149.18 35.67H147v-.7-7.52c0-2-1.49-3-3.28-2a11.86 11.86 0 0 0-2.32 1.92c-.13.12-.13.42-.13.63v7.69H139V23.44h2.17v1.4l.65-.54a5.07 5.07 0 0 1 4.85-1 3.2 3.2 0 0 1 2.46 3.39c.1 3 .05 5.96.05 8.98z"/></svg>
