<svg width="17" height="22" viewBox="0 0 17 22" xmlns="http://www.w3.org/2000/svg">
<path d="M8.49997 0.0705566C3.97162 0.0705566 0.287354 3.75483 0.287354 8.28317C0.287354 11.2995 3.64768 17.1391 5.7784 20.1458H3.9374C3.4337 20.1458 3.02489 20.5546 3.02489 21.0583C3.02489 21.5621 3.4337 21.9709 3.9374 21.9709H13.0625C13.5662 21.9709 13.975 21.5621 13.975 21.0583C13.975 20.5546 13.5662 20.1458 13.0625 20.1458H11.2215C13.3523 17.1391 16.7126 11.2995 16.7126 8.28317C16.7126 3.75483 13.0283 0.0705566 8.49997 0.0705566ZM8.49997 1.89558C12.0223 1.89558 14.8876 4.76087 14.8876 8.28317C14.8876 10.7447 11.4793 16.8366 9.22496 19.7863C8.87547 20.2435 8.12447 20.2435 7.77498 19.7863C5.52061 16.8366 2.11238 10.7447 2.11238 8.28317C2.11238 4.76087 4.97767 1.89558 8.49997 1.89558Z"/>
<path d="M12.1502 11.0207V9.14547L12.4522 9.4174C12.6265 9.57481 12.8446 9.65191 13.0627 9.65191C13.3123 9.65191 13.5609 9.54971 13.7411 9.34987C14.0783 8.97529 14.0477 8.39812 13.6732 8.0614L11.8518 6.42207L11.651 6.23957C11.6469 6.23592 11.6424 6.23364 11.6382 6.22999L9.11013 3.95464C8.76292 3.64256 8.23686 3.64256 7.88965 3.95464L5.36198 6.22999C5.35788 6.23364 5.35332 6.23592 5.34921 6.23957L5.14846 6.42207L3.32708 8.0614C2.9525 8.39812 2.92193 8.97529 3.2591 9.34987C3.59627 9.724 4.17298 9.75548 4.54802 9.4174L4.85007 9.14547V11.0207C4.85007 12.0272 5.66859 12.8457 6.67509 12.8457H10.3251C11.3316 12.8457 12.1502 12.0272 12.1502 11.0207ZM6.67509 7.50295L8.50012 5.86042L10.3251 7.50295V11.0207H6.67509V7.50295Z"/>
</svg>
