<svg width="19" height="24" viewBox="0 0 19 24" xmlns="http://www.w3.org/2000/svg" >
<path d="M15.2565 10.2984C15.2565 9.7813 14.8373 9.36215 14.3203 9.36215H4.67724C4.16017 9.36215 3.74103 9.7813 3.74103 10.2984C3.74103 10.8154 4.16017 11.2346 4.67724 11.2346H14.3203C14.8373 11.2346 15.2565 10.8154 15.2565 10.2984Z" />
<path d="M4.67724 13.107C4.16017 13.107 3.74103 13.5262 3.74103 14.0432C3.74103 14.5603 4.16017 14.9795 4.67724 14.9795H10.5338C11.0509 14.9795 11.47 14.5603 11.47 14.0432C11.47 13.5262 11.0509 13.107 10.5338 13.107H4.67724Z"/>
<path d="M15.2561 22.0947H3.74584C2.71338 22.0947 1.87341 21.2547 1.87341 20.2223V3.74487C1.87341 2.71241 2.71338 1.87243 3.74584 1.87243H15.2561C16.2886 1.87243 17.1285 2.71241 17.1285 3.74487V19.7542C17.1285 20.2712 17.5477 20.6904 18.0648 20.6904C18.5818 20.6904 19.001 20.2712 19.001 19.7542V3.74487C19.001 1.67995 17.321 0 15.2561 0H3.74584C1.68092 0 0.000976562 1.67995 0.000976562 3.74487V20.2223C0.000976562 22.2872 1.68092 23.9671 3.74584 23.9671H15.2561C15.7732 23.9671 16.1923 23.548 16.1923 23.0309C16.1923 22.5139 15.7732 22.0947 15.2561 22.0947Z"/>
<path d="M14.3203 5.61731H4.67724C4.16017 5.61731 3.74103 6.03645 3.74103 6.55353C3.74103 7.0706 4.16017 7.48974 4.67724 7.48974H14.3203C14.8373 7.48974 15.2565 7.0706 15.2565 6.55353C15.2565 6.03645 14.8373 5.61731 14.3203 5.61731Z"/>
</svg>
