<svg width="30" height="21" viewBox="0 0 30 21" fill="none" xmlns="http://www.w3.org/2000/svg">
<path d="M26.4792 0.0206299H3.52081C1.85575 0.0206299 0.5 1.42313 0.5 3.14567V16.8957C0.5 18.6182 1.85575 20.0207 3.52081 20.0207H26.4791C28.1442 20.0207 29.4999 18.6182 29.4999 16.8957V3.14567C29.5 1.42313 28.1442 0.0206299 26.4792 0.0206299ZM28.2917 16.8956C28.2917 17.9294 27.4785 18.7706 26.4792 18.7706H3.52081C2.5215 18.7706 1.70831 17.9294 1.70831 16.8956V3.14567C1.70831 2.1119 2.5215 1.27067 3.52081 1.27067H26.4791C27.4784 1.27067 28.2916 2.1119 28.2916 3.14567V16.8956H28.2917Z" fill="#FF8A00"/>
<path d="M28.8958 3.77063H1.10419C0.770686 3.77063 0.5 4.05065 0.5 4.39565V8.14565C0.5 8.49065 0.770686 8.77067 1.10419 8.77067H28.8959C29.2294 8.77067 29.5001 8.49065 29.5001 8.14565V4.39565C29.5 4.05065 29.2293 3.77063 28.8958 3.77063ZM28.2917 7.52063H1.70831V5.02061H28.2916V7.52063H28.2917Z" fill="#FF8A00"/>
<path d="M11.9792 12.5206H4.72919C4.39569 12.5206 4.125 12.8007 4.125 13.1457C4.125 13.4907 4.39569 13.7706 4.72919 13.7706H11.9792C12.3127 13.7706 12.5834 13.4906 12.5834 13.1456C12.5834 12.8006 12.3127 12.5206 11.9792 12.5206Z" fill="#FF8A00"/>
<path d="M11.9792 15.0206H4.72919C4.39569 15.0206 4.125 15.3006 4.125 15.6456C4.125 15.9906 4.39569 16.2707 4.72919 16.2707H11.9792C12.3127 16.2707 12.5834 15.9906 12.5834 15.6456C12.5833 15.3006 12.3127 15.0206 11.9792 15.0206Z" fill="#FF8A00"/>
<path d="M24.0618 11.2706H22.8535C21.8542 11.2706 21.041 12.1119 21.041 13.1456V14.3956C21.041 15.4294 21.8542 16.2706 22.8535 16.2706H24.0618C25.0611 16.2706 25.8743 15.4294 25.8743 14.3956V13.1456C25.8743 12.1119 25.0611 11.2706 24.0618 11.2706ZM24.666 14.3957C24.666 14.7407 24.3953 15.0207 24.0618 15.0207H22.8535C22.52 15.0207 22.2493 14.7407 22.2493 14.3957V13.1457C22.2493 12.8007 22.52 12.5207 22.8535 12.5207H24.0618C24.3953 12.5207 24.666 12.8007 24.666 13.1457V14.3957Z" fill="#FF8A00"/>
</svg>
