<svg width="20" height="20" viewBox="0 0 20 20" fill="none" xmlns="http://www.w3.org/2000/svg">
    <path fill-rule="evenodd" clip-rule="evenodd" d="M0 10.0001C0 4.48613 4.48585 0 9.99986 0C15.5139 0 19.9997 4.48613 19.9997 10.0001C19.9997 15.5139 15.5139 20 9.99986 20C4.48585 20 0 15.5141 0 10.0001ZM11.0195 8.98002H13.9782C14.5815 8.98002 15.0707 9.46926 15.0707 10.0728C15.0707 10.6764 14.5815 11.1654 13.9782 11.1654H9.92664C9.32335 11.1654 8.83411 10.6764 8.83411 10.0728V6.02128C8.83411 5.41798 9.32335 4.92874 9.92664 4.92874C10.5302 4.92874 11.0195 5.41798 11.0195 6.02128V8.98002Z"/>
</svg>
