<svg width="20" height="20" viewBox="0 0 20 20" fill="none" xmlns="http://www.w3.org/2000/svg">
<path d="M9.99986 0C4.48585 0 0 4.48613 0 10.0001C0 15.5141 4.48585 20 9.99986 20C15.5139 20 19.9997 15.5139 19.9997 10.0001C19.9997 4.48613 15.5139 0 9.99986 0Z" fill="#FFC756"/>
<path d="M13.9782 8.98002H11.0195V6.02128C11.0195 5.41798 10.5302 4.92874 9.92664 4.92874C9.32335 4.92874 8.83411 5.41798 8.83411 6.02128V10.0728C8.83411 10.6764 9.32335 11.1654 9.92664 11.1654H13.9782C14.5815 11.1654 15.0707 10.6764 15.0707 10.0728C15.0707 9.46926 14.5815 8.98002 13.9782 8.98002Z" fill="#2F2F2F"/>
</svg>
