<svg width="27" height="30" viewBox="0 0 27 30" fill="none" xmlns="http://www.w3.org/2000/svg">
<path fill-rule="evenodd" clip-rule="evenodd" d="M12.5131 1.93384H17.6321C19.2024 1.93455 20.4752 3.20736 20.4759 4.77772V15.1021C20.0902 15.1021 19.7104 15.128 19.3384 15.1781V4.77772C19.3357 3.83657 18.5732 3.07406 17.6321 3.07139H12.5131V3.98143C12.5122 4.29515 12.258 4.54932 11.9443 4.55021H8.53164C8.21793 4.54932 7.96375 4.29515 7.96287 3.98143V3.07139H2.84388C1.90273 3.07406 1.14022 3.83657 1.13755 4.77772V24.3436C1.14022 25.2848 1.90273 26.0473 2.84388 26.0499H12.4083C12.5298 26.4421 12.6791 26.8221 12.8539 27.1875H2.84388C1.27353 27.1868 0.00071097 25.914 0 24.3436V4.77772C0.00071097 3.20736 1.27353 1.93455 2.84388 1.93384H7.96287V0.568776C7.96375 0.255061 8.21793 0.00088871 8.53164 0H11.9443C12.258 0.00088871 12.5122 0.255061 12.5131 0.568776V1.93384ZM11.3755 1.13755H9.10042V3.41266H11.3755V1.13755Z" fill="#FF8A00"/>
<path d="M12.0501 22.9786C12.0376 23.1665 12.0312 23.3561 12.0312 23.5472C12.0312 23.7384 12.0376 23.9281 12.0501 24.1161H4.08245C3.76838 24.1161 3.51367 23.8616 3.51367 23.5474C3.51367 23.2331 3.76838 22.9786 4.08245 22.9786H12.0501Z" fill="#FF8A00"/>
<path d="M12.6071 20.4759C12.4636 20.8433 12.3451 21.2232 12.2537 21.6135H6.92815C6.61408 21.6135 6.35938 21.3589 6.35938 21.0447C6.35938 20.7304 6.61408 20.4759 6.92815 20.4759H12.6071Z" fill="#FF8A00"/>
<path fill-rule="evenodd" clip-rule="evenodd" d="M14.6683 17.4164C14.1942 17.8657 13.7722 18.3694 13.4122 18.9175H6.28948C5.97559 18.9168 5.72159 18.6626 5.7207 18.3487C5.7207 17.0633 6.1871 15.8802 7.04027 15.01C7.88419 14.1547 9.03543 13.6734 10.2368 13.6734C11.4382 13.6734 12.5894 14.1547 13.4333 15.01C14.0754 15.6649 14.4983 16.4969 14.6683 17.4164ZM7.85362 15.8063C8.48318 15.1695 9.34132 14.8109 10.2368 14.8109C11.1321 14.8109 11.9904 15.1695 12.6198 15.8063C13.1418 16.3449 13.4769 17.0366 13.5755 17.78H6.89807C6.99547 17.0363 7.3307 16.3438 7.85362 15.8063Z" fill="#FF8A00"/>
<path fill-rule="evenodd" clip-rule="evenodd" d="M10.2375 12.587C11.8601 12.5856 13.1739 11.2689 13.1723 9.64643C13.1709 8.024 11.8542 6.70995 10.2316 6.71155C8.60933 6.71315 7.29528 8.02969 7.29688 9.65212C7.30203 11.2731 8.61644 12.5849 10.2375 12.587ZM10.2375 7.8491C11.2332 7.8491 12.0405 8.65623 12.0405 9.65212C12.0405 10.6478 11.2332 11.4551 10.2375 11.4551C9.24156 11.4551 8.43443 10.6478 8.43443 9.65212C8.43461 8.65641 9.24191 7.84928 10.2375 7.8491Z" fill="#FF8A00"/>
<path fill-rule="evenodd" clip-rule="evenodd" d="M20.4766 29.5473C18.8853 29.5473 17.3591 28.9152 16.2339 27.7899C15.1087 26.6647 14.4766 25.1386 14.4766 23.5473C14.4766 21.956 15.1087 20.4299 16.2339 19.3047C17.3591 18.1794 18.8853 17.5473 20.4766 17.5473C22.0679 17.5473 23.594 18.1794 24.7192 19.3047C25.8444 20.4299 26.4766 21.956 26.4766 23.5473C26.4766 25.1386 25.8444 26.6647 24.7192 27.7899C23.594 28.9152 22.0679 29.5473 20.4766 29.5473ZM20.9766 23.0473V20.5473H19.4766V24.5473H22.9766V23.0473H20.9766Z" fill="#FF8A00"/>
</svg>
