<svg xmlns="http://www.w3.org/2000/svg" viewBox="0 0 157 208.46">
    <path class="cls-1"
          d="M135.19,14.83H95.94V4.36A4.38,4.38,0,0,0,92,0l-.45,0H65.42L65,0a4.38,4.38,0,0,0-3.91,4.34V14.83H21.81A21.81,21.81,0,0,0,0,36.63v150a21.81,21.81,0,0,0,21.81,21.8H135.19A21.81,21.81,0,0,0,157,186.66v-150A21.81,21.81,0,0,0,135.19,14.83Zm-48-6.11V26.17H69.78V8.72Zm61.06,177.94a13.13,13.13,0,0,1-13.09,13.08H21.81A13.13,13.13,0,0,1,8.72,186.66V116.38h0V36.63A13.13,13.13,0,0,1,21.81,23.55H61.06v7A4.38,4.38,0,0,0,65,34.87l.45,0H91.58l.45,0a4.38,4.38,0,0,0,3.91-4.34v-7h39.25a13.13,13.13,0,0,1,13.09,13.08v79.75h0Z"/>
    <path class="cls-1"
          d="M78.5,96.51A22.53,22.53,0,1,0,56,74,22.53,22.53,0,0,0,78.5,96.51Zm0-36.33A13.83,13.83,0,1,1,64.67,74,13.83,13.83,0,0,1,78.5,60.18Z"/>
    <path class="cls-1"
          d="M103,115.09a34.43,34.43,0,0,0-24.51-10.25h0A34.43,34.43,0,0,0,54,115.09a36.17,36.17,0,0,0-10.12,25.6,4.38,4.38,0,0,0,4.36,4.36h60.55a4.38,4.38,0,0,0,4.37-4.36A36.17,36.17,0,0,0,103,115.09ZM52.91,136.33a26.75,26.75,0,0,1,7.33-15.13,25.64,25.64,0,0,1,36.52,0,26.75,26.75,0,0,1,7.33,15.13Z"/>
    <path class="cls-1"
          d="M78.5,96.51A22.53,22.53,0,1,1,101.05,74,22.53,22.53,0,0,1,78.5,96.51Zm0-36.33A13.83,13.83,0,1,0,92.33,74,13.83,13.83,0,0,0,78.5,60.18Z"/>
    <path class="cls-1"
          d="M78.5,96.51A22.53,22.53,0,1,1,101.05,74,22.53,22.53,0,0,1,78.5,96.51Zm0-36.33A13.83,13.83,0,1,0,92.33,74,13.83,13.83,0,0,0,78.5,60.18Z"/>
    <path class="cls-2"
          d="M108.06,160.13a4.36,4.36,0,0,0-4.18-3.13H53.12a4.36,4.36,0,0,0-4.18,3.13,4.48,4.48,0,0,0,4.26,5.8h50.6a4.48,4.48,0,0,0,4.26-5.8Z"/>
    <path class="cls-2"
          d="M129.72,178.85a4.32,4.32,0,0,0-1.5-1.85,4.43,4.43,0,0,0-2.84-1H31.62a4.43,4.43,0,0,0-2.84,1,4.35,4.35,0,0,0,2.52,7.91h94.4a4.37,4.37,0,0,0,4-6.06Z"/>
</svg>
