<svg xmlns="http://www.w3.org/2000/svg" fill="currentColor" viewBox="0 0 182.08 54.64"><path d="M46.24 14.73v13.35c0 1.85 0 3.71.14 5.56.14 2.23.67 2.82 2.81 3.29.54.12.55.37.41.86h-7.85c-.24 0-.47-.25-.7-.38a2.89 2.89 0 0 1 .6-.45c.34-.14.72-.18 1.07-.29a2.1 2.1 0 0 0 1.61-1.78 24.39 24.39 0 0 0 .3-3.15V13.85a9.89 9.89 0 0 0-.05-1.19c-.23-1.9-.75-2.41-2.65-2.62l-.75-.09v-.76a1.55 1.55 0 0 1 .31-.07h6.36c.65 0 .71.41.87.82l7.8 20c.1.26.22.53.41 1 .17-.4.26-.63.35-.85 2.47-6.62 4.95-13.24 7.38-19.88A1.33 1.33 0 0 1 66.2 9.1c1.85.07 3.71 0 5.56 0 .21 0 .42.24.63.37-.18.17-.34.44-.55.48-2.06.39-2.47.82-2.64 2.92v19.72a19.67 19.67 0 0 0 .11 2.06 2 2 0 0 0 1.94 2.14 3.76 3.76 0 0 1 .77.15.8.8 0 0 1 .37.47c0 .07-.24.25-.4.34s-.21 0-.31 0h-8.75c-.26 0-.52-.25-.78-.38.23-.15.44-.4.68-.45 2-.36 2.4-.81 2.54-2.81 0-.5.06-1 .06-1.51V13.75l-.2-.05c-.1.24-.21.48-.3.73L56.47 36.6a5.43 5.43 0 0 1-.3.74 2.51 2.51 0 0 1-.4.43c-.16-.15-.38-.27-.46-.45-.75-1.87-1.48-3.74-2.21-5.62l-6.44-16.5a5.82 5.82 0 0 0-.27-.53zM21.96 37.7v-.86c.7-.13 1.37-.26 2-.37A1.31 1.31 0 0 0 25.22 35a12.43 12.43 0 0 0-.51-2.79c-.66-2-1.42-4-2.18-6.05a.91.91 0 0 0-.68-.46H10.48a.84.84 0 0 0-.66.37c-.83 2.47-1.74 4.93-2.38 7.52-.48 1.88.26 2.73 2.2 3.08l.9.15v.91c-.2 0-.4.06-.6.06h-8a1 1 0 0 1-.76-.39c-.19-.45.16-.62.57-.72a3.56 3.56 0 0 0 2.54-2.21c1-2.29 1.94-4.59 2.79-6.92 3.2-8.93 6.39-17.85 9.61-26.77.12-.34.14-.77.73-.78s.65.44.79.81l11.93 31.92c.21.57.49 1.12.71 1.68a3.56 3.56 0 0 0 2.72 2.31c.21 0 .42.37.48.61s-.34.43-.52.44H22.32a2.13 2.13 0 0 1-.36-.07zm-.27-14.35l-5.4-15.12h-.21l-5.32 15.12zM0 41.9v-1.1h181.7v1.1zM181.41 32.27l.67.73c-2.4 3.24-5.39 5.4-9.54 5.5a11.13 11.13 0 0 1-11-6.6 17.66 17.66 0 0 1 .64-17.49c3-5 8.32-6.91 13.87-5.22l2.12.67a1.63 1.63 0 0 0 2.17-.86c.15-.23.45-.35.69-.52l.22.14.34 9.55c-.6.26-.81.07-1-.48a21.4 21.4 0 0 0-1.69-3.92 7.15 7.15 0 0 0-11.95-.58 13.6 13.6 0 0 0-2.72 7 20.29 20.29 0 0 0 .85 10.18c1.16 2.91 3 5.21 6.21 6a8.84 8.84 0 0 0 7.68-1.85c.84-.7 1.59-1.52 2.44-2.25zM80.84 37.56c.15-.21.27-.55.47-.59a3.27 3.27 0 0 0 2.27-2.16c.63-1.52 1.25-3 1.81-4.58 2.53-7 5-13.95 7.57-20.91.1-.26.4-.45.6-.68.21.23.5.43.61.7q4.51 12 9 24c.24.64.53 1.27.79 1.91a2.6 2.6 0 0 0 1.9 1.64c.51.12.5.15.47.8a2.64 2.64 0 0 1-.44.07H97.7c-.23 0-.45-.21-.68-.32.21-.17.39-.45.62-.49 1.94-.32 2.27-.68 1.74-2.57s-1.23-3.72-1.9-5.56a.83.83 0 0 0-.64-.39h-8.59a.9.9 0 0 0-.66.49c-.59 1.67-1.12 3.36-1.67 5.05a3.42 3.42 0 0 0-.1.46c-.27 1.56.2 2.22 1.74 2.5.25 0 .46.29.69.44-.26.14-.51.38-.77.39h-6.43zm16-11L92.67 15h-.2L88.4 26.61zM115.79 37.79V37l1.6-.29a1.93 1.93 0 0 0 1.69-1.8 17.57 17.57 0 0 0 .15-1.9v-21.3-.73c-1.83 0-3.65-.24-5.4.48a2.82 2.82 0 0 0-1.59 1.79c-.29.85-.51 1.72-.74 2.59-.17.65-.16.66-.87.52V9.18h20.85v7.22c-.47.19-.72 0-.85-.56a24.15 24.15 0 0 0-.76-2.59 2.91 2.91 0 0 0-2.55-2.1c-1.44-.16-2.89-.19-4.37-.28 0 .29-.07.44-.07.59v22.5c.13 2.16.58 2.66 2.73 3h.31a5.35 5.35 0 0 1 .48.47c-.17.12-.34.33-.51.33h-4.69zM140.16 9.16h10.7v.73c-.61.11-1.18.19-1.74.32a1.88 1.88 0 0 0-1.57 1.68 11.34 11.34 0 0 0-.17 1.66v20.42c.12 2.16.58 2.66 2.72 3h.23c.05 0 .37.32.56.48-.19.12-.38.33-.58.34h-9.53c-.24 0-.47-.24-.71-.36.22-.15.42-.41.66-.45 2.34-.35 2.8-.73 2.85-3.07.09-3.79.06-7.57.07-11.36 0-3.2 0-6.41-.07-9.61-.05-2.1-.68-2.69-2.78-2.9-.52-.04-.9-.15-.64-.88zM21.98 54.44c-.94.24-1.39.06-1.59-.85A25.1 25.1 0 0 0 19.21 50v4.5h-1.26v-8.64c1.1-.26 1.15-.23 1.45.78.37 1.2.74 2.4 1.21 3.58v-4.31c1.2-.4 1.37-.28 1.37.91v7.62zM123.35 50.11l.23 4.34c-1.33.21-1.47.1-1.47-1.23v-2.58h-1.34v3.83h-1.31V45.8a29.22 29.22 0 0 1 3.08 0 1.27 1.27 0 0 1 .89.82 16.25 16.25 0 0 1 0 2.77 2.1 2.1 0 0 1-.32.7zm-1.27-.49v-2.59c0-.15-.39-.38-.59-.38s-.68.2-.7.35c-.07.86 0 1.72 0 2.62zM38.45 54.51v-8.72h3c.68 0 1 .47 1 1.18v6.28a1.07 1.07 0 0 1-1.06 1.23c-.93.08-1.91.03-2.94.03zm2.63-.91v-6.27c0-.49-.11-.72-.66-.72s-.74.17-.73.73v5.64a5.18 5.18 0 0 0 .07.61zM61.62 45.8h1.35v7c0 1-.37 1.55-1.31 1.67a4.72 4.72 0 0 1-2-.24 1.28 1.28 0 0 1-.72-.93c-.06-2.48 0-5 0-7.51h1.29v7.75h1.41zM177.93 52.26h1.15l.1 1.31h1.3v-3h-1.43c-.93-.05-1.27-.42-1.27-1.34v-2a1.19 1.19 0 0 1 .85-1.29 4.57 4.57 0 0 1 1.85-.2c1.18.17 1.52.81 1.33 2.15-1.11.26-1.18.24-1.27-.8 0-.54-.38-.47-.73-.48s-.7 0-.68.51v2.53h1.44c1 .07 1.3.41 1.3 1.4v1.35c0 1.73-1.12 2.56-2.81 2.09-1.04-.29-1.39-.92-1.13-2.23zM80.79 46.62v3h1.36c1 .06 1.31.41 1.32 1.38v2a1.28 1.28 0 0 1-.85 1.31 2.76 2.76 0 0 1-2.45 0c-.74-.37-.9-.87-.69-2h1.21l.08 1.28h1.31v-3h-1.46c-.89-.06-1.22-.41-1.24-1.3v-1.83a1.51 1.51 0 0 1 1.39-1.71 3.45 3.45 0 0 1 .87-.06c1.39.06 1.93.75 1.74 2.26h-1.12a3.09 3.09 0 0 0-.31-1.23c-.16-.19-.69-.08-1.16-.1zM161.68 45.77v.86h-2c-.68 0-.73.14-.7.67v2.37h2v.93a10.12 10.12 0 0 0-1.45 0c-.2 0-.52.29-.53.46-.06.81 0 1.63 0 2.54h2.68v.85h-3.15a1 1 0 0 1-.91-1.1v-6.43a1 1 0 0 1 1.08-1.12c.99-.07 1.96-.03 2.98-.03zM102.08 54.49h-1.29v-.85-6c0-.77-.12-1.23-1-1.07a1.34 1.34 0 0 1-.35 0v-.79h4v.7c-.08.05-.12.11-.16.11-1.19.12-1.19.12-1.19 1.31-.01 2.17-.01 4.33-.01 6.59zM1.42 54.5H.17v-8.68h1.25zM141.19 54.49h-1.22V45.8h1.22z"/></svg>
