<svg xmlns="http://www.w3.org/2000/svg" fill="currentColor" viewBox="0 0 632.41696 168.78856"><path d="M465.36 168.789a4.133 4.133 0 0 1-.46-1.28q-.036-20.578-.034-41.156c-.001-.916.26-1.307 1.231-1.261a40.305 40.305 0 0 0 4.198-.004 1.723 1.723 0 0 1 1.778 1.06q8.535 14.861 17.118 29.695c.957 1.66 1.921 3.314 2.947 5.083.283-.44.528-.788.74-1.156q9.667-16.769 19.31-33.55a1.885 1.885 0 0 1 1.976-1.134c1.434.087 2.878.04 4.318.016.665-.011.968.253.92.921-.017.239-.002.48-.002.72q0 20.218-.012 40.436a9.713 9.713 0 0 1-.268 1.61h-6.24a8.647 8.647 0 0 1-.346-1.703q-.034-12.823-.018-25.645c0-.436-.041-.871-.063-1.306a53.01 53.01 0 0 0-3.125 4.95L495.6 168.79h-6.72a14.836 14.836 0 0 1-.9-1.25q-7.734-13.373-15.453-26.754c-.164-.282-.372-.54-.727-1.05v1.623q0 12.95-.019 25.898a6.037 6.037 0 0 1-.421 1.533zM601.68 168.789c-.98-.08-1.958-.184-2.94-.236-4.354-.231-8.705-.476-12.81-2.168a12.133 12.133 0 0 1-7.008-6.344c-.435-.996-.309-1.53.831-1.79 1.477-.338 2.918-.836 4.396-1.17a1.402 1.402 0 0 1 1.206.321 6.422 6.422 0 0 0 4.065 2.78 54.657 54.657 0 0 0 9.298 1.532c5.38.201 10.786.102 16.165-.19a38.73 38.73 0 0 0 7.33-1.601 5.26 5.26 0 0 0 1.844-1.078 3.326 3.326 0 0 0-.005-5.45 11.815 11.815 0 0 0-6.455-2.331c-3.653-.344-7.328-.496-10.997-.62-5.349-.179-10.718-.02-16.002-1.098a21.313 21.313 0 0 1-7.573-2.855 10.378 10.378 0 0 1 .073-17.585 21.302 21.302 0 0 1 9.127-3.052 105.448 105.448 0 0 1 26.068.002c4.21.536 8.268 1.702 11.297 4.941a18.007 18.007 0 0 1 2.27 3.62c.411.735.185 1.258-.731 1.459-1.56.342-3.095.793-4.657 1.121a1.276 1.276 0 0 1-1.098-.296 7.424 7.424 0 0 0-4.603-3.212 35.361 35.361 0 0 0-11.488-1.414c-5.187.097-10.377.204-15.553.525a25.37 25.37 0 0 0-5.311 1.355 5.211 5.211 0 0 0-1.47.788c-2.399 1.68-2.469 4.466.036 5.989a13.233 13.233 0 0 0 4.88 1.827c3.391.475 6.832.613 10.257.821 5.578.34 11.175.46 16.735.988a17.513 17.513 0 0 1 10.178 4.12 10.353 10.353 0 0 1-.273 15.55 17.77 17.77 0 0 1-9.331 3.747c-3.166.397-6.363.542-9.546.809a9.144 9.144 0 0 0-1.005.195zM374.88 168.789a43.813 43.813 0 0 1-4.606-.506 62.534 62.534 0 0 1-9.027-2.252 16.415 16.415 0 0 1-10.39-11.727 28.077 28.077 0 0 1-.09-14.463c1.765-6.91 6.356-11.072 13.071-13.052a48.715 48.715 0 0 1 17.103-1.54 32.798 32.798 0 0 1 13.054 3.212 18.035 18.035 0 0 1 7.077 6.302c.558.86.599 1.378-.446 1.826-1.43.613-2.801 1.364-4.235 1.966a1.303 1.303 0 0 1-1.192-.174c-2.614-3.805-6.467-5.347-10.81-5.897a48.759 48.759 0 0 0-17.401.552c-6.45 1.515-9.868 5.7-10.085 12.367a27.404 27.404 0 0 0 .336 5.724 11.188 11.188 0 0 0 8.746 9.443 45.561 45.561 0 0 0 21.257.262 12.317 12.317 0 0 0 6.656-3.821 2.933 2.933 0 0 0 .671-1.68c.09-1.592.031-3.193.031-4.982h-1.335c-5.279 0-10.558-.02-15.837.017-.964.007-1.377-.241-1.327-1.274.074-1.516.045-3.04.009-4.558-.019-.777.291-1.073 1.057-1.072q11.638.017 23.275-.003c.837-.002 1.095.324 1.092 1.147-.024 7.638-.006 15.277-.035 22.916a4.084 4.084 0 0 1-.459 1.267h-6l-.664-3.544a33.775 33.775 0 0 1-12.14 3.214c-1.013.1-2.024.22-3.036.33zM528.72 168.789a4.49 4.49 0 0 1-.421-1.298q-.034-20.58-.034-41.159c-.001-.94.305-1.242 1.249-1.24q20.58.036 41.159-.004c1.045-.003 1.305.377 1.263 1.332a38.809 38.809 0 0 0 .006 4.198c.072 1.125-.33 1.437-1.43 1.432-8.4-.04-16.8-.022-25.2-.022h-10.03v11.439h35.013c1.624 0 1.624.004 1.625 1.667 0 1.32-.06 2.644.02 3.959.062 1.031-.343 1.276-1.312 1.273q-16.92-.041-33.839-.017h-1.504v11.52h35.044c1.589 0 1.59.002 1.59 1.576.002 1.36.038 2.722-.021 4.079a4.491 4.491 0 0 1-.458 1.265zM290.88 168.789a44.58 44.58 0 0 1-4.484-.498 65.662 65.662 0 0 1-8.92-2.174c-5.619-2.034-9.079-6.21-10.585-11.964a28.61 28.61 0 0 1-.147-13.88 16.989 16.989 0 0 1 12.183-13.132 46.614 46.614 0 0 1 28.53.112c7.679 2.489 11.503 8.2 12.447 16.022a29.047 29.047 0 0 1-.542 10.358c-1.82 7.549-6.808 11.914-14.17 13.655-2.82.667-5.75.87-8.629 1.29-.376.056-.749.14-1.123.21zm2.397-37.017c-3.334.364-6.368.553-9.349 1.053-5.376.901-9.253 3.72-10.466 9.291a24.745 24.745 0 0 0-.502 6.179c.28 7.055 3.628 11.124 10.504 12.632a45.02 45.02 0 0 0 19.727-.109c4.866-1.097 8.304-3.949 9.41-8.957a24.815 24.815 0 0 0 .508-6.77c-.406-6.684-3.755-10.65-10.273-12.055-3.217-.694-6.544-.881-9.56-1.264zM138.48 168.789c-1.453-.157-2.925-.214-4.355-.492a61.331 61.331 0 0 1-8.041-1.816c-7.258-2.461-11.027-7.844-12.064-15.273a28.85 28.85 0 0 1 .53-11.311 17.176 17.176 0 0 1 12.364-12.846 47.03 47.03 0 0 1 27.877.05c7.99 2.479 12.497 8.76 12.956 17.324a29.598 29.598 0 0 1-1.02 10.565c-2.162 6.892-7.086 10.75-13.909 12.317-2.828.65-5.755.864-8.637 1.28-.382.056-.76.134-1.141.202zm2.198-36.98c-3.01.327-6.046.51-9.026 1.014-5.592.945-9.5 3.949-10.56 9.765a27.599 27.599 0 0 0-.32 6.671c.39 6.01 3.569 9.849 9.38 11.397a34.483 34.483 0 0 0 6.245 1.034 44.183 44.183 0 0 0 15.219-1.057c4.78-1.318 7.912-4.337 8.814-9.24a27.347 27.347 0 0 0 .294-7.257c-.504-5.73-3.69-9.339-9.228-10.908a49.404 49.404 0 0 0-10.818-1.42zM61.68 168.789a5.278 5.278 0 0 1-.421-1.424c-.023-13.63-.01-27.261-.036-40.892-.002-1.022.268-1.393 1.349-1.386 8.473.052 16.948-.024 25.42.091a42.811 42.811 0 0 1 13.233 1.859 21.047 21.047 0 0 1 3.181 1.37 10.492 10.492 0 0 1 .524 18.394 21.487 21.487 0 0 1-10.255 2.984c-8.18.327-16.37.393-24.555.562-.594.012-1.189.002-1.96.002v1.343c0 5.196.013 10.393-.02 15.589a5.538 5.538 0 0 1-.46 1.508zm6.538-25.38c.38.025.619.055.857.055 6.396.002 12.793.056 19.188-.026a63.377 63.377 0 0 0 7.276-.604 12.47 12.47 0 0 0 6.041-2.118 3.443 3.443 0 0 0-.066-5.918 10.558 10.558 0 0 0-2.565-1.26 31.552 31.552 0 0 0-9.916-1.452c-6.555-.072-13.111-.045-19.667-.055-.381 0-.763.04-1.148.062zM405.36 168.789c-.657-.59-.242-1.125.075-1.674q8.17-14.165 16.337-28.332c2.453-4.254 4.92-8.5 7.343-12.772a1.55 1.55 0 0 1 1.605-.921c1.637.062 3.28.065 4.916 0a1.642 1.642 0 0 1 1.69.985q11.263 19.572 22.577 39.114c.44.76.852 1.54 1.334 2.272a.852.852 0 0 1-.197 1.328h-6.96c-1.38-2.332-2.78-4.652-4.13-7.001a1.58 1.58 0 0 0-1.576-.942q-15.174.052-30.349-.002a1.58 1.58 0 0 0-1.57.95c-1.354 2.345-2.753 4.665-4.135 6.995zm15.666-14.935h24.355l-12.194-21.042-12.161 21.042zM0 167.829c1.922-3.261 3.867-6.509 5.762-9.786q9.204-15.923 18.36-31.874A1.795 1.795 0 0 1 26 125.086a46.677 46.677 0 0 0 4.676.002 1.724 1.724 0 0 1 1.775 1.055q9.378 16.307 18.809 32.584c1.658 2.87 3.3 5.75 4.977 8.609.319.543.498.996-.077 1.453H49.2c-1.389-2.327-2.807-4.638-4.149-6.991a1.677 1.677 0 0 0-1.698-.948q-15.054.043-30.109-.005a1.729 1.729 0 0 0-1.755 1.04c-1.302 2.328-2.693 4.606-4.049 6.904H0zm28.28-35.018l-12.177 21.067h24.38L28.28 132.81zM174.48 168.789a4.465 4.465 0 0 1-.421-1.293q-.034-20.572-.034-41.143c-.001-.913.236-1.309 1.214-1.262a37.854 37.854 0 0 0 4.316-.005c1.141-.076 1.43.356 1.424 1.436-.037 7.277-.019 14.554-.019 21.83v13.516h1.532l33.586.001c1.6 0 1.6.003 1.602 1.574 0 1.36.038 2.721-.022 4.078a4.514 4.514 0 0 1-.458 1.268zM222.96 168.789a5.349 5.349 0 0 1-.421-1.435c-.023-13.636-.01-27.272-.034-40.907-.002-1.044.34-1.417 1.395-1.358a35.402 35.402 0 0 0 4.316-.003c1.175-.079 1.278.514 1.276 1.444q-.03 13.916-.012 27.831v7.508H264.52c1.68 0 1.68.002 1.68 1.729 0 1.32.04 2.641-.024 3.958a4.097 4.097 0 0 1-.496 1.233z"/><path d="M415.049 79.868c-22.967 1.287-46.176 1.893-69.279 5.352 9.168 12.206 19.854 22.992 29.7 34.515-11.96-9.527-22.723-20.498-35.494-29.738-3.051 23.895-3.451 47.575-4.317 70.877-1.19-23.154-1.908-46.69-5.222-70.033a5.558 5.558 0 0 0-.355-.946c-12.408 9.462-23.307 20.46-35.028 30.522 9.436-11.952 20.32-22.707 29.48-35.436-23.38-2.876-46.56-3.364-69.14-4.15 11.032-.593 22.648-1.163 34.256-1.858 11.603-.695 23.192-1.57 35.074-3.365-9.458-12.392-20.26-23.229-30.157-34.85 12.073 9.598 22.888 20.708 35.706 29.61C333.44 47.005 333.908 23.544 334.71 0c1.33 23.374 1.92 46.708 5.227 70.269 12.153-9.435 22.78-20.048 34.152-29.819-9.317 11.823-20.069 22.462-29.11 35.006 2.3.33 4.279.736 6.276.88 11.996.864 23.99 1.78 35.997 2.456 8.815.496 17.65.649 26.475.96.517.019 1.032.09 1.323.116z"/></svg>
