<svg data-name="Layer 1" xmlns="http://www.w3.org/2000/svg" fill="currentColor" viewBox="0 120 400 160"><title>Asia gaming</title><path d="M119.3 248.1l-2.9 16.3L99 248.1zM240.9 230.6l-2 5.5h8.2l-2.5 4.9c-2.1 1.6-4.6 2.3-7.1 2.3-3.9 0-7.7-1-9.2-3-1.5-2-1.6-4.9-.3-8.6 1.3-3.7 4.9-7.8 8.2-10.1 3.3-2.3 12.5-3 15.1 3.1l6.2-.1s-1.4-7.1-7.6-9.2c-5.5-1.9-12.6-1.1-17.6 2.2-5 3.3-8.4 7.6-10.2 12.7-1.8 5.1-1.5 9.4 1 12.6 2.5 3.2 6.7 4.9 12.5 4.9 4.8 0 9.5-.9 14.1-2.8l.5-.2 5.7-14.1h-15zM323.7 225.8c-1.1-1.5-3-2.2-5.7-2.2-3.1 0-6 1.2-8.6 3.4-.3-.7-.7-1.3-1.3-1.9-1.1-1-2.7-1.5-4.5-1.5-2.3 0-4.5.7-6.5 2l.5-1.4h-6l-8.7 23.1h6l4.2-13.3c.6-1.9 1.6-3.4 2.9-4.6 1.3-1.1 2.6-1.7 4-1.7 1.2 0 2 .3 2.4.8.6.8.5 2.3-.1 4.4l-4.6 14.5h6l4.2-13.3c.5-1.7 1.5-3.2 3-4.5 1.3-1.2 2.7-1.8 4-1.8 2.1 0 2.4.7 2.5 1 .2.6.4 1.9-.5 4.6l-4.4 14h6l4.5-14.3c1-3.9 2-5.5.7-7.3zM363.1 226.4c-1-1.8-4.3-2-5.7-1.7-2 .4-4.2 1.6-7.6 3.1l1.6-3.7h-5.6l-7.2 23.1h5.6l3.9-12.7c.5-1.7 1.5-3.2 2.9-4.3 1.4-1.1 2.8-1.7 4.3-1.7 1.1 0 1.8.3 2.2.8.4.6.7 1.8-.1 4.6l-4.1 13.3h5.6l4.2-13.6c1-3.1 1-5.5 0-7.2zM389.5 224.2l-.4 4.3c-1-1.1-2.2-4.3-5.2-4.8-3.2-.5-6.3 1.2-8.8 3.4-2.5 2.2-4.4 5.3-5.5 9-1 3.4-1 6.3.2 8.4 1.2 2.2 3.4 3.3 6.5 3.3 2.5 0 4.7-.7 6.7-2.1-1.6 4.5-2.5 6.6-7 6.6-2 0-2.4-1-4.2-2.2h-5.4c.4 1 2.2 4.4 4.3 5.4 9.9 5 15.7-2.5 18.2-10.7l6.3-20.8h-5.7zm-2.8 9.2l-.9 3.1c-.6 1.9-1.6 3.5-3.1 4.7-1.4 1.2-3 1.8-4.7 1.8-2 0-2.7-.9-3.1-1.6-.6-1.2-.6-2.8 0-4.9.8-2.6 1.9-4.6 3.5-5.9 1.5-1.4 3.1-2 5-2 1.4 0 2.3.4 3 1.3.6.9.7 2.1.3 3.5zM257.8 178h-5.6l-24 30.4h7l6-8h12.4l.7 8h6.5l-3-30.4zm-12.7 17.5l7.4-9.6.8 9.6h-8.2zM281.2 226.7c-1.2-1.3-3.1-2.2-5.8-2.2-3 0-6.2.5-8.7 2.3-1.3.9-3.6 3.4-3.6 3.4l4.8.4c1.8-2.2 3.9-2.4 6.4-2.4.9 0 1.6.2 1.9.6.3.4.6 2.3.2 4.2l-6.3.8c-5.5.7-9 2.1-10.3 6.5-.7 2.1-.4 3.9.6 5.2 1.1 1.4 3 2 5.5 2 2.2 0 4.3-1.7 6.2-2.9l.7 2.4h5.7s-1-4.3 3.4-14.4c.7-2 .6-4.4-.7-5.9zm-6.7 10.6c-.5 1.6-1.5 3-2.8 4-1.3 1-2.7 1.5-4.3 1.5-1 0-1.6-.2-2-.6-.4-.4-.4-1-.2-1.7.4-1.2 1-2 1.7-2.4.9-.5 2.1-.8 3.7-1l4-.5-.1.7zM327.9 187.5c-1.2-1.3-3.1-2.2-5.8-2.2-3 0-6.2.5-8.7 2.3-1.3.9-3.6 3.4-3.6 3.4l4.8.4c1.8-2.2 3.9-2.4 6.4-2.4.9 0 1.6.2 1.9.6.3.4.6 2.3.2 4.2l-6.3.8c-5.5.7-9 2.1-10.3 6.5-.7 2.1-.4 3.9.6 5.2 1.1 1.4 3 2 5.5 2 2.2 0 4.3-1.7 6.2-2.9l.7 2.4h5.7s-1-4.3 3.4-14.4c.7-1.9.6-4.3-.7-5.9zm-6.6 10.7c-.5 1.6-1.5 3-2.8 4-1.3 1-2.7 1.5-4.3 1.5-1 0-1.6-.2-2-.6-.4-.4-.4-1-.2-1.7.4-1.2 1-2 1.7-2.4.9-.5 2.1-.8 3.7-1l4-.5-.1.7zM291.3 208.2h6l7.7-22.3h-6zM308.4 176.4h-6.1l-2.4 5.5h6.1zM325.5 247.3h5.5l6.9-22.3h-5.5zM341 215.5h-5.5l-2.2 5.6h5.5zM289.7 192.3c.7-2 .5-3.6-.6-4.8-1.1-1.2-3.3-1.8-6.5-1.8-2 0-3.8.3-5.4.8-1.6.5-3 1.2-4.1 2.2-1.1 1-1.9 2-2.4 3.1-.7 1.7-.5 3.2.6 4.4.8.9 2.4 1.6 5 2.2 2 .5 3.2.8 3.8 1 .8.3 1.3.6 1.5.9.2.4.2.8 0 1.3-.3.8-1 1.5-2.1 2.1-1.1.6-2.5.9-4.1.9-1.6 0-2.7-.3-3.3-1-.6-.7-.8-1.7-.6-3.2l-5.2.4c-.7 2.5-.4 4.3.8 5.6 1.2 1.3 3.4 1.9 6.7 1.9 2.2 0 4.2-.3 5.9-.8 1.7-.5 3.2-1.3 4.5-2.4 1.3-1.1 2.1-2.3 2.7-3.5.6-1.4.7-2.6.4-3.5-.3-.9-.9-1.7-1.9-2.2-1-.5-2.6-1.1-5-1.6-2.3-.5-3.7-1-4.2-1.5-.4-.4-.4-.8-.2-1.3.2-.6.7-1 1.4-1.4 1.1-.5 2.3-.8 3.9-.8 1.5 0 2.4.2 3 .7.5.5.7 1.3.4 2.4l5-.1zM75.1 188.3l8.2 20.7h-24z"/><path d="M123.5 191.7c-1 7.8-.3 15.2 2.1 21.6l-6.1 34.2-.1.5H99l1.5-6 3.1-17.8-24.2-63.1L13.1 248h16.3l19.8-26 39.7.9 10 25 17.4 16.3H5l20-111.9h111.4l-3.2 17.7c-5.2 6.6-8.7 14-9.7 21.7z"/><path d="M119.2 135.6l-3 16.8-12.6 71.8-3.1 17.8-1 5.5h109.6l19.7-111.9H119.2zm39.9 85.9c11 .2 20.9-5.4 27.5-13.6H163l2.6-11.9h38.8c-.7 4.6-1.1 7.9-3.4 11.9-8.6 15.4-26.2 26.7-44.8 26.4-15.9-.2-26.2-8.8-30.6-21-2.3-6.4-3.1-13.9-2.1-21.6 1-7.6 4.5-15.1 9.8-21.5 9-11 23-18.8 37.6-18.8 19.2 0 31.8 12.1 35.2 28.2h-14.2c-3.6-8.4-11.5-14.2-22.7-14.3-16.7-.2-31.1 13.2-32.6 27.3-1.6 15.3 5.9 28.6 22.5 28.9z"/><path d="M103.6 224.3l-3.1 17.8 3.9-15.7-.8-2.1z"/></svg>
