<svg xmlns="http://www.w3.org/2000/svg" viewBox="0 0 800 400" fill="currentColor">
    <path d=" M 464.967 158.807 L 386.349 158.807 L 376.491 257.675 C 404.3 251.637 431.613 244.263 457.488 235.867 L 464.967 158.807 Z " /><path d=" M 607.153 158.807 L 522.197 158.807 L 519.182 190.97 L 562.411 190.97 C 573.922 184.353 584.354 177.525 593.441 170.53 C 598.589 166.57 603.11 162.655 607.153 158.807 Z " /><path d=" M 688.722 158.807 C 708.656 114.399 653.667 82.741 541.264 82.373 C 647.062 89.546 678.602 133.495 609.571 186.666 C 534.04 244.841 366.744 292.007 235.918 292.007 C 212.842 292.007 192.475 290.527 174.94 287.781 L 175.135 287.447 L 174.854 287.447 L 182.442 274.402 L 217.179 214.681 L 240.316 275.469 C 266.88 274.525 294.599 271.843 322.508 267.629 L 290.518 183.297 C 287.855 176.123 281.91 170.239 272.691 165.669 C 263.466 161.098 253.372 158.807 242.43 158.807 C 231.487 158.807 221.227 161.142 211.643 165.802 C 206.852 168.138 202.715 170.83 199.228 173.877 C 195.739 176.923 192.918 180.371 190.75 184.23 L 142.002 268.441 L 136.407 278.105 C 94.839 262.269 86.695 234.287 119.003 201.423 C 62.854 245.219 67.703 283.333 121.716 303.485 L 99.163 342.442 L 143.08 342.442 L 156.348 319.61 L 156.554 319.61 L 160.154 313.382 C 180.668 316.851 204.834 318.731 232.426 318.731 C 240.362 318.731 248.44 318.542 256.592 318.242 L 257.115 319.61 L 257.299 319.61 L 265.807 342.442 L 350.884 342.442 L 338.856 310.735 C 349.795 309.201 360.76 307.443 371.726 305.497 L 370.335 319.433 C 370.335 320.333 370.324 321.145 370.335 321.857 C 370.342 322.567 370.447 323.291 370.636 324.003 C 372.248 330.019 378.059 334.735 388.079 338.138 C 396.72 341.007 405.768 342.442 415.243 342.442 L 526.79 342.442 L 530.171 310.279 L 462.731 310.279 C 455.836 310.279 451.91 308.445 450.926 304.763 C 450.876 304.585 450.854 304.395 450.871 304.218 C 450.876 304.039 450.899 303.774 450.931 303.418 L 452.467 287.603 C 500.883 274.691 546.596 258.41 585.104 240.047 L 574.912 342.442 L 653.718 342.442 L 668.114 197.821 C 668.475 193.25 672.902 190.97 681.398 190.97 L 739.718 190.97 L 742.722 158.807 L 688.722 158.807 Z " /><path d=" M 488.187 84.48 C 488.187 103.523 503.624 118.959 522.663 118.959 L 522.663 118.959 C 541.708 118.959 557.151 103.523 557.151 84.48 L 557.151 84.48 C 557.151 65.436 541.708 50 522.663 50 L 522.663 50 C 503.624 50 488.187 65.436 488.187 84.48 Z "/>
</svg>
