<svg data-name="Authentic Gaming" xmlns="http://www.w3.org/2000/svg" fill="currentColor" viewBox="0 0 600 341"><path d="M423.4 250.6l-92.7-247a6.06 6.06 0 0 0-5.3-3.6h-42.8a6.06 6.06 0 0 0-5.3 3.6l-93.5 247a2.48 2.48 0 0 0 2.5 3.6h55.1a9.54 9.54 0 0 0 6.4-2.9s30-35.5 56.3-35.5 56.3 35.5 56.3 35.5a9.75 9.75 0 0 0 6.4 2.9H421c2.1.1 3.2-1.5 2.4-3.6zm-80.3-120.9h-75.7a19 19 0 0 0-.8 6.9 28.67 28.67 0 0 0 1.3 9.3h74.4a40.3 40.3 0 1 1 .3-23h19.8c.4 2.2.7 4.4.9 6.7h-8zm16-17.7l-4.6 1.9a55.11 55.11 0 0 0-22.6-26.3l2.5-4.2a59.51 59.51 0 0 1 24.7 28.6zm-56.9-36.9a59.93 59.93 0 0 1 10.4.6l-.5 3.8a51.62 51.62 0 0 0-17.5.5 55.86 55.86 0 0 0-16.5 5.9l-2-3.6a57.17 57.17 0 0 1 26.1-7.2zm-45.1 23.2l3.3 2.5a54.57 54.57 0 0 0-8.4 15.4 55.4 55.4 0 0 0-3.1 17.3l-4.2-.1v-.9a59.37 59.37 0 0 1 12.4-34.2zm-8 58.5l3.9-1.6a55.11 55.11 0 0 0 22.6 26.3l-2.2 3.8a59.38 59.38 0 0 1-24.3-28.5zm46.6 36.5l.6-4.5a51.62 51.62 0 0 0 17.5-.5 55.86 55.86 0 0 0 16.5-5.9l2.3 4.1a60.3 60.3 0 0 1-36.9 6.8zm55.1-22.2l-3.8-2.9a54.57 54.57 0 0 0 8.4-15.4 55.4 55.4 0 0 0 3.1-17.3l5 .1v.9a58.57 58.57 0 0 1-12.7 34.6zM35.3 265.4H22.8L0 323.9h12.5l4.8-13.3h23.5l5 13.3h12.9zM21 300.7l7.9-21.7 8 21.7zM88.6 323.9v-6.4a17.65 17.65 0 0 1-6.1 5.4 16 16 0 0 1-8 1.9 15.17 15.17 0 0 1-7.7-1.9 10.53 10.53 0 0 1-4.9-5.3 23.75 23.75 0 0 1-1.6-9.4v-26.8h11.2V301c0 6 .2 9.6.6 10.9a6.18 6.18 0 0 0 2.3 3.2 6.86 6.86 0 0 0 4.1 1.2 8.36 8.36 0 0 0 5.1-1.6 7.26 7.26 0 0 0 3.1-3.9c.5-1.6.9-5.4.9-11.4v-17.8h11.2V324l-10.2-.1zM126 281.5v8.9h-7.7v17.1a55.67 55.67 0 0 0 .2 6.1 2.31 2.31 0 0 0 1 1.4 3 3 0 0 0 1.9.5 15 15 0 0 0 4.5-1.1l.9 8.7a22.63 22.63 0 0 1-8.8 1.7 13 13 0 0 1-5.4-1 9.31 9.31 0 0 1-3.6-2.6 10.44 10.44 0 0 1-1.6-4.3 59.25 59.25 0 0 1-.4-7.9v-18.5h-5v-8.9h5.1v-8.4l11.3-6.5v15l7.6-.2zM140.8 265.4v21.5c3.6-4.2 7.9-6.4 13-6.4a16 16 0 0 1 7 1.5 11.77 11.77 0 0 1 4.7 3.6 12.55 12.55 0 0 1 2.2 5 44.25 44.25 0 0 1 .5 8.4v24.8H157v-22.3c0-4.4-.2-7.3-.6-8.5a5.48 5.48 0 0 0-2.3-2.9 7.24 7.24 0 0 0-4-1.1 10.33 10.33 0 0 0-5 1.3 7.37 7.37 0 0 0-3.2 4.1 23.85 23.85 0 0 0-1 8.1v21.2h-11.3v-58.5h11.2v.2zM197.2 315.1a6.35 6.35 0 0 1-4.4 1.5 8.28 8.28 0 0 1-6.4-2.8 11.84 11.84 0 0 1-2.7-7.8h28.1c.2-8.6-1.6-15-5.2-19.2s-8.6-6.2-14.9-6.2a18 18 0 0 0-13.9 6c-3.6 4-5.5 9.5-5.5 16.5 0 5.9 1.4 10.7 4.2 14.6 3.6 4.8 9 7.2 16.4 7.2 4.6 0 8.5-1 11.6-3.2a19 19 0 0 0 6.8-9.4l-11.2-1.9a9.24 9.24 0 0 1-2.9 4.7zm-10.9-23.4a8 8 0 0 1 6.1-2.6 7.83 7.83 0 0 1 5.8 2.6c1.58 1.68 2.38 4.05 2.49 7.3v.1a.34.34 0 0 0 0-.1H184a10 10 0 0 1 2.3-7.3zM255.4 323.9h-11.2v-21.7c0-4.6-.2-7.5-.7-8.8a6.07 6.07 0 0 0-2.3-3.1 6.39 6.39 0 0 0-3.9-1.1 8.87 8.87 0 0 0-5.2 1.6 8.08 8.08 0 0 0-3.2 4.3c-.6 1.8-.9 5-.9 9.7V324h-11.2v-42.4h10.4v6.2c3.7-4.8 8.4-7.2 14-7.2a18.71 18.71 0 0 1 6.8 1.3 12.16 12.16 0 0 1 4.7 3.4 11.32 11.32 0 0 1 2.2 4.7 36.39 36.39 0 0 1 .6 7.5l-.1 26.4zM282.2 281.5v8.9h-7.7v17.1a55.67 55.67 0 0 0 .2 6.1 3.32 3.32 0 0 0 1 1.4 3 3 0 0 0 1.9.5 15 15 0 0 0 4.5-1.1l.9 8.7a22.63 22.63 0 0 1-8.8 1.7 13 13 0 0 1-5.4-1 9.31 9.31 0 0 1-3.6-2.6 10.44 10.44 0 0 1-1.6-4.3 59.25 59.25 0 0 1-.4-7.9v-18.5h-5.1v-8.9h5.1v-8.4l11.3-6.5v15l7.7-.2zM285.8 265.4H297v10.4h-11.2zM285.8 281.5H297v42.4h-11.2zM341.4 294l-11 2a7.82 7.82 0 0 0-2.6-5 7.65 7.65 0 0 0-5.1-1.7 8.24 8.24 0 0 0-6.7 2.9c-1.6 1.9-2.5 5.1-2.5 9.7 0 5 .9 8.6 2.6 10.6a8.31 8.31 0 0 0 6.8 3.1 7.48 7.48 0 0 0 5.2-1.8c1.3-1.2 2.3-3.3 2.9-6.2l11 1.9c-1.2 5-3.3 8.8-6.6 11.5s-7.6 3.9-13 3.9c-6.2 0-11.2-1.9-14.8-5.9s-5.5-9.3-5.5-16.2 1.9-12.4 5.5-16.4 8.7-5.8 15-5.8q7.65 0 12.3 3.3c3 2.2 5.1 5.5 6.5 10.1zM373.6 300.9v-6.8l24.8-.1v21.7a44.4 44.4 0 0 1-11.8 6.8 35.36 35.36 0 0 1-12.4 2.3 33.34 33.34 0 0 1-15.7-3.7 24.88 24.88 0 0 1-10.6-10.7 33.8 33.8 0 0 1-3.6-15.6 35.66 35.66 0 0 1 3.6-15.9 23.78 23.78 0 0 1 10.2-11 34.45 34.45 0 0 1 26.9-1.6 20.41 20.41 0 0 1 8.1 5.7 24.62 24.62 0 0 1 4.4 9.5l-7 1.9c-.9-2.9-1.9-5.4-3.3-7a14.33 14.33 0 0 0-5.6-4.1 20.89 20.89 0 0 0-8.1-1.6 23.3 23.3 0 0 0-9.2 1.6 16 16 0 0 0-6.2 4.3 19.74 19.74 0 0 0-3.7 5.8 30.28 30.28 0 0 0-2.3 11.8 28.85 28.85 0 0 0 2.7 13.1 17.32 17.32 0 0 0 7.8 7.8 24.29 24.29 0 0 0 10.9 2.6 25.88 25.88 0 0 0 9.8-1.9 25.58 25.58 0 0 0 7.3-4.1v-10.9h-17.2l.2.1zM440 318.6a97.19 97.19 0 0 1-.5-12.6v-9.5a43.22 43.22 0 0 0-.4-6.6 12.41 12.41 0 0 0-2.3-4.9 11.38 11.38 0 0 0-5-3.2 27.07 27.07 0 0 0-8.8-1.2 28.45 28.45 0 0 0-9.6 1.5 13.7 13.7 0 0 0-6.4 4.3 16.91 16.91 0 0 0-3.2 7.3l7 .9q1.2-4.5 3.6-6.3t7.5-1.8q5.25 0 8.1 2.4c1.3 1.2 2 3.3 2 6.2 0 .3-.1.9-.1 1.9a69.74 69.74 0 0 1-12.8 2.5 57.82 57.82 0 0 0-6.4 1.1 17.52 17.52 0 0 0-5.2 2.3 11.29 11.29 0 0 0-3.7 4.1 12 12 0 0 0-1.4 5.7 11.27 11.27 0 0 0 3.7 8.7c2.5 2.2 6 3.4 10.7 3.4a23 23 0 0 0 7.9-1.4 24.28 24.28 0 0 0 7.7-4.8 11.37 11.37 0 0 0 1.6 5.1h7.8a15.54 15.54 0 0 1-1.8-5.1zm-9.4-6.2a10.81 10.81 0 0 1-4.7 5 15 15 0 0 1-7.4 1.8 10 10 0 0 1-6.4-1.9 6.06 6.06 0 0 1-2.2-4.8 5.89 5.89 0 0 1 1-3.4 6.63 6.63 0 0 1 2.9-2.3 24.09 24.09 0 0 1 6.3-1.5c5.2-.8 9.1-1.6 11.7-2.7v2.6a16.71 16.71 0 0 1-1.2 7.2zM446.1 323.9v-42.4h6.4v6a15 15 0 0 1 5.3-5 15.46 15.46 0 0 1 7.5-1.9 14 14 0 0 1 7.7 1.9 11 11 0 0 1 4.3 5.4c3.3-5 7.7-7.4 13.1-7.4 4.2 0 7.5 1.2 9.7 3.5s3.4 5.9 3.4 10.8v29.1h-7.1v-26.7a18.29 18.29 0 0 0-.7-6.2 5.81 5.81 0 0 0-2.6-3 7.5 7.5 0 0 0-4.3-1.2 10.85 10.85 0 0 0-7.5 2.9c-1.9 2-2.9 5.1-2.9 9.5v24.6h-7.2v-27.5q0-4.8-1.8-7.2t-5.7-2.4a10.13 10.13 0 0 0-5.6 1.6 9.24 9.24 0 0 0-3.7 4.7 25.46 25.46 0 0 0-1.2 8.8v22l-7.1.1zM510.1 265.4h7.2v8.2h-7.2zM510.1 281.5h7.2v42.4h-7.2zM524.2 323.9v-42.4h6.4v6.1c3.1-4.7 7.6-7 13.5-7a18.35 18.35 0 0 1 7.1 1.4 10.7 10.7 0 0 1 4.8 3.6 15 15 0 0 1 2.3 5.3 48.81 48.81 0 0 1 .4 7V324h-7.2v-25.8a18.62 18.62 0 0 0-.9-6.6 7.08 7.08 0 0 0-2.9-3.5 9.1 9.1 0 0 0-5-1.3 11.85 11.85 0 0 0-7.9 2.9c-2.3 1.9-3.3 5.6-3.3 11v23.1l-7.3.1zM593.4 281.5v5.1a14.76 14.76 0 0 0-12.3-6.1 17.07 17.07 0 0 0-9.8 2.8 17.44 17.44 0 0 0-6.4 7.9 27.64 27.64 0 0 0-2.2 11.2 24.12 24.12 0 0 0 4.8 15.1q4.8 6.3 13.5 6.3a14.72 14.72 0 0 0 11.7-5.5c0 4.7-.1 7.7-.5 9.2a9.5 9.5 0 0 1-3.6 5.6 13.07 13.07 0 0 1-7.7 2 12.16 12.16 0 0 1-7.3-2 6.69 6.69 0 0 1-2.4-4.7l-7-1c-.1 4.6 1.4 8 4.3 10.2 3.1 2.2 7.3 3.4 12.3 3.4a22.12 22.12 0 0 0 10.8-2.4 14.86 14.86 0 0 0 6.4-6.5c1.3-2.7 2-7.4 2-14v-36.6zm-3.4 32.6a11 11 0 0 1-16.6 0c-2.2-2.6-3.3-6.6-3.3-12.2 0-5.1 1.2-9 3.4-11.6a10.22 10.22 0 0 1 8.1-3.9 10.71 10.71 0 0 1 8.3 4c2.2 2.6 3.4 6.5 3.4 11.7 0 5.5-1 9.4-3.3 12z"/></svg>
