<svg xmlns="http://www.w3.org/2000/svg" fill="currentColor" viewBox="0 0 494.683 48.2334"><path d="M29.562 23.125c5.706 2.823 7.388 5.587 6.727 11.773a12.958 12.958 0 0 1-11.473 11.413c-7.688.841-15.557.601-23.305.661-.48 0-1.442-1.262-1.442-1.922-.06-14.296-.12-28.592 0-42.888C.07 1.442 1.21.18 1.811.18 9.32.24 16.828-.06 24.216.781c8.41.961 13.034 7.568 10.631 14.716-.9 2.823-3.423 5.046-5.285 7.628zm-18.2 4.085v11.533a92.656 92.656 0 0 0 10.271-.841c2.883-.541 3.724-2.944 3.604-5.707-.12-2.643-1.562-4.144-3.965-4.384-3.183-.421-6.367-.421-9.91-.601zm-.18-18.44v3.844c0 8.049 0 8.049 8.168 6.787 3.424-.54 4.746-1.982 4.685-5.346 0-3.303-1.44-4.985-4.805-5.225-2.523-.241-5.045-.06-8.049-.06zm61.507.12H53.83v10.271h13.995v8.469H53.888v10.452c.841.06 1.802.24 2.703.24 3.604 0 7.208-.06 10.812.06 1.742.06 4.625.06 4.926.781.72 2.042.42 4.505.24 6.787-.06.421-1.322 1.082-2.042 1.082-8.71.06-17.42 0-26.129.06-1.742 0-2.283-.661-2.283-2.343 0-14.115.06-28.231 0-42.346C42.115.601 42.776 0 44.578 0c8.59.06 17.24.06 25.828 0 1.682 0 2.343.601 2.283 2.282-.06 2.163 0 4.205 0 6.608zm18.62.36c-3.844 0-7.147-.12-10.39.06-2.163.12-2.764-.781-2.704-2.823.18-7.869-.84-6.307 6.247-6.367 9.19-.12 18.44 0 27.63 0h3.604c0 2.823.12 5.346-.12 7.749-.06.54-1.32 1.321-2.042 1.321-3.364.12-6.788.06-10.512.06-.06 1.322-.18 2.463-.18 3.664 0 10.332-.12 20.603.06 30.934.06 2.703-.84 3.364-3.424 3.364-8.108-.12-8.108 0-8.108-8.169V12.914c-.06-1.141-.06-2.222-.06-3.664zM183.211.48c13.875-.36 23.786 10.993 21.984 26.91-1.202 10.992-6.968 17.66-16.158 20.002-14.896 3.724-28.17-6.307-28.11-21.684a36.864 36.864 0 0 1 1.501-11.172C165.491 5.466 173.24.48 183.211.48zm-17.36 23.606c-.18 16.278 12.194 22.285 23.606 18.441 7.93-2.643 10.632-9.311 10.992-16.939.541-11.412-5.285-21.504-18.92-20.663-9.37.601-15.678 8.049-15.678 19.161zm80.008 14.296c.061-1.562.181-2.463.181-3.424V3.784c0-1.562-.12-2.943 2.222-2.943 2.162 0 2.403 1.081 2.343 2.823-.06 13.875 0 27.811-.06 41.686 0 .661-.12 1.381-.18 2.042-2.463 1.021-3.785-.18-5.106-1.982q-12.073-16.218-24.267-32.436c-.6-.781-1.2-1.562-2.162-2.763-.06 1.382-.18 2.223-.18 3.003v30.874c0 3.785 0 3.785-4.265 3.364-.06-.961-.18-2.042-.18-3.063 0-13.395-.06-26.79.06-40.184 0-1.082.72-2.223 1.081-3.304 1.261.601 2.943.901 3.724 1.922 8.23 10.812 16.338 21.744 24.447 32.616.661.841 1.321 1.622 2.342 2.943zm104.936-11.653c5.526 6.968 10.812 13.575 16.278 20.543-3.124.721-5.466.781-7.448-1.862-3.544-4.805-7.689-9.25-10.993-14.236-2.582-3.784-5.646-4.565-10.03-3.544v19.822h-4.626c-.06-.961-.18-1.922-.18-2.823 0-13.515.06-26.97-.06-40.484 0-2.703.781-3.544 3.424-3.364 4.385.3 8.77.06 13.154.48 7.268.661 11.533 4.565 12.074 10.632.6 6.968-2.763 11.953-9.73 14.236-.542.12-.962.3-1.863.6zM338.722 4.805v18.741c4.805-.601 9.43-.721 13.755-1.922 4.024-1.142 5.406-4.806 4.925-9.491-.36-3.423-2.463-5.766-6.487-6.367-3.904-.66-7.929-.66-12.193-.961zm37.481-3.664v27.39a26.492 26.492 0 0 0 .54 5.346 12.401 12.401 0 0 0 12.614 9.851c6.427-.18 11.533-4.145 12.314-10.512a155.872 155.872 0 0 0 .601-16.758c.06-5.046 0-10.151 0-15.137 4.324-.961 4.625-.72 4.625 3.004v25.528c-.06 10.932-7.268 18.44-17.78 18.38-10.45 0-17.78-7.568-17.9-18.44-.06-8.289 0-16.639 0-24.928.06-4.324.181-4.385 4.986-3.724zm78.206 39.704c-7.028 9.01-22.885 9.851-31.715 1.862-10.512-9.491-9.37-30.033 2.102-38.262 8.65-6.187 21.924-5.286 28.952 1.982-1.32 3.244-1.922 3.484-4.625 1.682-6.127-4.145-12.614-4.385-19.1-1.322-6.548 3.124-9.13 8.95-9.49 15.918-.362 6.307.84 12.193 5.705 16.698 6.067 5.647 16.338 5.827 23.185.481 2.643-2.042 2.823-1.982 4.986.961zM156.902 6.547c-1.082 2.102-2.043 3.544-4.565 1.802-6.728-4.745-13.936-4.925-20.843-.721-7.148 4.385-8.83 11.653-7.929 19.402 1.622 15.016 13.755 18.8 23.786 15.617a14.286 14.286 0 0 0 4.926-2.763c2.282-1.982 3.784-1.742 5.105.841-6.187 8.589-21.744 9.971-30.814 2.703-9.91-7.929-10.992-26.249-2.162-36.04 8.11-8.95 23.786-9.49 32.496-.841zm100.851 35.019c2.042-3.364 2.462-3.484 5.165-1.262 3.905 3.244 8.23 4.445 13.155 2.944a9.268 9.268 0 0 0 6.607-8.71c.12-3.424-1.682-5.887-5.826-7.508-3.064-1.202-6.247-2.043-9.31-3.304-5.827-2.403-8.35-6.908-7.449-12.854A12.378 12.378 0 0 1 270.907.721c5.046-.601 9.731.06 13.875 3.424 1.262 1.081 1.442 1.982.541 3.303-.96 1.442-2.102 1.322-3.304.361a12.205 12.205 0 0 0-10.63-2.764c-3.786.781-6.128 3.064-6.669 6.728-.48 3.183 1.081 5.886 4.745 7.448 2.944 1.261 6.007 2.162 9.01 3.304 6.728 2.583 9.371 6.487 8.77 12.914a13.833 13.833 0 0 1-11.653 12.374c-7.088 1.201-12.974-.721-17.839-6.247zm48.653-36.16H290.91V1.021c1.021-.06 2.042-.18 3.123-.18h29.733c3.604 0 3.724.18 2.943 4.445h-15.316v41.926c-4.626 1.081-4.926.901-4.926-3.484V9.19c-.06-1.141-.06-2.343-.06-3.784zm172.45 41.986c-4.926.661-4.926.661-4.926-3.604V5.346h-15.256c-1.022-4.265-.84-4.505 3.003-4.505h29.432c3.784 0 3.784 0 3.424 4.385h-15.617c-.06 14.295-.06 28.171-.06 42.166z"/></svg>
