<svg xmlns="http://www.w3.org/2000/svg" fill="currentColor" viewBox="0 0 600 82.151"><path d="M0 .005h8.701v28.807h.204c1.82-5.413 6.577-7.763 16.493-7.763h13.256c20.949 0 27.325 5.922 27.325 22.573v9.194c0 17.979-11.03 21.961-26.818 21.961H27.017c-9.106 0-16.191-2.758-18.72-9.091h-.203v8.276H0V.005zm57.275 42.493c0-12.053-5.971-14.298-17.91-14.298h-11.74c-11.739 0-18.924 2.04-18.924 14.503v9.908c0 9.5 4.152 15.016 17.103 15.016h14.165c14.17 0 17.306-4.802 17.306-14.912V42.498zm125.828-13.481h-11.334v-7.151h11.334V9.506h8.704v12.36h34.506v7.151h-34.506V54.96c0 9.705 3.338 12.667 12.85 12.667h2.733c11.538 0 13.357-2.452 13.357-13.381v-3.881h7.086v5.719c0 10.419-1.014 18.693-19.835 18.693h-4.757c-16.291 0-20.138-7.967-20.138-16.447V29.017zm55.693-7.156h18.216v9.909h.202c2.228-8.275 10.12-10.726 18.924-10.726 14.167 0 19.733 6.128 19.733 20.53 0 1.328-.104 2.76-.205 4.597h-16.795c0-6.639-1.519-9.806-9.313-9.806-6.677 0-11.334 2.555-11.334 8.786v28.803h-19.428V21.861zm64.256 33.811c0-14.199 9.714-15.015 28.538-15.015 10.625 0 16.495.306 20.238 4.185v-4.595c0-5.105-1.518-6.946-9.109-6.946h-11.434c-5.666 0-7.286.51-7.487 4.188h-18.823c0-14.095 6.881-16.445 23.276-16.445h22.564c13.361 0 20.443 6.436 20.443 18.693v34.217h-18.417V68.03c-5.364 5.621-7.388 6.742-17.102 6.742h-13.258c-11.839.101-19.429-2.555-19.429-14.812v-4.288zm34.608 6.842c13.36 0 14.574-2.041 14.574-5.515 0-3.88-1.114-5.312-11.84-5.312h-8.601c-8.197 0-9.918 1.838-9.918 6.129 0 3.371 2.633 4.698 10.22 4.698h5.565zm43.404-19.304c0-13.279 3.037-22.166 27.628-22.166h5.767c7.995 0 16.191 2.246 17.406 10.417h.2V0h19.43v73.954h-18.216v-9.6h-.199c-2.128 6.436-6.985 10.418-18.722 10.418h-5.666c-24.591 0-27.628-8.886-27.628-22.166V43.21zm18.824 7.763c0 5.821.91 9.089 10.219 9.089h11.436c7.69 0 11.736-1.736 11.736-9.601v-5.107c0-7.865-4.046-9.602-11.736-9.602h-11.436c-9.309 0-10.219 3.27-10.219 9.09v6.131zm62.388 4.699c0-14.199 9.714-15.015 28.534-15.015 10.626 0 16.496.306 20.24 4.185v-4.595c0-5.105-1.518-6.946-9.106-6.946h-11.437c-5.667 0-7.286.51-7.488 4.188h-18.823c0-14.095 6.882-16.445 23.276-16.445h22.567c13.356 0 20.44 6.436 20.44 18.693v34.217h-18.417V68.03c-5.363 5.621-7.388 6.742-17.103 6.742h-13.255c-11.841.101-19.428-2.555-19.428-14.812v-4.288zm34.608 6.842c13.357 0 14.571-2.041 14.571-5.515 0-3.88-1.114-5.312-11.84-5.312h-8.602c-8.197 0-9.916 1.838-9.916 6.129 0 3.371 2.629 4.698 10.22 4.698h5.567zm46.041-40.653h18.217v9.909h.201c2.227-8.275 10.121-10.726 18.924-10.726 14.166 0 19.733 6.128 19.733 20.53 0 1.328-.103 2.76-.204 4.597h-16.797c0-6.639-1.517-9.806-9.311-9.806-6.678 0-11.334 2.555-11.334 8.786v28.803h-19.429V21.861zM127.937 13.454c21.092 0 36.486 5.095 36.486 27.036v14.624c0 21.944-15.394 27.037-36.486 27.037H112.02c-21.09 0-36.484-5.093-36.484-27.037V40.49c0-21.941 15.394-27.036 36.484-27.036h15.917zm24.789 35.881v-5.824c0-18.59-11.233-22.574-26.816-22.574h-13.965c-12.348 0-25.3 2.146-25.3 21.044v11.336c0 19.205 12.952 21.35 24.286 21.35h15.789c16.191 0 26.006-3.576 26.006-15.526v-1.023h-8.704c-.504 7.966-4.957 9.399-15.886 9.399h-11.94c-15.181 0-20.847-3.067-20.847-14.914v-3.268h57.377zM125.91 28.089c14.164 0 18.112 5.31 18.112 10.623v3.472H95.349c.81-11.849 4.047-14.095 17.81-14.095h12.751z"/></svg>
