<svg data-name="Layer 1" xmlns="http://www.w3.org/2000/svg" viewBox="0 0 118 45" fill="currentColor"><title>betsoft</title><path d="M1.05 45l5.43-22.5-.13-.1c-2.1 1.31-4.13 2.75-6.35 4.17l4-15.9L8.3 15 11.93.15C12.54 0 116.64-.06 118 .08 118 .62 107.86 44 107.47 45zM49.47 2.06l-3.9 15.84h6.21l-.39 1.52h-6.18l-3.92 16.14h65.93l7.91-33.51zM31.29 19.41h-4l-3.87 16.13h17.07L44.4 19.4h-1.88a7.44 7.44 0 0 1-1.79-.08l.35-1.43h3.72l3.84-15.83H31.59L27.7 17.9h2a8.25 8.25 0 0 1 1.94.09zm-8.8 16.15c1.31-5.36 2.62-10.71 3.92-16.18h-3.52l-.26-.75a1.06 1.06 0 0 1 1.23-.75h2.95c.44-1.84.87-3.6 1.29-5.36s.85-3.46 1.26-5.2.9-3.47 1.24-5.28h-17L9.71 17.9h3.48l-.36 1.54H9.34L5.43 35.56zm12 3.61c-.19-.24-.23-.28-.25-.32a1.39 1.39 0 0 0-2.24-.47 2.79 2.79 0 0 0-.75 3.42A3.44 3.44 0 0 0 33 43.38a.76.76 0 0 0 .51 0 6.64 6.64 0 0 0 3-1.93 3.33 3.33 0 0 0 .89-2c0-1.28-.85-1.83-2-1.21a3.57 3.57 0 0 0-.68.51 1.5 1.5 0 0 0-.2.42zM8.94 18.49l-4.23-4.55-2.33 9.28zm37.75 25c0-.43-.42-.76-.18-1.26a1.54 1.54 0 0 0 1.57.64 2.11 2.11 0 0 0 1.63-1.5 2 2 0 0 0-.46-2.07 3.45 3.45 0 0 0-.52-.46c-.43-.32-.88-.63-1.31-.93a18.52 18.52 0 0 0-1.74.88A13.37 13.37 0 0 0 44 40.07a2 2 0 0 0-.63 1.37A1.17 1.17 0 0 0 45 42.76a11.21 11.21 0 0 0 1.19-.56l-.46.66-.46.63h1c.12 0 .27-.03.42-.04zM21 42.14l.12-.05.15.17a1.27 1.27 0 0 0 2 .29 2.24 2.24 0 0 0 .91-1.8c0-.75-.18-.94-1-1a2 2 0 0 1-.28-.05 4.41 4.41 0 0 0 .28-.6c.17-.6-.06-1-.69-1a4.46 4.46 0 0 0-1 0 1.28 1.28 0 0 0-1.19 1.36v.39a1.27 1.27 0 0 0-1.73.53 2.06 2.06 0 0 0-.32 1.41.87.87 0 0 0 1.17.87 12.88 12.88 0 0 0 1.37-.5L20 43.45h1.19zM8.51 43.51a8.66 8.66 0 0 1 3.6-2.92 12.39 12.39 0 0 1-1.25-1.25 13.58 13.58 0 0 1-.9-1.59 10.51 10.51 0 0 1-3.57 2.78 4.54 4.54 0 0 1 2.12 2.98zM57.64 42h-1.67a4.56 4.56 0 0 1-1.63-.11l.66-2.55h3.21l.14.48.62-.15c.12-.84.05-.94-.69-1h-3a1 1 0 0 0-1 .67c-.24.79-.47 1.59-.65 2.39-.12.54 0 .76.57.77h3.34a.91.91 0 0 0 .91-.71c.13-.44.25-.89.4-1.42h-2.32c-.1 0-.2.2-.3.31l.07.15h1.62zm48-2.24c.68 0 .78-.09.75-.5s-.16-.51-.63-.52h-3.26a.91.91 0 0 0-.94.67c-.23.79-.46 1.59-.64 2.39-.12.54 0 .76.57.77h3.34a.92.92 0 0 0 .91-.71c.13-.44.24-.89.39-1.43h-2.3c-.11 0-.21.2-.44.42l1.8.08-.25 1h-3.33l.71-2.6h3.24zm-27.2 2.79l1-3.74a.85.85 0 0 0-1 .23q-.67.69-1.41 1.33a2.66 2.66 0 0 1-.91.7c-.39-.67-.79-1.31-1.14-2a.58.58 0 0 0-.88-.29l-1 3.72h.65l.8-2.84 1.4 2.38 2.57-2.42-.76 2.92zm16.46-1l-.3-.27c-.77-.77-1.53-1.54-2.31-2.3-.47-.45-.71-.37-.89.26-.29 1-.57 2.09-.85 3.13v.19h.63l.82-2.89.42.39 2.12 2.15c.21.21.4.5.81.28.31-1.21.72-2.43 1-3.69-.63-.05-.65-.06-.76.32-.24.77-.44 1.55-.67 2.44zM67.11 38.8a1 1 0 0 0-1.25.37c-.8.95-1.65 1.86-2.47 2.79-.15.17-.28.35-.44.55a.77.77 0 0 0 1-.28c.18-.23.44-.53.69-.55.9-.07 1.8 0 2.68 0l.38.93h.79zm18-.07l-1 3.82h.77l1-3.78z"/><path d="M58.86 33.5l3.4-14a7.75 7.75 0 0 0-2-.09h-4l.39-1.51h6.06L66 4.38c.6-.14 45.49-.17 46.33 0 0 .56-6.61 27.74-7.12 29.16zm22.57-1.77a4 4 0 0 0 1.94-.42 5.91 5.91 0 0 0 3.23-4c.66-2.66 1.33-5.31 2-8 .76-3 1.54-6.06 2.28-9.09a3.5 3.5 0 0 0-.27-2.78 3.23 3.23 0 0 0-3.76-1.33 5.59 5.59 0 0 0-4.36 4.37C81 16.26 79.6 22 78.2 27.69a4.14 4.14 0 0 0 0 1.91c.36 1.4 1.49 2.14 3.22 2.13zm-3.59-19.61h2.27a.48.48 0 0 0 .56-.41c.14-.6.34-1.19.44-1.8a3 3 0 0 0-2.3-3.73 4.31 4.31 0 0 0-1.84 0 5.63 5.63 0 0 0-4.29 4.16c-.11.37-.19.75-.28 1.13-.31 1.33-.68 2.65-.91 4a3.9 3.9 0 0 0 1.12 3.7c.45.43.87.88 1.3 1.33a3.4 3.4 0 0 1 1 3.05c-.26 1.39-.65 2.76-1 4.13A1.9 1.9 0 0 1 72.39 29 1.07 1.07 0 0 1 71 28a3.48 3.48 0 0 1 .12-.76c.11-.49.23-1 .36-1.5H68.8l-.18.61a9.57 9.57 0 0 0-.4 2.65 2.87 2.87 0 0 0 2.13 2.58 4.37 4.37 0 0 0 2.39-.06 5.59 5.59 0 0 0 3.92-4c.25-.92.5-1.84.73-2.77a10.79 10.79 0 0 0 .52-3.66 3.53 3.53 0 0 0-1-2.23c-.45-.46-.86-1-1.33-1.41a3.71 3.71 0 0 1-1-3.85c.26-1.1.54-2.21.83-3.3a1.91 1.91 0 0 1 1.19-1.36 1.25 1.25 0 0 1 1.32.06 1.08 1.08 0 0 1 .36 1.25c-.16.61-.28 1.19-.44 1.87zM87 31.73h2.34a.46.46 0 0 0 .48-.41c.12-.45.23-.9.34-1.35l2.32-9.16c.14-.56.15-.57.73-.58h3.89l.65-2.69h-4.43l2.2-8.72H100l.69-2.69h-7.21zm16.88-22.89c-1 3.87-1.93 7.64-2.87 11.41s-1.93 7.57-2.87 11.46a16.64 16.64 0 0 0 2.71 0l5.76-22.86h2.52l.67-2.68h-8a20.93 20.93 0 0 0-.66 2.71zM67 23.53c.86-3.29 1.69-6.43 2.51-9.73l-6.7 5z"/><path d="M52.22 31.8H49.3l5.77-23.4h-2.85l.69-2.82a83.27 83.27 0 0 1 8.35 0 21.7 21.7 0 0 1-.7 2.84H58zM43.22 5.51l-.73 2.86h-4.57c-.76 2.89-1.44 5.79-2.19 8.79h4.57L39.62 20H35l-2.18 8.82c.81.05 1.55 0 2.29 0h2.24l-.67 2.78h-7.46l6.47-26.09zM10.75 31.71l6.47-26.19c.22 0 .42 0 .62-.05h3.5a3.16 3.16 0 0 1 3.1 1.94 3.49 3.49 0 0 1 .15 2.21c-.48 2.06-1 4.12-1.52 6.17a5.85 5.85 0 0 1-1.59 2.66A4.23 4.23 0 0 1 21.8 22q-.72 2.7-1.35 5.42A5.79 5.79 0 0 1 15 31.71c-1.4-.04-2.77 0-4.25 0zm3.66-3l.88.06a2 2 0 0 0 2.35-1.72q.66-2.63 1.31-5.26a3.19 3.19 0 0 0 .11-.76.92.92 0 0 0-.87-1h-1.61zm2.87-11.69a7.15 7.15 0 0 0 1.55 0 1.85 1.85 0 0 0 1.39-1.51c.45-1.88.92-3.76 1.38-5.63a2.34 2.34 0 0 0 .08-.38 1 1 0 0 0-1-1.17h-1.27zM66.53 39.23l.6 1.83H65zM86.94 8.82c.95 0 1.42.59 1.24 1.41s-.39 1.55-.59 2.33l-3.72 14.72A2.1 2.1 0 0 1 82.45 29a1.13 1.13 0 0 1-1.53-1.41c.38-1.56.78-3.11 1.17-4.66 1-4.1 2.09-8.21 3.11-12.31A2.2 2.2 0 0 1 86.41 9a2.67 2.67 0 0 1 .53-.18z"/></svg>
