<svg data-name="Booming games" xmlns="http://www.w3.org/2000/svg" fill="currentColor" viewBox="0 0 1351.33851 449.02878">
    <g>
        <path d="M312.25932,344.01066h70.55635v83.76842a104.19964,104.19964,0,0,1-32.48312,16.21163,127.76335,127.76335,0,0,1-36.02973,5.03807q-24.51947,0-44.60943-7.69512a102.65271,102.65271,0,0,1-34.3936-21.24971A93.22989,93.22989,0,0,1,213.23368,387.94a103.77184,103.77184,0,0,1-7.76495-40.38775,109.94058,109.94058,0,0,1,7.35592-40.79346,91.84206,91.84206,0,0,1,21.04519-32.07742,95.44558,95.44558,0,0,1,33.09834-20.977q19.41156-7.49226,43.384-7.49226a126.29619,126.29619,0,0,1,23.29321,2.04516,114.82775,114.82775,0,0,1,20.09244,5.58012,92.89445,92.89445,0,0,1,16.8202,8.44668,90.8551,90.8551,0,0,1,13.62109,10.62485l-13.34841,20.2953a12.81646,12.81646,0,0,1-8.10747,5.85947q-4.96825,1.08743-10.688-2.45419-5.45709-3.26727-10.289-5.65329a63.0372,63.0372,0,0,0-9.87-3.88081,64.79777,64.79777,0,0,0-10.62818-2.17818,103.92653,103.92653,0,0,0-12.53035-.68172,57.151,57.151,0,0,0-23.2932,4.56253,49.91724,49.91724,0,0,0-17.63826,12.87287,58.24327,58.24327,0,0,0-11.2384,19.95278,80.4356,80.4356,0,0,0-3.949,25.94859,83.49367,83.49367,0,0,0,4.358,28.06026,58.04013,58.04013,0,0,0,12.32749,20.70433,52.71276,52.71276,0,0,0,19.06987,12.87287,65.84969,65.84969,0,0,0,24.58515,4.42619,63.93557,63.93557,0,0,0,15.05271-1.63613,83.6199,83.6199,0,0,0,13.14223-4.35968V377.518H321.52074a9.52583,9.52583,0,0,1-6.81055-2.31453,7.70716,7.70716,0,0,1-2.45087-5.85614Z"/>
        <path d="M588.76825,446.85061H553.08271q-5.99581,0-9.67377-2.79007a17.74159,17.74159,0,0,1-5.58346-7.15307l-11.7156-34.59812H450.6518l-11.71561,34.59812a16.587,16.587,0,0,1-5.3806,6.88038,15.02342,15.02342,0,0,1-9.60394,3.06276H387.99342l76.82152-198.46032h47.13179Zm-73.14356-75.87044-18.38981-54.348q-2.04516-5.17275-4.35968-12.18782-2.31451-7.01839-4.629-15.19072-2.04516,8.31035-4.35969,15.39357-2.31951,7.08324-4.35968,12.25766l-18.25014,54.07536Z"/>
        <path d="M827.54648,248.39029V446.85061h-40.5906V332.70409q0-3.94567.20285-8.5797.20452-4.629.74823-9.39776L735.19505,416.74851a17.33729,17.33729,0,0,1-6.6077,7.21958,18.27948,18.27948,0,0,1-9.46427,2.45087h-6.26517a18.28306,18.28306,0,0,1-9.46759-2.45087,17.33729,17.33729,0,0,1-6.6077-7.21958L644.07071,314.45394q.409,4.9034.68172,9.60394.26936,4.69888.26936,8.64621V446.85061h-40.5906V248.39029h35.14349q2.99292,0,5.24425.13635a13.42687,13.42687,0,0,1,4.01716.81806,9.16666,9.16666,0,0,1,3.20243,2.11167,16.71164,16.71164,0,0,1,2.79338,4.01716L705.911,356.1353q2.71855,5.17775,5.24425,10.7612,2.51406,5.58678,4.83523,11.43959,2.31451-5.99082,4.83522-11.71228,2.519-5.72645,5.3806-10.89754l50.94277-100.25274a16.61671,16.61671,0,0,1,2.79006-4.01716,9.16663,9.16663,0,0,1,3.20242-2.11167,13.42694,13.42694,0,0,1,4.01716-.81806q2.24968-.13468,5.24426-.13635Z"/>
        <path d="M912.2693,283.80648v46.31039h62.38237v34.05275H912.2693v47.26813h81.4539v35.41286H865.95558V248.39029H993.7232v35.41619Z"/>
        <path d="M1131.70331,288.70821a17.23451,17.23451,0,0,1-4.28984,4.90506,9.62107,9.62107,0,0,1-5.78964,1.6328,14.111,14.111,0,0,1-6.74071-1.97533q-3.61145-1.97032-8.174-4.42286a67.85692,67.85692,0,0,0-10.41867-4.42952,41.71435,41.71435,0,0,0-13.35174-1.97532q-12.93937,0-19.27106,5.51694-6.335,5.51694-6.335,14.9147a13.73118,13.73118,0,0,0,3.8143,9.94314,32.83283,32.83283,0,0,0,10.00965,6.81054,107.27985,107.27985,0,0,0,14.16647,5.24758q7.97114,2.38437,16.27814,5.31077a146.40506,146.40506,0,0,1,16.27814,6.87706,54.48681,54.48681,0,0,1,14.16648,10.07948,47.08143,47.08143,0,0,1,10.00964,14.918q3.811,8.77923,3.81431,21.17655a68.98431,68.98431,0,0,1-4.76872,25.74574,60.23919,60.23919,0,0,1-13.82395,20.91051,64.20386,64.20386,0,0,1-22.33713,14.0268q-13.28356,5.10792-30.17193,5.10791a96.771,96.771,0,0,1-18.86535-1.90549,111.71307,111.71307,0,0,1-18.59267-5.3806,107.85938,107.85938,0,0,1-16.89-8.24049,71.65394,71.65394,0,0,1-13.75745-10.62486l13.6211-21.52239a13.66853,13.66853,0,0,1,4.28985-3.88082,11.22373,11.22373,0,0,1,5.78963-1.56629,15.53061,15.53061,0,0,1,8.2405,2.58721q4.15516,2.58886,9.39776,5.71979a76.12459,76.12459,0,0,0,12.0548,5.72313,45.1758,45.1758,0,0,0,16.072,2.58721q12.53035,0,19.48057-5.51695,6.94356-5.51694,6.94689-17.50191,0-6.94856-3.81431-11.30657a29.52853,29.52853,0,0,0-10.013-7.21958,92.59149,92.59149,0,0,0-14.09663-5.03808q-7.90131-2.17985-16.20831-4.83855a118.07928,118.07928,0,0,1-16.21163-6.53786,51.08406,51.08406,0,0,1-14.09664-10.21582,47.66889,47.66889,0,0,1-10.00965-15.79928q-3.816-9.4626-3.8143-23.36138a55.43833,55.43833,0,0,1,4.4927-21.79176,56.28117,56.28117,0,0,1,13.21206-18.93186,65.00446,65.00446,0,0,1,21.38606-13.2819q12.67-4.96824,29.01466-4.97156a108.699,108.699,0,0,1,17.7746,1.42994,93.80605,93.80605,0,0,1,16.41449,4.22334,90.36286,90.36286,0,0,1,14.50567,6.67421,66.662,66.662,0,0,1,12.0548,8.78587Z"/>
        <path d="M73.00888,2.17818q20.56632,0,35.00549,3.8143,14.43584,3.816,23.56423,10.7612a40.81718,40.81718,0,0,1,13.2819,16.89A57.09972,57.09972,0,0,1,149.014,55.8445a43.53506,43.53506,0,0,1-1.90715,12.87287,37.083,37.083,0,0,1-5.99249,11.57926,46.63655,46.63655,0,0,1-10.48851,9.8733,65.7239,65.7239,0,0,1-15.3919,7.765q19.61358,4.77371,29.013,15.39357,9.39776,10.62484,9.39776,27.51488a56.75335,56.75335,0,0,1-4.9034,23.56423,53.99563,53.99563,0,0,1-14.36932,19.0017A68.21512,68.21512,0,0,1,111.01227,196.076q-13.89462,4.56419-31.73822,4.56253H0V2.17818ZM46.03937,36.64V85.67723H70.01264a78.82594,78.82594,0,0,0,13.75744-1.09075,28.51945,28.51945,0,0,0,10.41867-3.81431,17.49756,17.49756,0,0,0,6.53953-7.48894,28.11545,28.11545,0,0,0,2.24635-11.98829,33.76839,33.76839,0,0,0-1.77081-11.78212,16.89325,16.89325,0,0,0-5.44877-7.5621,22.89667,22.89667,0,0,0-9.32959-4.08367A64.0037,64.0037,0,0,0,73.00888,36.64ZM78.45765,165.904q9.1234,0,14.9147-2.31452a23.58248,23.58248,0,0,0,9.05856-5.99249,20.13553,20.13553,0,0,0,4.49437-8.31033,36.59555,36.59555,0,0,0,1.22543-9.39776,31.39519,31.39519,0,0,0-1.43-9.80679,16.2109,16.2109,0,0,0-4.90339-7.35592,24.016,24.016,0,0,0-9.19491-4.63237A53.67555,53.67555,0,0,0,78.185,116.461H46.03937v49.443Z"/>
        <path d="M849.27339,2.17818V200.63849h-40.5906V86.492q0-3.94566.20286-8.57969.20451-4.629.74989-9.39776L756.922,170.5364a17.334,17.334,0,0,1-6.606,7.21958,18.296,18.296,0,0,1-9.4676,2.45087h-6.26517a18.28138,18.28138,0,0,1-9.46593-2.45087,17.32665,17.32665,0,0,1-6.6077-7.21958L665.796,68.24183q.409,4.9034.68172,9.60394.27184,4.69887.27268,8.6462V200.63849h-40.5906V2.17818h35.14183q2.99541,0,5.24426.13634a13.46018,13.46018,0,0,1,4.01882.81807,9.17535,9.17535,0,0,1,3.20076,2.11167,16.66412,16.66412,0,0,1,2.79172,4.01715l51.07912,100.66177q2.72355,5.17775,5.24425,10.7612,2.519,5.58678,4.83523,11.43959,2.31452-5.99082,4.83522-11.71228,2.519-5.72644,5.3806-10.89754L798.87434,9.26141a16.61806,16.61806,0,0,1,2.79339-4.01715,9.13007,9.13007,0,0,1,3.20076-2.11167,13.42711,13.42711,0,0,1,4.01716-.81807q2.24967-.13468,5.24425-.13634Z"/>
        <path d="M933.99456,200.63849H887.68249V2.17818h46.31207Z"/>
        <path d="M1145.66361,2.17818V200.63849h-23.97327a20.81486,20.81486,0,0,1-8.92221-1.70264,21.81081,21.81081,0,0,1-7.15141-5.926L1012.03985,74.64334q.54371,5.31243.74989,10.28566.20451,4.96824.20452,9.32793V200.63849H972.40365V2.17818h24.24429a39.49088,39.49088,0,0,1,5.0414.27269,12.91489,12.91489,0,0,1,3.6763,1.02424,12.35941,12.35941,0,0,1,3.13425,2.10834,36.62967,36.62967,0,0,1,3.40528,3.678l94.39327,119.1846q-.68339-5.71647-.95275-11.10039-.27435-5.37727-.27269-10.14932V2.17818Z"/>
        <path d="M1279.42038,97.79854h70.55635V181.567a104.21572,104.21572,0,0,1-32.48644,16.21163,127.72317,127.72317,0,0,1-36.02641,5.03808q-24.51947,0-44.60942-7.69512a102.65282,102.65282,0,0,1-34.39361-21.24971,93.23,93.23,0,0,1-22.06611-32.14393,103.77181,103.77181,0,0,1-7.76495-40.38775,109.94056,109.94056,0,0,1,7.35592-40.79345,91.84185,91.84185,0,0,1,21.0452-32.07742,95.44539,95.44539,0,0,1,33.09833-20.977Q1253.5408,0,1277.51323,0a126.25161,126.25161,0,0,1,23.29154,2.04516,114.686,114.686,0,0,1,20.09079,5.58013,92.69328,92.69328,0,0,1,16.82186,8.44667,90.60143,90.60143,0,0,1,13.62109,10.62486l-13.34841,20.2953a12.8269,12.8269,0,0,1-8.10415,5.85947q-4.97324,1.08742-10.693-2.4542-5.4496-3.26727-10.284-5.65328a63.28356,63.28356,0,0,0-9.875-3.88082,64.68708,64.68708,0,0,0-10.62486-2.17818,103.92647,103.92647,0,0,0-12.53034-.68172,57.15109,57.15109,0,0,0-23.29321,4.56254A49.91711,49.91711,0,0,0,1234.9473,55.4388a58.24322,58.24322,0,0,0-11.2384,19.95277,80.4356,80.4356,0,0,0-3.949,25.94859,83.49358,83.49358,0,0,0,4.358,28.06026,58.04013,58.04013,0,0,0,12.32749,20.70433,52.71276,52.71276,0,0,0,19.06987,12.87287,65.84949,65.84949,0,0,0,24.58515,4.42619,63.91057,63.91057,0,0,0,15.05105-1.63613A83.65639,83.65639,0,0,0,1308.297,161.408V131.30591H1288.6818a9.52589,9.52589,0,0,1-6.81055-2.31452,7.70721,7.70721,0,0,1-2.45087-5.85614Z"/>
        <path d="M558.71481,111.19007a63.83387,63.83387,0,0,1-62.82544,52.218q-.7192,0-1.43314-.02074c-4.52272-.12927-9.33442.03461-21.27656-5.06794s-14.46323-8.11985-23.23407-14.86621c-5.01994-3.86124-12.24217-11.36418-19.25885-17.6578-6.98042,7.64488-22.94236,25.19679-24.27051,26.56426,6.08784,6.60352,21.04954,19.60231,27.04373,24.17269l-.877-.8036A98.76246,98.76246,0,0,0,479.59337,197.357a93.11346,93.11346,0,0,0,14.91547,1.27909,115.16142,115.16142,0,0,0,13.49812-.73919,99.10015,99.10015,0,0,0,83.37633-71.43639Z"/>
        <path d="M447.75918,57.64682a63.7834,63.7834,0,0,1,88.47174-7.686l-15.32386,10.864L591.00258,93.014l-7.1713-76.79886L565.71087,29.06134a99.04732,99.04732,0,0,0-146.12266,7.23531l-.00264-.00192-.03788.05179c-.732.88288-55.63859,68.02964-78.19126,90.19162-1.22344,1.20224-2.54578,2.29574-3.78332,3.37648-.22391.19563-.45286.4018-.67582.59455-1.64029,1.424-3.24007,2.77234-4.81659,4.07939-.3318.27522-.66695.55716-.99587.82662-1.49645,1.22747-2.95862,2.39451-4.39681,3.52033-.37543.2944-.75086.5888-1.12246.87552-.998.771-1.9649,1.49022-2.93464,2.21423-.37591.28-.766.584-1.13756.85731-.38742.28576-.77028.56386-1.1529.842q-1.948,1.41254-3.81952,2.70329c-.37184.256-.73576.49962-1.103.74894-1.23274.8343-2.447,1.64078-3.62653,2.39547-.3294.211-.64753.4066-.97262.61086q-1.58479.99683-3.10629,1.90544c-.38814.23207-.77172.45742-1.15338.6799q-1.44779.84293-2.83252,1.60241a90.86613,90.86613,0,0,1-16.65057,7.29669c-4.64158,1.44227-8.21535,2.146-15.5401,2.07422a63.87462,63.87462,0,0,1-1.24871-127.53361c20.10709-1.33279,37.82807,7.31919,50.96417,20.1638,2.196,2.14727,20.14485,21.36026,23.88525,26.09462,6.83183-7.25737,23.14806-26.51121,23.69946-27.1796-3.22473-4.15515-16.66243-18.37142-17.61778-19.442C332.03531,14.34756,304.32494.342,273.24678.74555c-51.73692.67174-94.87881,41.98559-97.726,93.64848A99.3452,99.3452,0,0,0,267.918,198.97375a123.99435,123.99435,0,0,0,14.943-.12313,93.567,93.567,0,0,0,12.18125-2.31267,60.83352,60.83352,0,0,0,11.37088-4.31908c.305-.12754.63052-.28576.9381-.41714q1.71642-.7336,3.48892-1.55159c.53821-.24837,1.07834-.50057,1.62447-.76237,1.24712-.59647,2.51965-1.23322,3.80825-1.89681.46941-.24166.93018-.46989,1.40535-.72114q5.3222-2.81069,11.10829-6.42979c.5303-.33276,1.074-.6914,1.61009-1.03471q2.12059-1.35788,4.29923-2.82892.97418-.6588,1.962-1.34445c1.43987-.99636,2.902-2.03874,4.381-3.11277.625-.45454,1.24472-.89854,1.87691-1.36747,1.48446-1.10088,2.996-2.25834,4.51956-3.43977.37878-.2944.75086-.57346,1.132-.87265.25436-.19946.50034-.3807.75566-.58208q3.30048-2.60645,6.72419-5.48235c.526-.44112,1.06684-.9158,1.5969-1.36651,1.74458-1.48159,3.5081-3.00728,5.2987-4.59435.75182-.66648,1.513-1.355,2.27273-2.0397.34858-.31454.69188-.61757,1.04214-.93594,1.30346-1.18431,2.6249-2.41273,3.95257-3.65362.78587-.73456,20.83011-20.33871,34.34051-36.65456S432.71211,75.30791,447.75918,57.64682Z"/>
    </g>
</svg>

