<svg xmlns="http://www.w3.org/2000/svg" viewBox="0 0 160.69002 27.50244" fill="currentColor"><path d="M87.28 6.406h4.66v15.24h-4.66zm23.12 0H94.8v3.94h5.49v11.3h4.65v-11.3h5.48zm24.86 0h4.62v15.24h-4.62zm21.33 0v8.7l-9-7.87c-1.82-1.72-4.29-.65-4.29 2v12.37h4.1v-8.91l9 8.1c1.76 1.75 4.29.65 4.29-2V6.426zm-102.92 4.66a7.37 7.37 0 0 0-1.88-2.44 8.88 8.88 0 0 0-2.85-1.64 10.45 10.45 0 0 0-3.55-.58H35.26v15.23h10.16a11.25 11.25 0 0 0 3.52-.52 8.74 8.74 0 0 0 2.83-1.53 7.3 7.3 0 0 0 1.87-2.38 6.94 6.94 0 0 0 .66-3 6.39 6.39 0 0 0-.66-3.1zm-4.22 4.38a3.76 3.76 0 0 1-.92 1.17 4.42 4.42 0 0 1-1.4.78 4.86 4.86 0 0 1-1.71.26H39.8v-7.34h5.62a6 6 0 0 1 1.74.26 4.41 4.41 0 0 1 1.4.75 3.89 3.89 0 0 1 .92 1.15 3.33 3.33 0 0 1 .32 1.5 3.38 3.38 0 0 1-.35 1.47zm68.21-7.31l-9.57 13.51h5.47l7-10.09 2.46 3.61h-2.94l-2.72 3.9h8.32l1.76 2.58h5.5l-9.34-13.51a3.42 3.42 0 0 0-5.94 0zm-37.8 5.35v4.24h-5.62a6.13 6.13 0 0 1-1.75-.26 3.92 3.92 0 0 1-2.32-1.89 3.81 3.81 0 0 1 0-3 3.65 3.65 0 0 1 .93-1.17 4.26 4.26 0 0 1 1.39-.78 4.89 4.89 0 0 1 1.72-.27h10.18v-3.95H74.24a11.31 11.31 0 0 0-3.56.52 8.79 8.79 0 0 0-2.82 1.53 7 7 0 0 0-1.87 2.38 6.81 6.81 0 0 0-.67 3 7.26 7.26 0 0 0 .67 3.1 7.34 7.34 0 0 0 1.87 2.45 9 9 0 0 0 2.82 1.63 10.51 10.51 0 0 0 3.56.59h10.15v-8.12zM57.8 6.406h4.63v15.24H57.8zm-39.67-3.89a22.62 22.62 0 0 1 2 2.44c.32.49.48.94 1.09 1.13s2.71.23 3-.32c.42-.74-1.72-2.42-2.14-2.77a5.46 5.46 0 0 0-1.82-1.26 2.87 2.87 0 0 0-1.32-.13c-.48.1-.25.1-.38.23s-.74-.07-.7.29a1.38 1.38 0 0 0 .32.38zm-6.71 24.82a6.42 6.42 0 0 0-2.13-1.16c-.32-.06-1 .07-1.15-.38s.76-.46 1.15-.49c.64-.06.92 0 .67-.67a1.94 1.94 0 0 0-1.18-1.1c-.58-.1-1.18.16-1.82 0a6.27 6.27 0 0 1-2-1.06c-.54-.35-1.76-.87-1.47.26.1.45.73 1 1 1.25a14.61 14.61 0 0 0 6.93 3.35zm-9.92-7.43a14.65 14.65 0 0 1-1.5-5.18c.1.38.42 1.83.86 1.9.64.1 1.38-2.16 1.69-2.64 1.76-2.45 4.54-.61 5.81 1.32 1.12 1.7 1.57 5.67-.73 6.79-1.09.52-2.59-.25-3.48-.87-.7-.51-1.66-1.57-2.65-1.32zm-1.24-6.22c.32 1.25.73.67 1.08-.13a10.65 10.65 0 0 1 .67-1.65 2.79 2.79 0 0 1 1.25-.94c.92-.51 1.78-2 0-2.06-.51 0-2.62 1.26-2.65.65a7.31 7.31 0 0 0-.35 4.13zm.76-5.15c1.31-.52 1.63-1.23 2.17-2.42.29-.61 1.75-2.21 1.57-2.77a13.14 13.14 0 0 0-3.74 5.19zm6.67-6.57c-1 .09-.32-.52.07-.71a15.77 15.77 0 0 1 3.41-1 11 11 0 0 1 4.72 0c.38.06 2.52.38 2.71.87.1.25-2.2.29-2.36.29a15 15 0 0 0-2.9.25 29.65 29.65 0 0 1-5.65.36zm-1.34 5.94c-3.22 1.23-2.49-2.51-1.24-4s3.16-1.19 5-.94 3.2-.25 4.89-.45 2.55.91 3.28 2.35c.16.33.71 1.1.61 1.49s-1.41.64-1.79.74a21 21 0 0 1-5.29.67c-1.85-.06-3.61-.55-5.43.19zm7.18 19.5c-.48-.1-2.87-.45-2.87-1.16s3 .25 3.45.32a9.94 9.94 0 0 0 4.83-.66 9 9 0 0 0 2.46-1.16c.32-.19.61-.35.73-.29s-.22.23-.51.45a14.61 14.61 0 0 1-3.7 2 8.45 8.45 0 0 1-4.39.5zm-2.26-2.9c-.87-1.16-1.34-4 .83-4.06a4 4 0 0 1 3.35 2.13 11.56 11.56 0 0 0 1.3 2.33c.51.55 1.31.58.42 1-1.66.76-4.82.08-5.9-1.4zm14.67-10.53a5.18 5.18 0 0 1-1.91 2.22c-.67.58-.54 1.51-.67 2.35a17.08 17.08 0 0 1-1.66 5.41c.16.64 1.88-.9 2-1.13a18.651 18.651 0 0 0 1.79-2.44 11.77 11.77 0 0 0 1.54-4.48c0-.35.38-4.44-.16-4.51s-.86 2.35-.93 2.58zm-15.57 3c-1.56-3.44 4.76-1.8 6.25-1 .58.29 1.15.67 1.73.93.92.42 1.56.06 2.52.16 1.5.13.73 2.83.57 3.86-.22 1.29-.48 4-2.17 4s-1.88-1.84-2.42-3.02c-1.15-2.64-5.36-2.45-6.48-4.9zm-3-7.53c-2.07.58-.22 2.41.8 3.06a6.2 6.2 0 0 0 3.64.55c1.56-.17 2.65-.46 4.15.32 1.31.67 2.42 1.57 3.95 1.64 2.14.1 4.79-.64 5.56-2.83.19-.55.25-1.1.41-1.65.1-.38.45-.67.54-1s-1-2.93-1.43-2.77a1.1 1.1 0 0 1-.13.65 4.36 4.36 0 0 1-1.28.29 13.52 13.52 0 0 0-2 .13c-1.65.29-3.28.7-4.94 1.06a19.61 19.61 0 0 1-4.47.74c-1.13-.07-3.3-.62-4.77-.2zM35.66.416a6.629 6.629 0 0 1 1-.07 2 2 0 0 1 1.42.44 1.61 1.61 0 0 1 .5 1.25 1.85 1.85 0 0 1-.51 1.37 2.15 2.15 0 0 1-1.55.5 6.5 6.5 0 0 1-.82 0zm.45 3.1a2.86 2.86 0 0 0 .46 0 1.34 1.34 0 0 0 1.49-1.49 1.24 1.24 0 0 0-1.42-1.32 3.259 3.259 0 0 0-.53 0zM41.25.366v3.54h-.45V.366zM46.38 3.726a3.44 3.44 0 0 1-1.08.19 1.66 1.66 0 0 1-1.8-1.77 1.75 1.75 0 0 1 1.9-1.81 2.22 2.22 0 0 1 .87.16l-.11.37a1.83 1.83 0 0 0-.77-.15 1.31 1.31 0 0 0-1.45 1.41 1.28 1.28 0 0 0 1.35 1.41 1.48 1.48 0 0 0 .6-.09v-1.05h-.71v-.36h1.16zM49.19.366v3.54h-.45V.366zM52.32.756h-1.07v-.39h2.6v.39h-1.07v3.15h-.46zM56.09 2.776l-.37 1.13h-.47l1.2-3.51h.54l1.2 3.51h-.48l-.38-1.1zm1.15-.36l-.35-1q-.11-.33-.18-.63a2.226 2.226 0 0 1-.18.63l-.34 1zM60.38.366h.45v3.13h1.5v.41h-2zM69.09 2.236h-1.36v1.26h1.52v.41h-2V.366h1.89v.38h-1.41v1.16h1.36zM71.51 3.906V.366H72l1.12 1.78a8.91 8.91 0 0 1 .63 1.14V.366h.43v3.54h-.46l-1.11-1.78a10.728 10.728 0 0 1-.67-1.22v3zM77.27.756H76.2v-.39h2.6v.39h-1.07v3.15h-.46zM82.68 2.236h-1.37v1.26h1.52v.41h-2V.366h1.89v.38h-1.41v1.16h1.37zM85.09.416a4.51 4.51 0 0 1 .87-.07 1.47 1.47 0 0 1 1 .28.88.88 0 0 1 .28.67.93.93 0 0 1-.66.9.87.87 0 0 1 .51.71 6.24 6.24 0 0 0 .27 1h-.42a4.25 4.25 0 0 1-.24-.84c-.1-.48-.29-.66-.7-.68h-.46v1.52h-.45zm.45 1.6h.47c.48 0 .79-.27.79-.67s-.33-.65-.81-.65a2 2 0 0 0-.45 0zM90.27.756h-1.06v-.39h2.59v.39h-1.07v3.15h-.46zM94.04 2.776l-.36 1.13h-.47L94.4.396h.54l1.2 3.51h-.48l-.38-1.1zm1.15-.36l-.34-1c-.08-.22-.13-.43-.19-.63a2.574 2.574 0 0 1-.17.63l-.35 1zM98.78.366v3.54h-.45V.366zM101.24 3.906V.366h.5l1.12 1.78a10.338 10.338 0 0 1 .63 1.14V.366h.42v3.54h-.45l-1.12-1.78a12.549 12.549 0 0 1-.65-1.17v2.95zM109.29 2.336V.826c-.12.41-.27.85-.45 1.33l-.62 1.7h-.34l-.57-1.67c-.16-.49-.3-1-.4-1.36a12.407 12.407 0 0 1-.07 1.55l-.09 1.5h-.44l.25-3.51h.58l.59 1.7c.15.43.27.82.36 1.18.08-.35.21-.74.36-1.18l.63-1.7h.58l.22 3.51h-.45zM114.01 2.236h-1.36v1.26h1.52v.41h-2V.366h1.89v.38h-1.44v1.16h1.36zM116.43 3.906V.366h.51l1.12 1.78a8.91 8.91 0 0 1 .63 1.14V.366h.43v3.54h-.46l-1.11-1.78a10.73 10.73 0 0 1-.66-1.17v2.95zM122.19.756h-1.07v-.39h2.6v.39h-1.07v3.15h-.46zM131 3.766a2.33 2.33 0 0 1-.92.16 1.64 1.64 0 0 1-1.74-1.77 1.75 1.75 0 0 1 1.656-1.84q.087-.004.174 0a2 2 0 0 1 .84.15l-.11.37a1.72 1.72 0 0 0-.71-.14 1.3 1.3 0 0 0-1.37 1.44 1.28 1.28 0 0 0 1.35 1.41 1.81 1.81 0 0 0 .74-.14zM136.13 2.086a1.65 1.65 0 0 1-1.471 1.811q-.08.009-.159.01a1.61 1.61 0 0 1-1.566-1.654q.002-.049.006-.097a1.67 1.67 0 0 1 1.491-1.831q.07-.008.139-.009a1.59 1.59 0 0 1 1.56 1.77zm-2.72.06c0 .75.4 1.42 1.12 1.42s1.12-.66 1.12-1.46-.36-1.42-1.12-1.42-1.12.69-1.12 1.46zM141.34 2.336c0-.49-.05-1.08-.05-1.51-.12.41-.27.85-.45 1.33l-.62 1.7h-.34l-.57-1.67c-.16-.49-.3-1-.4-1.36a12.405 12.405 0 0 1-.07 1.55l-.09 1.5h-.44l.25-3.51h.58l.6 1.7c.14.43.26.82.35 1.18.09-.35.22-.74.37-1.18l.63-1.7h.58l.21 3.51h-.44zM144.24.416a4.91 4.91 0 0 1 .87-.07 1.44 1.44 0 0 1 1 .29 1 1 0 0 1 .3.73 1 1 0 0 1-.27.75 1.44 1.44 0 0 1-1.07.39 1.94 1.94 0 0 1-.36 0v1.4h-.46zm.46 1.69a1.9 1.9 0 0 0 .37 0c.55 0 .88-.26.88-.75s-.33-.68-.83-.68a2.05 2.05 0 0 0-.42 0zM148.81 2.776l-.36 1.1h-.51l1.19-3.51h.55l1.26 3.54h-.49l-.37-1.1zm1.15-.36l-.34-1a6.13 6.13 0 0 1-.18-.63c-.05.2-.11.42-.18.63l-.34 1zM153.1 3.906V.366h.5l1.12 1.78a10.338 10.338 0 0 1 .63 1.14V.366h.43v3.54h-.46l-1.12-1.78a12.549 12.549 0 0 1-.65-1.17v2.95zM158.94 3.906v-1.52l-1.11-2h.52l.49 1c.14.27.24.48.35.73.1-.23.22-.46.36-.73l.5-1h.52l-1.18 2v1.52z"/></svg>
