<svg xmlns="http://www.w3.org/2000/svg" fill="currentColor" viewBox="0 0 581.32798 170.19935"><path d="M252.021 156.654c-22.438 3.702-44.798 7.988-67.332 10.957-28.685 3.78-57.539 3.072-86.272.11-27.8-2.864-53.98-10.572-75.559-29.377C9.232 126.469-.394 112.13.012 93.086c.28-13.127 6.138-24.022 14.791-33.52 12.032-13.21 27.395-21.575 43.274-29.027A321.183 321.183 0 0 1 187.325.04c13.02-.344 25.915 1.49 38.158 6.498 20.32 8.311 28.521 24.693 22.868 45.869-4.322 16.192-13.255 29.956-24.573 41.777-11.707 12.227-24.833 23.097-37.353 34.544a11.811 11.811 0 0 1-1.869 1.096c6.48-8.841 13.557-16.843 18.691-25.94a173.12 173.12 0 0 0 14.843-33.056c8.132-26.054-3.485-44.528-25.13-55.901-17.332-9.108-35.932-9.197-54.574-5.16-26.206 5.676-49.924 16.4-68.786 36.14-8.51 8.904-15.226 18.988-18.295 31.077-5.076 20.002 3.358 41.106 21.51 54.19 15.908 11.47 34.214 16.913 53.132 20.477 33.787 6.368 67.903 6.428 102.079 4.572 7.96-.433 15.908-1.071 23.861-1.615z"/><path d="M80.19 78.877c.123-23.523 20.181-43.16 43.978-43.05a44.085 44.085 0 0 1 43.53 44.044c-.142 23.699-19.973 43.476-43.715 43.597-23.805.12-43.918-20.36-43.792-44.59zM359.888 8.717v20.695H308.51v21.169h46.128v20.105h-46.04v21.21h53.018v20.619h-77.065V8.717zM476.686 20.512L464.518 37.93c-7.744-6.76-16.148-10.709-26.455-10.408-18.734.546-32.073 15.059-30.569 33.8 1.269 15.816 9.218 26.7 22.671 29.865a35.343 35.343 0 0 0 23.829-2.389 6.466 6.466 0 0 0 2.99-4.703c.306-8.123.14-16.263.14-24.726h24.106c0 12.156.105 24.1-.135 36.036-.03 1.47-1.68 3.133-2.945 4.318-12.06 11.302-26.692 14.79-42.78 14.17-16.238-.628-29.851-6.904-39.97-19.439-14.072-17.432-15.892-37.258-6.906-57.21 9-19.979 25.36-30.627 47.603-31.476 15.32-.585 28.768 3.994 40.589 14.745zM581.328 28.813h-29.354v83.744h-23.696V28.54h-28.903V8.476h81.953zM390.018 139.181c4.65 0 8.621-.155 12.574.046 3.695.188 6.917 1.467 8.002 5.53 1.096 4.104.083 7.553-3.445 10.124-.531.387-.995.867-1.552 1.36l5.695 8.28c-4.73 1.382-4.777 1.414-7.686-2.808-2.184-3.168-4.06-6.743-9.433-4.543a33.919 33.919 0 0 1-.094 5.652c-.158.949-1.307 1.733-2.008 2.593-.684-.894-1.944-1.775-1.963-2.683-.158-7.649-.09-15.302-.09-23.55zm5.071 13.776c4.016-1.064 7.545-1.743 10.795-3.095.586-.244.546-4.508-.107-4.784-3.238-1.37-6.778-2.027-10.688-3.06zM302.37 138.045c8.012 3.656 10.574 13.053 17.654 18.76V139.42c2.888-1.323 4.318-1.01 4.286 2.26-.073 7.478-.023 14.958-.023 24.227-2.893-1.6-5.345-2.262-6.732-3.853-4.037-4.629-7.648-9.63-12.491-14.386 0 4.505.148 9.018-.097 13.51-.067 1.235-1.306 2.407-2.007 3.609-.72-1.186-2.032-2.356-2.064-3.56-.195-7.298-.097-14.603-.097-21.905l1.571-1.276zM555.493 138.2h18.347v4.547h-13.392v6.91c3.118 0 6.084-.143 9.022.077 1.02.076 1.971 1.047 2.953 1.609-.921.673-1.8 1.842-2.773 1.926-2.948.256-5.933.093-9.238.093v6.481h12.935l1.128 1.103c-.857 1.137-1.661 3.203-2.58 3.256-5.427.31-10.881.153-16.402.153zM379.567 142.896h-13.345v6.613h11.421c.21 3.814.21 3.825-3.993 3.866-2.312.023-4.625.004-7.307.004v6.615c3.683 0 7.308-.163 10.903.099 1.085.079 2.085 1.335 3.125 2.052-1.02.742-2.006 2.061-3.067 2.125a104.495 104.495 0 0 1-12.477.001c-1.107-.066-3.049-1.319-3.07-2.07-.226-7.936-.14-15.88-.14-24.269 5.436 0 10.234.125 15.021-.041 3.497-.122 3.88 1.593 2.929 5.005zM443.723 165.382c-1.467-.878-3.457-1.41-4.307-2.695-3.507-5.299-13.063-5.27-16.539.04-.843 1.29-2.875 1.8-4.361 2.67l-1.037-1.106c3.504-7.97 6.903-15.99 10.569-23.886 1.297-2.794 5.07-2.521 6.427.438 3.53 7.696 6.87 15.478 10.286 23.226zm-12.284-21.412l-4.47 10.54h8.875l-4.405-10.54zM473.548 145.755c-4.27-.61-7.623-1.729-10.812-1.375-3.603.4-6.768 2.877-6.756 6.862.01 2.74.803 6.947 2.6 7.873 2.851 1.47 7.055 1.562 10.268.692 2.556-.692 4.087-1.85 5.215 1.314-4.903 5.442-12.76 6.376-18.258 2.214-5.456-4.13-6.594-12.362-2.542-18.38 3.856-5.725 12.237-7.718 18.109-4.195 2.344 1.407 4.907 3.01 2.176 4.995zM534.792 157.753c2.431-5.942 4.564-10.788 6.386-15.75 1.041-2.835 2.498-4.161 5.998-2.782-2.986 7.853-5.889 15.73-9.053 23.502-.403.988-2.144 1.878-3.324 1.958a3.69 3.69 0 0 1-2.826-1.909c-3.288-7.79-6.377-15.664-9.54-23.547 3.146-1.241 4.81-.506 5.898 2.598 1.752 5.004 3.963 9.848 6.461 15.93zM489.57 143.055l-8.697-.526c1.636-1.815 2.517-3.677 3.486-3.724 5.774-.278 11.569-.138 17.316-.138.28 3.604.28 3.604-7.609 4.636v20.935c-3.218 1.152-4.586.515-4.529-2.624.11-6.1.032-12.204.032-18.559zM341.195 143.99c-2.694-2.679-8.17 1.469-7.9-5.33 6.181 0 11.98-.088 17.77.086.94.029 1.844 1.213 2.764 1.863-1.002.728-1.915 1.835-3.025 2.094-1.551.362-3.25.091-5.516.091 0 6.504-.082 12.619.036 18.73.056 2.926-.885 4.016-4.129 2.713zM287.493 165.387c-.806-1.088-2.277-2.155-2.31-3.267q-.32-10.467.014-20.948c.034-1.026 1.648-2 2.531-3l1.208.847v25.222l-1.443 1.146zM511.653 138.165c.875 1.008 2.475 1.993 2.509 3.029q.339 10.467.012 20.948c-.034 1.103-1.521 2.162-2.337 3.242l-1.36-.75v-25.216l1.176-1.253z"/></svg>
