<svg data-name="Endorphina" xmlns="http://www.w3.org/2000/svg" viewBox="0 0 600.2 274.8" fill="currentColor"><path d="M161.2 144a3.62 3.62 0 0 0 2.4 3.5 13.07 13.07 0 0 0 6 1.2c2.4 0 4.7-.1 7.1-.3s4.5-.5 6.5-.8 3.2-.5 3.5-.5c.2 4.4-.7 7.5-2.6 9.3s-5.8 2.7-11.7 2.7c-8.1 0-14-1.6-17.8-4.9s-5.7-9-5.7-17.1a30.7 30.7 0 0 1 1.5-10.3 13.3 13.3 0 0 1 4.5-6.4 18.63 18.63 0 0 1 6.7-3.1 36.63 36.63 0 0 1 8.6-.9c6.3 0 10.9 1.3 13.8 4s4.4 6.9 4.4 12.7a9.83 9.83 0 0 1-1.3 5.4 6.47 6.47 0 0 1-3.4 2.7 22.08 22.08 0 0 1-5 1 37.07 37.07 0 0 1-5.8.2 32.34 32.34 0 0 0-6.1.3 24.38 24.38 0 0 0-5.6 1.3zm-.4-8a9.15 9.15 0 0 1 4.2-1.2 48.86 48.86 0 0 1 5.4-.3 9.36 9.36 0 0 0 4.5-1.1 3.41 3.41 0 0 0 1.9-3.2c0-1.3-1-2.4-3.1-3.3a11.15 11.15 0 0 0-8.4-.3c-3.7 1.4-5.3 4.5-4.5 9.4zm76.4-5.1v27.6a33.45 33.45 0 0 1-4.5 0 11.9 11.9 0 0 1-3.6-.9 4.93 4.93 0 0 1-2.5-2.2 7.58 7.58 0 0 1-.7-3.9v-20.3c-.8-3.7-4.2-5.1-10.3-4.4a37.73 37.73 0 0 0-5.5.9 13.7 13.7 0 0 1 .2 3v20.8a6.66 6.66 0 0 1-.8 3.9 4.88 4.88 0 0 1-2.5 2.2 10.59 10.59 0 0 1-3.6.9 22.46 22.46 0 0 1-4.5 0v-36.9c0-3.3 5.3-5.1 15.9-5.3 14.9-.4 22.4 4.5 22.4 14.6zm39.7-30.8a7.82 7.82 0 0 0 2.8 1.1 17.22 17.22 0 0 0 3.1.2 8.42 8.42 0 0 1 2.7.4 3.55 3.55 0 0 1 2 2 11.38 11.38 0 0 1 .7 4.6v44.7a5.3 5.3 0 0 0-.7.9 15.38 15.38 0 0 1-1.2 1.3 11.5 11.5 0 0 1-2 1.3 15.16 15.16 0 0 1-3.2 1.2 29.83 29.83 0 0 1-4.7.8 49.22 49.22 0 0 1-6.7.4q-11.7 0-16.8-5.1t-5.1-16.8a25.1 25.1 0 0 1 1.2-8.1 17.39 17.39 0 0 1 3.2-5.9 17.92 17.92 0 0 1 4.8-3.8 20.7 20.7 0 0 1 5.5-2.1 28.56 28.56 0 0 1 5.8-.6q5.85 0 8.4 1.8l.2-18.3zm0 37.9v-10.8a16 16 0 0 0-2.1-.5 14.28 14.28 0 0 0-2.9-.3 18.19 18.19 0 0 0-3.3 0 10.33 10.33 0 0 0-3.2.9 11.54 11.54 0 0 0-2.9 2 9 9 0 0 0-2 3.5 16.42 16.42 0 0 0-.8 5.3 12.76 12.76 0 0 0 .9 5 10.54 10.54 0 0 0 2.2 3.3 8.62 8.62 0 0 0 3.3 1.7 18 18 0 0 0 3.5.7 13.24 13.24 0 0 0 3.4-.1 21 21 0 0 0 2.5-.3c.5-.1.9-.2 1.3-.3h.1V138zm22.1-.5a4.12 4.12 0 0 1-.1-1.2c0-.5.1-1.5.2-3a25.92 25.92 0 0 1 .9-4.2 19.17 19.17 0 0 1 2.1-4.4 16.85 16.85 0 0 1 3.8-4.2 18.64 18.64 0 0 1 6-2.9 28.58 28.58 0 0 1 8.7-1.2 40.24 40.24 0 0 1 6.3.5 21.09 21.09 0 0 1 5 1.5 14.29 14.29 0 0 1 3.7 2.3 17.18 17.18 0 0 1 2.7 2.7 13.28 13.28 0 0 1 1.8 3.1c.5 1.2.8 2.3 1.1 3.1a22.36 22.36 0 0 1 .5 3.1c.1 1.2.2 2.1.2 2.7v3.8a15.48 15.48 0 0 1-.1 2.2c-.1.7-.2 1.7-.5 3.1a14.09 14.09 0 0 1-1.1 3.8 23.6 23.6 0 0 1-2.1 3.6 13.75 13.75 0 0 1-3.5 3.3 18.06 18.06 0 0 1-5.2 2.2 26.77 26.77 0 0 1-7.2.9 52.74 52.74 0 0 1-7.4-.5 29.16 29.16 0 0 1-5.5-1.4 14.68 14.68 0 0 1-4-2.4 16.37 16.37 0 0 1-2.8-3.1 17.63 17.63 0 0 1-1.8-3.9 36.32 36.32 0 0 1-1-4.5 28.57 28.57 0 0 1-.7-5zm11.3.7q.3 2.7.6 4.2a11 11 0 0 0 1.5 3.1 5.72 5.72 0 0 0 3.3 2.2 17.78 17.78 0 0 0 5.6.7 11.69 11.69 0 0 0 4.5-.8 6.87 6.87 0 0 0 2.8-1.9 9.34 9.34 0 0 0 1.5-2.6 11.15 11.15 0 0 0 .6-2.3 9.15 9.15 0 0 0 .1-1.7v-2a9.89 9.89 0 0 0-.1-1.5 5.08 5.08 0 0 0-.3-1.7 10.93 10.93 0 0 0-.5-1.7 8.86 8.86 0 0 0-.8-1.7 17.38 17.38 0 0 0-1.3-1.5 5.67 5.67 0 0 0-1.8-1.2 11.28 11.28 0 0 0-2.4-.8 16.47 16.47 0 0 0-8.2.5 7.49 7.49 0 0 0-3.1 1.9 7.22 7.22 0 0 0-1.5 2.9 14.23 14.23 0 0 0-.6 2.8v2.5a2.14 2.14 0 0 1 .1.6zm70.1-21.7a7 7 0 0 0 0 1.6 13.09 13.09 0 0 1 0 2.8 15.67 15.67 0 0 1-.6 2.8 4.3 4.3 0 0 1-1.8 2.4 6.4 6.4 0 0 1-3.6.9c-2.1 0-3.8.1-4.9.2a6 6 0 0 0-3.1 1.2 4.43 4.43 0 0 0-1.8 2.6 17.47 17.47 0 0 0-.5 4.5v24.3a8.51 8.51 0 0 0-3.6-1.5l-3.8-.9a4.86 4.86 0 0 1-2.8-1.8 6.68 6.68 0 0 1-1.2-4.3v-21.5a11.2 11.2 0 0 1 .3-2.2 12.9 12.9 0 0 1 .8-2.8 17.05 17.05 0 0 1 1.6-2.9 13.26 13.26 0 0 1 2.6-2.7 11.82 11.82 0 0 1 3.9-1.9 18 18 0 0 1 5.4-.8zm20.6 58.8a6.43 6.43 0 0 0-3.6-1.2c-1.5-.1-2.8-.2-3.8-.2a3.46 3.46 0 0 1-2.8-1.6q-1.2-1.65-1.2-5.4v-44.7a5.3 5.3 0 0 0 .7-.9 3.45 3.45 0 0 1 1.2-1.2c.4-.3 1-.7 2-1.3a12.66 12.66 0 0 1 3.2-1.3 29.83 29.83 0 0 1 4.7-.8 49.22 49.22 0 0 1 6.7-.4q11.7 0 16.8 5.1t5.1 16.8a25 25 0 0 1-1.8 9.9 14.64 14.64 0 0 1-4.9 6.4 22.18 22.18 0 0 1-6.5 3.3 25.24 25.24 0 0 1-7.3 1 27.12 27.12 0 0 1-8.4-1.1v17.6zm0-37.9v10.8a19.8 19.8 0 0 0 2.6.6 26.24 26.24 0 0 0 3.5.4 10 10 0 0 0 3.9-.5 12.93 12.93 0 0 0 3.5-1.8 8.55 8.55 0 0 0 2.7-3.6 15.72 15.72 0 0 0 1-6 12.76 12.76 0 0 0-.9-5 10.54 10.54 0 0 0-2.2-3.3 7.37 7.37 0 0 0-3.3-1.7 14.82 14.82 0 0 0-6.8-.6c-1.4.2-2.2.2-2.5.3a10.63 10.63 0 0 1-1.4.3h-.1c-.1.1-.1 3.4 0 10.1zm50.9-19.5c2.5-1 6.6-1.5 12.4-1.5a16.39 16.39 0 0 1 7.3 1.5 12.32 12.32 0 0 1 4.4 3.3 15 15 0 0 1 2.1 4.2 14 14 0 0 1 .8 3.6 6.62 6.62 0 0 1 0 2v27.6c-7.6 1-11.4-1.3-11.4-7.1v-8.4c.1-7.5-.3-12.1-1.1-13.8s-3.1-2.5-7.1-2.6a21.11 21.11 0 0 0-7.4 1.4v23.4c.1 3-.8 5-2.8 6s-4.8 1.3-8.5 1.1V99.4a6.43 6.43 0 0 0 3.6 1.2c1.5.1 2.8.2 3.8.2a3.46 3.46 0 0 1 2.8 1.6q1.2 1.65 1.2 5.4l-.1 10.1zm39.7-5.7a6.41 6.41 0 0 1-1.8-4.3 6.08 6.08 0 1 1 6.1 6.1 6.7 6.7 0 0 1-4.3-1.8zm9.9 11.8q0-3.75-1.2-5.4a3.34 3.34 0 0 0-2.8-1.6c-1.1 0-2.3-.1-3.8-.2a6.43 6.43 0 0 1-3.6-1.2v42.8c3.7.2 6.5-.2 8.5-1.1s2.9-2.9 2.8-6l.1-27.3zm49.6 6.9v27.6a33.45 33.45 0 0 1-4.5 0 11.9 11.9 0 0 1-3.6-.9 4.56 4.56 0 0 1-2.5-2.2 7.58 7.58 0 0 1-.7-3.9v-20.3c-.8-3.7-4.2-5.1-10.3-4.4a37.73 37.73 0 0 0-5.5.9 13.7 13.7 0 0 1 .2 3v20.8a6.66 6.66 0 0 1-.8 3.9 4.52 4.52 0 0 1-2.5 2.2 10.59 10.59 0 0 1-3.6.9 22.46 22.46 0 0 1-4.5 0v-36.9c0-3.3 5.3-5.1 15.9-5.3 14.8-.4 22.3 4.5 22.4 14.6zm13.8-3.8a1.27 1.27 0 0 0-.1-.6 3.56 3.56 0 0 1 0-1.5 14.92 14.92 0 0 1 .2-2.1 7.39 7.39 0 0 1 .8-2.2 8 8 0 0 1 1.5-2.1 7.13 7.13 0 0 1 2.6-1.5 11.22 11.22 0 0 1 3.8-.6h2.1a28.05 28.05 0 0 1 4.1 0l4.2.2a27 27 0 0 1 4.1.6c1.3.4 2.6.8 3.8 1.3a11.55 11.55 0 0 1 3.3 2.1 13.51 13.51 0 0 1 2.6 3.2 15.67 15.67 0 0 1 1.7 4.5 27.71 27.71 0 0 1 .6 6v8.4a20.23 20.23 0 0 1-.7 5.7 14.45 14.45 0 0 1-1.7 4.1 13.52 13.52 0 0 1-2.5 2.8 16.65 16.65 0 0 1-2.8 1.8 12.61 12.61 0 0 1-3.1.9 22 22 0 0 1-2.7.4 14.79 14.79 0 0 1-2.2.1h-11.2c-.6-.1-1.1-.1-1.7-.2a10.55 10.55 0 0 1-2.4-.6 11.29 11.29 0 0 1-2.5-1.2 9.55 9.55 0 0 1-2.4-2.1 10 10 0 0 1-1.7-3.1 11.58 11.58 0 0 1-.7-4.2 20.16 20.16 0 0 1 1.1-7 9.2 9.2 0 0 1 3.2-4.4 12.16 12.16 0 0 1 4.8-2.1 29.62 29.62 0 0 1 6.4-.6q6.6 0 9-.9t2.4-2.7c0-1.7-1.7-2.9-5-3.5a40.39 40.39 0 0 0-10.5-.4 31 31 0 0 0-8.4 1.5zm24 11.4l-.9.9a12 12 0 0 1-6.6 2.3 16.48 16.48 0 0 0-6 .9c-1.5.6-2.3 1.5-2.3 2.6a3.21 3.21 0 0 0 1.7 3c1.1.7 3.3 1 6.7 1h3.1a4.2 4.2 0 0 0 2.1-.6 5.32 5.32 0 0 0 1.3-1 4.14 4.14 0 0 0 .6-1.9c.1-1 .3-1.9.3-2.8v-4.4z"/><path d="M55.9 219.2c0-43.4 68.4-59.7 68.4-81.9 0-22.1-68.4-38.5-68.4-81.9 0-50.1 104.7-49 159-2.2C185.3 10.5 140.7 0 107.5 0 52.4 0 0 36.7 0 58.4c0 28.1 46.6 39.7 46.6 79S0 188.3 0 216.4c0 21.7 52.4 58.4 107.5 58.4 33.2 0 77.8-10.5 107.5-53.3-54.4 46.7-159.1 47.8-159.1-2.3z"/></svg>
