<svg data-name="Layer 1" xmlns="http://www.w3.org/2000/svg" viewBox="0 0 182 60" fill="currentColor"><path d="M0 3.32A25.73 25.73 0 0 1 8.59.38a30.68 30.68 0 0 1 4-.38A25.52 25.52 0 0 1 22.8 2a24.48 24.48 0 0 1 6.35 3.84A25.73 25.73 0 0 1 37 17.06a29.42 29.42 0 0 1 1.57 6.75c0 .47.1.93.18 1.39s-.06.47-.41.48c-3 .06-6.1.27-9.14.18a38.84 38.84 0 0 1-10.65-1.74 24.38 24.38 0 0 1-8.25-4.36 22.62 22.62 0 0 1-5.72-7C2.94 9.66 1.52 6.49 0 3.32zM38.77 27.73c-.17 1.28-.27 2.46-.48 3.61a28.73 28.73 0 0 1-2.87 8.47A25.46 25.46 0 0 1 29.83 47a24.5 24.5 0 0 1-11 5.69 26.25 26.25 0 0 1-4 .59 28.46 28.46 0 0 1-4.47 0 26.71 26.71 0 0 1-9.9-2.96c-.24-.13-.27-.25-.17-.49a84 84 0 0 1 5.07-10.46 23.13 23.13 0 0 1 13.71-10.23 37.59 37.59 0 0 1 6.48-1.27 54.41 54.41 0 0 1 9.21-.31c1.3.07 2.6.11 4.01.17zM115.64 51.62v1.32h-8.44v-1.27c.57-.05 1.14-.07 1.69-.17a1.13 1.13 0 0 0 1-1.21V42.5a5.92 5.92 0 0 0-.61-2.73 2.9 2.9 0 0 0-3-1.4c-2.12.28-2.95 1.82-3.48 3.61a6.81 6.81 0 0 0-.22 1.84v6.17c0 1.35.46 1.49 1.61 1.62a10 10 0 0 0 1 0V53H95a6.38 6.38 0 0 1-1.18-.13 2.42 2.42 0 0 1-1.72-1.63c-.08-.17-.13-.34-.19-.5-.78.63-1.48 1.29-2.28 1.82a6.49 6.49 0 0 1-4.76.87 7.42 7.42 0 0 1-2.23-.68 3.66 3.66 0 0 1-1.17-5.38 8.91 8.91 0 0 1 4.62-3 22.09 22.09 0 0 1 5.2-1.16 3.19 3.19 0 0 0 .55-.17c0-.94-.05-1.87-.16-2.8a2.83 2.83 0 0 0-2.19-2.46 5 5 0 0 0-4.22.5c-.72.44-.76.78-.26 1.46a2 2 0 0 1 .42 2.19c-.47 1.13-2.28 1.19-3 .59a2.65 2.65 0 0 1-.15-3.68 6.86 6.86 0 0 1 4.39-2.53 9.86 9.86 0 0 1 5.14.31 4.38 4.38 0 0 1 3 4.14v8.84a3.22 3.22 0 0 0 .09.76c.18.7.51 1.24 1.35 1.23s1.65 0 2.47 0a.89.89 0 0 0 .79-1V39.45c0-.82-.57-1.37-1.59-1.41-.64 0-.78-.28-.7-.82v-.55l2.92-.23c.5 0 1-.06 1.5-.11a.38.38 0 0 1 .47.34c.16 1 .31 1.93.46 2.93l1-1.11a5.78 5.78 0 0 1 5.09-2.14 4.35 4.35 0 0 1 3.86 3.36l.09.26 1-1.28a5.81 5.81 0 0 1 5.14-2.34c2.09.16 3.27 1.07 4 3.5a8 8 0 0 1 .33 2.29v7.95c0 1.06.23 1.47 1.26 1.55a22.55 22.55 0 0 0 3.58 0c.66-.05.92-.47.92-1.15V39.82a1.64 1.64 0 0 0-1.52-1.82c-.41 0-.82-.1-1.27-.15v-1.3l5.93-.23v13.91c0 1 .42 1.39 1.38 1.39h2.67c.89 0 1.37-.28 1.55-.94a2.05 2.05 0 0 0 .05-.51V40.03a1.94 1.94 0 0 0-2.17-2.2h-.83v-1.27l5.5-.35.49 3.34A17.36 17.36 0 0 1 142 38a6.33 6.33 0 0 1 6.7-1.36 4.66 4.66 0 0 1 2.82 3.63 8.45 8.45 0 0 1 .21 1.94v7.84c0 1.11.56 1.49 1.54 1.56H153.91v1.25h-7.34v-1.19c.32-.05.64-.12 1-.15 1-.1 1.24-.74 1.26-1.47 0-2.32.07-4.64 0-7a9.9 9.9 0 0 0-.52-2.87 3.1 3.1 0 0 0-3.21-1.94 4.45 4.45 0 0 0-4.18 3.55 11.45 11.45 0 0 0-.32 2.45v5.18a7.44 7.44 0 0 0 .11 1.19c.09.56.64.92 1.41 1h.75v1.32h-25.41v-1.26c.57-.05 1.14-.08 1.7-.16a1 1 0 0 0 1-1.15c0-2.93.07-5.86 0-8.78a3 3 0 0 0-3.21-3.21 3.38 3.38 0 0 0-3.08 1.92 7.32 7.32 0 0 0-.93 3.75c.06 2.05 0 4.11 0 6.17 0 1 .41 1.39 1.37 1.42.42 0 .86-.01 1.33-.01zm-23.86-7.4c-1.41.35-2.77.64-4.11 1a5.47 5.47 0 0 0-2.57 1.48 3.68 3.68 0 0 0-.83 3.3 2.29 2.29 0 0 0 2.12 2 5 5 0 0 0 4.67-2.59c.88-1.6.72-3.34.72-5.19zM66.24 16.82h1.32l-.44 8.31H46.4v-1.27c.66-.05 1.32-.07 2-.17a1 1 0 0 0 .93-1.14V3.26a1.08 1.08 0 0 0-1.21-1.2H46.4V.62h19.38c.46 0 .55.2.57.58q.15 2.56.32 5.13c0 .34.09.68.14 1.1a5.42 5.42 0 0 1-1.08 0c-.13 0-.26-.3-.31-.48A28.4 28.4 0 0 0 64.67 4a2.72 2.72 0 0 0-2.59-1.81c-2.64-.07-5.29-.09-7.93-.11a1 1 0 0 0-1 1.07v8.65c1.52-.13 3.08.36 4.46-.71a4.36 4.36 0 0 0 1.5-2.61c.13-.57.18-1.15.28-1.77h1.27v11.92h-1.28c-.15-1.71-.25-3.45-1.7-4.68-.88-.75-2.2-.95-4.51-.79v9.32a1.16 1.16 0 0 0 1.26 1.3c1.73 0 3.45.07 5.18 0a7.25 7.25 0 0 0 3.78-1 5.91 5.91 0 0 0 2.34-3.53c.21-.79.33-1.59.51-2.43zM70.35 42.42V41.1h10.21v1.26c-.52.05-1 .09-1.57.16a1.08 1.08 0 0 0-1 1.25v9.83h-.85c-.27 0-.44-.11-.52-.41-.33-1.18-.69-2.36-1-3.54a2.61 2.61 0 0 0-.13-.29c-.4.52-.76 1.06-1.2 1.53a7.44 7.44 0 0 1-4 2.38 11 11 0 0 1-9.36-2.42A13 13 0 0 1 59 32.7a12.08 12.08 0 0 1 6.87-4.56 8.93 8.93 0 0 1 7.41 1.45l1.21.85c.4-.73.78-1.42 1.15-2.11a.7.7 0 0 1 .81-.46 4.24 4.24 0 0 0 .69 0c.05.64.11 1.24.14 1.84.08 1.4.13 2.8.22 4.2s.2 2.58.3 3.87v.51h-1.12c-.69-1.62-1.28-3.25-2.08-4.77a7.24 7.24 0 0 0-4.9-4 6.45 6.45 0 0 0-6.39 2 9.41 9.41 0 0 0-2.36 5.32 35.15 35.15 0 0 0-.32 5.12 14.65 14.65 0 0 0 1.3 6.15 6.25 6.25 0 0 0 5 3.91 6.85 6.85 0 0 0 5.41-1.16 5.3 5.3 0 0 0 2-3.66c.11-1 .07-2.08.12-3.12.07-1.46-.58-1.54-1.63-1.63-.83-.09-1.63-.03-2.48-.03zM158 52.93c-2.37-.74-3.24-1.92-3.19-3.37s1.12-2.57 3.05-3.22c-.33-.25-.63-.49-.94-.71a5 5 0 0 1-.9-7.06 6.56 6.56 0 0 1 4.46-2.44 8.2 8.2 0 0 1 4.11.44c.49.19 1 .47 1.44.68a.61.61 0 0 0 .51 0 17.22 17.22 0 0 1 4.7-2.59 2.43 2.43 0 0 1 3.18 1.8 2.05 2.05 0 0 1-1.8 2.22 2.11 2.11 0 0 1-2.2-1.59c-.13-.44-.34-.59-.73-.38-.75.42-1.49.86-2.22 1.3-.31.19-.11.38 0 .6a14.55 14.55 0 0 1 .95 2.19 4.74 4.74 0 0 1-1.78 4.8 8.44 8.44 0 0 1-5.41 1.77 18.34 18.34 0 0 0-3.35.22 1.34 1.34 0 0 0-.91 1.94 1.5 1.5 0 0 0 1.53.74h6.22a6.77 6.77 0 0 1 3.44.89 3.82 3.82 0 0 1 1.57 4.45c-.59 2-2.14 3-4 3.71a13.18 13.18 0 0 1-5.3.64 9.15 9.15 0 0 1-4-.94 4.19 4.19 0 0 1-2-2.05 2.44 2.44 0 0 1 1-2.93 17 17 0 0 1 2.14-1c.1-.04.24-.04.43-.11zm7.29-11.07a5.72 5.72 0 0 0-.63-2.86 3.34 3.34 0 0 0-5.7-.27 4.78 4.78 0 0 0-.71 2.32 5.89 5.89 0 0 0 .65 3.43 3.32 3.32 0 0 0 5.51.36 5.34 5.34 0 0 0 .85-2.98zm-3.5 16.91c.48 0 1-.11 1.44-.14a6.09 6.09 0 0 0 3.55-1.29 2.15 2.15 0 0 0 .26-3.29 3.84 3.84 0 0 0-2.64-1 25.94 25.94 0 0 0-3.27 0 6.12 6.12 0 0 0-2.89.79 2.39 2.39 0 0 0-1.34 2.4 2.2 2.2 0 0 0 1.46 1.82 8.59 8.59 0 0 0 3.4.71zM144.6 8.59V22.39c0 1.1.31 1.41 1.41 1.41h1v1.33h-8V23.8h1.17a1.18 1.18 0 0 0 1.3-1.33V12.12a1.57 1.57 0 0 0-1.48-1.59c-2.73-.05-5.47-.07-8.2-.1a.63.63 0 0 0-.15.06v10.89a2.12 2.12 0 0 0 1.11 2 2.41 2.41 0 0 0 3.19-1 7.62 7.62 0 0 0 .83-3.45H138c.22 2-.53 4.79-2.67 6-1.94 1.05-4.9.82-6.21-1.4a3.72 3.72 0 0 1-.48-1.76V11.05v-.57h-2.75c0-.08-.07-.11-.07-.14 0-.35-.12-.77 0-1s.58-.25.9-.36a4.89 4.89 0 0 0 3.12-3.68 18.81 18.81 0 0 0 .43-2.79c0-.29.11-.4.41-.38s.59 0 .95 0v6.66zM170.88 23.8v1.34h-7.37v-1.28c.39-.05.78-.08 1.16-.16a1.11 1.11 0 0 0 1-1.22V11.97a1.8 1.8 0 0 0-2-2h-1V8.75l5.53-.36.48 3.41.68-.84A6.42 6.42 0 0 1 175 8.44c2.4.13 3.84 1.4 4.54 3.92a7.34 7.34 0 0 1 .22 1.89v7.79c0 1.15.44 1.81 1.78 1.75h.46v1.34h-7.29v-1.27l.94-.15c1-.18 1.17-.53 1.19-1.37.05-2.47.07-5 0-7.42a5.36 5.36 0 0 0-.91-3.21 2.89 2.89 0 0 0-2-1.17c-3.06-.37-4.69 1.82-5.08 4.1a15.54 15.54 0 0 0-.12 2.43v5.23c0 1.07.46 1.42 1.53 1.51.17.01.38-.01.62-.01zM127.15 23.8v1.27h-5.62l-.34-2.86c-.88.73-1.74 1.55-2.7 2.22a5.39 5.39 0 0 1-3.23 1 5 5 0 0 1-5-4.14A14 14 0 0 1 110 19v-6.85c0-1.68-.89-1.94-2.05-2.06h-.86V8.76l5.91-.33v11.44a3.3 3.3 0 0 0 2.66 3.46 4.34 4.34 0 0 0 4.35-1.77 6.18 6.18 0 0 0 1.13-3.67v-6a1.61 1.61 0 0 0-1.47-1.74c-.46-.07-.92-.11-1.43-.16V8.75l5.83-.33v13.33a1.75 1.75 0 0 0 2 2z"/><path d="M163.11 17a9.28 9.28 0 0 1-.78 4 7.64 7.64 0 0 1-6 4.57 6.88 6.88 0 0 1-5.43-1.23 8.13 8.13 0 0 1-3.28-5.4 10 10 0 0 1 .87-6.56 7.54 7.54 0 0 1 12.33-1.69 7.87 7.87 0 0 1 2.18 4.54c0 .58.06 1.17.11 1.77zm-3.4-.15a10.4 10.4 0 0 0-.73-4.77 3.88 3.88 0 0 0-3.5-2.47 3.74 3.74 0 0 0-3.67 2.18 9.7 9.7 0 0 0-1 4.22 26.88 26.88 0 0 0 .09 2.75 8 8 0 0 0 1 3.72 3.73 3.73 0 0 0 4.2 1.76 4.09 4.09 0 0 0 2.9-2.8 11.25 11.25 0 0 0 .7-4.61zM99.34 17a9.28 9.28 0 0 1-.78 4 7.64 7.64 0 0 1-6 4.57 6.88 6.88 0 0 1-5.43-1.23 8.13 8.13 0 0 1-3.28-5.4 10 10 0 0 1 .87-6.56 7.54 7.54 0 0 1 12.38-1.69 7.87 7.87 0 0 1 2.09 4.54c.07.58.1 1.17.15 1.77zm-3.4-.15a10.4 10.4 0 0 0-.73-4.77 3.88 3.88 0 0 0-3.5-2.47A3.74 3.74 0 0 0 88 11.78 9.7 9.7 0 0 0 87 16a26.88 26.88 0 0 0 .09 2.75 8 8 0 0 0 1 3.72 3.73 3.73 0 0 0 4.2 1.76 4.09 4.09 0 0 0 2.9-2.8 11.25 11.25 0 0 0 .75-4.6zM76.55 25.64a1 1 0 0 1-1.39-.71c-1.18-2.77-2.45-5.51-3.68-8.26-.81-1.81-1.64-3.61-2.45-5.43a2 2 0 0 0-1.91-1.15L65.76 10V8.78h9V10c-.57.08-1.16.14-1.75.25a.79.79 0 0 0-.65 1.19c.38 1 .8 1.92 1.23 2.88 1 2.31 2.08 4.62 3.15 7l1.3-3.08c.81-1.92 1.57-3.86 2.45-5.75a1.37 1.37 0 0 0-1-2.14l-.49-.2c-.74-.19-.74-.19-.73-1v-.43h6.89a4.83 4.83 0 0 1 0 .89c0 .16-.21.41-.33.42-1.46.11-2.06 1.14-2.55 2.3q-1.24 2.9-2.49 5.8l-2.87 6.69c-.11.31-.24.56-.37.82z"/><path d="M99.14 25.12v-1.27a12.71 12.71 0 0 0 1.55-.16 1.11 1.11 0 0 0 .94-1.23V3.69a1.67 1.67 0 0 0-1.76-1.64h-1.79a8 8 0 0 1 0-1.16c0-.12.27-.27.42-.29.6-.06 1.21-.08 1.82-.09h4.37v21.77c0 1.14.38 1.45 1.48 1.49h.92v1.32zM142.54 1a2.11 2.11 0 0 1 2.07 2 2 2 0 0 1-2 2 2.1 2.1 0 0 1-2.05-2 2.08 2.08 0 0 1 1.98-2zM128 30.86c-.16-1 1-2.07 2-2a2.14 2.14 0 0 1 2 1.94 2 2 0 0 1-2 2.12 2 2 0 0 1-2-2.06zM39.11 50.54a3.36 3.36 0 0 1-3.45 3.35 3.39 3.39 0 1 1 .08-6.78 3.36 3.36 0 0 1 3.37 3.43zm-.68 0a2.67 2.67 0 0 0-2.68-2.85 2.8 2.8 0 0 0-.1 5.6 2.68 2.68 0 0 0 2.78-2.74z"/><path d="M37.1 52.3a.12.12 0 0 1 0 .05h-.8v-.06l-.34-.85-.12-.26a.82.82 0 0 0-.13-.19.48.48 0 0 0-.17-.11.58.58 0 0 0-.22 0H35v1.42a.08.08 0 0 1 0 .05h-.74a.09.09 0 0 1 0-.05v-3.47a.24.24 0 0 1 .07-.19.24.24 0 0 1 .16-.06h1.41a1.61 1.61 0 0 1 .41.11 1 1 0 0 1 .31.21.87.87 0 0 1 .2.3 1.11 1.11 0 0 1 .07.4 1.18 1.18 0 0 1 0 .35.9.9 0 0 1-.14.28.94.94 0 0 1-.23.22 1.26 1.26 0 0 1-.32.15l.16.1a.84.84 0 0 1 .14.14 1.37 1.37 0 0 1 .13.19 2.47 2.47 0 0 1 .12.24l.32.75.06.16a.32.32 0 0 1-.03.12zm-1-2.59a.57.57 0 0 0-.09-.32.47.47 0 0 0-.28-.18H35v1.08h.4a1 1 0 0 0 .29 0 .58.58 0 0 0 .21-.11.46.46 0 0 0 .12-.17.58.58 0 0 0 .08-.3z"/></svg>
