<svg xmlns="http://www.w3.org/2000/svg" fill="currentColor" viewBox="0 0 1453.92701 471.69861"><title>evoplay</title><path d="M749.253 300.736v80.634h-61.127v-5.442q0-136.499-.116-272.998c-.01-5.042 1.29-7.055 6.376-8.318a369.009 369.009 0 0 1 75.507-10.441c24.336-.903 47.8 2.854 69.21 15.324 24.632 14.345 39.224 36.203 45.301 63.544 6.863 30.873 5.508 61.542-6.279 91.204-16.236 40.86-52.787 58.853-92.775 54.798-11.265-1.143-22.252-5.025-33.366-7.651-.763-.18-1.525-.365-2.731-.654zm-.173-106.777c0 16.814.146 33.63-.105 50.44-.06 4.067 1.347 6.315 5.02 7.348 6.85 1.928 13.616 4.612 20.605 5.503 22.687 2.892 40.826-4.775 47.732-28.93 5.507-19.261 5.643-38.797-.374-57.989-5.641-17.992-16.984-30.743-36.54-33.076-9.63-1.15-19.568-.157-29.335.408-7.019.406-6.997.806-6.997 7.852q0 24.222-.006 48.444zM1214.818 300.767c-12.675 2.334-24.984 5.27-37.465 6.737-16.987 1.996-34.109 3.983-51.168 3.943-21.447-.05-42.89-2.121-62.507-12.39-21.835-11.43-32.699-29.889-34.691-54.038-1.22-14.786-.419-29.276 6.54-42.815 10.117-19.684 27.432-29.747 47.871-35.336 20.966-5.733 42.356-6.292 63.883-4.324 2.446.223 4.904.318 7.349.472.748-11.357-8.84-23.798-21.599-25.826a151.286 151.286 0 0 0-34.19-1.682c-14.14 1.006-28.136 4.043-42.643 6.273-1.955-12.317-4.182-25.534-6.115-38.792-1.384-9.496-1.242-9.665 7.982-11.808 28.54-6.631 57.41-9.933 86.628-6.25 22.986 2.897 43.595 10.884 57.013 31.42 8.142 12.46 11.861 26.568 12.138 41.104.776 40.793.714 81.602.968 122.404.041 6.656.006 13.312.006 20.908zm-59.103-93.599c-3.416-.39-6.21-.824-9.021-1.01-12.508-.823-24.984-.629-36.877 3.84-12.258 4.608-16.635 12.542-15.807 27.27.568 10.095 6.863 17.348 18.036 20.516 14.342 4.066 28.884 2.644 43.669 1.724zM201.208 217.462H63.021c.453 9.466 4.157 16.808 9.509 23.263 6.197 7.475 14.568 12.005 23.796 14.441a113.589 113.589 0 0 0 54.209.77c10.237-2.266 20.459-4.601 31.076-6.993 1.49 9.367 3.02 18.953 4.54 28.54.833 5.26 1.33 10.598 2.576 15.756.931 3.855-.51 5.771-3.84 6.596-12.164 3.016-24.27 6.393-36.572 8.701a188.222 188.222 0 0 1-60.85.942c-10.753-1.502-21.26-5.941-31.409-10.182-6.725-2.81-12.683-7.516-18.85-11.578-2.706-1.783-4.617-5.894-7.456-2.8-1.527-2.865-2.647-6.001-4.61-8.466-7.377-9.27-13.517-19.179-17.46-30.41-8.224-23.42-9.33-47.418-5.741-71.745a121.46 121.46 0 0 1 12.44-37.855c7.634-14.91 18.854-26.55 32.01-36.247 10.125-7.463 22.095-11.472 34.328-14.558a100.052 100.052 0 0 1 39.065-1.616c32.828 4.809 58.015 20.97 71.925 52.323 5.436 12.253 8.181 25.115 9.327 38.336.702 8.1.876 16.26.947 24.396.052 5.775-.463 11.556-.773 18.386zm-58.586-42.541c-.98-23.133-14.082-40.875-38.866-40.746-24.526.128-37.79 17.1-40.173 40.746zM651.596 195.714c-.533 9.468.17 19.215-1.884 28.34-3.22 14.303-7.883 28.253-15.65 41.08a94.452 94.452 0 0 1-20.64 24.129c-7.36 6.057-16.372 10.366-25.143 14.384-11.032 5.055-23.105 7.089-35.105 7.82-8.78.535-17.68-1.122-26.539-1.563-10.692-.532-20.287-5.066-29.697-9.165-8.401-3.66-15.912-9.647-23.257-15.33-3.642-2.818-6.172-7.156-8.948-10.993-4.258-5.886-9.53-11.442-12.145-18.022a187.157 187.157 0 0 1-10.342-34.589c-5.17-27.805-2.376-55.05 9.728-80.843a96.967 96.967 0 0 1 38.08-42.373c20.921-12.755 43.646-16.98 67.736-14.8 23.259 2.105 43.74 10.987 60.706 27.024a97.673 97.673 0 0 1 28.198 49.59c2.695 11.526 3.995 23.38 5.922 35.085zm-149.028-2.23c-.087 17.581 1.613 31.755 9.018 44.715 8.222 14.39 20.9 21.258 37.072 20.316 16.648-.97 27.962-10.681 34.091-25.738 7.657-18.81 8.49-38.523 4.083-58.173-3.99-17.787-11.591-32.693-32.073-37.068-20.224-4.32-37.183 4.609-45.148 22.394-5.22 11.659-7.54 23.849-7.043 33.554zM1237.126 89.156h65.396c12.556 46.463 27.083 92.422 44.719 139.105 3.853-10.448 7.622-19.342 10.436-28.529 10.94-35.721 21.555-71.542 32.41-107.29.416-1.368 2.048-3.373 3.13-3.384 19.975-.204 39.953-.15 60.71-.15-2.142 7.321-4.043 14.121-6.12 20.867-21.139 68.666-45.115 136.299-75.833 201.32-10.206 21.602-22.542 42.194-33.786 63.311-2.961 5.561-6.913 7.799-13.52 7.555-15.31-.566-30.657-.174-45.99-.19-1.588-.002-3.177-.137-4.645-.205 6.883-11.644 14.124-22.778 20.232-34.502 8.292-15.914 15.812-32.236 23.369-48.52.77-1.656.063-4.51-.856-6.363-18.328-36.97-35.109-74.643-49.285-113.378-10.714-29.274-20.06-59.048-30.367-89.647zM214.206 89.12h64.65q4.113 14.32 8.206 28.561c2.83 9.827 5.524 19.696 8.543 29.464q7.1 22.97 14.577 45.823c3.494 10.73 7.167 21.405 10.936 32.041.387 1.093 1.983 1.758 3.018 2.622.758-.948 1.858-1.781 2.222-2.862q7.435-22.114 14.678-44.293c4.805-14.742 9.698-29.46 14.19-44.3 4.67-15.43 8.907-30.99 13.548-47.243h62.254a26.034 26.034 0 0 1-.452 4.8c-2.872 9.345-5.889 18.646-8.787 27.983-2.977 9.593-5.642 19.29-8.868 28.797-3.105 9.148-6.693 18.134-10.176 27.149-6.681 17.293-13.179 34.664-20.237 51.803-7.2 17.485-14.903 34.765-22.548 52.063-3.053 6.906-6.601 13.592-9.804 20.435-1.373 2.934-3.372 4.002-6.667 3.958-13.162-.176-26.33-.206-39.49.003-4.715.075-7.225-1.159-9.283-6.012-6.862-16.186-14.831-31.9-21.872-48.014q-9.694-22.187-18.303-44.846-11.652-30.55-22.47-61.417c-4.64-13.3-8.475-26.88-12.69-40.327-1.606-5.121-3.267-10.225-5.175-16.188zM928.17 0h60.524v310.73c-30.984-2.55-54.82-19.284-58.526-49.691a247.371 247.371 0 0 1-1.912-29.341q-.232-112.427-.085-224.854zM310.167 471.699v-60.72h43.904v7.165h-35.868v18.598h33.59v7.124h-33.59v20.668h37.276v7.165zM383.462 471.699v-60.72h8.242l31.893 47.673v-47.673h7.703v60.72h-8.242l-31.892-47.714v47.714zM477.217 471.699v-53.555h-20.005v-7.165h48.128v7.165h-20.088v53.555zM530.714 471.699v-60.72h43.904v7.165h-35.869v18.598h33.59v7.124h-33.59v20.668h37.277v7.165zM604.215 471.699v-60.72h26.922q8.118 0 12.343 1.636a13.505 13.505 0 0 1 6.751 5.778 17.241 17.241 0 0 1 2.527 9.153 15.273 15.273 0 0 1-4.183 10.894q-4.185 4.431-12.923 5.633a20.835 20.835 0 0 1 4.846 3.023 41.756 41.756 0 0 1 6.669 8.076l10.561 16.527h-10.106l-8.035-12.633q-3.52-5.467-5.799-8.366a18.245 18.245 0 0 0-4.08-4.06 12.098 12.098 0 0 0-3.665-1.615 24.217 24.217 0 0 0-4.473-.29h-9.32v26.964zm8.035-33.922h17.272a25.894 25.894 0 0 0 8.615-1.139 9.169 9.169 0 0 0 4.722-3.645 9.857 9.857 0 0 0 1.615-5.447 9.05 9.05 0 0 0-3.127-7.083q-3.128-2.774-9.878-2.774H612.25zM696.23 471.699v-53.555h-20.004v-7.165h48.128v7.165h-20.088v53.555zM736.598 471.699l23.319-60.72h8.656l24.851 60.72h-9.153l-7.083-18.39h-25.39l-6.668 18.39zm17.52-24.934h20.585l-6.337-16.816q-2.9-7.663-4.308-12.591a77.45 77.45 0 0 1-3.271 11.596zM818.176 471.699v-60.72h8.035v60.72zM857.093 471.699v-60.72h12.094l14.372 42.992q1.99 6.006 2.9 8.988 1.035-3.313 3.23-9.733l14.538-42.247h10.81v60.72h-7.745v-50.82l-17.644 50.82H882.4l-17.562-51.69v51.69zM945.132 471.699v-60.72h43.904v7.165h-35.869v18.598h33.591v7.124h-33.59v20.668h37.276v7.165zM1018.426 471.699v-60.72h8.243l31.892 47.673v-47.673h7.704v60.72h-8.242l-31.893-47.714v47.714zM1112.182 471.699v-53.555h-20.005v-7.165h48.128v7.165h-20.088v53.555z"/></svg>
