<svg xmlns="http://www.w3.org/2000/svg" fill="currentColor" viewBox="0 0 819.83499 245.46577"><path d="M119.653 34.499L174.9 87.076c-7.936 6.769-16.359 13.444-24.177 20.766-7.58 7.099-17.827 11.1-23.744 20.364 7.528-.958 15.414 3.493 22.087-2.386 8.206-7.231 16.301-14.589 24.515-21.812 3.47-3.053 7.12-5.902 10.592-8.764l59.53 52.618c-27.828 29.564-80.449 29.645-111.907 1.09-39.372-35.736-34.13-87.985-12.144-114.453zM627.939 43.28c1.46 16.769 2.91 33.4 4.472 51.327 4.663-7.714 8.793-14.574 12.95-21.418 5.758-9.476 11.51-18.955 17.353-28.378a3.658 3.658 0 0 1 2.501-1.644c13.465-.103 26.93-.072 41.02-.072-1.883 8.114-3.543 15.703-5.413 23.239-5.249 21.157-10.67 42.273-15.791 63.46-.753 3.112-1.712 4.438-5.088 4.367-9.812-.205-19.632-.073-30.072-.073l17.132-70.165-.673-.282q-10.508 17.805-21.018 35.609c-6.392 10.808-12.768 21.626-19.268 32.37-.648 1.07-2.085 2.32-3.19 2.353-7.123.212-14.256.109-21.686.109l-6.414-70.958-.539-.108-17.427 70.867h-14.791l22.297-90.603zM194.886 70.912L138.094 17.24C161.785-4.018 208.9-8.394 242.772 20.035c28.776 24.153 43.727 72.285 14.364 112.176L203.427 80.1l44.979-36.034-.835-1.604c-8.383-.174-16.636-1.718-24.169 5.212-8.974 8.256-18.898 15.48-28.516 23.238zM385.343 43.09c25.216 0 49.872-.147 74.524.065 11.481.099 16.185 6.173 14.04 17.475-1.212 6.394-2.595 12.775-4.307 19.05-2.937 10.762-6.385 13.553-17.506 14.806l9.072 39.603h-8.1c-8.33 0-16.665-.162-24.988.074-3.632.103-4.775-1.257-5.233-4.725-1.453-11.01-3.239-21.977-5.038-32.937a3.595 3.595 0 0 0-2.124-2.285c-5.743-1.811-9.486.409-10.713 5.975-2.313 10.49-4.646 20.978-7.183 31.415a4.073 4.073 0 0 1-3.019 2.367c-10.477.177-20.958.107-31.82.107l22.395-90.99zm25.242 35.987c7.191 0 13.845.402 20.398-.233 2.1-.204 4.728-2.785 5.712-4.924 1.597-3.471 2.034-7.476 2.967-11.254.676-2.743.154-4.6-3.192-4.581-5.98.032-11.963-.07-17.94.077-1.14.028-3.054.73-3.26 1.49-1.698 6.234-3.075 12.555-4.685 19.425zM47.404 79.157H87.1l-3.634 14.932c-11.48 0-22.95.122-34.416-.07-3.778-.063-6.039.38-6.705 4.928-.96 6.56-2.879 12.978-4.534 20.079h43.33l-3.646 14.885H0l22.27-90.58h77.553c-.849 3.395-2.135 6.616-2.363 9.91-.327 4.71-2.96 4.969-6.686 4.91-10.988-.175-21.983.06-32.97-.132-3.621-.064-5.715.425-6.327 4.71-.75 5.264-2.521 10.383-4.073 16.428zM518.442 79.072h39.657L554.48 94.09c-11.517 0-23.15.147-34.774-.085-3.756-.075-5.584.728-6.261 4.81-1.087 6.55-2.952 12.97-4.638 20.08h43.347l-3.629 14.981h-77.527L493.3 43.25H570.3c.181.355.487.669.428.88-1.277 4.504-1.267 10.956-4.252 12.979-3.473 2.352-9.575.912-14.537.96-7.993.075-15.987.092-23.98-.018-3-.04-4.731.305-5.266 4.08-.784 5.537-2.679 10.918-4.25 16.941zM698.947 134.089l22.343-90.78h77.228c.086.276.205.447.17.577-1.22 4.52-1.103 10.805-4.06 13.068-3.113 2.382-9.167 1.046-13.938 1.106q-12.238.155-24.479-.013c-3.19-.05-5.06.261-5.577 4.323-.69 5.415-2.65 10.667-4.259 16.715h39.766l-3.71 15.004c-11.7 0-23.339.096-34.975-.06-3.453-.046-5.282.5-5.915 4.567-1.042 6.705-3.049 13.26-4.805 20.522h42.904a6.061 6.061 0 0 1 .207 1.563c-1.147 4.37-1.01 10.527-3.852 12.612-3.07 2.25-8.932.774-13.577.781-20.97.033-41.94.015-63.471.015zM649.844 199.567h19.446l-4.241-39.245h16.455l3.7 32.018c5.995-9.512 11.626-18.035 16.795-26.83 2.408-4.096 4.909-6.876 10.704-4.885l-24.749 39.227c7.317 0 13.57.166 19.796-.153 1.122-.057 2.754-1.946 3.112-3.27 3.262-12.042 6.294-24.146 9.393-36.232h34.858c-.691 6.89-.691 6.89-7.373 6.891h-5.998c-8.042 0-8.042 0-9.75 8.872h17.457c.53 6.551-2.768 7.96-7.898 7.143a12.844 12.844 0 0 0-1.998-.014c-10.455 0-10.455 0-12.004 11.06h19.346c-.313 1.858-.57 3.378-.82 4.871 7.806 2.172 9.018 1.628 12.14-5.515 3.991-9.131 7.936-18.283 11.933-27.41.683-1.562 1.531-3.05 2.303-4.573l1.292.251 11.792 73.887 1.229-.007c2.073-10.02 4.419-19.995 6.097-30.081.779-4.682 1.033-5.852 15.658-5.852 5.21-.042 2.012-1.34 7.236-1.842 1.246-.12 3.348.43 3.711 1.261a5.925 5.925 0 0 1-.23 4.644c-.359.664-5.748.618-6.8-.232-3.652-2.954-8.32-1.925-14.25-1.194-1.81 1.4-2.776 2.447-3.12 4.005-2.625 11.85-4.969 23.764-7.443 35.648a28.494 28.494 0 0 1-1.18 3.456l-1.438-.016-12.158-77.248-1.177-.21c-1.59 3.366-3.25 6.702-4.757 10.105-2.892 6.533-5.791 13.065-8.497 19.676-1.211 2.96-2.812 4.252-6.278 4.244q-82.733-.186-165.466-.014c-3.632.007-4.955-1.142-5.304-4.714-1.038-10.606-2.382-21.183-3.637-31.768a9.789 9.789 0 0 0-1.986-5.29l-14.996 67.274-1.361.025a31.739 31.739 0 0 1-.797-3.881c-.481-5.81-.985-11.623-1.25-17.445-.128-2.805-.913-4.103-4.051-4.233-11.395-.47-11.384-.587-11.926-12.11-.292-6.217-.607-12.433-.912-18.649l-1.29-.08c-2.118 8.643-4.496 17.234-6.238 25.952-.793 3.969-2.472 5.177-6.326 5.033-6.872-.256-13.76-.072-20.64-.072l-.085-1.696c2.131-.154 4.26-.375 6.395-.446 2.33-.077 4.665-.015 6.998-.013 10.822.005 10.87.017 13.395-10.438 2.224-9.208 4.31-18.45 6.506-27.664a5.049 5.049 0 0 1 2.407-3.142c.222 1.792.559 3.58.648 5.378.517 10.483 1.124 20.965 1.374 31.455.085 3.577 1.432 4.45 4.769 4.474 10.467.076 10.466.195 11.356 10.409a9.368 9.368 0 0 0 1.65 5.2l14.765-65.998 1.658.115 6.075 50.193c2.35 0 4.44.42 6.229-.132 1.467-.452 3.357-1.848 3.726-3.192 3.3-12.045 6.304-24.172 9.408-36.324h15.319l-8.308 33.92h19.762l-.958 4.63c4.468 1.734 4.845 1.568 5.94-2.666q4.635-17.904 9.275-35.879h15.314l-9.732 39.338zM289.659 133.927l18.506-75.773h-28.232c.645-2.444 1.163-4.438 1.699-6.427 2.328-8.639 2.33-8.638 10.96-8.638h81.688l-3.622 15.023h-28.273l-18.62 75.815z"/></svg>
