<svg data-name="Ezugi" xmlns="http://www.w3.org/2000/svg" viewBox="0 0 1986.1 799" fill="currentColor"><path d="M1428.2 596.1a7.11 7.11 0 0 1-7 7.1c-18.8.5-35.9 2.5-56.3 3.6-19.7 1-38.8 1.7-53.9 4.9a6.89 6.89 0 0 1-6.4-1.8 7 7 0 0 1-2.2-5.1v-38.7a7.1 7.1 0 0 0-11.2-5.8c-15.1 10.9-30.5 22-49.6 32.7-23.8 13.3-41.1 19.5-63.3 19.5-55 0-101.9-32-101.9-116.5V342.8c0-41.4-6.6-50.3-27.1-55l-17.7-3.6a7 7 0 0 1-5.6-6.4l-.6-9a7.12 7.12 0 0 1 6.8-7.6c23.3-.8 80.4-2.5 103.4-4.3a7.06 7.06 0 0 1 7.6 7.5c-1.7 24-1.7 58.3-1.7 104.9v105.5c0 69.6 35.3 88.3 72.3 88.3 28.7 0 59-11.1 86.3-35.4a7.13 7.13 0 0 0 2.4-5.3V342.8c0-41.4-7.4-51.1-34.5-55l-23.6-3.7a7.1 7.1 0 0 1-6-7v-8.7a7.07 7.07 0 0 1 6.8-7.1c26.4-.8 90.9-2.6 114.6-4.4a7.06 7.06 0 0 1 7.6 7.1v253.2c0 39.1 6.6 61.4 38.6 63.7l15.4.5a7.07 7.07 0 0 1 6.8 7.1v7.6zM1009.3 514c-10 26.4-21.5 56-32.1 82.8a10 10 0 0 1-9.3 6.3H710.7a10.12 10.12 0 0 1-9-5.6l-.4-.8a10.1 10.1 0 0 1 .8-10.2c65.9-92.8 128.2-186.2 191.1-283a10 10 0 0 0-8.4-15.5h-54.7c-59.1 0-69.8 11.7-92.8 55.5l-7.5 13.7a10 10 0 0 1-12 4.7l-3.4-1.2a10 10 0 0 1-6.3-12.4c7.7-24.8 16.4-51.5 22.3-78.9a9.94 9.94 0 0 1 9.7-7.9h238a10 10 0 0 1 9.1 5.9 10.17 10.17 0 0 1-.8 9.7c-63 93.6-124.5 187.2-187.4 284.8a10 10 0 0 0 8.4 15.4h63c62.3 0 78.8-16.3 109.9-63 .1-.2.3-.4.4-.6l5.9-10.4a10.11 10.11 0 0 1 13-4.1l4.7 2.2a10 10 0 0 1 5 12.6zM1784.6 592.5a10.72 10.72 0 0 1 9.6-10.6c45.4-4.6 68.7-11.9 68.7-61.6v-161c0-45.4-2.2-60.4-42.9-67.9a10.63 10.63 0 0 1-8.8-10.5v-9a10.55 10.55 0 0 1 10.3-10.6c17.8-.5 55.5-1.8 89.7-4.3a10.56 10.56 0 0 1 11.4 10.6v252.7c0 49.7 9.6 57 53.9 61.6a10.72 10.72 0 0 1 9.6 10.6 10.61 10.61 0 0 1-10.6 10.6h-180.2a10.69 10.69 0 0 1-10.7-10.6zM640.3 0L82.1 149.9 0 681.5 620 799l30.9-35.1 19.6-742zM517.9 697.6L56.4 630.5l1.6-18.1c85 5.4 93.1.7 98.8-56.9l28.5-281.8c6.5-63.5-1.2-64.6-78.1-52.1l1.8-18.7L567.9 94.1c-2.8 23.2-5.2 85.3-7.9 132.3l-31 8.6c-4.8-36.6-13-54.6-24.4-70.7-12.4-16.5-40.1-16.4-115.1.2l-78.2 17.1c-31.6 6.9-33.8 9.6-36.2 31.7l-18.6 173.1 93.5-6.7c92.1-6.6 98-13.9 117.2-73.8l30-3.5-20.4 171.1h-29.4c-5.9-61.6-12.4-66.5-100-62.2l-94.1 4.6-15.1 142.6c-3.7 35.3.3 52.5 16.5 63.5 17.1 12.2 50.8 16.3 99.2 22.4 74.4 9.4 102.9 5.9 127.6-14.9 19.2-16.5 42.3-47.2 60.9-82.7l29.2 5.3c-10 31-41.1 117.8-53.7 145.5zM1775.9 275.9a14.55 14.55 0 0 1-13.5 14.6c-15.1 1.1-29.5 4.8-35.8 15.5-2 3.4-2.7 5.4.1 9.8 10.3 15.7 16.7 36.3 16.7 58.4 0 84.4-73.9 125.1-143.7 125.1a253.41 253.41 0 0 1-33.1-2.5 20.47 20.47 0 0 0-16.9 5c-8.5 7.7-16.5 18.2-16.5 26.5 0 14.8 14.8 24.2 51.8 24.2 30.4 0 59.1-2.6 85.9-.2 50.6 4.5 108.2 44.4 108.2 107.1 0 65.7-79.7 114.6-188.9 114.6-92 0-148.1-45.3-148.1-89.9 0-55 59.2-72.3 78.6-87a6.14 6.14 0 0 0-1.5-10.7c-23.8-9.4-43-12.6-50-24.4-25.5-43.4 43.6-54.7 57.2-68.5a6.16 6.16 0 0 0-1.7-10c-34-16.6-64.5-51.9-64.5-101.3 0-88.3 83.8-129.7 147-129.7h.8a157.13 157.13 0 0 1 50.2 8.2 21.87 21.87 0 0 0 6.7 1.1h96.7a13.94 13.94 0 0 1 14.3 14.1zm-269.1 382.9c0 43 42.4 80 103.2 80 75.3 0 107.6-31 113.1-60.1 6.7-35.1-11.8-54.4-35.4-69-18.5-11.5-31.9-16.6-68-18.5-76.5-4.2-112.9 45.7-112.9 67.6zm23.8-289.4c0 61 32 104.7 77.2 104.7 36.1-.8 68.2-31.3 68.2-93 0-61-30.4-104.7-78-104.7-34.5 0-67.4 32.8-67.4 93zM1827.3 161.6c5.5 24.2 31.9 37.7 59 30.3s44.5-33 39-57.2-31.9-37.7-59-30.3-44.5 33-39 57.2z"/></svg>
