<svg xmlns="http://www.w3.org/2000/svg" fill="currentColor" viewBox="0 0 600 77.03"><path d="M510.887 2.077v17.18h35.211V77.03h18.691V19.257H600V2.077zM114.6 45.689h25.96c-4.342-6.419-8.779-12.744-13.121-19.163-4.248 6.419-8.591 12.838-12.839 19.163z"/><path d="M0 0v76.935h316.897l8.78-13.027h49.842c3.021 4.342 5.947 8.685 8.968 13.027h21.334C388.169 51.259 370.61 25.582 352.863 0zm45.5 66.74c-8.307-.661-16.897-2.926-23.316-8.401-11.139-9.44-11.423-28.698-.661-38.515 6.419-6.042 15.387-8.685 23.977-9.346 12.367-.944 25.677.661 35.683 8.685-2.171 2.738-4.342 5.475-6.419 8.213-8.496-7.269-20.296-7.93-30.868-6.703-5.853.661-12.084 2.927-15.388 8.119-5.38 8.496-2.831 22.467 7.647 25.959 11.328 3.588 24.26 3.21 34.927-2.076 0-2.738 0-5.57-.094-8.402H45.217V33.984h36.816c0 7.835 0 15.764.094 23.599C71.932 65.89 58.15 67.684 45.5 66.74zm109.031-.755c-2.265-3.304-4.625-6.702-6.891-10.006h-39.931c-2.265 3.398-4.437 6.702-6.796 10.1H88.357c13.122-19.163 25.488-38.798 39.176-57.583 13.877 18.785 26.621 38.42 39.931 57.583-4.248-.094-8.59-.094-12.933-.094zm97.137 0h-11.706V33.134c-8.212 7.646-16.142 15.765-24.638 23.222-8.59-7.741-17.086-15.576-25.676-23.316v32.945c-3.965 0-7.836 0-11.706-.095.095-18.691 0-37.476.095-56.167a14.002 14.002 0 0 1 6.419 3.587c10.289 9.535 20.673 18.974 31.057 28.509 10.101-9.629 20.201-19.163 30.208-28.792a12.425 12.425 0 0 1 5.947-3.304c.094 18.691 0 37.476 0 56.262zm76.18-44.368h-45.501v11.045h38.232c-2.266 3.398-4.437 6.891-6.702 10.29h-31.53v12.46h23.411c-2.36 3.587-4.625 7.08-6.985 10.573-9.44-.095-18.786 0-28.225-.095V10.95h64.285c-2.265 3.587-4.625 7.08-6.985 10.667zm8.968 25.677c4.436-6.702 8.968-13.31 13.404-19.918 4.626 6.608 9.157 13.31 13.688 19.918h-27.092zm157.08-4.72c10.006-8.213 10.006-25.96-.567-33.7-8.024-5.853-18.408-6.608-28.036-6.797-17.087-.095-34.078 0-51.165 0v74.858h18.691V50.22h26.998c8.119 8.874 16.143 17.842 24.261 26.715h23.6c-8.591-9.44-17.086-18.974-25.771-28.414 4.153-1.51 8.59-2.926 11.989-5.947zm-19.069-8.59l-42.008.094V18.974l42.008-.094a7.552 7.552 0 1 1 0 15.104z"/></svg>
