<svg xmlns="http://www.w3.org/2000/svg" fill="currentColor" viewBox="0 0 448.92682 71">
    <g>
        <path d="M87,71c-7.65166-2.39772-15.305-5.06567-20.44963-11.57224A63.60583,63.60583,0,0,1,58.79916,46.2046c-1.15688-2.55493-2.231-3.56146-5.01064-3.48252-6.57876.18684-13.16643.06-20.80764.06,3.80188-4.98991,6.94124-9.2082,10.22012-13.31508a3.70312,3.70312,0,0,1,2.54724-1.18539c8.78174-.086,17.56466-.05243,26.52555-.05243a69.12921,69.12921,0,0,0-.75693,7.86022A20.56784,20.56784,0,0,0,90.68185,56.179c6.8046.409,13.65122.2208,20.477.13712,4.08905-.05013,6.54775-2.31388,6.95393-6.38581.37282-3.73761-2.57554-6.94553-6.79183-7.07288-6.93023-.20933-13.8714-.05673-21.85641-.05673C93.17563,37.87182,96.2328,33.62123,99.54,29.575a5.05283,5.05283,0,0,1,3.48429-1.28268c6.65926-.11911,13.32462-.17511,19.98226-.01654,5.14244.12248,7.92329,2.95948,8.0102,8.2315.14272,8.65748.45958,17.351-.19355,25.96126C130.5995,65.41736,127.68509,68.162,126,71Z"/>
        <path d="M69,0c-4.129,4.48109-8.17447,9.04469-12.456,13.3749a6.25355,6.25355,0,0,1-3.98929,1.24961c-5.48923.13544-10.98526-.0273-16.47613.06982C23.829,14.911,14.723,24.00574,14.82213,35.82055c.096,11.435,9.28416,20.2789,21.3934,20.49092,5.49095.09615,10.9918-.13247,16.47321.11612a7.85988,7.85988,0,0,1,4.547,2.05677C61.60835,62.52881,65.76334,66.80856,70,71H31c-9.16489-2.34289-17.95827-5.74033-23.26715-13.99512C4.39985,51.82239,2.52761,45.70046,0,40V31c3.06022-6.33851,5.41722-13.16024,9.35735-18.89411C14.36646,4.81638,22.74135,2.20052,31,0Z"/>
        <path d="M131,0c-3.28328,4.56008-6.476,9.19087-9.93238,13.61575-.63.80648-2.33456,1.07636-3.545,1.081-17.45531.06674-34.91095.04568-53.21457.04568A28.94714,28.94714,0,0,1,78.1683,3.53662C81.95309,1.97269,86.0452,1.15249,90,0Z"/>
        <path d="M330.88025,34.55122c-6.65555,10.64339-13.09766,21.25512-19.89816,31.632-2.03986,3.11257-4.67527,1.744-6.44846-.81608-1.78155-2.57223-3.33249-5.30421-5.38016-8.60377-2.04629,3.1855-3.70511,5.983-5.57812,8.62895-2.32312,3.28173-4.95868,3.4188-7.07828.01028-6.29764-10.12723-12.34247-20.41169-18.659-30.92239,5.46512-1.57573,8.69757-.32381,11.05457,4.67038,3.09534,6.55879,7.00168,12.73486,10.60748,19.16149,6.07852-6.27537,6.236-7.39677,2.23953-14.05039q-2.69553-4.48767-5.34909-9.00046c-.07144-.121-.02322-.31263-.03076-.47135,5.49256-1.72593,5.49256-1.72593,13.17176,7.44767,2.86438-4.68616,4.70571-11.26374,12.94519-7.54958-1.66925,2.73305-3.43326,5.61092-5.1872,8.49491-4.53268,7.45316-4.53091,7.45423,1.07126,15.74338,3.8194-6.68641,7.8494-12.88823,10.9892-19.512C321.80121,34.24307,325.1135,32.72034,330.88025,34.55122Z"/>
        <path d="M223.65033,34.01864v6.86867c-9.30949,2.76253-20.01508-3.00923-28.09793,5.83526h27.90994v7.84935H195.478l-.17147,1.60346c7.95369,8.08768,18.69526,1.89639,28.14293,4.74024v7.43c-8.27-.40127-16.75859-.07243-24.96989-1.42577-7.77211-1.28094-12.81615-9.453-12.21741-17.20773.62151-8.04943,6.84723-14.97989,14.98467-15.58085C208.50262,33.59537,215.8293,34.01864,223.65033,34.01864Z"/>
        <path d="M406.9473,67.48943c-11.96665,3.00321-18.06095-5.83132-25.8928-10.58216a3.1363,3.1363,0,0,1-.66906-2.99629,3.803,3.803,0,0,1,2.82568-1.47263c3.1489-.182,6.31638-.11357,9.47458-.0464,4.1962.08926,6.9581-1.85316,6.89035-6.05541-.06238-3.87-2.63843-5.85175-6.65411-5.8108-5.96357.06082-11.92817.01575-18.54773.01575V67.74842h-6.6521V33.96284c9.42712,0,18.55551-.25783,27.66025.09448,5.67031.21941,10.12771,5.11533,10.79394,10.7162A12.26768,12.26768,0,0,1,398.015,58.09545c-.73913.26618-1.5216.41194-3.34814.89482,2.69247,1.83535,4.66324,3.16328,6.61737,4.51535C403.05267,64.72924,404.803,65.9792,406.9473,67.48943Z"/>
        <path d="M152.73914,43.08241V67.71507h-7.55458c0-9.99836-.122-19.784.14027-29.55928.03657-1.36283,2.00644-3.82591,3.00812-3.78906,2.7207.10008,6.26819.43156,7.94389,2.16442,6.12233,6.33116,11.61307,13.27282,17.34955,19.9778.51066.59689,1.07785,1.14542,2.41844,2.56051V34.24186h7.53948c0,10.03554.104,20.11164-.14037,30.17929-.02841,1.17052-2.0351,3.2878-3.03879,3.238-2.26343-.11243-5.14786-.66572-6.585-2.17625-5.50119-5.78218-10.526-12.01721-15.73821-18.075-1.3792-1.60292-2.79266-3.17636-4.19038-4.76335Z"/>
        <path d="M345.56177,70.3657a18.77584,18.77584,0,1,1,19.18634-18.79A18.82227,18.82227,0,0,1,345.56177,70.3657Zm12.59884-18.62342a12.40228,12.40228,0,1,0-12.51028,12.17316A12.49981,12.49981,0,0,0,358.16061,51.74228Z"/>
        <path d="M250.16213,67.79968H242.388V41.65039h-15.283V34.26652h37.62015v7.12572H250.16213Z"/>
        <path d="M448.40408,34.81756c-6.2,5.10741-12.40005,10.21482-19.27551,15.87861,6.82782,5.70612,13.09979,10.94774,19.79825,16.54577-5.91751,1.106-10.53449.52356-14.60346-3.58574-3.14166-3.17275-6.95364-5.67168-10.36535-8.58971-3.75687-3.21326-3.84448-5.43228-.21616-8.53488,4.423-3.78216,8.70157-7.88253,13.63736-10.859,2.91483-1.75775,6.98035-1.6074,10.52838-2.31515Z"/>
        <path d="M419.06891,67.82671h-6.90616c0-5.77781,0-11.386,0-16.99412,0-5.45435,0-10.90871,0-16.64966h6.90616c0,5.69919,0,11.30293,0,16.90665C419.06894,56.54071,419.06891,61.99184,419.06891,67.82671Z"/>
    </g>
</svg>
