<svg xmlns="http://www.w3.org/2000/svg" viewBox="0 0 1845.9481 224.6619" fill="currentColor"><title>goldenrace</title><path d="M1129.666 208.642c4.184-.327 8.146-.624 12.106-.95 12.98-1.066 19.749-7.166 21.795-19.911a72.413 72.413 0 0 0 .97-11.425q-.002-62.746-.199-125.493c-.013-4.658-.362-9.323-.72-13.972-.888-11.565-8.12-19.392-19.574-21.176a51.616 51.616 0 0 0-9.435-.902c-4.112.126-5.45-1.387-5.444-5.523.007-4.37 2.034-5.488 5.796-5.463 43.49.283 86.982.272 130.465.941 15.067.232 29.842 3.32 43.126 11.078 27.06 15.804 33.982 46.072 16.717 72.24-8.5 12.884-20.195 21.48-34.748 26.368-2.97.998-5.873 2.195-9.517 3.567 1.41 2.069 2.348 3.755 3.574 5.196q29.29 34.456 58.64 68.861a42.794 42.794 0 0 0 21.3 13.306c8.23 2.389 11.05 1.624 15.386-5.859 4.915-8.482 9.307-17.3 13.437-26.199 15.56-33.528 30.892-67.16 46.41-100.708 1.154-2.498 2.633-5.3 4.776-6.787 3.923-2.723 8.652-.824 10.955 3.722q32.637 64.403 65.216 128.835c3.878 7.691 9.222 12.8 18.284 13.535 1.603.13 3.008 2.709 4.505 4.157-1.709 1.099-3.407 3.135-5.127 3.154-21.164.23-42.33.17-63.496.161-.989 0-1.974-.272-2.966-.32-2.846-.138-3.378-1.792-3.436-4.345-.065-2.859 1.524-3.15 3.696-3.486 13.835-2.146 14.875-5.288 9.534-18.24-4.6-11.153-10.902-15.919-23.554-14.698-14.696 1.418-29.635.466-44.465.278-4.294-.054-6.879 1.434-8.317 5.457-1.51 4.226-3.558 8.269-4.917 12.536-2.12 6.66.862 11.958 7.591 13.803 2.555.7 5.428.477 7.81 1.488 1.58.671 2.547 2.788 3.788 4.257-1.348 1.117-2.693 3.205-4.045 3.21-32.661.107-65.323-.041-97.984-.057-6.18-.003-10.089-3.494-13.756-7.851-22.315-26.519-45.199-52.582-66.768-79.692-6.782-8.525-14.224-8.95-23.053-8.158-1.228.11-3.275 2.16-3.27 3.305.082 20.794-.478 41.653 1.037 62.357.944 12.908 7.761 17.522 20.771 18.504 2.822.213 5.655.526 8.474.457 4.136-.102 5.975 1.35 5.967 5.833-.009 4.713-2.197 5.335-6.191 5.32-34.332-.12-68.665-.068-102.997-.069-9.369 0-9.697-.401-8.147-10.642zm79.024-144h.26c0 5.656-.095 11.315.025 16.968.142 6.652.344 13.308.78 19.945.17 2.565.4 5.486 4.388 5.315 11.288-.483 22.653-.185 33.858-1.395 16.983-1.834 31.43-15.262 34.996-31.214 4.66-20.852-4.381-40.923-22.364-48.313-14.926-6.134-30.37-6.6-46.006-2.538-4.516 1.173-6.086 3.753-6.003 8.284.202 10.98.066 21.965.066 32.948zm260.441 101.477l-29.402-57.649c-9.336 19.675-18.46 37.755-25.655 57.65zM212.765 106.629q25.242-.009 50.485-.009c3.128-.001 6.11-.008 6.45 4.332.347 4.436-1.95 5.57-5.907 6.087-15.23 1.989-21.435 8.324-22.19 23.763-.824 16.795-1.09 33.632-1.04 50.449.017 6.437-2.391 10.245-8.054 12.827-19.82 9.036-40.303 15.552-62.045 18.12-25.792 3.047-51.538 4.048-77.053-1.61-37.126-8.232-66.619-26.905-83.978-62.178C-6.77 125.485-4.063 70.009 33.081 36.089 60.151 11.369 92.446-.075 128.964.411c20.815.277 40.922 5.173 60.887 10.493 8.863 2.363 15.996.859 21.724-6.648 2.87-3.76 12.497-5.793 15.964-2.855 2.183 1.85 3.564 5.562 3.847 8.575 1.042 11.103 1.525 22.26 2.122 33.4.42 7.816.864 15.637.953 23.46.068 5.932-1.252 6.785-7.118 6.886-7.36.127-11.612-3.918-14.76-9.977a88.051 88.051 0 0 0-39.522-38.998A78.775 78.775 0 0 0 66.035 62.748C46.708 105.443 54.8 154.602 87.18 185.567c21.266 20.336 57.394 32.09 91.948 17.309 6.312-2.7 10.044-6.924 10.17-13.404.332-17.119.897-34.295-.135-51.358-.877-14.501-7.705-19.98-22.262-21.092a47.772 47.772 0 0 0-5.491-.216c-3.753.148-5.715-1.662-5.666-5.31.052-3.847 2.494-4.96 6.037-4.914 8.496.11 16.994.033 25.492.035q6.498.002 12.996.016 6.248.005 12.496-.004zM657.849 68.648c19.65 0 39.535-1.945 58.9.404 40.707 4.939 62.782 26.072 70.718 59.107 6.83 28.434-6.948 59.225-32.38 75.533-18.57 11.906-39.153 15.275-60.636 15.35q-43.743.153-87.485.244c-2.475.003-5.831.946-5.856-3.34-.024-3.955 2.73-4.315 5.849-4.347a68.953 68.953 0 0 0 10.947-.618c8.164-1.405 12.163-5.724 12.595-14.34.591-11.808.733-23.645.812-35.471q.201-29.996.013-59.993a59.009 59.009 0 0 0-1.626-13.33c-1.99-8.218-6.787-11.985-15.208-12.618-2.986-.225-5.992-.203-8.99-.258-2.743-.05-4.964-1.237-4.17-4.092.379-1.363 2.934-2.996 4.521-3.016 17.33-.215 34.662-.134 51.993-.134zm5.784 75.559h-.102c0 17.145.172 34.292-.1 51.432-.087 5.398 2.007 8.397 7.118 8.865 9.907.906 19.956 2.73 29.75 1.89 23.557-2.021 41.454-12.86 49.029-36.652a85.06 85.06 0 0 0 3.69-17.512c1.79-18.605-.787-36.233-13.335-51.17-17.775-21.162-41.12-23.89-66.345-19.68-8.194 1.368-9.687 3.817-9.698 12.393q-.035 25.217-.007 50.434zM360.534 64.374c33.03 1.163 59.047 13.953 75.89 42.805 27.08 46.386-3.278 97.884-44.192 110.404-18.977 5.808-38.273 7.284-57.672 2.309-33.767-8.66-58.377-40.225-58.847-75.12-.459-34.062 23.023-65.658 56.481-75.125 9.207-2.605 18.88-3.56 28.34-5.273zm-46.094 79.138c.135 15.43 1.874 30.48 9.057 44.543 8.39 16.428 22.316 23.221 39.963 23.148 17.045-.07 28.804-8.648 36.096-23.896a92.483 92.483 0 0 0 8.533-31.619c1.825-19.568.139-38.601-9.766-56.14-5.23-9.262-12.275-16.498-22.72-19.904-23-7.498-47.296 5.02-55.895 29.001-4.033 11.251-5.46 22.944-5.268 34.867zM1845.948 176.432c-1.962 6-3.948 11.946-5.85 17.918-1.866 5.867-4.042 11.674-5.35 17.667-1.201 5.517-4.323 7.328-9.527 7.278-9.33-.09-18.66.076-27.99.08q-49 .022-98-.022a30.589 30.589 0 0 1-8.407-.778c-1.348-.392-2.775-2.399-3.041-3.878-.147-.818 1.863-2.489 3.197-2.996 1.815-.69 3.935-.53 5.887-.917 9.765-1.934 13.642-6.002 13.686-16.054q.223-50.489-.167-100.98c-.115-12.52-5.347-17.27-18.657-18.734-2.176-.239-5.255.397-4.777-3.302a4.983 4.983 0 0 1 2.534-3.473c1.786-.677 3.93-.528 5.922-.529q63.249-.02 126.498.012c7.009.002 8.959 1.204 9.37 7.995a122.69 122.69 0 0 1-.648 21.342c-.234 2.039-3.178 4.988-5.242 5.33-3.78.625-8.485 2.042-11.218-2.75-1.813-3.18-3.441-6.478-5.443-9.532-3.692-5.631-9.08-9.126-15.73-9.405-14.142-.594-28.308-.7-42.465-.702-1.17 0-3.36 2.304-3.358 3.534.032 14.991.343 29.983.691 44.972.08 3.454 1.578 5.26 5.618 5.1 10.485-.42 21.004-.06 31.48-.594 11.134-.568 14.734-4.246 15.464-15.434.255-3.908 1.5-5.15 5.347-5.04 12.479.358 10.416-1.77 10.455 10.489.042 12.996-.001 25.996.334 38.985.11 4.242-.83 6.4-5.439 5.628a23.575 23.575 0 0 0-2.995-.06c-6.825-.25-6.825-.253-7.525-7.237-1.077-10.726-4.815-14.308-15.712-14.532-10.163-.21-20.344.139-30.492-.313-4.964-.221-6.596 1.857-6.64 6.24-.111 11.33-.26 22.659-.303 33.989a107.386 107.386 0 0 0 .403 12.48c.687 6.064 3.558 8.54 9.587 8.48 12.656-.127 25.324-.135 37.964-.714 13.338-.611 22.58-7.967 29.088-19.202.5-.865 1.023-1.718 1.52-2.585 5.676-9.906 7.48-10.646 19.931-7.756z"/><path d="M985.345 104.072v8.809q.061 38.238.129 76.477c.003 1.666.006 3.333.079 4.997.464 10.577 4.803 15.333 15.347 16.716a55.147 55.147 0 0 0 6.476.373c6.785.085 6.923.233 5.568 7.872h-5.728l-54.984-.001c-6.839-.002-6.982-.195-5.497-7.888 2.763 0 5.699.094 8.626-.016 12.126-.458 18.072-6.316 18.13-18.47q.24-49.235.057-98.47a10.317 10.317 0 0 0-2.49-6.089 37.865 37.865 0 0 0-19.539-12.353c-5.863-1.52-5.854-1.554-4.68-8.335 6.82 0 13.77-.006 20.72.002 6.665.008 13.352.374 19.986-.064 5.172-.341 8.754 1.613 12.222 5.147q42.886 43.698 85.963 87.207c2.505 2.535 5.208 4.874 8.815 8.232a69.471 69.471 0 0 0 .934-7.227q.174-32.738.182-65.476a40.434 40.434 0 0 0-1.045-8.885c-1.515-6.633-5.987-10.235-12.624-10.974-4.273-.475-8.595-.505-12.813-.73-1.535-6.731-1.198-7.193 5.163-7.196q27.492-.012 54.985-.007c2.685-.001 5.51-.5 5.384 3.766-.123 4.173-3.004 3.633-5.636 3.72-1.997.067-4.002.042-5.989.221-8.373.757-12.478 4.099-13.736 12.47a127.72 127.72 0 0 0-.965 18.409c-.137 33.822-.14 67.645-.23 101.468a82.654 82.654 0 0 1-.504 8.97c-.41 3.665-2.2 4.772-5.29 2.241-1.67-1.369-3.24-2.871-4.769-4.4q-53.538-53.558-107.021-107.168a29.383 29.383 0 0 1-3.118-4.565zM906.762 167.09c-.4-2.874-.718-5.508-1.14-8.127-1.26-7.824-4.395-11.822-12.122-12.284-14.278-.854-28.614-.79-42.927-.98-3.927-.052-3.782 3.202-3.818 5.794q-.222 16.243-.169 32.49a119.916 119.916 0 0 0 .486 13.468c.69 6 3.459 8.873 9.426 8.956q20.978.293 41.966-.244c18.034-.434 28.236-11.766 35.488-26.62 2.017-4.13 4.602-5.238 9.155-3.63-.603 2.374-1.137 4.749-1.81 7.083-2.903 10.076-5.95 20.112-8.73 30.222-1.153 4.194-3.576 6.16-7.87 6.045-2.33-.063-4.664.048-6.997.05q-60.486.05-120.972.111c-3.17.005-6.55.242-5.32-4.48a5.211 5.211 0 0 1 3.37-3.2c17.823-2.858 19.783-4.692 19.875-22.562q.245-47.982-.157-95.966c-.1-12.08-4.838-16.735-16.79-18.057a13.474 13.474 0 0 0-1.493-.125c-2.853.005-4.91-.752-4.691-4.243.227-3.623 2.848-3.053 5.111-3.054 41.992-.016 83.983.026 125.974-.086 3.653-.01 5.07 1.036 5.007 4.776-.165 9.938-.056 19.88-.056 29.53-4.616 1.68-7.069.557-8.547-3.348-4.915-12.982-14.538-18.757-28.279-18.59-12.992.159-25.992-.025-38.985-.255-3.87-.068-5.302 1.281-5.243 5.214.208 13.828.068 27.66.238 41.488.08 6.496.779 7.045 7.367 7 11.328-.075 22.67.075 33.98-.45 12.885-.6 16.206-3.95 18.138-16.648.15-.982.28-1.968.479-3.364h7.364v10.017q0 19.246-.003 38.492c-.006 6.571-.098 6.635-7.305 5.576zM1687.39 180.56c-16.471 29.592-41.505 43.627-74.855 42.593-17.82-.553-35.086-4.037-50.706-13.204-49.118-28.827-52.387-99.301-.572-130.324 25.19-15.082 52.15-17.955 80.4-11.226 4.85 1.155 9.649 2.554 14.43 3.978 3.826 1.14 6.346.135 7.908-3.706 1.315-3.236 10.362-5.652 13.023-3.572a3.961 3.961 0 0 1 1.088 2.607q1.75 23.147 3.358 46.305c.02.285-.25.59-.656 1.485-3.182 0-6.721.435-10.062-.19-1.583-.297-3.257-2.387-4.09-4.063-8.565-17.228-21.828-29.007-40.569-33.535-17.496-4.227-32.684 1.421-45.038 14.005-15.549 15.838-19.825 35.74-18.626 57.117 1.285 22.911 10.563 41.68 31.008 53.214 23.404 13.205 54.955 6.43 71.866-14.595 1.565-1.946 3.11-3.91 4.585-5.925 5.16-7.052 10.474-7.453 17.508-.963zM602.382 178.491c-4.135 12.394-8.131 24.365-12.123 36.339-1.351 4.055-4.731 4.183-8.15 4.206-14.158.099-28.317.232-42.476.268q-43.733.111-87.465.135c-.667 0-1.46.208-1.974-.077-1.282-.708-3.543-1.848-3.432-2.452.302-1.649 1.33-4.05 2.606-4.451 2.782-.875 5.894-.703 8.873-.94 10.85-.863 15.769-5.348 16.539-16.185.636-8.959.634-17.973.667-26.964q.128-34.986 0-69.974a52.832 52.832 0 0 0-.855-9.422c-1.357-7.33-6.27-12.074-13.676-13.335a76.521 76.521 0 0 0-7.954-.693c-2.486-.16-4.74-.49-4.752-3.766-.011-3.384 2.234-3.6 4.766-3.485.83.038 1.665.004 2.498.004q37.487-.001 74.973.003c1.33 0 2.989-.395 3.913.24 1.274.877 2.751 2.575 2.724 3.892-.024 1.138-1.871 2.903-3.187 3.208-2.549.593-5.3.245-7.95.479-8.56.753-14.085 5.236-15.363 13.75-1.006 6.702-.997 13.592-1.026 20.4q-.171 41.733-.064 83.468c.018 10.64 1.5 12.296 11.961 12.668q16.972.605 33.965.55c15.734-.068 25.966-8.719 33.219-21.877 3.802-6.9 5.234-7.449 13.743-5.989z"/></svg>
