<svg data-name="Habanero" xmlns="http://www.w3.org/2000/svg" viewBox="0 0 2000.1 942.9" fill="currentColor"><path d="M222.5 941.2H155v-98.8H67.5v98.8H0V689.7h67.5v95H155v-95h67.5zM329.9 897.8l-12.1 43.4h-70.1l75.4-251.5h102.2l76.5 251.5h-68.6L420 897.8zm45.3-158l-30.9 109.4h62.6zM527.2 689.7H664c22.9.2 41.1 4.6 54.7 13s20.4 25.6 20.4 51.5c0 14.6-2 27.2-5.8 37.9s-15 17.5-33.4 20.6v1.9q25.65 2.7 34.5 16.2c5.9 9.1 8.9 21.9 8.9 38.5q0 42.3-16.8 57.1t-61.3 14.9h-138V689.7zm110.4 100.6a10.32 10.32 0 0 0 3 .4h2.6a71.27 71.27 0 0 0 20.6-3.2c5.7-1.9 8.5-8 8.5-18.3 0-9.1-1.6-15.3-4.7-18.7s-9.2-5.1-18.3-5.1h-54.7v44.9zm1.9 95.4c10.6.3 19.3-.7 26.2-2.8s10.4-9.4 10.4-21.7c0-11.8-2.7-18.8-8.1-20.9s-13.4-3.2-23.9-3.2h-49.4v48.6zM833 897.8l-12.1 43.4h-70.1l75.4-251.5h102.2l76.6 251.5h-68.6l-13.2-43.4zm45.2-158l-30.9 109.4h62.6zM1273.8 941.2h-114.3l-70.9-193.4h-3l3 193.4h-66V689.7h113.5l70.9 191.2h2.6l-2.6-191.2h66.7v251.5zM1374.4 790.3h107.1v46.8h-107.1v48.6h116.9v55.4h-184.4V689.7H1489v55.4h-114.6zM1523 689.7h126.7q48.3.3 69 16.4t20.7 66.6c0 18.9-2.1 34.1-6.2 45.8s-17.9 20.1-41.3 25.1v2.3q23.4 1.5 34.5 14.1c7.4 8.4 11.1 20.3 11.1 35.6v45.6h-68.6v-33.6c0-10.1-2-18-5.8-24s-11.4-8.9-22.4-8.9h-50.1v66.4H1523zm121 127.4c12.3.3 19.8-2.5 22.4-8.3s4-14.1 4-24.9c0-12.3-1.4-21.4-4.1-27.2s-11.3-8.7-25.6-8.7l-50.1-.4V817h53.4v.1zM1765.8 802.2c0-5.2.1-10.2.4-15.3s.6-10.1 1.1-15.3 1.1-10.2 1.9-15.3q7.2-42.3 38.5-54.7a192.18 192.18 0 0 1 67.5-13.2h7.6q65.25 0 91.3 22.1t26 90.3q0 69.75-15.3 105.9t-100.1 36.2c-4 0-8.2-.1-12.4-.2s-8.6-.3-12.8-.6a156.09 156.09 0 0 1-53.9-11.7c-16.8-7-28.3-21.1-34.3-42.2a115.17 115.17 0 0 1-4.5-26c-.5-8.8-.8-17.6-.8-26.4V817c-.2-4.7-.2-9.6-.2-14.8zm69 13.8v15.1c0 17.8 1.9 31.4 5.7 40.7s16.1 13.9 37 13.9c23.1 0 37.8-3.7 43.9-11.1s9.2-21.8 9.2-43.2v-9.1c0-3 .1-6.2.4-9.4v-18.1c0-16.8-2.4-29.2-7.2-37s-16.2-11.7-34.3-11.7c-26.1 0-41.7 3.5-46.6 10.6s-7.6 26.4-8.1 58.1v1.2zM1025.2 75.6a12.61 12.61 0 0 0 12.6-12.6V26.7a12.6 12.6 0 1 0-25.2 0V63a12.68 12.68 0 0 0 12.6 12.6zM975 109a12.61 12.61 0 0 0 12.6-12.6V60.1a12.6 12.6 0 1 0-25.2 0v36.3A12.55 12.55 0 0 0 975 109zM975 24.9a12.61 12.61 0 0 0 12.6-12.6v.3a12.6 12.6 0 0 0-25.2 0v-.3A12.55 12.55 0 0 0 975 24.9zM1075.5 118.6a12.61 12.61 0 0 0 12.6-12.6v.3a12.6 12.6 0 1 0-25.2 0v-.3a12.68 12.68 0 0 0 12.6 12.6z"/><path d="M1176.1 211.9a12.61 12.61 0 0 0-12.6 12.6v6.3a12.56 12.56 0 0 1-25.1-.8v-31.4a12.6 12.6 0 0 0-25.2 0v.7a12.6 12.6 0 0 1-25.2 0v-52.6a12.55 12.55 0 1 0-25.1 0v20a12.94 12.94 0 0 1-12.6 12.6 12.61 12.61 0 0 1-12.6-12.6v-56.6a12.6 12.6 0 0 0-25.2 0v49.2a12.6 12.6 0 0 1-25.2 0v-17.6a12.6 12.6 0 1 0-25.2 0v37.8a12.6 12.6 0 0 1-25.2 0V127a12.6 12.6 0 0 0-25.2 0v80.4a12.6 12.6 0 0 1-25.2 0v-21.3a12.6 12.6 0 0 0-25.2 0v59.2a12.6 12.6 0 1 1-25.2 0v-19.5a12.6 12.6 0 1 0-25.2 0l-.2 19.4V463L1000 572l188.6-108.9V325.3c0-.2.1-.4.1-.6V224.4a12.59 12.59 0 0 0-12.6-12.5zm-87.3 213.6h-59.3v-45.1h-59.2v45.1h-59.2V284.2h59.2v47.5h59.2v-47.5h59.3z"/></svg>
