<svg data-name="iSoftBet" xmlns="http://www.w3.org/2000/svg" fill="currentColor" viewBox="0 0 1515.2002 511.8053"><path d="M1515.2 33.055h-64.3v284.1h-33.6v-284.1H1353V4.205h162.2zm-196.75 0h-109.3v106.6h80.8v28.55h-80.8v120.4h114.45v28.55h-148.1V4.206h142.95zm-249.25 10.8q-13.2-11.1-42.65-10.8H992.6v105.7h19.25q36 .3 53.15-12.9 17.1-12.9 16.8-44.45.3-26.45-12.6-37.55zm-27.05-39.65q35.149.6 54.35 21.35 18.95 21 19.25 55.85 0 24-11.1 42.65-11.45 18.9-36.65 26.7v.9q28.2 7.85 41.45 28.55 13.2 20.7 13.2 50.15 0 43.55-24.65 65.2-24.6 21.6-75.95 21.6h-63.1V4.206zm-15.6 163.1H992.6v121.3h33.95q30.65 0 46.25-14.1 15.9-13.8 15.9-44.15.3-30.95-14.4-46.85-15-16.2-47.75-16.2zM34.25 33.655q-8.1 7.2-8.1 20.1 0 12.6 8.1 19.85a27.945 27.945 0 0 0 19.2 7.2 29.246 29.246 0 0 0 19.55-7.2q8.1-7.55 8.1-19.85 0-12.9-8.1-20.1a29.246 29.246 0 0 0-19.55-7.2 27.945 27.945 0 0 0-19.2 7.2zM53.45.305a53.98 53.98 0 0 1 36.95 14.1q6 4.8 11.1 14.75 5.1 9.6 5.4 24.6-.3 15.05-5.4 24.65t-11.4 14.7a55.504 55.504 0 0 1-36.65 13.8 56.42 56.42 0 0 1-36.65-13.8q-6-5.1-11.1-14.7-5.4-9.6-5.7-24.65.3-15 5.7-24.9 5.1-9.65 11.4-14.75A55.25 55.25 0 0 1 53.45.305zm15.65 130.95v186.5H36.35v-186.5h.3a52.871 52.871 0 0 0 16.2 2.4 55.264 55.264 0 0 0 16.25-2.4zM922.35 33.055h-64v284.1H824.4v-284.1h-63.95V4.205h161.9zm-203.05 0H618.7v106.6h75.35v28.55H618.7v148.95h-33.65V4.205H719.3zm83.3 392.45a9.403 9.403 0 0 1 1.75 1.1 4.183 4.183 0 0 1 1.1 2.15l-30.15 46.35v31.65q0 3.951-3.95 3.95h-1.3q-3.699 0-3.7-3.95v-31.65l-30.2-46.35a4.186 4.186 0 0 1 1.1-2.15 4.388 4.388 0 0 1 1.75-1.1 5.118 5.118 0 0 1 2.65-.65q2.6 0 4.35 3.051l24.9 38.9 24.7-38.7q2.2-3.25 4.601-3.25a4.01 4.01 0 0 1 2.399.65zm122.6 25.55q0 12.901-8.1 19.45-8.1 6.75-24.05 6.75h-16.8v29.5a4.351 4.351 0 0 1-.9 2.85 4.122 4.122 0 0 1-3.05 1.1h-1.1q-3.901 0-3.9-3.95v-76.25a4.49 4.49 0 0 1 1.5-3.5 4.396 4.396 0 0 1 3.5-1.5h21.85q14.85 0 22.95 6.55 8.1 6.75 8.1 19zm-48.95-17.7v36.051h17.7q11.15 0 16.6-4.6 5.65-4.6 5.65-13.3 0-18.15-22.05-18.15zm-208.85-8.5q3.95 0 3.95 4.15v72.95h40.85q4.15 0 4.15 3.7v.9q0 3.7-4.15 3.7h-44.8a4.338 4.338 0 0 1-3.45-1.5 4.424 4.424 0 0 1-1.55-3.5v-76.25q0-4.15 3.95-4.15zm-33.55 26.2q0 12.901-8.1 19.45-8.05 6.75-24 6.75H584.9v29.5a4.526 4.526 0 0 1-.85 2.85 4.122 4.122 0 0 1-3.05 1.1h-1.1q-3.95 0-3.95-3.95v-76.25a5.218 5.218 0 0 1 5.05-5h21.85q14.85 0 22.9 6.55 8.1 6.75 8.1 19zm-8.95.45q0-18.15-22.05-18.15H584.9v36.051h17.7q11.15 0 16.6-4.6 5.7-4.6 5.7-13.3zm497.25-24.9a4.381 4.381 0 0 1 1.75-1.1 5.012 5.012 0 0 1 2.6-.65q2.65 0 4.4 3.051l24.9 38.9 24.65-38.7q2.2-3.25 4.6-3.25a3.88 3.88 0 0 1 2.4.65 7.692 7.692 0 0 1 1.75 1.1 3.31 3.31 0 0 1 1.1 2.15l-30.15 46.35v31.65q0 3.95-3.95 3.95h-1.3q-3.7 0-3.7-3.95v-31.65l-30.15-46.35a3.877 3.877 0 0 1 .2-.85 3.828 3.828 0 0 1 .9-1.3zm-164.4-1.75q3.951 0 3.95 4.15v72.95h40.85q4.15 0 4.15 3.7v.9q0 3.7-4.15 3.7h-44.8a5.218 5.218 0 0 1-5.05-5v-76.25q0-4.15 3.95-4.15zm114.05 3.051l31.05 80.15q.452.7-1.3 1.75a8.078 8.078 0 0 1-3.75.9 7.842 7.842 0 0 1-3.05-.65 7.468 7.468 0 0 1-2.4-3.3l-9.149-24.25h-36.5l-9.2 24.25a6.99 6.99 0 0 1-2.4 3.3 5.761 5.761 0 0 1-2.6.65 7.071 7.071 0 0 1-3.7-.9q-1.75-1.05-1.35-1.75l31.05-80.15a5.165 5.165 0 0 1 1.95-2.4 9.878 9.878 0 0 1 4.8-.9 8.036 8.036 0 0 1 4.4.9 4.847 4.847 0 0 1 2.149 2.4zm-6.75 6.75l-15.3 40h30.4zm-593.8-395.3q-12.05-11.1-27.35-10.8-15.3-.6-27.65 10.8-12.3 11.1-19.8 39.95-7.2 28.8-7.2 81.4 0 52.55 7.5 81.35 7.2 28.85 19.5 40.25 12.05 11.15 27.65 10.55 15.3.6 27.65-10.55 12.3-11.4 19.5-40.25 7.2-28.8 7.2-81.35 0-52.6-7.2-81.4-7.5-28.85-19.8-39.95zm49.85 27.95q10.8 35.4 11.1 93.4-.3 57.95-11.1 93.4-11.15 35.4-30.95 51.65-19.85 15.9-46.25 15.6-26.75.3-46.55-15.6-19.85-16.25-30.95-51.65-10.8-35.45-11.1-93.4.3-58 11.1-93.4 11.1-35.45 30.95-51.4 19.8-16.2 46.55-15.9 26.4-.3 46.25 15.9 19.8 15.95 30.95 51.4zm-213.85 174.45q0 37.55-20.75 58.6-20.4 20.701-59.45 21-24.6 0-42.05-11.1-17.4-11.1-27-30.95-9.65-19.8-10.25-46.25H179q.6 27.95 13.5 43.85 12.95 15.65 38.15 15.95 21.35 0 33.65-13.25 12.3-13.2 12.6-38.15-.6-21-12.9-36.3a151.61 151.61 0 0 0-31.25-28.25q-18.6-12.6-37.25-26.75a133.166 133.166 0 0 1-31.2-32.4q-12.35-18.35-12.95-45.05.6-33.35 20.75-52.9 20.4-19.5 54.65-19.8 34.25.3 54.35 21.9 20.45 21.95 22.85 63.1H272.7q-1.8-24.65-12.9-40.25t-35.15-16.2q-19.8.3-31.25 11.7-11.4 11.4-11.7 29.45.6 20.7 12.9 35.4a154.23 154.23 0 0 0 31.25 26.75q18.6 12.3 37.25 26.15a130.058 130.058 0 0 1 31.25 33.9q12.3 20.15 12.9 49.85zm226.55 183.1h1.75a6.222 6.222 0 0 1 4.6 1.75 4.896 4.896 0 0 1 1.75 3.9v76.25q0 3.95-3.7 3.95h-1.1q-3.75 0-3.75-3.95v-71.65l-22.05 48.5a15.84 15.84 0 0 1-2.85 4.15 8.276 8.276 0 0 1-5 1.3 8.373 8.373 0 0 1-5.05-1.3 13.427 13.427 0 0 1-2.6-4.15l-22.3-48.5v71.65q0 3.95-3.5 3.95h-1.5q-3.5 0-3.5-3.95v-76.25a4.896 4.896 0 0 1 1.75-3.9 6.488 6.488 0 0 1 4.8-1.75h1.95q3.5 0 5.05 1.75a20.037 20.037 0 0 1 2.8 5l22.3 49.4 22.3-49.4a18.9 18.9 0 0 1 2.85-5q1.5-1.75 5-1.75zm-161.9.65a29.25 29.25 0 0 1 8.95 3.7 22.1 22.1 0 0 1 5.45 4.6 8.11 8.11 0 0 1 2 4.8 3.71 3.71 0 0 1-.9 2.4 8.674 8.674 0 0 1-1.75 1.75q-1.05.65-1.75 1.1-.85.2-.85 0a24.535 24.535 0 0 0-8.95-8.75 26.544 26.544 0 0 0-13.8-3.5q-8.949 0-14.4 4.15a14.699 14.699 0 0 0-3.95 17.9 12.626 12.626 0 0 0 4.4 4.4 45.25 45.25 0 0 0 7 2.85q3.9 1.049 8.7 2.15a84.05 84.05 0 0 1 10.3 2.85 35.82 35.82 0 0 1 8.75 4.6 19.404 19.404 0 0 1 6.3 7 20.629 20.629 0 0 1 2.4 10.45 23.835 23.835 0 0 1-1.95 9.85 23.378 23.378 0 0 1-5.9 7.45 25.613 25.613 0 0 1-9.4 4.8 39.96 39.96 0 0 1-12.25 1.75 42.973 42.973 0 0 1-12.65-1.75 33.194 33.194 0 0 1-9.85-4.15 26.911 26.911 0 0 1-6.1-5.45q-2.4-2.85-2.4-5.25a3.247 3.247 0 0 1 .85-2.4 10.83 10.83 0 0 1 1.75-1.75 3.808 3.808 0 0 1 1.75-1.1q.9-.25.9 0a34.339 34.339 0 0 0 9.85 10.05q6.55 4.15 15.9 4.15 9.85 0 15.3-4.15a13.701 13.701 0 0 0 5.5-11.6 11.883 11.883 0 0 0-2-7 13.01 13.01 0 0 0-5-4.55 33.867 33.867 0 0 0-7.45-3.3q-4.35-1.1-8.75-2.2-5-1.3-9.6-2.6a28.99 28.99 0 0 1-8.3-4.35 19.417 19.417 0 0 1-5.9-6.8 20.74 20.74 0 0 1-2.4-10.5 20.008 20.008 0 0 1 2.2-9.15 25.564 25.564 0 0 1 5.9-7.45 30.206 30.206 0 0 1 9.15-4.8 31.766 31.766 0 0 1 11.15-1.95 37.185 37.185 0 0 1 11.8 1.75zm57.6 3.5v77.75q0 3.95-3.9 3.95h-1.3q-3.75 0-3.75-3.95v-77.75q0-4.15 3.75-4.15h1.3q3.9 0 3.9 4.15z" fill-rule="evenodd"/></svg>
