<svg data-name="Layer 1" xmlns="http://www.w3.org/2000/svg" viewBox="0 130 400 140" fill="currentColor"><title>Kiron</title><path d="M114.6 186.6h19.5v37.8h-19.5zM114.6 164.5h19.5V182h-19.5zM209.3 183.3c0 3.9.1 9.1-2.4 11.9-2.8 3.1-6.7 3.1-11.7 3.6 4.9 0 8.5 1 10.9 3.1 2.4 2.1 3.6 5.1 3.6 8.9v13.5h-17.8v-10.2c0-2.6-1-4.4-3.1-5.3-2-1-5.1-1.5-9.1-1.5h-22.1v17h-17.2v-59.5h42c10.3 0 17.6.2 21.9 2.8 4.3 2.6 5 8.6 5 15.7zm-16.7 2.2c0-2.8-.5-4.7-1.6-5.6-1.6-1.3-5-1.3-10.2-1.3h-24.5v15.8h23.5c4.9 0 8.6.3 10.5-.7 1.7-1 2.3-5.1 2.3-8.2zM291 206c0 6.1-.2 11.9-6.2 15.3-5.1 3-13.9 3.5-20.8 3.5h-20c-2 0-3.8-.2-5.3-.2-6.6-.1-13.3-.5-18-3.7-5-3.5-6.5-9.2-6.5-14.9v-23c0-5.2 1.6-10.6 6.9-14.2 4.7-3.2 10.9-3.7 16.6-3.7h27.1c7 0 14.6-.1 19.5 2.9 5.5 3.4 6.7 9.4 6.7 15.1V206zm-17.3-5.6v-10.9c0-4.1-.5-5.8-2.5-7.9-2.3-2.4-7.5-1.6-12.5-1.6h-14.6c-3.9 0-6.8-.9-8.7 1.3-1.9 2.2-2.8 3.8-2.8 7.9v11.3c0 3.9-.7 5.7 1.6 7.4 1.4.9 6 1.2 10 1.2h14.6c5 0 10.6.5 12.6-1.6.6-.8 2.3-3 2.3-7.1zM373.5 224.2h-28.6l-31.2-42.6v42.6H298v-59.5h27.2l30.6 42.8v-42.8h17.7zM110.3 163.9v18.3L83.7 193v2.4l26.4 10v19l-48.2-24.8 7-13.8zM45.6 224.4h-18L67.9 144h18zM23 224.4H5L45.3 144h18zM378.9 206.7H395v16.5h-16.1zM117.6 236.1v-3.2h3.6v3.2h-3.6zm0 19.5v-16.5h3.6v16.5h-3.6zm18.6 0v-16.5h3.2v2.3c1.6-1.8 3.8-2.7 6.7-2.7 1.2 0 2.4.2 3.5.5.9.3 1.7.7 2.4 1.4.5.6.9 1.3 1.1 2.1.2.9.2 1.8.2 2.7v10.2h-3.6v-10.1c0-.9-.1-1.7-.4-2.6-.3-.6-.9-1.1-1.5-1.4-.8-.4-1.6-.5-2.5-.5-1.4 0-2.8.4-4 1.1-1.1.8-1.7 2.2-1.7 4.3v9l-3.4.2zm40.2-2.5l.5 2.5c-.9.2-1.8.2-2.7.2-1 0-2.1-.1-3-.5-.6-.2-1.2-.7-1.5-1.3-.3-.5-.4-1.6-.4-3.3v-9.5h-2.6V239h2.6v-4l3.5-1.7v5.8h3.6v2.2h-3.6v9.7c0 .5 0 1 .2 1.5.1.2.4.4.6.5.4.2.8.2 1.2.2.5.1 1 0 1.6-.1zm27.5-2.8l3.7.4c-.6 1.7-1.7 3.1-3.2 3.9-1.9 1-4 1.5-6.1 1.4-3.1 0-5.6-.7-7.4-2.2-1.8-1.5-2.8-3.9-2.7-6.3 0-2.8.9-4.9 2.7-6.5 2-1.6 4.6-2.4 7.1-2.3 2.5-.1 5 .7 6.9 2.3 1.8 1.5 2.7 3.6 2.7 6.4v.8h-15.8c0 1.6.7 3.1 2 4.2 1.3 1 2.8 1.5 4.4 1.4 1.2 0 2.3-.2 3.4-.8 1.1-.7 1.8-1.6 2.3-2.7zm-11.8-4.5H204c-.1-1.2-.5-2.3-1.4-3.1-1.2-1.1-2.8-1.7-4.4-1.6-1.5 0-3 .4-4.2 1.3-1.1.8-1.8 2.1-1.9 3.4zm29.6 9.8v-16.5h3.2v2.5c.6-.9 1.4-1.7 2.3-2.3.7-.4 1.5-.6 2.3-.6 1.3 0 2.5.3 3.7.9l-1.2 2.6c-.8-.4-1.7-.6-2.6-.6-.7 0-1.5.2-2.1.6-.6.3-1.1.9-1.3 1.5-.4 1-.6 2.1-.6 3.3v8.6h-3.7zm37-2c-1.2.8-2.5 1.4-3.8 1.9-1.3.4-2.6.6-4 .5-2.3 0-4.1-.4-5.4-1.3-1.2-.7-1.9-2-1.9-3.4 0-.8.2-1.6.7-2.2.5-.7 1.1-1.2 1.9-1.6.8-.4 1.7-.7 2.6-.9.7-.1 1.8-.3 3.2-.4 2.1-.2 4.3-.5 6.4-1v-.7c.1-.9-.3-1.8-1-2.4-1.2-.7-2.7-1-4.1-.9-1.3-.1-2.6.2-3.7.7-.9.6-1.5 1.4-1.8 2.5l-3.5-.4c.3-1.1.8-2 1.6-2.8.9-.8 2-1.4 3.2-1.7 1.6-.4 3.2-.6 4.8-.6 1.5 0 3 .1 4.4.5.9.2 1.8.6 2.5 1.2.5.5.9 1.2 1.1 1.9.1.9.2 1.7.2 2.6v3.7c-.1 1.7 0 3.3.2 5 .2.7.5 1.4.9 2h-3.8c-.5-.7-.7-1.4-.7-2.2zm-.3-6.2c-1.9.5-3.9.9-5.9 1.1-1.1.1-2.1.3-3.1.6-.5.2-1 .5-1.4.9-.3.4-.5.8-.5 1.3 0 .8.4 1.5 1.1 1.9 1 .6 2.1.8 3.2.7 1.3 0 2.5-.2 3.7-.7 1-.4 1.8-1.1 2.4-1.9.4-.9.6-1.8.6-2.8v-1.1h-.1zm32.6 2.2l3.5.4c-.3 1.8-1.4 3.4-3 4.5a10.1 10.1 0 0 1-5.9 1.6c-2.9 0-5.2-.7-7-2.2-1.7-1.5-2.6-3.6-2.6-6.4 0-1.6.4-3.2 1.1-4.7.8-1.4 2-2.4 3.5-3 1.6-.7 3.3-1 5-1 2-.1 3.9.4 5.7 1.4 1.4.8 2.5 2.2 2.8 3.9l-3.5.4c-.3-1-.9-1.9-1.8-2.5-.9-.6-2-.9-3.1-.8-1.6-.1-3.2.5-4.4 1.5-1.1 1-1.7 2.6-1.7 4.8 0 2.2.5 3.8 1.6 4.8 1.2 1 2.7 1.6 4.2 1.5 1.3 0 2.5-.3 3.5-1 1.3-.9 2-2 2.1-3.2zm24 3.5l.5 2.5c-.9.2-1.8.2-2.7.2-1 0-2.1-.1-3-.5-.6-.2-1.2-.7-1.5-1.3-.3-.5-.4-1.6-.4-3.3v-9.5h-2.6V239h2.6v-4l3.5-1.7v5.8h3.6v2.2h-3.6v9.7c0 .5 0 1 .2 1.5.1.2.4.4.6.5.4.2.8.2 1.2.2.5.1 1 0 1.6-.1zm13-17v-3.2h3.6v3.2H328zm0 19.5v-16.5h3.6v16.5H328zm24.5 0l-8.1-16.5h3.8l4.5 9.9c.5 1.1.9 2.2 1.4 3.3.3-.9.8-1.9 1.3-3.1l4.7-10.1h3.7l-8 16.5h-3.3zm38.6-5.3l3.7.4c-.6 1.7-1.7 3.1-3.2 3.9-1.9 1-4 1.5-6.1 1.4-3.1 0-5.6-.7-7.4-2.2-1.8-1.5-2.9-3.9-2.7-6.3 0-2.8.9-5 2.7-6.5 2-1.6 4.6-2.4 7.1-2.3 2.5-.1 5 .7 6.9 2.3 1.8 1.5 2.7 3.6 2.7 6.4v.8H379c0 1.6.8 3.1 2 4.2 1.3 1 2.8 1.5 4.4 1.5 1.2 0 2.3-.2 3.4-.8 1.2-.7 1.9-1.6 2.3-2.8zm-11.8-4.5h11.8c-.1-1.2-.5-2.3-1.4-3.1-1.2-1.1-2.8-1.7-4.4-1.6-1.5 0-3 .4-4.2 1.3-1 .8-1.7 2-1.8 3.4z"/></svg>
