<svg data-name="Mr Slotty" xmlns="http://www.w3.org/2000/svg" viewBox="0 0 1999.73 1472.8" fill="currentColor"><g data-name="Layer 1"><path d="M332.4 1039.1v340.4c0 4.9-1.8 6.8-6.7 6.8h-82c-5.4 0-7.2-1.8-7.2-7.3v-165.9c-.2 0-.4-.1-.6-.1-1.1 2-2.2 3.9-3.3 5.9q-30.3 54.3-60.5 108.6a5.94 5.94 0 0 0-.4.8 5.82 5.82 0 0 1-5.4 3.7c-2.6 0-4.3-1.5-5.6-3.8-10.2-18.5-20.6-37-30.9-55.4-10.7-19.2-21.4-38.5-32.2-57.7a6.74 6.74 0 0 0-1.8-2.1v252.8c0 3.2-.4 6-4 7-21.1 0-42.3-.1-63.4-.1-8.1 0-16.3.1-24.4.1-1.3-1.4-2.7-2.7-4-4.1a26.42 26.42 0 0 0 .2-2.9v-428.9a1.27 1.27 0 0 0-.1-.6c1-2.8 3.2-3.9 6.1-3.9h83.4c2.9 0 4.7 1.4 6.1 4q30.15 54.15 60.4 108.4c3.3 5.8 6.5 11.7 10 17.9.8-1.4 1.5-2.5 2.1-3.6q34-61.2 68.2-122.4a7.23 7.23 0 0 1 7.1-4.2c27.3.1 54.7 0 82 0 5-.1 6.9 1.8 6.9 6.6zM876.5 1307.7c-8.4 28.8-27.3 49.2-53.6 62.9-17.9 9.3-37 14.3-57 16.8a243.9 243.9 0 0 1-65-.6c-23.3-3.4-45.9-9.1-65.7-22.4-9.6-6.5-18.2-14.3-27.1-21.8-2.9-2.4-2.6-5.9.3-8.8 7.1-7.1 14.1-14.1 21.2-21.1 10.5-10.4 20.9-20.8 31.4-31.2 3.4-3.3 6-3.6 9.5-.5 13.5 12.2 30.1 17.2 47.5 20 14.1 2.3 28.2 2.9 42.4.6 7.6-1.2 15-3.3 20.7-9.1 10.7-10.7 6.7-30.7-7.6-35.6-6.5-2.3-13.6-3.1-20.5-4.2-19.3-3.1-38.8-4.4-57.7-9.8-14.9-4.3-28.7-10.6-40.7-20.5-15.4-12.8-24.8-29.2-28.9-48.7-5.2-24.4-4.4-48.6 4.5-72.1 11-29.1 32.2-48.3 60.6-60 17.5-7.2 35.9-10.6 54.8-11.6h18.5c2.3 0 4.6 0 6.9.1 26.6 1.6 52.1 7.2 75.4 20.6 10.1 5.8 18.9 13.4 27.5 21.2 2.8 2.5 2.8 5.9.1 8.6-17.5 17.5-35.1 34.9-52.6 52.4-2.6 2.6-5.6 3-8.2.5-16.3-15.9-36.7-19-58.2-18.6-8.8.2-17.4 1.4-25.4 5.2-7 3.3-12.1 8.3-13.4 16.4-1.5 8.8 1.8 15.5 9.6 19.9 6.6 3.7 13.9 4.6 21.2 5.7 19.4 3 38.9 5.6 58.1 9.3a100.38 100.38 0 0 1 39.2 17.1 81 81 0 0 1 31.6 44.9c6.9 24.6 7.8 49.6.6 74.4zM1998.9 1126q-30.3 81-60.4 162c-16.1 43.1-32 86.2-48.3 129.2-5.5 14.7-13.6 27.8-25.9 38.1-11.7 9.8-25.4 14.7-40.3 16.7-2.1.3-4.2.4-6.3.6-1.9 0-3.8 0-5.7.1h-36.4c-2.8-.9-3.9-3-3.9-5.7v-70.2c0-4.1 2.2-6.1 6.3-6.2 6.6-.1 13.2-.2 19.8-.2 7.8 0 13.4-3.5 16.1-11s5.3-15.3 7.8-23.1a5.2 5.2 0 0 0-.4-3.2q-39.6-106.8-79.1-213.4c-1.9-5-3.8-10-5.6-15s.6-8.4 5.9-8.4h81.4c4.2 0 5.5 1.1 7 5.7q18.45 56.1 36.8 112.3c.3.8.5 1.6.9 2.9a17.12 17.12 0 0 0 .9-2.2q17.85-56.7 35.6-113.3c1.4-4.5 2.7-5.5 7.4-5.5 26.5 0 52.9.2 79.4-.1 7.1-.1 9.2 4 7 9.9zM1713.6 1315.3v64.4c0 4.7-2 6.6-6.7 6.6-14.7 0-29.4.4-44-.2-26.1-1.1-48.8-10-65.3-31.4-10.8-14-15.6-30.2-15.7-47.7-.3-35.1-.1-70.2-.1-105.3v-3.6h-17.2c-4.5 0-6.5-2-6.5-6.5v-59c0-4.2 2.1-6.4 6.3-6.5 5.7-.1 11.3 0 17.4 0v-67c0-5.2 1.9-7.1 7.1-7.1h76.5c5.1 0 7.1 2 7.1 7.2v66.9h26.4c2.9 0 5.8-.1 8.6 0 3.9.2 6 2.3 6 6.2v59.5c0 4.1-2.1 6.1-6.3 6.1h-34.6c-.1 1.2-.1 2.1-.1 3v97c0 8 2.5 10.5 10.5 10.5h23.9c4.7.2 6.7 2.3 6.7 6.9zM1477.6 1198.1v99.7a28.1 28.1 0 0 0 .1 2.9c.5 5.1 3 7.7 8.2 7.8 8.4.2 16.9.1 25.3.1 5.8 0 7.6 1.8 7.6 7.5v62.7c0 5.7-1.7 7.5-7.3 7.4-14.5 0-29 .3-43.4-.2-21.2-.8-40.5-7.1-56.4-21.7-13.8-12.6-21.3-28.6-23.7-46.9a127.23 127.23 0 0 1-.9-16.3c-.1-33.1 0-66.2 0-99.3v-3.8h-15.6c-6.8 0-8.2-1.5-8.2-8.3v-55.8c0-6.1 1.8-7.8 7.9-7.8h15.8v-66.9c0-5.4 1.8-7.2 7.3-7.2h76c5.6 0 7.4 1.8 7.4 7.4v66.7h33.8c5.4 0 7.3 1.9 7.4 7.2v57.8c0 5.1-1.9 6.9-7 6.9h-34.3zM581.6 1150.4c-6.5 6.6-13 13.3-19.6 19.9l-38.9 39.2c-3.5 3.5-6.1 3.5-9.9.1-2.1-1.9-4.3-3.8-6.6-5.5-8.8-6.5-18.5-7.3-28.3-3s-13.6 12.7-14.7 22.7a72.21 72.21 0 0 0-.3 8v146.7c0 6.2-1.5 7.7-7.8 7.7h-75.4c-5.7 0-7.4-1.7-7.4-7.3v-252.6c0-5.5 1.8-7.3 7.1-7.3h74.5c5.3 0 7 1.8 7.1 7.1v7c6.9-3.5 13.4-7.6 20.4-10.3 25.2-9.4 50.6-9.5 75.6.9 9.6 4 17.2 11 24.7 18 2.6 2.7 2.3 5.8-.5 8.7zM1010.3 1191.2v187.9c0 5.5-1.7 7.2-7.2 7.2h-76.5c-5 0-6.9-1.9-6.9-6.9v-342.7c0-4.3.8-5.5 4.2-6.9 9.2 0 18.4.1 27.6.1 18.3 0 36.6 0 54.9-.1 3.1 1.1 4 3.4 4 6.5q-.15 77.55-.1 154.9zM1188.8 1113.3c-76.4-1.1-140.1 60.4-140.1 137.3 0 75.8 61.8 137.3 138 137.3s137.3-61.2 138.1-135.8c.8-77-61.7-137.8-136-138.8zm-1.1 191.1a55.75 55.75 0 0 1-23.9-5.2 56.37 56.37 0 0 1-14.3-9.7 53.65 53.65 0 0 1-16.8-38.9 55.8 55.8 0 0 1 .9-10.1 53.88 53.88 0 0 1 52.4-43.7 53.88 53.88 0 0 1 54.9 53.8c0 29.2-24.3 53.7-53.2 53.8z"/></g><path d="M1580.7 671.6l-309.3 50 143.3-110-130-72-11 5 94-524L976.4 0 563.7 24.6l95 520-10-4-131 71L772.9 802l-473.2 76.6 2 11 515.4-57.9 147.6 89.9 209-129.3 418-46.7 41-44zM595.5 45.9l370.8-16.7 370 16.7s-17.3 117.9-23.3 150c7-85.3-54.5-115.6-131.7-87.6s-215 81.8-215 81.8L878 156.8 798 286l-58.3-183.5zM1183 289.2c0 31.9-31.7 70.4-58.3 81.7s-61.7 25-61.7 25l1.7-115s40-17.6 70.8-30.8 47.5 7.1 47.5 39.1zM966.4 795.9L698 629.2l68.3 37.5-27.5-275L808 569.2 878.8 450v266.7l87.5 37.5 95.8-40V525l66.7 158.3 108.3-54.2-73.3-152.5s11-4.6 32.1-15 71.7-40.6 84.6-86.7c-15.2 86.9-43.3 254.2-43.3 254.2z" data-name="Layer 2"/></svg>
