<svg data-name="Layer 1" xmlns="http://www.w3.org/2000/svg" viewBox="0 0 168 62" fill="currentColor"><title>netent</title><path d="M0 13h6.24a.56.56 0 0 1 .54.3c4.65 7.15 9.29 14.35 13.77 21.7l.19.29V13h7.35v36.43h-6.28a.53.53 0 0 1-.52-.28L7.56 27.47a.81.81 0 0 0-.26-.28v22.24H0zM133.45 13h7.34v36.41h-6.29a.45.45 0 0 1-.44-.24l-13.8-21.68-.26-.39v22.31h-7.29V13h6.22a.56.56 0 0 1 .54.3c4.64 7.18 9.27 14.36 13.74 21.64a.72.72 0 0 0 .24.26zM32 13h24v7H39.29v7.6h14.28v7H39.3v7.9H56v6.91H32zM92.33 34.59v7.9H109v6.92H90V62h-1.37V0h1.31v13H109v7H92.33v7.6h14.29v7zM152.32 20h-8.41v-7H168v7h-8.33v29.41h-7.35zM67.76 49.41V20h-8.4v-7h24.1v7h-8.33v29.41z"/></svg>
