<svg xmlns="http://www.w3.org/2000/svg" viewBox="0 0 600 108.27" fill="currentColor"><path d="M593.986 6.014H6.014v96.242h587.972V6.014zm-4.01 92.232H10.024V10.024h579.952z"/><path d="M600 0H0v108.27h600zm-2.506 105.764H2.506V2.506h594.988v103.258z"/><path d="M127.343 34.86v35.779h-3.964v-25.5q0-3.182.196-6.021-.514.514-1.151 1.077t-5.824 4.772l-2.154-2.79 9.471-7.317zm27.948 16.935l11.943 18.844h-4.723l-9.618-15.736-9.789 15.736h-4.405l11.894-18.697-11.087-17.082h4.601l8.884 14.17 8.957-14.17h4.43l-11.087 16.935zm38.105 15.075v3.769h-23.519V67.14l9.422-9.471a69.466 69.466 0 0 0 5.678-6.216 15.902 15.902 0 0 0 2.056-3.622 10.378 10.378 0 0 0 .685-3.794 6.011 6.011 0 0 0-1.738-4.539 6.652 6.652 0 0 0-4.821-1.677 12.122 12.122 0 0 0-4.221.734 16.843 16.843 0 0 0-4.442 2.668l-2.154-2.765a16.494 16.494 0 0 1 10.768-4.112q5.042 0 7.905 2.582a8.88 8.88 0 0 1 2.863 6.938 13.397 13.397 0 0 1-1.909 6.73 42.754 42.754 0 0 1-7.146 8.419l-7.831 7.66v.195zm48.578-32.01v35.779h-4.748l-19.553-30.028h-.196q.391 5.286.391 9.691v20.337h-3.842V34.86h4.699l19.505 29.906h.196q-.049-.661-.221-4.246t-.122-5.127V34.86zm29.783 32.059v3.72h-19.945V34.86h19.945v3.695h-15.784v11.527h14.83v3.671h-14.83v13.166zm18.942-28.364v32.084h-4.16V38.555h-11.331V34.86h26.822v3.695zm57.511-3.695l-9.568 35.779h-4.112l-7.219-23.959q-.514-1.59-1.151-4.013a23.33 23.33 0 0 1-.66-2.912 55.897 55.897 0 0 1-1.713 7.072l-7 23.812h-4.111l-9.52-35.779h4.405l5.653 22.099a82.08 82.08 0 0 1 1.713 8.419 60.844 60.844 0 0 1 1.958-8.762l6.412-21.756h4.405l6.73 21.952a66.731 66.731 0 0 1 1.983 8.566 73.348 73.348 0 0 1 1.762-8.468l5.628-22.05zm36.661 17.841q0 8.59-4.344 13.509t-12.078 4.919q-7.904 0-12.199-4.834t-4.295-13.643q0-8.737 4.307-13.546t12.236-4.809q7.709 0 12.04 4.895t4.333 13.509zm-28.511 0q0 7.268 3.096 11.025t8.993 3.756q5.947 0 8.982-3.744t3.035-11.037q0-7.22-3.023-10.952t-8.945-3.732q-5.946 0-9.042 3.757t-3.096 10.927zm48.113 3.059h-7.464v14.879h-4.16V34.86h9.813q6.584 0 9.728 2.521t3.145 7.586q0 7.097-7.195 9.594l9.716 16.078h-4.919l-8.664-14.879zm-7.464-17.253v13.68h5.702q4.405 0 6.461-1.75a6.51 6.51 0 0 0 2.056-5.249q0-3.549-2.092-5.115t-6.718-1.566zM434.746 50.4l14.929 20.239h-4.895l-13.044-17.351-3.744 3.328v14.023h-4.161V34.86h4.161v17.743l16.225-17.743h4.919z"/></svg>
