<svg xmlns="http://www.w3.org/2000/svg" xmlns:xlink="http://www.w3.org/1999/xlink" viewBox="0 0 1024 833.1102" fill="currentColor"><path d="M1019.001 405.306c-21.083 0-40.895.831-60.536-.617-4.632-.344-10.342-7.64-12.754-12.997-17.743-39.4-48.743-63.435-88.348-77.552-65.775-23.44-146.72 9.203-178.953 71.261a135.505 135.505 0 0 0-15.549 67.012c2.8 131.77-109.947 226.685-228.662 221.102-85.09-4.005-167.324-64.655-193.727-146.085-26.188-80.762-11.886-155.071 44.166-218.285 48.498-54.69 112.802-77.14 185.018-69.768 55.52 5.671 103.354 30.367 139.441 74.397 2.74 3.343 3.684 11.062 1.75 14.847-9.715 19.015-20.67 37.395-31.311 56.216-14.734-24.255-33.87-45.738-60.004-60.578-49.733-28.25-118.173-24.885-161.628 8.55-51.285 39.459-73.44 101.478-57.277 160.342 16.51 60.13 69.466 106.05 127.3 110.392 70.177 5.266 128.47-26.845 154.598-88.02 7.135-16.698 11.342-36.648 10.06-54.612-6.629-92.766 70.61-191.083 160.804-212.1 86.897-20.253 162.417 1.203 221.554 68.315 18.43 20.921 43.435 82.5 44.058 88.18z"/><path d="M919.685 558.708h-60.472c0-20.774-.555-39.368.526-57.864.185-3.207 7.284-8.615 11.183-8.608 49.214.078 150.445-.189 153.078 1.214-6.031 39.198-22.791 76.95-48.795 106.36-88.28 99.836-234.682 101.134-325.682 3.863-6.855-7.33-7.851-12.127-2.483-21.12 10.628-17.807 19.278-36.79 29.56-56.876 31.73 54.76 79.08 84.053 142.651 81.3 37.937-1.642 71.579-16.25 100.434-48.27zM180.074 120.551c44.765-12.984 79.03-2.688 103.81 41.647 19.206-22.849 37.906-42.196 53.056-64.01 12.611-18.157.675-56.307-19.7-73.278C307.492 16.792 297.7 8.73 287.602.37c52.243-5.031 100.785 42.004 90.11 91.307-3.883 17.948-20.552 34.87-34.98 48.441-34.21 32.185-54.018 68.415-42.188 116.359 4.832 19.58-13.24 22.888-21.67 35.62a105.009 105.009 0 0 1-18.948-59.8c-.109-7.193.344-14.393.523-21.593 1.123-45.163-17.776-70.855-61.429-83.693-5.772-1.698-11.4-3.873-18.946-6.46zM460.985 36.206c21.632 9.664 39.703 23.683 47.86 45.356 4.571 12.141 4.964 26.657 3.948 39.85-.85 11.065 1.405 15.736 12.38 15.437 17.694-.48 35.499.085 53.057-1.72 35.269-3.632 58.004-40.218 50.733-79.585-1.458-7.881-1.886-15.955-2.785-23.938l4.644-1.622c6.11 12.36 12.842 24.455 18.199 37.132 11.955 28.288 14.097 55.14-10.417 79.381-13.332 13.18-29.069 17.419-46.429 18.21-14.902.675-29.899-.506-44.79.299-37.407 2.012-66.521 18.648-90.646 47.73-6.914 8.336-23.589 8.573-37.784 13.172-1.854-27.247 12.533-41.198 25.741-55.579 11.5-12.523 26.42-22.991 34.464-37.368 14.864-26.576 10.793-54.255-5.525-79.82-3.781-5.922-8.41-11.304-12.65-16.935zM138.357 331.49c-.442-28.208 6.416-61.623-14.848-90.328-23.842-32.185-58.867-19.94-92.352-19.174 29.148-26.125 87.538-44.725 118.109-11.105 9.455 10.397 13.213 27.257 16.227 41.851 2.632 12.744 1.214 26.501.426 39.745-1.993 33.532 7.559 63.701 32.787 85.203 19.222 16.386 20.759 32.733 10.252 56.605-12.453-9.797-24.95-19.055-36.731-29.143-5.803-4.973-10.044-11.719-15.396-17.263-33.975-35.22-85.278-33.81-118.451 3.084-.925 1.032-2.428 1.545-6.166 3.824 9.774-22.917 23.385-40.394 43.059-48.873 18.303-7.895 39.39-9.323 63.084-14.425zM254.34 593.447c-15.434 0-27.247.377-39.027-.064-46.57-1.746-76.29 20.502-87.377 65.79-.906 3.695-1.58 7.454-2.453 11.622-15.331-25.715-5.822-69.583 20.736-88.825 13.53-9.797 15.257-16.841 2.15-27.618-11.913-9.803-22.353-21.45-34.6-30.773-29.74-22.63-64.531-17.086-87.21 12.803-7.195 9.478-14.789 18.658-22.2 27.981L0 562.376c3.93-11.472 6.456-23.702 12.124-34.245 8.03-14.933 16.544-30.377 28.127-42.459 22.167-23.125 51.851-21.58 79.996 2.35 13.452 11.44 24.62 25.813 38.88 35.973 16.771 11.952 34.774 24.3 54.138 29.767 14.24 4.024 23.821 8.244 29.559 21.54 2.108 4.888 5.711 9.128 11.517 18.145z"/><path d="M335.57 250.313c-8.06-37.246 4.24-65.935 25.76-92.312 15.312-18.769 32.078-36.875 44.186-57.618 16.549-28.35 12.144-44.302-11.75-67.39-3.854-3.721-7.268-7.897-11.34-12.36 33.38-2.143 74.304 35.338 75.959 67.28 1.324 25.56-6.833 46.074-26.144 63.11-23.774 20.972-45.402 43.795-52.622 76.425-.623 2.811-2.769 6.47-5.168 7.508-12.419 5.375-25.153 10.027-38.881 15.357zM401.936 688.24c-49.516 39.568-45.96 81.502-15.594 126.211-35.226-11.835-53.122-47.773-47.96-97.172-32.41-3.824-65.304-8.245-93.789 11.75-30.377 21.333-28.088 54.411-23.284 87.616-16.775-24.24-31.198-48.332-26.66-77.793 4.686-30.422 27.027-50.022 57.918-51.814 33.526-1.947 66.975.377 100.179-10.666 12.097-4.025 29.042 6.531 49.19 11.867zM231.965 362.198c-24.62-19.034-34.57-44.1-37.347-72.588-1.826-18.73-2.658-37.554-4.082-56.326-2.813-37.11-21.46-69.94-70.334-64.737a17.869 17.869 0 0 1-9.375-1.856c22.478-9.697 44.14-20.915 69.984-17.753 26.718 3.272 54.143 31.367 56.3 59.384 2.163 28.091 4.122 56.195 6.274 84.28.21 2.73.378 5.986 1.886 8.012 19.186 25.8-3.704 41.608-13.306 61.584zM679.926 113.014c14.228 28.075 29.932 55.939 11.3 87.433-12.3 20.784-29.007 34.103-53.787 36.187-30.627 2.57-61.264 7.95-91.812 7.4-17.357-.311-34.542-10.042-53.642-16.113 18.425-26.54 44.76-33.47 73.05-36.021 18.133-1.633 36.499-1.273 54.475-3.818a118.819 118.819 0 0 0 34.387-10.878c16.119-7.783 24.43-21.566 24.54-39.971.047-8.076.966-16.146 1.489-24.22zM216.959 522.307c-11.565-5.512-24.247-9.465-34.462-16.84-22.747-16.426-44.265-34.552-66.277-51.99-29.77-23.585-50.031-23.02-79.312 2.072-3.615 3.096-7.68 5.66-12.608 9.257 6.51-48.743 46.09-79.86 89.684-69.693 13.141 3.064 25.35 12.79 36.43 21.45 19.943 15.581 38.8 32.57 57.865 49.256a18.051 18.051 0 0 1 5.554 9.427c2.707 14.003 4.728 28.13 7 42.21l-3.874 4.85z"/><path d="M170.365 739.287c-12.949-28.15-27.31-55.164-11.659-86.722 10.664-21.496 27.191-33.395 50.03-35.746 19.733-2.032 39.73-1.616 59.618-1.915a14.93 14.93 0 0 1 9.066 3c13.01 10.764 25.686 21.93 42.702 36.602-17.144 2.402-29.781 4.46-42.488 5.888-19.702 2.214-39.748 2.5-59.116 6.311-32.045 6.297-40.44 16.951-44.844 50.353-.979 7.427-2.2 14.822-3.31 22.229zM466.965 833.11c-28.167-9.888-49.535-21.418-65.071-41.888-12.803-16.865-13.432-48.709.042-69.042 7.265-10.959 16.86-20.418 25.82-30.169 1.921-2.097 5.592-3.415 8.546-3.59 18.616-1.117 37.256-1.811 60.364-2.837-12.497 15.114-23.716 27.611-33.662 41.05-8.394 11.335-17.84 22.91-22.248 35.934-5.554 16.412-4.457 33.744 9.485 47.774 5.544 5.583 9.482 12.756 16.724 22.768z"/><path d="M488.8 743.025a25.646 25.646 0 0 1 18.843 7.933 26.395 26.395 0 0 1 7.884 19.34 26.108 26.108 0 0 1-7.779 19.13 26.957 26.957 0 0 1-38.195-.211 27.129 27.129 0 0 1 19.246-46.192zm-.106 9.618a16.21 16.21 0 0 0-12.051 4.983 17.359 17.359 0 0 0-4.884 12.673q0 8.563 6.148 13.549a16.86 16.86 0 0 0 10.962 3.895 16.007 16.007 0 0 0 11.911-5.055 18.214 18.214 0 0 0-.035-24.94 16.155 16.155 0 0 0-12.051-5.106zM525.46 744.323h10.412q8.555 0 12.184 1.53a12.466 12.466 0 0 1 5.836 5.07 15.545 15.545 0 0 1 2.21 8.387 14.296 14.296 0 0 1-2.44 8.515 14.813 14.813 0 0 1-7.352 5.174l12.23 22.956h-10.742l-11.611-21.865h-.899v21.865h-9.828zm9.828 20.185h3.08q4.686 0 6.455-1.235a4.623 4.623 0 0 0 1.767-4.083 5.012 5.012 0 0 0-.875-2.941 4.873 4.873 0 0 0-2.345-1.798 17.799 17.799 0 0 0-5.389-.545h-2.693zM565.79 744.323h9.758v51.632h-9.758zM586.64 744.323h28.183v9.618h-18.427v9.336h18.427v9.443h-18.427v13.582h18.427v9.653H586.64zM624.019 744.323h9.426L655.54 778.3v-33.977h9.827v51.632h-9.454l-22.065-33.87v33.87h-9.828zM672.07 744.323h28.535v9.69h-9.407v41.942h-9.967v-41.942h-9.162zM723.096 744.323h9.966l19.859 51.632h-10.214l-4.04-10.634h-21.066l-4.202 10.634h-10.215zm5.044 13.689l-6.927 17.727h13.813zM760.52 744.323h9.826v42.26h14.321v9.372H760.52zM859.917 752.747l-6.92 6.846q-6.568-6.948-15.315-6.95a17.504 17.504 0 0 0-12.77 5.054 16.57 16.57 0 0 0-5.146 12.284 17.005 17.005 0 0 0 5.34 12.672 18.168 18.168 0 0 0 13.176 5.194 16.186 16.186 0 0 0 8.593-2.14 15.057 15.057 0 0 0 5.638-6.706H837.56v-9.229h25.972l.073 2.175a25.285 25.285 0 0 1-3.513 12.848 24.506 24.506 0 0 1-9.09 9.264 25.901 25.901 0 0 1-13.09 3.195 29.072 29.072 0 0 1-14.339-3.494 25.538 25.538 0 0 1-9.968-9.949 27.77 27.77 0 0 1-3.668-13.934 25.884 25.884 0 0 1 6.774-17.831q8.035-9.018 20.918-9.02a31.862 31.862 0 0 1 12.601 2.492 28.89 28.89 0 0 1 9.686 7.229zM888.376 744.323h9.965l19.859 51.632h-10.215l-4.038-10.634H882.88l-4.2 10.634h-10.215zm5.044 13.689l-6.927 17.727h13.816zM930.805 744.323h9.576l11.969 36.012 12.078-36.012h9.57l8.66 51.632h-9.501l-5.538-32.607-10.969 32.607h-8.66l-10.871-32.606-5.671 32.606h-9.58zM990.52 744.323h28.186v9.618h-18.428v9.336h18.428v9.443h-18.428v13.582h18.428v9.653H990.52z"/></svg>
