<svg xmlns="http://www.w3.org/2000/svg" fill="currentColor" viewBox="0 0 560.63961 140.6221"><path d="M351.94 7.295l3.485 25.193 22.49-5.17-10.52-17.716-15.455-2.307zM331.045 34.159l-18.327 10.236 23.494 12.254-5.167-22.49zM337.19 80.789l10.767 18.043 11.724-23.213-22.491 5.17zM378.927 51.481l5.164 22.494 18.532-10.408 2.242-14.646-25.938 2.56zM0 22.514h17.639v8.935a27.952 27.952 0 0 1 7.834-7.252 21.548 21.548 0 0 1 11.547-2.843 27.645 27.645 0 0 1 10.56 2.087 26.176 26.176 0 0 1 9.052 6.21 31.002 31.002 0 0 1 6.325 10.097A37.024 37.024 0 0 1 65.336 53.5v.23a37.01 37.01 0 0 1-2.379 13.752A31.488 31.488 0 0 1 56.69 77.58a25.586 25.586 0 0 1-8.994 6.207 27.936 27.936 0 0 1-10.676 2.09q-7.08 0-11.664-2.785a31.12 31.12 0 0 1-7.717-6.498v26.691H0zm32.493 48.392a14.207 14.207 0 0 0 5.861-1.219 14.647 14.647 0 0 0 4.816-3.48 16.903 16.903 0 0 0 3.307-5.396 19.412 19.412 0 0 0 1.22-7.08V53.5a19.531 19.531 0 0 0-1.22-7.021 16.765 16.765 0 0 0-3.307-5.456 14.647 14.647 0 0 0-4.816-3.48 14.701 14.701 0 0 0-11.721 0 14.008 14.008 0 0 0-4.758 3.48 17.31 17.31 0 0 0-3.25 5.455 19.531 19.531 0 0 0-1.218 7.022v.23a19.524 19.524 0 0 0 1.219 7.022 17.289 17.289 0 0 0 3.249 5.455 14.008 14.008 0 0 0 4.758 3.48 14.196 14.196 0 0 0 5.86 1.22zM90.169 85.877a27.582 27.582 0 0 1-8.298-1.219 19.468 19.468 0 0 1-6.789-3.656 17.478 17.478 0 0 1-4.584-5.977 18.833 18.833 0 0 1-1.683-8.18v-.232a19.5 19.5 0 0 1 1.858-8.82 16.93 16.93 0 0 1 5.164-6.15 23.189 23.189 0 0 1 7.891-3.657 39.484 39.484 0 0 1 10.155-1.218 43.398 43.398 0 0 1 8.297.697 52.076 52.076 0 0 1 6.905 1.857v-1.045q0-5.572-3.365-8.472-3.368-2.898-9.98-2.9a41.472 41.472 0 0 0-8.995.868 60.981 60.981 0 0 0-8.182 2.497l-4.409-13.461a69.267 69.267 0 0 1 10.677-3.598 56.152 56.152 0 0 1 13.461-1.393 38.12 38.12 0 0 1 12.476 1.8 22.154 22.154 0 0 1 8.53 5.163 20.91 20.91 0 0 1 5.105 8.53 36.832 36.832 0 0 1 1.625 11.314v36.092h-17.06v-6.73a24.518 24.518 0 0 1-7.775 5.744 25.607 25.607 0 0 1-11.024 2.146zm5.338-12.186q6.266 0 10.039-3.017a9.625 9.625 0 0 0 3.771-7.89V59.65a26.97 26.97 0 0 0-5.164-1.683 27.902 27.902 0 0 0-6.093-.639q-5.687 0-8.936 2.205a7.239 7.239 0 0 0-3.249 6.383v.233a6.517 6.517 0 0 0 2.669 5.57 11.418 11.418 0 0 0 6.963 1.972zM156.433 85.762a28.963 28.963 0 0 1-7.37-.871 13.12 13.12 0 0 1-5.686-3.076 14.739 14.739 0 0 1-3.713-5.745 25.763 25.763 0 0 1-1.335-8.994V37.6h-7.428V22.514h7.428V6.615h17.64v15.899h14.622V37.6h-14.622v26.67q0 6.058 5.686 6.056a17.25 17.25 0 0 0 8.703-2.32v14.158a27.404 27.404 0 0 1-6.15 2.61 27.701 27.701 0 0 1-7.775.988zM195.425 85.877a27.583 27.583 0 0 1-8.298-1.219 19.467 19.467 0 0 1-6.79-3.656 17.478 17.478 0 0 1-4.583-5.977 18.833 18.833 0 0 1-1.683-8.18v-.232a19.5 19.5 0 0 1 1.858-8.82 16.93 16.93 0 0 1 5.164-6.15 23.189 23.189 0 0 1 7.891-3.657 39.485 39.485 0 0 1 10.155-1.218 43.398 43.398 0 0 1 8.296.697 52.074 52.074 0 0 1 6.906 1.857v-1.045q0-5.572-3.365-8.472-3.368-2.898-9.98-2.9a41.472 41.472 0 0 0-8.995.868 60.98 60.98 0 0 0-8.182 2.497l-4.409-13.461a69.264 69.264 0 0 1 10.677-3.598 56.152 56.152 0 0 1 13.46-1.393 38.12 38.12 0 0 1 12.476 1.8 22.155 22.155 0 0 1 8.53 5.163 20.91 20.91 0 0 1 5.106 8.53 36.829 36.829 0 0 1 1.625 11.314v36.092h-17.06v-6.73a24.518 24.518 0 0 1-7.775 5.744 25.606 25.606 0 0 1-11.024 2.146zm5.338-12.186q6.266 0 10.039-3.017a9.625 9.625 0 0 0 3.771-7.89V59.65a26.965 26.965 0 0 0-5.164-1.683 27.9 27.9 0 0 0-6.093-.639q-5.688 0-8.936 2.205a7.239 7.239 0 0 0-3.25 6.383v.233a6.518 6.518 0 0 0 2.67 5.57 11.418 11.418 0 0 0 6.963 1.972zM268.535 103.516a62.097 62.097 0 0 1-14.622-1.682 55.043 55.043 0 0 1-12.88-4.816l6.033-13.23a52.173 52.173 0 0 0 9.807 4.177 38.26 38.26 0 0 0 11.198 1.51q9.053 0 13.404-4.295 4.353-4.292 4.353-12.649v-3.017a31.9 31.9 0 0 1-8.589 7.427 23.26 23.26 0 0 1-11.72 2.668 28.873 28.873 0 0 1-10.445-1.914 25.822 25.822 0 0 1-8.82-5.629 27.095 27.095 0 0 1-6.093-9.109 31.72 31.72 0 0 1-2.263-12.36v-.232a31.005 31.005 0 0 1 2.322-12.36 27.822 27.822 0 0 1 6.15-9.108 25.857 25.857 0 0 1 8.82-5.63 28.614 28.614 0 0 1 10.328-1.913q7.194 0 11.837 2.668a34.196 34.196 0 0 1 8.24 6.615v-8.123h17.64v48.16q0 16.596-7.891 24.486a25.642 25.642 0 0 1-11.084 6.383 55.789 55.789 0 0 1-15.725 1.973zm2.09-38.528a17.03 17.03 0 0 0 6.034-1.045 14.164 14.164 0 0 0 4.816-2.959 13.754 13.754 0 0 0 3.191-4.584 14.397 14.397 0 0 0 1.162-5.802v-.233a14.41 14.41 0 0 0-1.162-5.803 13.796 13.796 0 0 0-3.191-4.584 14.225 14.225 0 0 0-4.816-2.958 17.072 17.072 0 0 0-6.034-1.045 16.598 16.598 0 0 0-5.978 1.045 14.337 14.337 0 0 0-4.757 2.958 13.766 13.766 0 0 0-3.192 4.584 14.393 14.393 0 0 0-1.16 5.803v.233a13.502 13.502 0 0 0 4.294 10.445 15.333 15.333 0 0 0 10.793 3.945zM411.402 22.514h17.64v8.892a37.51 37.51 0 0 1 3.308-3.799 23.04 23.04 0 0 1 4.002-3.212 19.816 19.816 0 0 1 4.874-2.221 20.518 20.518 0 0 1 6.036-.82q10.095 0 15.608 6.15 5.51 6.152 5.513 16.943v40.27h-17.64V50.103q0-6.251-2.785-9.435-2.786-3.182-7.892-3.184a10.477 10.477 0 0 0-8.065 3.184q-2.959 3.182-2.959 9.435v34.614h-17.64zM478.245 0h18.568v15.666h-18.568zm.465 22.514h17.64v62.203h-17.64zM524.78 85.877a27.577 27.577 0 0 1-8.298-1.219 19.468 19.468 0 0 1-6.789-3.656 17.48 17.48 0 0 1-4.584-5.977 18.834 18.834 0 0 1-1.682-8.18v-.232a19.513 19.513 0 0 1 1.856-8.82 16.942 16.942 0 0 1 5.165-6.15 23.184 23.184 0 0 1 7.89-3.657 39.495 39.495 0 0 1 10.155-1.218 43.402 43.402 0 0 1 8.298.697 52.078 52.078 0 0 1 6.905 1.857v-1.045q0-5.572-3.365-8.472-3.368-2.898-9.98-2.9a41.466 41.466 0 0 0-8.995.868 60.977 60.977 0 0 0-8.181 2.497l-4.41-13.461a69.335 69.335 0 0 1 10.676-3.598 56.166 56.166 0 0 1 13.462-1.393 38.125 38.125 0 0 1 12.476 1.8 22.144 22.144 0 0 1 8.53 5.163 20.901 20.901 0 0 1 5.106 8.53 36.832 36.832 0 0 1 1.625 11.314v36.092h-17.06v-6.73a24.517 24.517 0 0 1-7.775 5.744 25.61 25.61 0 0 1-11.025 2.146zm5.338-12.186q6.267 0 10.038-3.017a9.623 9.623 0 0 0 3.773-7.89V59.65a26.955 26.955 0 0 0-5.165-1.683 27.886 27.886 0 0 0-6.092-.639q-5.688 0-8.937 2.205a7.237 7.237 0 0 0-3.249 6.383v.233a6.518 6.518 0 0 0 2.67 5.57 11.416 11.416 0 0 0 6.962 1.972zM239.488 129.63v-.08c0-6.057 4.292-11.031 10.35-11.031 6.74 0 10.149 5.295 10.149 11.392 0 .442-.04.883-.08 1.364h-15.565a5.913 5.913 0 0 0 6.097 5.375 7.692 7.692 0 0 0 5.737-2.527l2.848 2.527a10.712 10.712 0 0 1-8.665 3.972 10.568 10.568 0 0 1-10.871-10.991zm15.685-1.564c-.321-3.13-2.166-5.576-5.375-5.576-2.969 0-5.055 2.286-5.496 5.575zM268.094 118.96h4.854v3.249a7.677 7.677 0 0 1 6.618-3.69c4.775 0 7.542 3.209 7.542 8.103v13.519h-4.853v-12.034c0-3.29-1.646-5.176-4.534-5.176-2.808 0-4.773 1.966-4.773 5.256v11.954h-4.854zM297.182 134.284v-11.152h-2.688v-4.172h2.688v-5.817h4.853v5.817h5.696v4.172h-5.696v10.39c0 1.885.963 2.647 2.607 2.647a6.522 6.522 0 0 0 3.01-.722v3.972a8.395 8.395 0 0 1-4.373 1.083c-3.57 0-6.097-1.565-6.097-6.218zM314.112 129.63v-.08c0-6.057 4.292-11.031 10.35-11.031 6.74 0 10.15 5.295 10.15 11.392 0 .442-.04.883-.082 1.364h-15.564a5.913 5.913 0 0 0 6.097 5.375 7.691 7.691 0 0 0 5.737-2.527l2.848 2.527a10.714 10.714 0 0 1-8.665 3.972 10.568 10.568 0 0 1-10.87-10.991zm15.685-1.564c-.32-3.13-2.166-5.576-5.375-5.576-2.969 0-5.055 2.286-5.496 5.575zM342.719 118.96h4.853v4.773c1.324-3.169 3.772-5.335 7.502-5.174v5.134h-.281c-4.252 0-7.22 2.768-7.22 8.384v8.064h-4.854zM363.5 134.284v-11.152h-2.687v-4.172h2.688v-5.817h4.853v5.817h5.697v4.172h-5.697v10.39c0 1.885.963 2.647 2.608 2.647a6.522 6.522 0 0 0 3.009-.722v3.972a8.396 8.396 0 0 1-4.372 1.083c-3.57 0-6.098-1.565-6.098-6.218zM380.793 134.043v-.08c0-4.573 3.57-6.82 8.745-6.82a17.692 17.692 0 0 1 5.696.882v-.521c0-3.008-1.844-4.613-5.255-4.613a14.739 14.739 0 0 0-6.057 1.324l-1.283-3.81a18.072 18.072 0 0 1 7.982-1.726c3.17 0 5.536.843 7.02 2.367 1.565 1.524 2.287 3.77 2.287 6.539v12.556h-4.734v-2.648a8.609 8.609 0 0 1-6.9 3.09c-3.97 0-7.501-2.288-7.501-6.54zm14.521-1.524v-1.445a13.452 13.452 0 0 0-4.813-.842c-3.129 0-4.975 1.324-4.975 3.53v.08c0 2.047 1.806 3.21 4.132 3.21 3.21 0 5.656-1.846 5.656-4.533zM409.037 111.097h5.215v4.613h-5.215zm.2 7.863h4.855v21.18h-4.855zM423.642 118.96h4.853v3.249a7.678 7.678 0 0 1 6.62-3.69c4.774 0 7.541 3.209 7.541 8.103v13.519h-4.853v-12.034c0-3.29-1.646-5.176-4.534-5.176-2.808 0-4.774 1.966-4.774 5.256v11.954h-4.853zM451.726 118.96h4.854v3.209c1.364-1.886 3.21-3.65 6.459-3.65a6.721 6.721 0 0 1 6.338 3.73 8.524 8.524 0 0 1 7.14-3.73c4.614 0 7.422 2.928 7.422 8.103v13.519h-4.854v-12.034c0-3.37-1.564-5.176-4.292-5.176-2.647 0-4.533 1.845-4.533 5.256v11.954h-4.854v-12.076c0-3.289-1.605-5.134-4.293-5.134s-4.533 2.005-4.533 5.255v11.955h-4.854zM491.888 129.63v-.08c0-6.057 4.292-11.031 10.35-11.031 6.738 0 10.149 5.295 10.149 11.392 0 .442-.04.883-.081 1.364H496.74a5.913 5.913 0 0 0 6.098 5.375 7.691 7.691 0 0 0 5.736-2.527l2.849 2.527a10.714 10.714 0 0 1-8.665 3.972 10.568 10.568 0 0 1-10.871-10.991zm15.684-1.564c-.32-3.13-2.166-5.576-5.375-5.576-2.969 0-5.055 2.286-5.496 5.575zM520.493 118.96h4.854v3.249a7.678 7.678 0 0 1 6.619-3.69c4.774 0 7.542 3.209 7.542 8.103v13.519h-4.854v-12.034c0-3.29-1.645-5.176-4.533-5.176-2.809 0-4.774 1.966-4.774 5.256v11.954h-4.854zM549.581 134.284v-11.152h-2.688v-4.172h2.688v-5.817h4.854v5.817h5.696v4.172h-5.696v10.39c0 1.885.962 2.647 2.607 2.647a6.522 6.522 0 0 0 3.009-.722v3.972a8.395 8.395 0 0 1-4.372 1.083c-3.57 0-6.098-1.565-6.098-6.218z"/><path d="M401.074 42.504l-23.159-15.186-22.49 5.17 44.799 31.144a2.109 2.109 0 0 0 3.25-1.523l1.363-11.551a8.447 8.447 0 0 0-3.763-8.054zM378.894 51.459l-31.146 44.795a2.112 2.112 0 0 0 1.524 3.254l11.551 1.36a8.449 8.449 0 0 0 8.054-3.76l15.185-23.157zM314.885 44.478a2.107 2.107 0 0 0-3.25 1.52l-1.362 11.553a8.453 8.453 0 0 0 3.757 8.056l23.16 15.182 22.49-5.17zM365.834 8.604l-11.546-1.362a8.452 8.452 0 0 0-8.057 3.76l-15.186 23.157 5.167 22.49 31.148-44.796a2.108 2.108 0 0 0-1.526-3.25z"/><path d="M336.212 56.619l18.742-24.48 25.205 17.611-1.232 1.699 19.153 10.662-40.932-30.05 8.791-18.196-29.727 42.619"/></svg>
