<svg xmlns="http://www.w3.org/2000/svg" fill="currentColor" viewBox="0 0 485 170.00001"><path d="M470 170H14a22.365 22.365 0 0 1-14-13V33c3.608-10.024 10.795-13.448 21.298-13.433 140.138.197 280.277-.06 420.413.437 13.586.048 24.528-2.43 33.6-12.67C477.946 4.363 481.739 2.417 485 0v156c-2.635 7.2-7.39 12.13-15 14zm-190.966-53.869a17.41 17.41 0 0 1 1.604 1.043c11.882 10.373 28.588 7.154 35.543-7.001 4.648-9.459 4.556-19.252 1.031-29.025-3.195-8.861-9.377-14.2-18.899-15.56-7.807-1.114-14.325 1.192-20.103 7.647l-.397-6.025h-13.68v73.413h14.9zm-213.206-.475c13.034 13.205 34.887 8.182 39.491-11.212a40.714 40.714 0 0 0-.272-20.643c-3.084-11.151-10.073-17.263-21.403-18.43-7.156-.738-13.203 1.896-18.43 7.754l-.404-5.907H50.977v73.474h14.851zm74.338-31.77c4.55 0 8.678.132 12.785-.095a4.145 4.145 0 0 0 2.839-2.008c2.801-5.409 5.418-6.957 11.451-6.234 3.767.451 7.301 1.17 7.786 6.034.508 5.093-2.922 6.106-6.718 6.813-6.347 1.182-12.836 1.85-19.018 3.604-7.633 2.165-10.643 6.983-10.584 14.874.06 8.127 3.315 12.92 11.025 15.123a28.098 28.098 0 0 0 25.844-4.925c1.413 5.237 6.542 6.435 16.146 4.07a31.446 31.446 0 0 1-.859-4.818q-.44-17.211-.706-34.427c-.138-8.374-3.081-12.594-11.112-14.894a43.61 43.61 0 0 0-24.586-.075c-8.045 2.34-13.169 7.319-14.293 16.958zm238.55 37.749V67.318H364v15.331c0 5.161.062 10.323-.017 15.482-.102 6.58-2.743 11.147-7.12 12.577-7.81 2.55-13.693-1.5-13.837-9.887-.19-11.109-.047-22.223-.047-33.512H328c0 13.523-.3 26.673.1 39.803.29 9.504 6.974 15.324 16.418 15.95 7.938.525 14.583-1.716 20.182-8.659l.48 7.232zm8.223-17.451c.5 5.978 2.461 10.602 6.892 13.836 8.905 6.5 26.759 7.014 36.117 1.057 6.047-3.85 8.626-9.595 7.97-16.608-.603-6.44-4.973-9.822-10.694-11.777-1.877-.64-3.79-1.183-5.706-1.704-4.794-1.304-9.728-2.233-14.329-4.025a6.884 6.884 0 0 1-3.58-5.078c-.057-1.246 2.55-3.321 4.31-3.82 7.241-2.058 11.667.13 14.755 6.572h13.282c-.262-7.516-4.304-13.012-11.539-15.438a39.272 39.272 0 0 0-22.62-.657c-8.953 2.304-13.635 7.917-13.754 16.001-.1 6.731 4.213 11.27 13.288 13.954.95.282 1.941.426 2.9.685 4.792 1.3 9.705 2.296 14.31 4.086 1.806.702 4.112 3.242 4.044 4.854-.083 1.972-2.002 4.626-3.86 5.628-7.147 3.856-14.365.68-18.04-7.566zm-156.157 6.104c-4.28-.399-9.91 1.82-10.397-3.85-.83-9.668-.228-19.458-.228-29.543h10.588V66.789h-10.92V50.467h-15v16.661h-8.576v10.06H205c0 11.313-.049 22.108.019 32.902.037 5.958 2.338 9.71 8.145 10.906 5.698 1.175 11.672 1.01 17.617 1.44zM115.299 46.202v75.313h14.42V46.202zm137.39 75.37V67.3H238.27v54.273zm-14.694-63.718h14.688v-11.54h-14.688z"/><path d="M304.757 96.02a76.302 76.302 0 0 1-2.846 9.6c-1.963 4.655-6.135 6.376-10.931 6.248a11.514 11.514 0 0 1-10.83-7.43 25.648 25.648 0 0 1-.502-18.91c2.202-6.385 6.167-8.97 12.82-8.61 5.49.299 9.797 4.326 11.284 10.817.514 2.248.575 4.599 1.005 8.284zM91.756 94.503c-.655 3.41-.873 6.088-1.703 8.56-1.992 5.933-6.155 8.92-11.766 8.857a12.42 12.42 0 0 1-11.82-8.984 26.273 26.273 0 0 1 .522-18.472c2.011-4.924 5.518-7.569 11.047-7.628 5.506-.059 9.339 2.403 11.223 7.333 1.331 3.485 1.794 7.3 2.497 10.334zM174.993 95.559c0 2.784.7 5.404-.156 7.336-1.444 3.256-3.285 7.677-6.032 8.686a19.172 19.172 0 0 1-12.67-.485c-4.335-1.73-3.002-9.733 1.964-11.465 5.254-1.833 10.858-2.666 16.894-4.072z"/></svg>
