<svg xmlns="http://www.w3.org/2000/svg" viewBox="0 0 130 30" fill="currentColor"><path d="M77.485 3.255c-2.774.892-5.845 3.294-7.455 5.82l-.694 1.115H40.68c-19.69 0-29.053.074-29.92.272-1.535.322-3.319 1.511-4.26 2.824-.966 1.387-3.492 9.436-3.492 11.27-.025 1.758.594 3.07 1.882 3.913l1.016.668 29.028.075 29.003.05.173 1.04a7.846 7.846 0 0 0 4.805 5.944l1.412.57 15.356.074c9.486.05 16.075-.025 17.263-.174a14.811 14.811 0 0 0 9.71-5.721l1.213-1.61 2.75-.149c2.972-.148 3.962-.47 5.919-2.006 1.337-1.065 1.957-2.303 3.368-6.935 1.363-4.483 1.511-5.721.793-7.282-.892-1.956-2.725-2.798-6.019-2.823-1.51 0-1.684-.05-1.684-.495 0-.917-.99-3.146-1.858-4.161a9.144 9.144 0 0 0-2.55-1.833l-1.66-.818-16.966-.05c-16.174-.049-17.04-.024-18.477.422zm16.99 3.022A31.802 31.802 0 0 1 93.46 9.62l-1.015 3.047-6.811.05-6.836.074-1.833 5.82c-.99 3.195-1.982 6.34-2.18 6.985l-.346 1.188h6.637l.52-1.684c.273-.916.57-1.857.644-2.105.124-.372-.05-.421-1.387-.421h-1.535l.173-.768c.1-.421.47-1.684.842-2.774l.694-2.03 4.978-.075c3.641-.05 5.003.025 5.003.223 0 .57-2.997 10.03-3.517 11.12-.743 1.56-3.021 3.74-4.78 4.607l-1.486.719H75.9c-5.226 0-5.35 0-6.44-.62-1.51-.842-2.278-2.278-2.278-4.16 0-1.933 4.582-16.57 5.746-18.403a10.685 10.685 0 0 1 5.226-4.037c1.461-.496 16.322-.595 16.322-.1zm18.948.173c1.833.842 2.6 2.105 2.6 4.31 0 1.51-4.135 15.455-5.15 17.312-.892 1.71-3.196 3.79-5.177 4.731l-1.685.793h-5.077c-5.053 0-5.077 0-6.192-.67a4.847 4.847 0 0 1-1.734-1.733c-1.065-1.882-.891-3.022 1.71-11.467 1.262-4.087 2.526-7.852 2.798-8.372.545-1.09 2.155-2.923 3.245-3.69a12 12 0 0 1 2.13-1.09c1.288-.545 1.733-.595 6.464-.595 4.409 0 5.201.075 6.068.47v.001zm-93.92 7.926a2.004 2.004 0 0 1 .917.99c.272.67.223 1.016-.347 2.849-1.065 3.418-2.204 4.359-5.325 4.359h-1.734l-.396 1.362-.396 1.362h-1.338c-.743 0-1.362-.074-1.362-.173s.743-2.6 1.66-5.573l1.659-5.4h3.021c1.685 0 3.32.1 3.641.224zm5.994.074c-.347 1.015-2.353 7.777-2.353 7.926s.595.198 1.338.198h1.362l.396-1.362.396-1.363h1.338c.941 0 1.362.1 1.337.298s-.371 1.436-.792 2.798l-.818 2.477-4.136.074c-2.278.025-4.136-.024-4.136-.123s.743-2.675 1.66-5.697l1.684-5.523h1.411c1.04 0 1.387.074 1.313.297zm14.34.223c.942.743.843 1.66-.668 6.539l-1.313 4.21-1.065.074c-1.66.124-1.808 0-1.411-1.114.173-.52.396-1.238.495-1.635l.148-.668h-2.922l-.446 1.61-.47 1.61h-1.412c-1.016 0-1.387-.075-1.313-.323.05-.148.545-1.808 1.115-3.64s1.139-3.716 1.263-4.162c.346-1.065 1.387-2.253 2.328-2.674.421-.174 1.66-.322 2.873-.347 1.808 0 2.254.074 2.799.52zm5.772-.223c-.05.173-.397 1.313-.768 2.551s-.718 2.378-.768 2.526c-.074.248.297.322 1.338.322h1.436l.817-2.675c.421-1.46.892-2.749.991-2.848s.743-.173 1.412-.124l1.263.075-.916 2.972c-.52 1.634-1.115 3.27-1.338 3.616-.446.669-2.105 1.709-2.724 1.709-.248 0-.545.495-.842 1.412l-.446 1.436-1.338.074-1.337.075.173-.743c.074-.421.223-1.09.297-1.486.124-.595.05-.719-.495-.867a1.632 1.632 0 0 1-1.04-.991c-.372-.768-.372-.941.52-3.889.52-1.684.99-3.145 1.04-3.269s.718-.173 1.486-.173c.991 0 1.338.074 1.239.297zm10.477 0a13.016 13.016 0 0 1-.422 1.61l-.42 1.313h-1.586c-1.412 0-1.585-.05-1.461-.446.074-.223.272-.941.446-1.61l.322-1.164h1.56c1.016 0 1.56.099 1.56.297zm7.157 3.022c.743.668.67 1.783-.346 5.077-.47 1.536-.867 2.848-.867 2.898s-.62.099-1.362.099c-.917 0-1.363-.099-1.363-.322 0-.149.347-1.362.743-2.65s.743-2.427.743-2.551c0-.322-2.724-.198-2.848.124-.05.173-.446 1.46-.892 2.848l-.792 2.551h-1.313c-.743 0-1.337-.074-1.337-.198s.42-1.536.916-3.22c1.362-4.532 2.254-5.276 6.167-5.176 1.61.05 2.13.148 2.551.52z"/><path d="M101.956 13.088c-.223.446-4.26 13.275-4.26 13.548 0 .099 1.535.124 3.393.099l3.393-.074 2.056-6.564c1.114-3.616 2.056-6.762 2.056-7.01 0-.37-.322-.42-3.22-.42-2.8 0-3.22.05-3.418.42zM14.5 17.918c-.173.594-.371 1.263-.42 1.51-.125.397 0 .446 1.287.372 1.362-.074 1.412-.1 1.709-.941.743-2.155.817-1.982-.817-1.982h-1.462l-.297 1.04zM34.686 17.174c-.074.174-.223.694-.372 1.165-.47 1.436-.396 1.51 1.066 1.51h1.337l.396-1.164a7.874 7.874 0 0 0 .397-1.486c0-.446-2.7-.446-2.824-.025z"/></svg>
