<svg data-name="Layout 1" xmlns="http://www.w3.org/2000/svg" viewBox="0 0 600 122.5" fill="currentColor"><path d="M63.2 30.9l9 .1v48.3h50.1l-.1 8.7H63.3zm124 .3h10.6l21.1 25.7 21-25.7h10.7l-27.3 35.6v21.3h-8.8V66.7zm64 8.1c0-4.8 5.1-8.2 10.1-8.3 11.8 0 39.3-.2 41.2.3a10.76 10.76 0 0 1 7.5 7.8 27.44 27.44 0 0 1 .2 5.4H301v-4.1c0-.8-1.2-.9-2-.9h-37a1.89 1.89 0 0 0-2 2V53a2 2 0 0 0 2 2.1h38.6a10.4 10.4 0 0 1 9.6 10.1v12.6a10.64 10.64 0 0 1-6.5 9.2c-2.1.9-30.2.9-42.1.9a10.75 10.75 0 0 1-9.7-6.4c-1-2.3-.9-7.4-.9-7.4h9s-.6 3.9 1.1 5.1h38.3c.9 0 1.9-.8 1.8-1.7v-9.9c0-1.2.2-2.5-.6-3.5a9.86 9.86 0 0 0-2.4-.3h-36.7c-4.9 0-10.3-2.9-10.3-8.3.1-2.4 0-16.2 0-16.2zM380.1 31h10.8l39.2 45.3V31l9.1.1-.2 57h-10.3L389 42.7l-.1 45.4h-8.8zM59 41c-.1-5.4-5.2-9.8-10.4-9.8H0V88h8.7l.2-20.6 39.2.1c5.6 0 10.8-4.3 10.8-9.9zm-8.9 16.3a1.8 1.8 0 0 1-1.9 1.7h-38A1.56 1.56 0 0 1 9 57.3V41.2c0-1.1 1.2-1.5 2.2-1.5h37.1a1.81 1.81 0 0 1 1.8 1.9zm136.1-16c0-5.5-3.9-10.3-7.6-10.3h-41.3c-5.3.1-10.1 4.6-10.1 9.9v47h8.8V68.1h41.2v15.6l.2 4.3h8.6l.1-11.2c.1 0 0-23.7.1-35.5zm-9 18.1H136V41.7a1.77 1.77 0 0 1 1.9-2h37.5a1.79 1.79 0 0 1 1.8 2zm197.3 16.3c0-7.3-.1-31.5-.1-36.4 0-4.5-5.3-8.2-10.1-8.3h-38.6c-4.5 0-10.4 5.5-10.4 9.4v37.5c.1 5.4 5.1 9.9 10.4 10.1h38.1a10.7 10.7 0 0 0 9.9-7c.9-1.7.8-3.5.8-5.3zm-10 3.6h-39c-.7 0-1.2-.9-1.1-1.7V40.8c.2-.7 0-1.5 2.3-1.5h36.8c1.1 0 2 .4 2 1.5v36.9c.1.8-.2 1.6-1 1.6zM466.5 0l44.9 20.4L466.5 41z"/><path d="M511.4 20.4l44.8 20.4-44.8 20.4V20.4zM466.5 41l44.9 20.3-44.9 20.3zM600 61.1l-43.9 20.7V40.9z"/><path d="M556.1 81.8l-44.8 20.4V61.3z"/><path d="M511.4 102.2l-44.9 20.3V81.7z"/></svg>
