<svg data-name="Pragmatic" xmlns="http://www.w3.org/2000/svg" viewBox="0 0 216.1607 93.845" fill="currentColor">
    <path d="M0,52.7744H3.5026a11.5309,11.5309,0,0,1,4.0981.5248,4.1691,4.1691,0,0,1,1.9814,1.6984,5.2457,5.2457,0,0,1,.7253,2.8127,4.7232,4.7232,0,0,1-.9494,3.019A4.925,4.925,0,0,1,6.7812,62.504a14.8123,14.8123,0,0,1-3.4791.2712v7.3472H0Zm3.3021,6.7811h1.05a5.6777,5.6777,0,0,0,1.722-.1773,1.5322,1.5322,0,0,0,.7606-.5856,1.718,1.718,0,0,0,.2771-.9881,1.58,1.58,0,0,0-.7783-1.4674,4.44,4.44,0,0,0-2.0992-.343H3.3021Z"/>
    <path d="M13.014,52.7744h3.4986a11.5657,11.5657,0,0,1,4.0935.513,4.1963,4.1963,0,0,1,1.9613,1.7042A5.2218,5.2218,0,0,1,23.31,57.81a4.8028,4.8028,0,0,1-.82,2.86A4.9733,4.9733,0,0,1,20.02,62.41l4.11,7.7128h-3.61l-3.9009-7.3472h-.3022v7.3472H13.014Zm3.3023,6.7811h1.0346a4.042,4.042,0,0,0,2.1691-.4139,1.5548,1.5548,0,0,0,.5937-1.3727,1.6793,1.6793,0,0,0-.294-.9879,1.6311,1.6311,0,0,0-.7876-.6035,5.97,5.97,0,0,0-1.8105-.1834h-.9053Z"/>
    <path d="M32.8062,52.7744H36.155l6.6723,17.348H39.3955l-1.3574-3.5733H30.9594L29.548,70.1224H26.1162Zm1.6951,4.5995-2.3276,5.9555H36.815Z"/>
    <path d="M60.0967,55.6048l-2.3255,2.3A6.874,6.874,0,0,0,52.625,55.57a5.8814,5.8814,0,0,0-4.2907,1.6982,5.5683,5.5683,0,0,0-1.7292,4.1277A5.7132,5.7132,0,0,0,48.4,65.6528a6.1034,6.1034,0,0,0,4.4272,1.7454,5.4321,5.4321,0,0,0,2.8867-.7194,5.064,5.064,0,0,0,1.8948-2.2525H52.5843V61.3246h8.7271l.0234.7312a8.4948,8.4948,0,0,1-1.1792,4.3163,8.2442,8.2442,0,0,1-3.0545,3.1135,8.7061,8.7061,0,0,1-4.3989,1.0732,9.7682,9.7682,0,0,1-4.8175-1.1735,8.5825,8.5825,0,0,1-3.3494-3.3433A9.3233,9.3233,0,0,1,43.3029,61.36a8.701,8.701,0,0,1,2.2762-5.991,8.9726,8.9726,0,0,1,7.0287-3.0309,10.7108,10.7108,0,0,1,4.2339.8374A9.7107,9.7107,0,0,1,60.0967,55.6048Z"/>
    <path d="M65.8452,52.7744h3.2173l4.0215,12.1,4.058-12.1h3.2154l2.91,17.348H80.0742l-1.86-10.9559L74.5287,70.1224h-2.91L67.9657,59.1665,66.061,70.1224h-3.22Z"/>
    <path d="M91.9515,52.7744H95.3l6.6722,17.348H98.5409l-1.3575-3.5733H90.1047l-1.4114,3.5733H85.2616Zm1.6952,4.5995L91.319,63.3294H95.96Z"/>
    <path d="M101.6193,52.7744h9.588v3.2549h-3.1606V70.1224h-3.3492V56.0293h-3.0782Z"/>
    <path d="M113.7913,52.7744H117.07v17.348h-3.2784Z"/>
    <path d="M136.4844,55.8232l-2.31,2.2017a7.1509,7.1509,0,0,0-5.3024-2.4909,5.8105,5.8105,0,0,0-5.8914,5.8909,6.1961,6.1961,0,0,0,.7539,3.0811,5.4039,5.4039,0,0,0,2.1328,2.113,6.1913,6.1913,0,0,0,3.0636.7674,6.3129,6.3129,0,0,0,2.6277-.5372,9.4169,9.4169,0,0,0,2.6158-1.9536l2.2388,2.336a12.2919,12.2919,0,0,1-3.6324,2.6017,9.9184,9.9184,0,0,1-3.9036.7255,8.9858,8.9858,0,0,1-6.6219-2.565,8.88,8.88,0,0,1-2.577-6.5748,8.9977,8.9977,0,0,1,1.1735-4.6112,8.7254,8.7254,0,0,1,3.3612-3.2433,9.4792,9.4792,0,0,1,4.7113-1.2265,10.0019,10.0019,0,0,1,7.56,3.4852Z"/>
    <path d="M147.6067,53.1265h3.4314a11.2933,11.2933,0,0,1,4.0151.5143,4.086,4.086,0,0,1,1.941,1.6638,5.14,5.14,0,0,1,.71,2.7555,4.627,4.627,0,0,1-.93,2.9578,4.8242,4.8242,0,0,1-2.5245,1.6407,14.5077,14.5077,0,0,1-3.4083.2656v7.1982h-3.2351Zm3.2351,6.6436H151.87a5.5563,5.5563,0,0,0,1.6869-.1739,1.5,1.5,0,0,0,.7452-.5736,1.6834,1.6834,0,0,0,.2715-.968,1.5474,1.5474,0,0,0-.7625-1.4375,4.3473,4.3473,0,0,0-2.0566-.3363h-.9127Z"/>
    <path d="M159.7906,53.1265h3.2351V67.0374h4.714v3.085h-7.9491Z"/>
    <path d="M176.1637,53.1265h3.281l6.5368,16.9959h-3.3621l-1.33-3.5009h-6.935l-1.3827,3.5009H169.61Zm1.6607,4.5062-2.28,5.8347h4.5468Z"/>
    <path d="M183.6022,53.1265h3.4732L190.246,59.24l3.1559-6.1139h3.4294l-4.9739,9.6362v7.36h-3.2582v-7.36Z"/>
    <path d="M215.0521,59.245l-.6457-3.8033L213.127,59.245h-1.01l-1.268-3.8033-.6612,3.8033H209.07l1.0427-6.0223H211.23l1.396,4.2,1.4087-4.2H215.15l1.01,6.0223Zm-7.407,0h-1.1627V54.3527h-1.0685v-1.13h3.3284v1.13h-1.0972Z" style="fill-rule: evenodd"/>
    </g>
    <path d="M176.0781,36.5587c-10.1559.6312-5.5961,13.8585,5.6333,13.16C192.693,49.0367,186.9024,35.8859,176.0781,36.5587Z"/>
    <path d="M171.7885,28.3869A32.7291,32.7291,0,1,0,204.5176,61.116,32.7291,32.7291,0,0,0,171.7885,28.3869Zm0,62.0137A29.2846,29.2846,0,1,1,201.0731,61.116,29.2846,29.2846,0,0,1,171.7885,90.4006Z"/>
    <path d="M170.8033,5.5437a16.6179,16.6179,0,0,0-6.4189,14.8781S159.5005,7.747,153.1612,0c-.8568,9.9735,2.2707,23.1918,2.2707,23.1918a16.6177,16.6177,0,0,0-13.7-8.6535c8.07,4.6439,11.1984,12.995,11.9146,15.2359a32.5485,32.5485,0,0,1,15.9577-4.83C168.9669,22.8561,166.7046,14.0614,170.8033,5.5437Z"/>
</svg>

