<svg xmlns="http://www.w3.org/2000/svg" fill="currentColor" viewBox="0 0 600 144"><path d="M455 0c2.227.536 4.488.958 6.674 1.627 11.36 3.475 19.711 10.708 21.895 22.366a77.662 77.662 0 0 1 .34 26.664c-2.469 14.681-15.577 24.31-30.5 24.34-7.159.015-14.32.09-21.478-.028-6.562-.107-10.836-3.937-10.734-9.345.098-5.2 4.246-8.686 10.667-8.766 6.826-.085 13.654.026 20.48-.035 8.432-.074 13.863-4.956 14.473-13.3a80.104 80.104 0 0 0-.074-12.47c-.599-7.153-6.055-12.058-13.367-12.185-7.324-.126-14.656.109-21.976-.094-5.421-.15-9.008-3.178-9.739-7.616-.806-4.9 1.541-8.316 7.098-10.38A7.073 7.073 0 0 0 430 0zM600 121c-1.952 3.982-4.88 6.918-9.51 6.852-4.798-.068-7.168-3.601-9.055-7.529q-25.292-52.625-50.6-105.242c-2.891-6.027-1.38-11.322 3.568-13.645 5.08-2.385 9.806-.438 12.837 5.85q25.994 53.942 51.813 107.969c.286.596.63 1.164.947 1.745zM169 0c7.968 3.345 8.909 4.812 8.91 13.925q.001 50.231-.027 100.462a27.282 27.282 0 0 1-.656 6.907c-1.062 3.998-5.534 6.813-9.596 6.448a8.439 8.439 0 0 1-7.655-8.44c-.23-9.993-.27-19.99-.285-29.987-.041-25.323.146-50.649-.15-75.97C159.46 6.622 161.44 2.088 168 0zM0 94c2.027-2.055 3.722-4.734 6.153-6.03 4.734-2.526 10.35.362 11.824 5.55a34.133 34.133 0 0 1 .619 3.941c1.218 7.61 6.268 11.927 13.68 11.701 6.772-.207 11.73-5.14 12.746-12.392a13.698 13.698 0 0 1 1.92-6.01 8.2 8.2 0 0 1 9.712-3.262c3.99 1.322 6.402 4.073 6.505 8.486.193 8.23-2.987 15.23-8.082 21.603 2.029 3.749 4.047 7.38 5.973 11.058C64.91 136.023 63.93 139.664 57 144h-6c-3.068-4.235-6.475-8.274-9.09-12.773-1.822-3.138-3.543-4.41-7.36-4.03a31.417 31.417 0 0 1-33.387-24.073C.84 101.734.391 100.374 0 99zM331 0c7.354 5.866 7.898 9.65 2.346 17.57q-22.608 32.252-45.28 64.46a29.188 29.188 0 0 1-2.127 2.764c-3.345 3.718-8.339 4.49-12.102 1.918a9.015 9.015 0 0 1-2.574-12.355c1.781-2.992 3.872-5.804 5.882-8.656C291.03 46.005 304.87 26.275 318.9 6.682 320.756 4.09 323.609 2.21 326 0zM378 0c8.254 2.318 16.532 5.068 21.166 12.812a56.906 56.906 0 0 1 6.443 16.46 9.286 9.286 0 0 1-8.023 11.678c-5.353.593-9.07-2.82-10.104-9.28-1.293-8.073-6.21-12.975-13.18-13.143-7.052-.17-12.094 4.547-13.524 12.653-1.187 6.723-5.244 10.35-10.532 9.414-5.586-.987-8.423-5.42-7.442-12.05 1.943-13.148 8.887-22.31 21.67-26.712C366.01 1.302 367.492.615 369 0zM230 0c2.013.66 4.047 1.262 6.034 1.991 12.793 4.693 19.92 13.896 21.42 27.374.73 6.562-2.483 10.868-8.167 11.512-5.294.6-9.061-2.9-10.055-9.342-1.255-8.135-5.715-12.574-12.756-12.694-7.232-.124-12.334 4.14-13.496 11.292-.107.655-.092 1.33-.208 1.983-1.043 5.853-5.215 9.435-10.155 8.739-5.44-.766-8.523-5.125-7.979-11.277 1.218-13.759 10.453-24.558 24.273-28.423C219.966.86 220.971.389 222 0zM34 0c3.143.938 6.416 1.575 9.406 2.867C55.455 8.075 62.187 17.25 63.005 30.443c.37 5.962-3.047 10.092-8.21 10.48-5.028.38-9.009-3.324-9.823-9.14-1.243-8.88-7.149-13.953-15.042-12.922-6.067.793-9.807 4.36-11.099 10.429-.514 2.413-.781 5.043-1.96 7.121C13.14 42.994 6.078 42.316 0 35v-6c2.518-5.654 4.406-11.712 7.704-16.867C12.513 4.618 20.822 2.18 29 0zM136 0c5.473 2.465 6.907 6.969 6.877 12.595-.118 22.328-.049 44.658-.049 66.987v5.285c-6.235-3.09-12.106-4.245-18.334.28-.144-2.224-.31-3.61-.31-4.998-.017-22.496.089-44.992-.083-67.487C124.057 6.934 125.799 2.643 131 0zM600 103c-3.329-6.389-6.329-12.977-10.059-19.122-6.778-11.17-9.077-23.05-8.262-36.038.716-11.408.393-22.903.049-34.345C581.553 7.695 583.066 3.182 588 0h12zM280 0c6.078 2.356 8.676 6.722 7.877 13.233a20.648 20.648 0 0 0 .015 6.469c3.822 18.977-6.435 32.515-18.171 46.421-.093-2.103-.217-3.613-.218-5.122-.014-15.799.143-31.6-.084-47.394-.09-6.225 1.583-11 7.581-13.607zM0 43c5.7 3.123 11.476 4.54 17.995.055v41.6C11.701 80.625 5.783 81.57 0 85zM514.893 64.528q0 25.23-.008 50.46a23.825 23.825 0 0 1-.23 4.977c-.986 4.551-3.915 7.328-8.528 7.884-4.003.483-8.064-2.615-9.274-6.87a18.23 18.23 0 0 1-.582-4.916q-.047-51.96-.012-103.919a20.253 20.253 0 0 1 .292-3.97A9.058 9.058 0 0 1 505.727.61c4.677.11 8.014 3.086 8.769 7.972a29.644 29.644 0 0 1 .17 4.486q.016 25.73.007 51.46zM530.403 25.49c5.584 11.813 11.219 23.602 16.684 35.47.654 1.421.527 3.265.53 4.914q.052 24.976.003 49.953a24.393 24.393 0 0 1-.424 4.956c-.957 4.541-4.13 6.875-8.499 7.067-4.245.188-7.213-2.249-8.71-6.195a12.682 12.682 0 0 1-.711-4.4q-.06-45.702-.03-91.402zM374.519 127.834c-16.793.07-31.311-13.799-31.68-30.262-.132-5.914 3.12-10.007 8.34-10.498 4.974-.468 8.943 3.288 9.727 9.206 1.076 8.128 5.965 13.088 12.979 13.165 7.17.08 12.12-4.547 13.523-12.642 1.167-6.728 5.119-10.293 10.466-9.44 5.647.9 8.728 5.795 7.8 12.392-2.305 16.4-15.19 28.013-31.155 28.079zM143.285 97.308c-1.454 16.844-16.176 30.799-32.6 30.524-16.68-.278-31.155-14.658-31.16-30.952 0-5.23 3.261-9.146 8.133-9.765 4.713-.599 8.73 2.658 9.772 7.928.065.326.091.66.145.987 1.438 8.743 6.187 13.538 13.28 13.412 7.307-.13 11.92-4.87 13.174-13.536 1.068-7.374 8.336-11.48 13.736-7.256 2.542 1.988 3.722 5.717 5.52 8.658zM257.656 97.452c-.962 16.27-15.127 30.212-31.215 30.382-16.637.175-31.099-13.418-31.6-29.702-.197-6.396 2.861-10.538 8.164-11.055 5.202-.508 9.049 3.236 9.856 9.595 1.117 8.8 7.091 13.635 15.336 12.414 6.07-.9 10.152-5.587 10.908-12.975.461-4.506 2.625-7.532 6.905-8.744a8.104 8.104 0 0 1 9.554 3.636c1.177 1.844 1.425 4.28 2.092 6.45zM97.64 85.017c-6.295-3.921-11.85-3.6-17.612-.283-.173-1.567-.4-2.67-.401-3.772q-.029-34.929.01-69.858c.014-6.43 3.022-10.07 8.26-10.423 5.806-.392 9.573 3.327 9.69 10.067.164 9.478.05 18.96.052 28.442.002 14.944 0 29.888 0 45.827zM309.89 59.578c3.59 7.53 6.864 14.363 10.109 21.211 5.113 10.794 10.257 21.573 15.288 32.404 2.832 6.098 1.37 11.315-3.593 13.62-5.021 2.335-9.893.184-12.823-5.895-6.55-13.595-13.1-27.193-19.374-40.917a7.611 7.611 0 0 1 .458-6.12c2.863-4.765 6.311-9.179 9.935-14.303z"/><path d="M351.923 47.9l15.352-9.95 30.618 43.91c-7.005.616-12.068 3.536-14.851 10.518L351.922 47.9zM421.166 78.513l18.34 2.138c0 4.613.003 9.559 0 14.505-.004 7.477.13 14.958-.062 22.43-.16 6.262-4.001 10.074-9.461 9.884-5.265-.182-8.758-4.024-8.793-10.028-.077-13.115-.024-26.231-.024-38.93zM195.19 43.519c5.79 3.516 11.503 3.395 17.507-.248v41.68c-5.69-3.576-11.404-3.942-17.506-.178zM45.365 84.712V43.26c5.933 3.543 11.642 3.71 17.562-.095v41.643c-5.805-3.7-11.498-3.671-17.562-.095zM269.863 90.512c6.064 3.282 11.625 3.61 17.49-.057a10.197 10.197 0 0 1 .617 2.285c.038 8.495.105 16.992 0 25.487-.07 5.582-3.826 9.402-8.911 9.398a8.922 8.922 0 0 1-9.15-9.189c-.168-9.112-.046-18.23-.046-27.924zM421.173 53.33V22.157l17.692 2.368v26.666z"/></svg>
