<svg xmlns="http://www.w3.org/2000/svg" viewBox="0 0 185.8707 66.3622" fill="currentColor"><path d="M36.193 52.55a13.734 13.734 0 0 1-1.788-2.321 6.154 6.154 0 0 1-.896-2.333 4.982 4.982 0 0 1 .177-2.264 7.263 7.263 0 0 1 .911-1.94 13.869 13.869 0 0 1 2-2.425 25.73 25.73 0 0 1 1.944-1.727c.281-.218.54-.419.796-.608l7.325 23.408s-9.063-8.297-10.469-9.79m-6.032-22.961c1.591-5.002 3.464-11.244 3.83-12.565.268 1.7 1.315 6.75 2.202 10.728a32.737 32.737 0 0 0-6.032 1.837m13.431 7.143c3.403-2.163 5.372-3.672 8.301-5.403.34-.2.281-.385-.082-.239a63.19 63.19 0 0 0-8.61 4.227s-1.028-2.623-2.19-6.885c2.691-.304 4.21-.089 3.793-.253a12.2 12.2 0 0 0-4.078-.812 93.335 93.335 0 0 1-2.762-15.946 36.796 36.796 0 0 1 .35-8.67c-.169-.007-.123.189-.613-.16-1.747-1.246-3.442-3.924-4.923-1.796.822 2.927-.296 7.607-.835 10.587a152.338 152.338 0 0 1-5.764 20.065 46.633 46.633 0 0 0-6.273 3.96s1.19-3.192-6.153-9.867c-7.323-6.685-6.482-10.482-5.97-11.977.518-1.496 6.091-8.343 7.26-5.604a7.726 7.726 0 0 1-2.1 2.869c-1.676 1.534-2.376 4.427.348 2.519 2.711-1.903 7.016-5.593 7.016-5.593 2.957-3.18 2.041-7.634-.119-7.728C18.03-.08 9.333 3.15 3.23 11.241c-6.104 8.105.725 13.85 4.053 16.977s8.936 7.473 5.98 9.41c-1.984 1.302-.396 2.415-.267 2.593.127.191-2.206 4.567-5.943 4.168-1.674-.18 1.218-1.896 1.998-2.424.785-.516 4.205-2.983 1.363-2.867-.853.027-12.367 5.267-10.124 9.103 2.251 3.843 10.31.692 16.18-5.967a33.04 33.04 0 0 1 8.456-7.22 40.382 40.382 0 0 1-2.913 6.06c2.688 1.177 5.038-3.119 5.978-5.134.246-.53.722-1.893 1.305-3.666a31.796 31.796 0 0 1 7.245-2.98c.367 1.605.677 2.881.846 3.44.29.986.657 2.19 1.102 3.598.085.295.193.598.285.913-.372.235-.796.494-1.26.813-.662.475-1.42 1.005-2.227 1.696a15.937 15.937 0 0 0-2.477 2.64 9.676 9.676 0 0 0-1.35 2.455 7.592 7.592 0 0 0-.457 3.33 8.96 8.96 0 0 0 1.077 3.444 16.24 16.24 0 0 0 2.002 2.89c1.321 1.573 8.26 8.035 10.008 9.425 0 0 2.655 3.371 5.301 2.162a4.504 4.504 0 0 0 2.337-6.055c-3.002-7.72-8.135-23.313-8.135-23.313"/><path d="M49.88 26.697c-.96-.19-1.766.155-1.798.786-.025.622.752 1.306 1.743 1.505.991.197 3.253-.166 3.26-.802-.013-.62-2.256-1.285-3.206-1.49"/><g><path d="M81.81 37.252a13.046 13.046 0 0 1-2.803.958 16.145 16.145 0 0 1-3.51.343 10.19 10.19 0 0 1-3.714-.651 8.497 8.497 0 0 1-2.885-1.82 8.273 8.273 0 0 1-1.879-2.79 9.227 9.227 0 0 1-.674-3.583 9.072 9.072 0 0 1 .698-3.63 8.078 8.078 0 0 1 1.915-2.754 8.525 8.525 0 0 1 2.872-1.75 10.268 10.268 0 0 1 3.595-.614 11.142 11.142 0 0 1 3.676.579 7.499 7.499 0 0 1 2.684 1.525l-2.057 2.223a5.074 5.074 0 0 0-1.785-1.206 6.213 6.213 0 0 0-2.495-.497 5.905 5.905 0 0 0-2.4.473 5.375 5.375 0 0 0-1.832 1.3 5.877 5.877 0 0 0-1.17 1.94 6.851 6.851 0 0 0-.414 2.41 7.09 7.09 0 0 0 .413 2.472 5.75 5.75 0 0 0 1.183 1.95 5.321 5.321 0 0 0 1.868 1.29 6.402 6.402 0 0 0 2.494.46 8.63 8.63 0 0 0 3.334-.59v-4.257h-3.523v-2.458h6.408zM98.904 31.743l-2.577-6.81-2.625 6.81zm-3.783-10.357h2.577l7.212 16.741h-3.405l-1.56-3.83h-7.259l-1.514 3.83h-3.334zM111.011 21.386h4.658l4.351 11.894h.071l4.303-11.894h4.682v16.741h-2.956V24.673h-.047l-5.084 13.454h-2.081l-5.012-13.454h-.048v13.454h-2.837V21.386zM137.209 21.386h2.98v16.741h-2.98zM148.322 21.386h3.949l7.779 12.532h.047V21.386h2.98v16.741h-3.783l-7.945-12.934h-.048v12.934h-2.979V21.386zM185.87 37.252a13.027 13.027 0 0 1-2.801.958 16.145 16.145 0 0 1-3.511.343 10.194 10.194 0 0 1-3.713-.651 8.483 8.483 0 0 1-2.884-1.82 8.261 8.261 0 0 1-1.88-2.79 9.227 9.227 0 0 1-.674-3.583 9.072 9.072 0 0 1 .698-3.63 8.078 8.078 0 0 1 1.915-2.754 8.52 8.52 0 0 1 2.873-1.75 10.259 10.259 0 0 1 3.594-.614 11.137 11.137 0 0 1 3.676.579 7.499 7.499 0 0 1 2.684 1.525l-2.057 2.223a5.074 5.074 0 0 0-1.785-1.206 6.213 6.213 0 0 0-2.495-.497 5.908 5.908 0 0 0-2.4.473 5.375 5.375 0 0 0-1.832 1.3 5.877 5.877 0 0 0-1.171 1.94 6.851 6.851 0 0 0-.413 2.41 7.09 7.09 0 0 0 .413 2.472 5.75 5.75 0 0 0 1.183 1.95 5.321 5.321 0 0 0 1.868 1.29 6.402 6.402 0 0 0 2.494.46 8.63 8.63 0 0 0 3.334-.59v-4.257h-3.523v-2.458h6.408z"/></g></svg>
