<svg xmlns="http://www.w3.org/2000/svg" fill="currentColor" viewBox="0 0 523.27723 333.94769"><path d="M397.262 276.193l23.94 5.51c-4.745 25.359-37.776 50.36-68.277 52.11a79.408 79.408 0 0 1-80.587-54.77c-11.146-34.563 2.564-77.264 42.028-96.571-12.033-8.284-19.828-19.3-21.912-33.658-2.086-14.366 1.635-27.373 11.338-39.022-9.272-4.88-18.042-9.547-26.89-14.063a4.054 4.054 0 0 0-3.164.296c-10.04 5.21-20.028 10.522-30.292 15.944 3.335 15.962.57 30.58-10.013 43.136-10.474 12.428-24.176 17.773-40.966 16.982l8.946 45.116-33.335 6.773-9.139-45.061c-4.288 27.55-17.564 48.952-42.031 62.731a75.64 75.64 0 0 1-48.76 9.01 78.746 78.746 0 0 1-67.58-69.024c-4.225-35.796 15.216-71.397 54.571-85.334-5.455-25.714 1.854-46.39 26.195-58.28 18.305-8.943 36.333-5.938 51.66 7.444 14.677 12.813 19.074 29.4 14.744 49.132l-32.467-7.987c0-2.075.038-3.714-.006-5.352a13.898 13.898 0 1 0-19.612 12.993 26.35 26.35 0 0 0 3.763 1.3c21.44 6.005 37.586 18.771 48.664 38.034.479.831 1.078 1.593 1.938 2.852-5.954-30.856 11.722-50.392 29.104-57.266 17.942-7.096 44.566-4.37 61.294 23.706 1.325-7.373 2.092-14.063 3.806-20.5 1.787-6.717.168-11.275-5.112-16.017-7.767-6.976-14.5-15.103-21.763-22.834 7.255-1.099 15.207-3.237 23.175-3.297 12.53-.095 20.02-5.237 24.025-17.233 2.59-7.757 7.121-14.866 11.142-22.993 5.778 11.712 11.26 22.538 16.439 33.508 1.442 3.054 3.198 4.425 6.622 4.84 10.575 1.284 21.096 3.003 31.636 4.57 1.437.213 2.86.524 3.236.594-7.608 8.175-15.153 16.813-23.32 24.814-3.552 3.479-4.595 6.603-3.527 11.348 1.673 7.432 2.664 15.017 4.025 23.01a20.32 20.32 0 0 0 2.421-1.132 46.749 46.749 0 0 1 33.32-7.56c2.896.41 4.6-.3 6.214-2.68 2.505-3.696 5.373-7.146 8.448-11.173l26.602 20.25c-.136.67-.087 1.11-.28 1.284-7.612 6.868-9.179 14.266-2.763 22.997 1.67 2.272 1.86 5.63 2.953 9.22 7.487-18.701 19.96-31.938 38.446-38.605 18.385-6.63 36.45-5.09 53.44 4.74a63.8 63.8 0 0 1 24.282 85.189c-15.47 28.995-54.551 45.57-90.942 23.575l11.376 23.653c-8.578-1.094-15.73-2.44-22.93-2.798-6.645-.33-10.924-3.051-15.22-8.244-12.28-14.847-33.396-18.447-53.05-9.886-4.387 1.91-8.502 4.443-13.222 6.943l-14.787-20.61c-3.17 3.669-6.122 6.95-8.926 10.352-21.061 25.559-21.03 63.528.043 89.061 15.487 18.764 37.725 25.104 60.687 17.004 18.716-6.602 32.073-19.148 40.35-38.07zm-320.236-48.87a50.767 50.767 0 0 0 38.224-16.996c16.169-18.119 22.292-46.094 1.432-67.008a55.218 55.218 0 0 0-25.727-14.6c-11.86-3.07-21.795-9.097-28.694-19.374-1.946-2.9-3.74-2.45-6.23-1.37-18.784 8.158-32.26 21.51-39.468 40.778-9.55 25.533-3.05 49.826 17.478 65.3 11.649 8.78 24.94 13.068 42.984 13.27zM447.84 125.734a29.436 29.436 0 0 0-29.513 29.517 29.465 29.465 0 0 0 58.93.064 29.361 29.361 0 0 0-29.417-29.58zm-251.084-15.726a13.931 13.931 0 0 0-13.815 13.517c-.092 8.204 5.87 14.418 13.843 14.429a13.71 13.71 0 0 0 13.804-13.935 13.936 13.936 0 0 0-13.832-14.01zm129.34 31.432a14.005 14.005 0 0 0 13.672 14.194 14.199 14.199 0 0 0 14.114-13.863 13.888 13.888 0 0 0-13.792-14.036 13.602 13.602 0 0 0-13.993 13.705zm66.869 47.719l-9.256-26.502-12.017 15.928z"/><path d="M292.597 250.786l2.36-14.58c12.571 0 24.557-.374 36.513.065a788.518 788.518 0 0 1 148.277 19.723c8.993 2.07 15.498 6.877 17.665 16.21 1.744 7.508-2.03 13.15-9.648 13.767a33.218 33.218 0 0 1-13.254-1.286c-57.66-20.086-117.118-30.457-177.966-33.541-.976-.05-1.948-.174-3.947-.358zM276.785 214.143l-33.742-3.62c.839-8.533 1.599-16.756 2.463-24.968 2.284-21.695 4.74-43.373 6.82-65.087.448-4.66 1.977-7.735 6.45-9.362a22.912 22.912 0 0 0 6.172-3.244c6.68-5.177 13.03-4.85 19.706.146 2.08 1.556 3.217 2.602 2.9 5.464-3.064 27.64-5.941 55.301-8.874 82.956-.61 5.755-1.23 11.508-1.895 17.715zM14.847 293.545c77.146-33.604 158.076-50.893 242.627-56.465l-1.354 13.407c-82.776 1.373-163.306 15.102-241.273 43.058zM523.276 86.673a14.249 14.249 0 1 1-14.07-14.536 14.365 14.365 0 0 1 14.07 14.536zm-14.394-12.93a12.78 12.78 0 1 0 .299 25.56 12.78 12.78 0 1 0-.299-25.56z"/><path d="M505.263 90.604V80.582h4.443a5.91 5.91 0 0 1 2.038.27 2.228 2.228 0 0 1 1.114.954 2.846 2.846 0 0 1 .417 1.51 2.52 2.52 0 0 1-.69 1.798 3.495 3.495 0 0 1-2.133.93 3.426 3.426 0 0 1 .8.5 6.89 6.89 0 0 1 1.1 1.332l1.743 2.728h-1.668l-1.326-2.085q-.58-.903-.957-1.381a3.006 3.006 0 0 0-.673-.67 1.998 1.998 0 0 0-.605-.267 3.998 3.998 0 0 0-.739-.048h-1.538v4.45zm1.326-5.599h2.85a4.271 4.271 0 0 0 1.423-.188 1.513 1.513 0 0 0 .779-.601 1.627 1.627 0 0 0 .267-.9 1.492 1.492 0 0 0-.517-1.168 2.416 2.416 0 0 0-1.63-.458h-3.172z"/></svg>
