<svg data-name="Layer 1" xmlns="http://www.w3.org/2000/svg" viewBox="0 0 400 400" fill="currentColor"><title>Spinomenal</title><path d="M41.4 5H193c45.9 1.3 77.7 17.8 104.4 39.5 26.7 21.7 49.7 45.9 62.4 80.2v1.3c-7.6-2.5-12.7-7.6-20.4-10.2-6.4-3.8-14-6.4-22.9-8.9-24.2-7.6-57.3-6.4-87.9-6.4h-93v23h146.5c16.6 0 31.8-1.3 45.9 2.5 16.6 5.1 28.9 17.3 31.5 34.5.2 1.3.2 1.9.4 3.8v172s.1.6-1.3 1.3c-2.3 1.1-8.9 1.3-12.7 1.3H249c-36.9 0-72.6 1.3-99.4-11.5-25.5-10.2-48.4-25.5-66.2-43.3C65.6 265 49 244.6 40.1 217.9c7.3 4.1 12.5 6.6 20.4 10.2 6.4 3.8 14 6.4 22.9 8.9 24.2 7.6 57.3 6 87.9 6h93v-24H105.1c-17.8 0-34.4 0-44.6-7.6-8.9-6.4-16.3-16.3-19.4-28-.7-2.6-1-4.6-.9-6.4V7.5c-.1-1.2 1.2-1.2 1.2-2.5zM56.3 387.9c-2.6 0-4.9-.2-6.9-.7-2-.5-3.6-1.2-5-2-1.3-.9-2.4-1.9-3.1-3.2-.7-1.2-1.1-2.6-1.2-4.2h2.8c.3 1.5.8 2.7 1.6 3.7s1.7 1.8 2.9 2.4c1.1.6 2.5 1 3.9 1.2 1.5.2 3 .4 4.7.4 1.7 0 3.3-.2 4.7-.5 1.4-.3 2.6-.8 3.6-1.4 1-.6 1.7-1.3 2.3-2.2.5-.8.8-1.8.8-2.8 0-1.1-.2-2-.7-2.8-.5-.8-1.2-1.4-2.3-2-1.1-.6-2.5-1.1-4.2-1.5-1.7-.4-3.9-.9-6.5-1.4-2.1-.4-4-.9-5.5-1.4-1.5-.5-2.8-1.1-3.8-1.8s-1.7-1.5-2.2-2.4c-.5-.9-.7-1.9-.7-3.1 0-1.3.3-2.5 1-3.6.6-1.1 1.5-2 2.7-2.8 1.2-.8 2.6-1.4 4.2-1.8 1.6-.4 3.5-.6 5.5-.6s3.8.2 5.5.6c1.7.4 3.1 1 4.4 1.7 1.2.7 2.3 1.7 3 2.7.8 1.1 1.3 2.3 1.5 3.6h-2.7c-.3-.9-.7-1.7-1.3-2.5-.6-.8-1.4-1.4-2.3-2-.9-.6-2.1-1-3.3-1.3-1.3-.3-2.8-.5-4.4-.5-3.5 0-6.1.5-7.9 1.6-1.8 1.1-2.7 2.6-2.7 4.5 0 .9.2 1.6.5 2.3.3.6.9 1.2 1.7 1.7.8.5 1.8 1 3.1 1.4 1.3.4 2.9.8 4.9 1.1 1.1.2 2.3.4 3.5.6 1.2.2 2.4.5 3.5.8 1.1.3 2.2.7 3.3 1.1 1 .4 1.9 1 2.7 1.6.8.6 1.4 1.4 1.8 2.3.5.9.7 2 .7 3.2 0 1.4-.3 2.7-1 3.9-.7 1.2-1.7 2.2-2.9 3.1-1.2.9-2.7 1.5-4.4 2-1.9.7-3.8 1-5.8 1zM120.2 385.9h-2.3v-25.8h2.3v25.8zm0-32.3h-2.3v-4.2h2.3v4.2zM135.8 363.2c.9-1.1 1.9-1.9 2.8-2.5.9-.6 1.8-1.1 2.6-1.4.9-.3 1.7-.5 2.4-.6.8-.1 1.5-.1 2.2-.1 5.8 0 8.6 3.2 8.6 9.7V386h-2.9v-17.4c0-1.2-.1-2.3-.3-3.2-.2-.9-.6-1.7-1.1-2.2-.5-.6-1.2-1-2-1.3-.8-.3-1.8-.4-3.1-.4-1.6 0-3.1.4-4.7 1.3-1.5.9-3 2.2-4.5 3.8v19.5h-2.9v-26.7h2.9v3.8zM239.4 385.9h-2.8v-17.4c0-2.5-.4-4.4-1.2-5.5-.8-1.1-2.2-1.7-4.2-1.7-1.5 0-2.9.5-4.3 1.4-1.4.9-2.7 2.2-4 3.8v19.4h-2.8v-17.4c0-1.3-.1-2.4-.3-3.3-.2-.9-.5-1.7-.9-2.2-.4-.6-1-1-1.6-1.3-.7-.3-1.5-.4-2.5-.4-1.4 0-2.8.5-4.1 1.4-1.3.9-2.6 2.2-4 3.8v19.4h-2.8v-26.7h2.8v4c.9-1 1.8-1.9 2.6-2.5.8-.6 1.6-1.1 2.3-1.4.7-.3 1.4-.5 2.1-.6.7-.1 1.3-.2 1.9-.2 1.7 0 3.2.4 4.4 1.2 1.2.8 2.1 2 2.7 3.7.7-1 1.4-1.8 2.2-2.4.8-.6 1.5-1.1 2.3-1.5.8-.4 1.6-.6 2.4-.8.8-.1 1.6-.2 2.3-.2 4.9 0 7.4 3.2 7.4 9.7v17.7zM265.3 385.9c-2.1 0-4.1-.3-5.8-.9-1.7-.6-3.2-1.5-4.5-2.7-1.3-1.2-2.2-2.6-2.9-4.3-.7-1.7-1-3.6-1-5.8 0-2.1.3-4 1-5.7.7-1.7 1.6-3.1 2.8-4.3 1.2-1.2 2.7-2.1 4.3-2.7 1.7-.6 3.5-.9 5.6-.9 2.1 0 4 .3 5.7.9 1.7.6 3.1 1.5 4.3 2.7 1.2 1.2 2.1 2.6 2.7 4.3.6 1.7 1 3.6 1 5.7v.6h-24.2c.2 1.8.5 3.3 1.2 4.6.6 1.3 1.4 2.4 2.4 3.2 1 .9 2.1 1.5 3.4 1.9 1.3.4 2.7.6 4.2.6 1.1 0 2.1-.1 3.2-.3 1.1-.2 2-.5 2.9-1 .9-.4 1.6-1 2.2-1.6.6-.6.9-1.3 1-2.1h3.1c-.3 1.2-.8 2.3-1.5 3.3s-1.7 1.8-2.7 2.4c-1.1.7-2.3 1.2-3.7 1.5-1.7.4-3.1.6-4.7.6zm9.9-15.8c-.5-3-1.7-5.2-3.6-6.7s-4.2-2.2-6.9-2.2c-1.3 0-2.6.2-3.8.5-1.2.4-2.2.9-3.1 1.6s-1.7 1.7-2.3 2.8c-.6 1.1-1.1 2.4-1.3 3.9h21zM289.2 363.2c1-1.1 2-1.9 3-2.5 1-.6 2-1.1 2.9-1.4.9-.3 1.8-.5 2.7-.6.8-.1 1.6-.1 2.4-.1 6.3 0 9.5 3.2 9.5 9.7V386h-3.2v-17.4c0-1.2-.1-2.3-.4-3.2-.3-.9-.7-1.7-1.2-2.2-.6-.6-1.3-1-2.2-1.3-.9-.3-2-.4-3.4-.4-1.7 0-3.5.4-5.1 1.3-1.7.9-3.3 2.2-5 3.8v19.5H286v-26.7h3.2v3.8zM359.9 385.9h-2.2v-36.5h2.2v36.5zM342.5 358.5v6.5c-2.2-3.9-6.2-6.5-10.7-6.5-7 0-12.6 6.1-12.6 13.7s5.6 13.7 12.6 13.7c4.5 0 8.5-2.6 10.7-6.5v6.5h2.3v-27.4h-2.3zm-10.7 24.4c-5.4 0-9.8-4.8-9.8-10.7 0-5.9 4.4-10.7 9.8-10.7s9.8 4.8 9.8 10.7c.1 5.9-4.4 10.7-9.8 10.7zM179.7 361.5c5.9 0 10.7 4.8 10.7 10.7s-4.8 10.7-10.7 10.7-10.7-4.8-10.7-10.7 4.8-10.7 10.7-10.7m0-3c-7.6 0-13.7 6.1-13.7 13.7s6.1 13.7 13.7 13.7 13.7-6.1 13.7-13.7-6.2-13.7-13.7-13.7zM94.5 358.5c-4 0-7.5 2.1-9.7 5.2V359h-2.5v36h2.5v-15.6c2.2 3.2 5.8 5.2 9.7 5.2 6.7 0 12.2-5.9 12.2-13.1s-5.4-13-12.2-13zm0 23.3c-5.3 0-9.5-4.6-9.5-10.2s4.3-10.2 9.5-10.2c5.3 0 9.5 4.6 9.5 10.2s-4.2 10.2-9.5 10.2z"/></svg>
