<svg xmlns="http://www.w3.org/2000/svg" xmlns:xlink="http://www.w3.org/1999/xlink" viewBox="0 0 600 158.7039" fill="currentColor"><path d="M204.225 68.896c.42 10.872-2.163 20.843-9.791 29.012a31.402 31.402 0 0 1-22.585 10.331c-4.265.12-8.71.36-12.854-.48-14.836-2.824-25.108-13.696-27.57-28.892-1.382-8.47-1.322-16.939 1.201-25.288 5.106-16.999 20.422-26.609 39.043-24.627 19.341 2.042 31.775 15.437 32.616 34.958 0 1.682-.06 3.364-.06 4.986zm-58.264-1.442c.48 4.265.6 7.268 1.141 10.151 1.862 9.851 8.409 16.519 16.999 17.42 10.451 1.141 18.44-2.824 22.044-11.533a37.759 37.759 0 0 0 .06-29.372c-3.244-8.049-10.151-12.014-19.281-11.773-8.83.18-15.497 4.565-18.26 12.734-1.502 4.324-1.983 9.009-2.703 12.373zM58.685 52.558c-4.445 0-8.65.06-12.795-.06a2.484 2.484 0 0 1-1.982-1.502c-1.381-6.187-5.706-8.95-11.412-9.37a36.04 36.04 0 0 0-11.052 1.081c-3.364.841-5.166 3.664-5.346 7.208-.18 3.364 1.742 5.526 4.565 6.667 3.844 1.562 7.928 2.703 11.893 3.905 5.045 1.501 10.331 2.582 15.257 4.384 15.316 5.707 18.56 25.589 6.487 36.761-9.551 8.89-37.001 9.25-46.551-.361C2.763 96.286.42 90.46 0 83.192c4.685 0 9.19-.061 13.695.06a2.417 2.417 0 0 1 1.742 1.501c1.682 7.148 6.787 10.151 13.515 10.512a40.71 40.71 0 0 0 11.112-.901c3.664-.781 5.826-3.424 6.307-7.268.481-3.664-1.682-6.127-4.565-7.328-5.826-2.343-11.833-4.145-17.78-6.067-3.123-1.021-6.427-1.682-9.55-2.703C6.487 68.415 2.042 62.829 1.321 54.48.42 45.11 2.823 37.001 11.893 32.556a41.33 41.33 0 0 1 11.653-3.424 40.883 40.883 0 0 1 19.942 1.562c9.67 3.424 15.557 11.713 15.197 21.864zM69.196 30.754c12.133 0 24.087-.361 36.04.12 12.554.48 19.581 7.148 20.963 19.582a42.113 42.113 0 0 1-.721 13.154c-2.222 10.151-9.611 15.557-21.143 15.917-6.607.181-13.215.061-20.122.061v26.369H69.196zm15.077 34.598c6.727 0 13.394.48 19.882-.18 4.745-.481 6.787-4.085 7.027-9.731.241-5.466-1.982-10.151-6.307-10.752-6.787-.961-13.695-.841-20.602-1.141zM264.951 44.149h-21.743v61.928H227.65V44.269h-22.284V30.934h59.585zM548.463 104.815h-6.307V32.496c6.247-1.322 6.908-1.081 10.212 4.024q17.93 27.3 35.799 54.54c.661 1.021 1.382 1.982 2.583 3.784V32.195h6.427v72.14c-5.406 1.682-7.088 1.141-9.911-3.244q-18.09-27.554-36.22-55.08a6.83 6.83 0 0 0-2.643-2.583c.06 20.362.06 40.725.06 61.387zM466.233 68.295c.781-4.985 1.021-10.151 2.402-14.956 4.566-15.918 16.819-23.967 34.478-23.306 14.296.541 25.949 10.752 29.313 25.828a54.41 54.41 0 0 1-1.262 29.733c-4.505 13.215-14.956 20.903-28.831 21.384-20.843.72-34.779-12.374-35.439-33.337-.06-1.742 0-3.544 0-5.286a2.465 2.465 0 0 1-.661-.06zm61.688.661c-.301-.06-.661-.18-.961-.24-.06-6.608-.841-13.035-3.905-18.981-4.745-9.13-12.253-13.876-22.645-13.936-10.451-.06-18.26 4.445-22.765 13.695-6.006 12.374-6.006 25.288-.42 37.782 4.385 9.671 12.494 14.356 23.065 14.296s18.741-4.806 22.885-14.536c2.403-5.707 3.244-12.013 4.746-18.08zM268.495 68.355c1.021-5.526 1.442-11.172 3.124-16.458 4.385-13.755 15.737-21.804 29.913-21.864 16.157-.06 27.27 7.268 32.075 21.624 3.964 12.013 4.024 24.267-.841 35.979-4.925 11.954-13.935 18.741-27.21 19.342-21.864.961-36.16-12.794-36.28-34.839v-3.664a3.53 3.53 0 0 1-.781-.12zm6.728-.18c.901 5.046 1.261 9.791 2.583 14.356 3.423 11.953 12.613 18.921 24.507 19.101 12.013.12 21.503-6.788 25.167-18.681a46.875 46.875 0 0 0-.12-28.711c-3.724-11.653-12.614-18.26-24.327-18.381-11.893-.12-20.843 6.067-24.747 17.72-1.562 4.745-2.102 9.851-3.063 14.596zM351.026 73.461V99.89c0 5.706 0 5.706-6.006 4.805V32.316c.72-.061 1.561-.241 2.402-.241 8.59 0 17.239-.24 25.829.12 3.664.181 7.328 1.382 10.872 2.463a11.467 11.467 0 0 1 3.904 2.403c10.632 9.07 7.208 29.612-6.007 33.937-5.526 1.802-11.713 1.922-17.599 2.463-4.205.3-8.53 0-13.395 0zm.3-6.307a12.347 12.347 0 0 0 1.682.18c5.526 0 11.052.12 16.579-.06a36.574 36.574 0 0 0 8.469-1.261c6.787-1.923 9.61-6.608 9.25-14.837-.24-6.727-3.604-11.592-10.151-12.373-8.469-1.021-17.059-.901-25.829-1.262zM416.859 37.842h-22.645v-5.587h51.897v5.587h-22.465v66.853h-6.787V37.842zM70.878 0a35.223 35.223 0 0 0 21.323 5.766 127.213 127.213 0 0 1 15.858.601c7.688.781 13.995 4.505 19.221 10.091.841.841 1.622 1.742 3.184 3.484a13.944 13.944 0 0 1 1.381-2.523c6.908-8.049 15.797-11.533 26.309-11.713 6.187-.12 12.374-.06 18.5-.781 3.424-.36 6.668-2.042 10.151-3.183-4.264 6.367-10.391 9.07-17.779 9.37-3.844.12-7.749 0-11.593 0-12.914 0-22.885 7.388-26.609 19.702-.24.721-.421 1.381-.781 2.763-.541-1.742-.901-2.823-1.261-3.964a26.698 26.698 0 0 0-25.468-18.561c-5.707-.06-11.533.06-17.179-.721C79.407 9.551 74.542 5.526 70.878 0zM451.276 32.135h6.067v72.62h-6.067zM339.493 136.47c3.905-2.463 5.767-2.403 9.431.541a15.914 15.914 0 0 1 2.703-1.742c3.544-1.622 6.967.06 7.328 3.904a88.605 88.605 0 0 1 .18 10.572c0 .6-.841 1.261-1.261 1.862-.421-.661-1.202-1.262-1.202-1.922-.18-3.004-.12-5.947-.12-8.95 0-2.103-.721-3.844-3.183-3.784a3.71 3.71 0 0 0-3.965 3.664c-.18 2.883-.06 5.766-.24 8.589-.06.841-.901 1.622-1.381 2.403-.421-.781-1.142-1.502-1.142-2.343-.18-2.763-.06-5.526-.06-8.289 0-2.042-.36-3.964-2.883-4.024a3.759 3.759 0 0 0-4.205 3.724c-.24 2.883-.18 5.706-.42 8.589a7.041 7.041 0 0 1-1.141 2.343c-.481-.781-1.322-1.622-1.322-2.403q-.18-5.946 0-11.893c0-.721.601-1.442.901-2.162.481.36 1.142.781 1.982 1.321zm158.154-7.448c4.505 0 8.71-.24 12.794.06 2.944.24 4.746 3.123 4.746 6.247a6.256 6.256 0 0 1-5.346 6.547 33.867 33.867 0 0 1-4.926.24c-4.384.06-4.384 0-4.384 4.565a15.213 15.213 0 0 1-.06 3.304c-.121.661-.901 1.141-1.442 1.682-.481-.481-1.322-.961-1.382-1.442-.06-7.027 0-13.995 0-21.203zm3.124 2.282v8.229c2.823 0 5.406.181 7.989-.06 2.462-.24 3.544-1.982 3.423-4.384a3.53 3.53 0 0 0-3.724-3.724c-2.522-.121-5.045-.061-7.688-.061zm-325.919 4.866c1.021-.421 1.802-.781 2.583-1.081a6.601 6.601 0 0 1 .721 1.982c0 4.985.24 9.971-.18 14.896a7.471 7.471 0 0 1-11.653 5.466c-1.081-.721-1.682-2.102-2.463-3.123.241-.301.421-.541.661-.841.781.3 1.802.42 2.222 1.021a4.452 4.452 0 0 0 6.427 1.261c1.382-.901 1.923-3.183 2.463-5.045-5.766 1.682-8.589 1.141-10.692-2.103-2.102-3.363-1.681-9.19.841-11.833 2.343-2.462 5.587-2.582 9.07-.6zm-8.589 7.028c0 4.625 2.883 7.388 6.307 6.006 2.523-1.021 3.844-4.805 2.883-8.349-.721-2.583-2.283-4.325-5.166-4.024-2.583.36-4.024 2.823-4.024 6.367zM5.106 141.996c0 3.184.06 5.586-.06 7.989 0 .541-.721 1.081-1.082 1.622-.48-.541-1.441-1.081-1.441-1.622-.12-6.908-.12-13.815-.12-20.963 4.445 0 8.649-.3 12.734.12 3.063.3 4.745 3.123 4.565 6.607-.12 3.484-2.163 5.887-5.647 6.187-2.763.24-5.586.06-8.949.06zm.18-2.463c2.943 0 5.586.181 8.169-.06 2.342-.18 3.484-1.922 3.424-4.144s-1.142-3.844-3.544-3.964c-2.583-.121-5.226 0-8.049 0zm198.218-10.631c4.265 0 7.869-.12 11.472.06s5.647 2.403 5.827 5.886c.18 3.905-1.742 6.608-5.346 7.088a34.627 34.627 0 0 1-6.607.18c-1.982-.06-2.883.601-2.703 2.643a27.024 27.024 0 0 1-.06 4.926c-.06.66-.781 1.261-1.142 1.922-.48-.601-1.381-1.141-1.381-1.742-.12-6.848-.06-13.755-.06-20.963zm2.823 10.692c2.763 0 5.286.12 7.809-.061a3.753 3.753 0 0 0 3.784-4.144c-.06-2.343-1.262-3.964-3.845-4.024-2.522-.061-4.985 0-7.748 0zm-91.24-3.604a48.39 48.39 0 0 1 .06-5.166c.06-.661.781-1.322 1.141-1.982.48.6 1.321 1.201 1.321 1.802.121 6.427.121 12.794 0 19.221 0 .601-.66 1.141-1.021 1.742-2.162-2.163-3.964.66-6.006.36a12.222 12.222 0 0 1-2.583-.42c-4.205-1.562-5.947-7.448-3.965-12.614a6.656 6.656 0 0 1 9.911-3.064c.12.181.361.121 1.142.121zm1.021 8.109c-.781-3.965-1.982-6.668-4.325-6.908a6.427 6.427 0 0 0-4.565 1.562c-1.982 1.922-1.922 7.388.06 9.25 1.141 1.081 3.844 2.042 4.745 1.441 1.742-1.141 2.763-3.483 4.085-5.345zm140.434 7.688q-1.28-.596-2.583-1.141a63.577 63.577 0 0 1-7.268 1.261c-2.522.06-4.505-1.622-4.264-4.024a7.161 7.161 0 0 1 3.123-4.746c1.802-1.081 4.265-.901 6.367-1.441.721-.18 1.982-.901 1.922-1.262-.12-.961-.54-2.342-1.261-2.763a4.957 4.957 0 0 0-6.607.841 36.113 36.113 0 0 1-3.004 2.283c1.021-4.986 3.544-6.307 8.77-5.827 3.424.301 4.745 1.742 4.745 5.406.12 3.544.06 7.148.06 11.413zm-3.003-8.289a38.162 38.162 0 0 0-6.247 1.381c-.901.361-2.102 1.802-1.982 2.523a3.867 3.867 0 0 0 2.342 2.583c3.184.901 7.569-2.222 5.887-6.487zm190.469-4.445c1.862-4.085 8.229-5.947 11.713-3.244a6.11 6.11 0 0 1 1.802 3.965c.241 3.844.06 7.628.06 11.893q-1.15-.489-2.282-1.021a57.597 57.597 0 0 1-7.689 1.201 4.073 4.073 0 0 1-4.204-3.904 4.316 4.316 0 0 1 3.003-4.926c2.042-.72 4.325-.841 6.427-1.381.781-.24 2.163-1.141 2.102-1.442-.3-1.021-.84-2.402-1.741-2.823a4.727 4.727 0 0 0-6.247 1.141 10.427 10.427 0 0 1-2.343 1.502 3.781 3.781 0 0 1-.601-.961zm10.632 4.385a44.619 44.619 0 0 0-6.307 1.381c-.901.301-2.102 1.802-1.982 2.523a3.866 3.866 0 0 0 2.343 2.583c3.664 1.081 6.487-1.922 5.946-6.487zm-31.595-6.848c1.202-.6 1.983-1.081 2.763-1.381 4.385-1.622 7.809.54 8.049 5.165a89.067 89.067 0 0 1 .06 8.95c-.06.781-.781 1.502-1.201 2.283-.481-.841-1.261-1.622-1.321-2.463-.181-2.643-.061-5.286-.061-7.929 0-2.282-.78-4.024-3.243-4.204a4.202 4.202 0 0 0-4.865 3.964c-.301 2.763-.061 5.526-.241 8.289-.06.841-.841 1.622-1.321 2.403-.361-.781-1.081-1.502-1.081-2.283-.12-6.066-.12-12.133 0-18.26 0-.781.72-1.501 1.141-2.222.42.721 1.201 1.381 1.261 2.102.18 1.682.06 3.424.06 5.586zm-127.88 6.728c.06-5.406 3.003-8.53 7.988-8.47 4.686.06 7.629 3.304 7.629 8.53 0 5.466-2.943 8.649-7.809 8.649s-7.808-3.303-7.808-8.709zm12.854 0c0-3.905-2.042-6.487-5.046-6.487s-5.045 2.642-5.105 6.547c0 4.024 2.162 6.787 5.285 6.667 3.004-.18 4.926-2.763 4.866-6.727zm247.592.12c-.06 5.406-3.003 8.589-7.929 8.529-4.805-.06-7.748-3.424-7.688-8.83.12-5.345 3.123-8.469 8.109-8.349 4.685.12 7.568 3.484 7.508 8.65zm-12.914-.12c-.06 3.844 1.922 6.547 4.925 6.727 3.124.12 5.286-2.643 5.286-6.667 0-3.845-2.102-6.487-5.045-6.547-3.004-.061-5.106 2.582-5.166 6.487zm-399.139-7.088a31.847 31.847 0 0 1 5.346-1.382c3.303-.18 5.165 1.622 5.346 4.926s.12 6.607 0 9.911c0 .66-.781 1.261-1.202 1.862-.42-.601-1.201-1.202-1.261-1.862-.12-2.884-.06-5.767-.12-8.59-.06-2.402-1.021-4.204-3.604-4.204-2.463 0-4.265 1.261-4.445 3.964-.18 2.763 0 5.526-.24 8.289-.06.841-.901 1.622-1.382 2.463-.42-.781-1.201-1.502-1.201-2.283q-.18-5.946 0-11.893a8.912 8.912 0 0 1 .781-2.342c.781.48 1.501.901 1.982 1.141zm-83.372 7.448c-.06 5.466-3.003 8.469-8.049 8.349-4.685-.12-7.388-3.363-7.328-8.709.06-5.466 2.883-8.53 7.929-8.47 4.805 0 7.508 3.244 7.448 8.83zm-12.734-.24c0 4.805 2.943 7.568 6.547 6.247 2.763-1.021 4.265-4.686 3.364-8.41-.661-2.763-2.342-4.565-5.346-4.384-2.883.12-4.565 2.642-4.565 6.547zm320.753 2.703c1.442.901 2.222 1.501 3.123 1.982 1.322.721 2.703 1.862 3.965 1.742 1.321-.12 2.523-1.562 3.784-2.403a12.932 12.932 0 0 0-2.883-2.583c-1.562-.78-3.424-.901-4.986-1.621a4.156 4.156 0 0 1-1.501-6.608c2.883-3.363 9.73-1.982 11.652 3.244-1.561-.781-2.402-1.262-3.303-1.622-1.262-.54-2.583-1.381-3.844-1.321-1.021.06-1.983 1.321-2.944 2.042.781.781 1.442 1.862 2.403 2.282 1.682.781 3.604 1.022 5.346 1.682a4.176 4.176 0 0 1 1.682 6.968c-2.163 2.463-5.106 2.403-7.989 1.862-2.523-.42-4.085-2.042-4.505-5.646zm-300.39-11.112c4.384.18 3.604 3.603 4.625 5.466 1.141 2.222 1.742 4.685 2.883 7.928 1.141-3.123 1.862-5.646 3.003-7.989.961-1.922.421-5.165 4.625-5.586-2.162 5.647-3.964 10.812-6.066 15.798-.781 1.802-2.463 1.501-3.184-.241-1.982-4.805-3.724-9.79-5.886-15.376zm500.53-.421c1.141.36 2.102.661 4.025 1.261-1.923.841-2.944 1.262-4.145 1.802 0 3.785.06 7.629-.06 11.533-.06.841-.841 1.622-1.321 2.463a6.773 6.773 0 0 1-1.142-2.283c-.18-2.522-.06-5.105-.06-7.628 0-2.223.841-4.805-1.922-5.166.781-1.922 1.622-3.484 2.102-5.105.661-2.343 3.484-4.025 5.707-3.064.36.18.9.901.84 1.142a2.238 2.238 0 0 1-1.201 1.141c-2.823.841-2.823.781-2.823 3.904zm-283.271 0c1.141.36 2.102.661 3.063.961.06.24.06.541.12.781-1.021.36-1.982.781-3.304 1.261 0 3.845.061 7.749-.06 11.713 0 .781-.72 1.562-1.081 2.283-.48-.781-1.261-1.562-1.321-2.403-.18-2.403-.12-4.865-.06-7.268.12-2.403.36-4.745-1.983-5.466a46.269 46.269 0 0 0 2.043-4.985c.66-2.343 3.424-4.025 5.646-3.064.42.18.961.841.841 1.081-.18.481-.721 1.142-1.141 1.142-2.763 0-3.064 1.621-2.763 3.964zm-14.957-.12c1.021.42 1.982.781 3.184 1.261-1.322 1.082-3.064 1.802-3.124 2.703a72.481 72.481 0 0 0 .06 9.551c0 .48.781.901 1.202 1.381.54.601 1.021 1.202 1.561 1.802a8.55 8.55 0 0 1-2.342.661c-2.163-.12-3.064-1.562-3.124-3.544-.06-2.523.12-5.105-.12-7.628a30.408 30.408 0 0 0-1.381-5.166l2.943-5.886c.3.12.54.24.841.36.06 1.502.18 3.003.3 4.505zm196.897 1.141c.901-1.802 1.922-3.904 2.943-5.946.3.12.541.24.841.36l.36 4.505c1.021.42 1.982.781 3.124 1.261-1.322 1.082-3.064 1.862-3.124 2.703a78.073 78.073 0 0 0 .18 9.911c0 .361.721.721 1.142 1.081.54.481 1.081 1.022 1.622 1.502a8.811 8.811 0 0 1-2.463.901c-2.163-.06-3.064-1.562-3.124-3.544-.06-2.523.12-5.105-.12-7.628a34.594 34.594 0 0 0-1.381-5.106zm-61.988-.12c.84-1.682 1.862-3.844 3.243-6.727 1.322 3.123-.781 6.727 3.544 7.448-.901.48-1.742.901-2.823 1.502 0 3.003-.12 6.066.06 9.13.06.901 1.081 1.802 1.682 2.642a15.77 15.77 0 0 1 1.021 1.682c-.541.241-1.081.721-1.622.721-2.162.06-3.604-.781-3.664-3.243 0-2.523.06-5.106-.12-7.629a36.1 36.1 0 0 0-1.321-5.526zm186.625 0c.781-1.622 1.742-3.784 2.763-5.946.3.12.601.18.901.3.06 1.502.18 2.943.24 4.625.841.36 1.742.781 3.244 1.442-4.746 1.561-3.064 5.045-3.364 7.868-.3 3.064-.3 5.947 4.565 6.908-5.286 1.922-6.968.901-7.088-2.943-.06-1.983.12-3.965-.06-5.947a46.183 46.183 0 0 0-1.201-6.307zm-262.729.661c-.721.42-1.442 1.261-2.163 1.261-2.763-.12-3.784 1.442-3.964 3.844-.18 2.763-.06 5.526-.24 8.229-.06.781-.841 1.442-1.322 2.163-.42-.721-1.261-1.502-1.261-2.223-.12-4.084-.12-8.169 0-12.193 0-.721.661-1.442 1.021-2.102.601.48 1.201.901 1.261.961q3.038-.638 6.067-1.322a9.601 9.601 0 0 1 .601 1.382zm-297.147-.12a39.846 39.846 0 0 1 4.685-1.082c.361-.06.841.901 1.261 1.382-.54.36-1.081 1.141-1.561 1.081-3.004-.3-3.965 1.502-4.205 3.904-.24 2.764-.12 5.527-.3 8.23-.06.72-.721 1.321-1.081 1.982-.481-.661-1.322-1.382-1.382-2.043q-.18-6.126 0-12.253a6.282 6.282 0 0 1 .841-2.222c.781.48 1.502.901 1.742 1.021zm492.902-1.862q1.242.947 2.463 1.922a38.805 38.805 0 0 1 4.625-1.081c.36-.061.901.901 1.321 1.441-.42.361-.901 1.141-1.261 1.081-4.145-.48-4.445 2.403-4.625 5.226-.12 2.403 0 4.865-.12 7.268 0 .541-.721 1.081-1.081 1.682-.481-.481-1.322-.901-1.322-1.382-.06-5.105 0-10.091 0-16.157zm-291.861 6.246c0 3.064.06 6.187-.06 9.251 0 .66-.781 1.261-1.201 1.922-.421-.601-1.262-1.202-1.262-1.802-.12-6.307-.12-12.614 0-18.861 0-.721.901-1.381 1.322-2.042.36.661 1.081 1.321 1.081 1.982.18 3.183.12 6.367.12 9.55zm-102.292 2.884c0 2.222.12 4.384-.06 6.607-.061.601-.901 1.141-1.382 1.682-.36-.541-1.021-1.081-1.081-1.682-.06-4.385-.12-8.77 0-13.215 0-.6.841-1.141 1.321-1.681.361.54 1.021 1.081 1.081 1.681.181 2.223.121 4.445.121 6.608zm-36.521-.12c0 2.282.06 4.625-.06 6.907-.06.541-.781 1.021-1.201 1.502-.42-.481-1.201-1.021-1.201-1.502q-.18-6.758 0-13.515c0-.54.781-1.021 1.201-1.501.42.48 1.141.961 1.201 1.501.12 2.223.06 4.385.06 6.608zm488.157.54c0 1.982.12 3.964-.06 5.947-.06.66-.72 1.321-1.081 1.922-.48-.601-1.321-1.141-1.321-1.742q-.18-6.578 0-13.155c0-.54.72-1.081 1.141-1.621.48.6 1.261 1.141 1.321 1.742.12 2.282 0 4.625 0 6.907z"/></svg>
