
<svg xmlns="http://www.w3.org/2000/svg" viewBox="0 0 1151 269" fill="currentColor">
  <path d="M370.1 268.34v-37.29H359v-8.57h32.26v8.57h-11.23v37.3h-9.94zM396.5 222.48h9.93v17.9h14.77v-17.9h9.93v45.86h-9.93v-19.19h-14.77v19.2h-9.94v-45.87zM439.82 222.48h9.94v45.86h-9.94v-45.86zM467.48 268.34h-8.98v-45.86h10.89l8.78 17.15c2.3 4.3 4.56 9.32 6.73 15.03h.2c-.58-6.21-.88-12.81-.88-19.8v-12.38h8.98v45.86h-10l-8.98-17.62c-2.86-5.4-5.2-10.55-7.01-15.45h-.2c.31 6.58.47 13.36.47 20.35v12.72zM501.9 268.34v-45.86h9.86v20.41h.2a98.3 98.3 0 012.87-5.3l9.05-15.11h11.9l-13.74 19.66 14.36 26.2h-11.37l-9.93-19.53-3.34 4.5v15.03h-9.87zM553.47 268.14v-45.05c3.17-.64 7.32-.95 12.45-.95 5.8 0 10.12.9 12.93 2.72 3.26 2 4.9 4.94 4.9 8.84 0 2.14-.64 4.09-1.9 5.86a11.18 11.18 0 01-5.45 4.01v.2a11.9 11.9 0 016.46 4.09 10.86 10.86 0 012.38 7.08c0 3.94-1.45 7.14-4.35 9.6-3.27 2.85-8.96 4.28-17.08 4.28-4.4 0-7.85-.23-10.34-.68zm9.86-38.45v11.16h2.93c2.36 0 4.2-.54 5.51-1.63a5.23 5.23 0 002.04-4.29c0-1.77-.59-3.13-1.77-4.08-1.13-1-2.76-1.5-4.9-1.5-1.72 0-3 .11-3.8.34zm0 18.3v13.2c.6.14 1.7.21 3.34.21 2.4 0 4.35-.54 5.85-1.63 1.54-1.14 2.31-2.84 2.31-5.1 0-2.23-.79-3.88-2.38-4.97-1.59-1.14-3.6-1.7-6.06-1.7h-3.06zM592.14 222.48h9.94v45.86h-9.94v-45.86zM645.25 242.21v24.3a39.9 39.9 0 01-13.54 2.3c-7.26 0-12.84-1.87-16.74-5.64-4.31-4.08-6.42-9.87-6.33-17.35.04-7.58 2.34-13.43 6.87-17.56 4.54-4.17 10.3-6.26 17.29-6.26 4.72 0 8.44.66 11.16 1.97l-1.98 8.1c-2.4-1.13-5.4-1.7-8.98-1.7-4.17 0-7.55 1.3-10.14 3.88-2.54 2.54-3.8 6.33-3.8 11.36 0 4.86 1.15 8.6 3.46 11.23 2.36 2.59 5.42 3.88 9.19 3.88 2 0 3.36-.18 4.08-.54v-10.14h-6.19v-7.83h15.65zM687.38 242.21v24.3a39.9 39.9 0 01-13.54 2.3c-7.26 0-12.84-1.87-16.74-5.64-4.3-4.08-6.42-9.87-6.33-17.35.05-7.58 2.34-13.43 6.88-17.56 4.53-4.17 10.3-6.26 17.28-6.26 4.72 0 8.44.66 11.16 1.97l-1.97 8.1c-2.4-1.13-5.4-1.7-8.98-1.7-4.18 0-7.56 1.3-10.14 3.88-2.54 2.54-3.82 6.33-3.82 11.36 0 4.86 1.16 8.6 3.48 11.23 2.36 2.59 5.42 3.88 9.18 3.88 2 0 3.36-.18 4.09-.54v-10.14h-6.2v-7.83h15.65zM720 240.58v8.1h-14.98v11.43h16.74v8.23h-26.68v-45.86h25.73v8.23h-15.79v9.87h14.97zM728.58 268.34V223.1c3.72-.64 7.91-.95 12.59-.95 6.49 0 11.16 1.18 14.02 3.54 2.72 2.26 4.08 5.48 4.08 9.66 0 2.67-.75 5.03-2.25 7.07-1.5 2-3.35 3.43-5.58 4.3v.2c2.86 1.13 4.86 4.03 6 8.7.17.78.42 1.8.74 3.07.32 1.27.57 2.34.75 3.2.23.81.45 1.7.68 2.65.27.91.5 1.7.68 2.38.23.64.43 1.12.61 1.43h-10.2c-.73-1.4-1.7-4.99-2.93-10.75-.54-2.77-1.32-4.67-2.31-5.71-1-1.05-2.48-1.57-4.43-1.57h-2.58v18.03h-9.87zm9.87-38.38v13.07h3.33c2.36 0 4.2-.62 5.51-1.84a6.48 6.48 0 002.04-4.97c0-4.3-2.33-6.5-7-6.6-1.82 0-3.11.12-3.88.34zM1141.31 35.8c0-4.2-2.86-6.8-7.48-6.8H1127v19h3.92v-5.3h3.45l3.77 5.3h4.86l-4.6-6.47c1.88-1.2 2.91-3.23 2.91-5.73zm-7.48 2.88h-2.91v-5.66h2.91c3.56 0 3.56 2.1 3.56 2.78 0 .71 0 2.88-3.56 2.88z"/>
  <path d="M1133 24c-8.27 0-15 6.73-15 15s6.73 15 15 15 15-6.73 15-15-6.73-15-15-15zm0-3c-9.93 0-18 8.07-18 18s8.07 18 18 18 18-8.07 18-18-8.07-18-18-18z" clip-rule="evenodd"/>
  <path d="M248.3 169.34c-11.6 0-20.96-3.12-27.85-9.26v5.1h-51.3c-12.95 0-21.44-2.28-25.99-6.99-4.52-4.68-6.71-14.02-6.71-28.57V73.5h-5.15c.07.98.1 1.96.1 2.94v4.94l-52.9-.12-.04-2.64c-.06-3.28-.7-5.72-1.92-7.26-.68-.86-1.93-2-4.95-2-2.78 0-4.98.61-6.54 1.82a4.94 4.94 0 00-2.04 4.2c0 4.21 7.5 7.76 21.14 10 2.21.35 3.92.63 5.14.85 16.93 2.87 28.44 7.03 35.15 12.73 6.88 5.83 10.37 14.4 10.37 25.46 0 14.57-5.78 25.87-17.2 33.6-11.07 7.51-27.27 11.32-48.15 11.32-21.18 0-37.64-3.46-48.94-10.28-11.73-7.08-17.71-17.52-17.79-31.01l-.01-2.73 55.1.12.37 2.26c.54 3.3 1.58 5.7 3.1 7.16 1.43 1.4 3.52 2.07 6.37 2.07a7.4 7.4 0 005.32-1.93 5.87 5.87 0 001.97-4.52c0-3.33-5.02-6.24-14.14-8.21-.64-.14-1.1-.26-1.39-.34l-2.86-.62c-15.39-3.4-25.39-6.26-30.58-8.7a34.15 34.15 0 01-15.02-13.14A36.6 36.6 0 015.5 79.74c0-13.95 5.67-24.72 16.86-31.99 10.82-7.03 26.74-10.6 47.32-10.6 19.7 0 34.98 3.27 45.4 9.72a37.9 37.9 0 016.59 5.12V41.3h14.78V15.14h61.78V41.3h22.44v18.5a40.87 40.87 0 0111.02-11.51c10.6-7.53 25.49-11.35 44.27-11.35 22.2 0 38.9 4.24 49.63 12.59a39.88 39.88 0 0112.9 17.75V4.5h59.85v83.88l28.2-47.08h67.06l-3.85 5.86c10.83-6.5 26-9.8 45.24-9.8 24.14 0 41.92 5.21 52.85 15.47 10.98 10.31 16.54 27.13 16.54 49.99 0 .74-.03 1.85-.1 3.33-.08 1.36-.11 2.41-.11 3.16v2.7h-80.62v7.61c0 4.93 1.07 8.72 3.2 11.25 2.03 2.43 4.9 3.6 8.77 3.6 3.15 0 5.64-.9 7.62-2.77 2.09-1.97 3.7-5.1 4.76-9.34l.52-2.03h56.08l-.35 3c-1.72 14.82-8.71 26.32-20.78 34.19-11.8 7.7-28.09 11.6-48.38 11.6-17.71 0-31.96-2.8-42.56-8.32l2.68 4.39h-68.68l-28.1-54.36v54.36H291.5l-.74-1.53a31.35 31.35 0 01-2.57-8.38 52.35 52.35 0 01-.58-4.93 40.55 40.55 0 01-12.75 12.43c-7.17 4.35-16.1 6.56-26.55 6.56zm37.68-60.54c-2.8 1.63-6.11 3.36-9.93 5.18-5.37 2.53-11.75 6.5-11.75 11.07 0 2.65.82 4.8 2.5 6.6a7.9 7.9 0 006.07 2.61c3.26 0 5.96-1.1 8.26-3.37a13.33 13.33 0 003.94-8.73l.91-13.36zm-87.76 2.1c0 11.88 2 15.86 3.19 17.18 1.34 1.49 3.87 2.52 7.39 3.03v-.42c0-12.25 3.44-21.47 10.23-27.4 6.69-5.85 18.14-9.66 35.02-11.66l2.17-.22c27.37-3.2 30.33-8.93 30.33-11.25 0-2.3-.82-4.03-2.6-5.43-1.93-1.54-4.48-2.3-7.78-2.3-3.38 0-6.05.82-7.95 2.4-1.9 1.6-3.16 4.12-3.75 7.5l-.4 2.23h-50.23l.18-2.86a54 54 0 011.12-8.2h-16.92v37.4zm268.66 8.03a120.9 120.9 0 01-.96-15.69c0-8.61.76-16.37 2.27-23.25l-13 19.8 11.69 19.14zm80.9-32.74c-.23-4.4-1.4-7.95-3.47-10.57a10.57 10.57 0 00-8.79-4.14c-3.7 0-6.55 1.35-8.73 4.13-2.09 2.67-3.24 6.22-3.43 10.58h24.42z"/>
  <path d="M867.05 52.51a43.15 43.15 0 00-11.44-10.78c-6.68-4.23-14.67-6.38-23.73-6.38-15.22 0-26.33 5.14-33.03 15.25-2.62 3.94-4.72 8.97-6.28 15.04a45 45 0 00-9.66-14.36c-10.69-10.43-28.6-15.71-53.26-15.71-24.22 0-41.96 5.19-52.75 15.42-4.5 4.26-8.08 9.7-10.73 16.25V2.7h-61.98v160.69h61.98V135.5c2.64 6.55 6.22 11.99 10.72 16.28 10.79 10.31 28.54 15.53 52.76 15.53 23.99 0 41.73-5.12 52.72-15.23a45.86 45.86 0 0011.25-16.52 48.7 48.7 0 005.6 12.04c6.95 10.47 18.08 15.78 33.09 15.78 7.95 0 15.16-1.8 21.43-5.35 4.7-2.66 9.07-6.4 13.03-11.13l-.78 18.45c-.24 5.8-1.37 8.64-2.27 10-1.09 1.65-2.62 2.41-4.82 2.41-2.56 0-4.38-.63-5.55-1.93-.92-1.02-2.18-3.22-2.95-7.93l-.38-2.26h-57.01v2.71c.09 15.53 5.3 27.07 15.5 34.31 9.93 7.04 25.7 10.6 46.88 10.6 22.25 0 39.7-4.5 51.9-13.38 12.45-9.08 18.76-22.13 18.76-38.77V39.5h-59v13.01zM737.7 117.3c0 6.45-1.12 9.5-2.05 10.9-.73 1.1-2.12 2.57-5.78 2.57s-5.09-1.5-5.84-2.62c-.95-1.44-2.1-4.49-2.1-10.84V85.5c0-4.98.71-8.58 2.11-10.7.75-1.15 2.17-2.67 5.83-2.67 3.75 0 5.12 1.43 5.83 2.5.91 1.4 2 4.41 2 10.86v31.8zm128.51-10c0 4.24-.76 7.47-2.28 9.62-1.33 1.9-3.13 2.79-5.66 2.79a6.26 6.26 0 01-5.55-2.79c-1.51-2.14-2.28-5.3-2.28-9.4V89c0-2.88.77-5.15 2.35-6.93a7.22 7.22 0 015.7-2.5c2.24 0 3.95.83 5.4 2.62 1.54 1.9 2.32 4.56 2.32 7.87v17.23zM989.56 2.7h-61.98v31.57h61.98V2.7zM1118.07 91.28v-4.83c0-16.56-5.91-29.43-17.56-38.26-11.42-8.66-28.03-13.05-49.38-13.05-23.84 0-41.18 5.37-51.55 15.97-4.17 4.26-7.51 9.68-10.02 16.22V39.5h-61.98V163.4h61.98v-27.1a45.93 45.93 0 0010.73 15.88c10.79 10.2 27.89 15.37 50.84 15.37 21.15 0 37.73-4.58 49.26-13.6 11.73-9.19 17.68-22.38 17.68-39.2v-4.5h-56.56v2.7c0 .6.04 1.45.11 2.52.07.9.1 1.51.1 1.84 0 6.33-1.18 9.36-2.17 10.8-1.25 1.79-3.31 2.66-6.29 2.66-2.77 0-4.71-.74-5.92-2.27-1.32-1.68-2.02-4.7-2.02-8.75V83.8c0-4.12.69-7.11 2.05-8.89 1.21-1.58 3.13-2.34 5.88-2.34 3.79 0 5.29 1.52 6.08 2.66 1.45 2.09 2.18 5.54 2.18 10.27v5.79h56.56z"/>
</svg>
