<svg xmlns="http://www.w3.org/2000/svg" fill="currentColor" viewBox="0 0 600.00029 321.36523"><g fill-rule="evenodd"><path d="M599.89 98.795c-.18 55.19-43.96 98.85-97.89 99.33-55.07.482-99.39-43.538-100.412-96.747C400.568 47.148 443.626.485 499.238.005c55.971-.541 100.652 43.72 100.652 98.79zm-96.089 33.21c0 12.552-.06 25.104.061 37.655.06 5.946 3.543 8.168 8.527 5.285q27.357-15.567 54.59-31.35c5.105-2.941 7.687-7.385 7.687-13.571-.12-21.62-.06-43.3-.06-64.92 0-8.467-3.183-10.51-10.749-6.786-17.416 8.588-34.772 17.236-52.188 25.764-5.405 2.642-7.928 6.606-7.868 12.612.121 11.77 0 23.54 0 35.312zm-6.305.54c0-12.07-.18-24.141.06-36.212.12-6.005-2.463-9.67-7.627-12.191-17.897-8.708-35.673-17.536-53.509-26.304-6.847-3.363-9.729-1.622-9.729 5.945-.06 20.719.12 41.378-.12 62.097-.12 9.249 3.663 15.675 11.831 20.179 16.695 9.248 33.15 18.977 49.725 28.466 5.886 3.363 9.31 1.5 9.37-5.225.06-12.251 0-24.502 0-36.754zm3.663-52.006a65.937 65.937 0 0 0 6.546-2.403q27.747-13.325 55.371-26.904c1.501-.721 2.582-2.402 3.843-3.603-1.32-.961-2.522-2.283-3.963-2.943-16.816-6.846-33.69-13.513-50.507-20.48a28.319 28.319 0 0 0-22.76-.06c-16.516 6.727-33.09 13.333-49.606 20.18-1.62.66-2.702 2.522-4.084 3.843 1.262 1.2 2.342 2.763 3.904 3.543q27.386 13.513 54.89 26.725a60.881 60.881 0 0 0 6.366 2.102z"/><path d="M274.151 136.15c6.666-6.306 12.732-12.131 18.797-17.897q52.698-50.085 105.397-100.111c3.123-2.943 6.546-6.066 10.45-7.627 5.404-2.223 11.77.84 14.533 5.765a13.095 13.095 0 0 1-2.583 15.914c-10.689 10.33-21.499 20.659-32.249 30.929l-65.22 62.517c-16.755 16.035-33.45 32.19-50.386 48.044-2.643 2.462-6.006 5.045-9.369 5.705-9.188 1.802-15.374-3.483-15.314-12.912.18-39.696.541-79.392.841-119.09.06-9.067.18-18.195.42-27.264a10.833 10.833 0 0 1 7.627-10.27c4.505-1.621 9.01-1.26 12.852 1.863 3.724 3.002 4.624 7.146 4.624 11.77q-.45 54.59-.72 109.24c0 .84.18 1.682.3 3.424zm-228.329.18c18.497-17.656 36.393-34.712 54.29-51.828q36.123-34.412 72.186-68.823c4.023-3.843 8.407-6.726 14.233-5.525 4.744.96 8.287 3.664 9.73 8.528a12.933 12.933 0 0 1-3.785 13.693c-8.828 8.467-17.656 16.875-26.544 25.343q-30.718 29.457-61.496 58.914-30.538 29.277-61.137 58.553c-4.684 4.505-10.029 5.826-15.974 3.484-6.066-2.403-7.687-7.687-7.627-13.813q.54-67.562 1.021-135.064c0-3.303.18-6.606.48-9.85.721-6.665 5.285-10.75 11.891-10.87 7.147-.18 12.071 3.484 12.792 10.27.54 4.925.06 9.97.06 15.014q-.09 41.169-.12 82.396zM477.497 288.689v-53.57c0-6.725 0-13.511.06-20.237.06-6.066 3.303-9.67 8.588-9.61 5.165.06 8.348 3.784 8.348 9.79-.18 31.409-.48 62.757-.66 94.166 0 4.444-.962 8.108-5.586 9.789-4.504 1.622-7.867-.18-10.93-3.303q-38.284-39.186-76.57-78.432c-.78-.78-1.56-1.501-3.183-2.942-.18 2.402-.36 3.963-.36 5.525l-.72 69.183c-.06 6.186-3.064 9.729-8.168 9.789-5.525.06-8.708-3.483-8.648-9.97.24-31.828.48-63.717 1.021-95.547.06-2.582 2.102-5.885 4.204-7.567 3.062-2.402 6.966-1.561 9.97.9a76.915 76.915 0 0 1 6.665 6.607l71.946 73.748c.72.78 1.561 1.38 2.342 2.102.6-.18 1.141-.3 1.681-.421zM284.24 248.693c13.272-13.272 26.004-26.064 38.796-38.856 1.081-1.081 2.222-2.222 3.423-3.243a9.334 9.334 0 0 1 10.51-1.621c3.723 1.62 4.684 4.864 4.684 8.528.06 6.305.06 12.55 0 18.857q-.36 38.104-.84 76.27c-.06 6.666-3.424 9.969-9.369 9.488-4.985-.42-7.507-3.603-7.507-9.428.06-23.061.18-46.183.24-69.244v-5.825c-2.222 2.102-3.603 3.423-4.985 4.744-9.188 9.189-18.256 18.557-27.565 27.626-4.804 4.684-10.089 4.444-14.834-.361q-13.768-13.86-27.265-27.985c-1.38-1.442-2.222-3.363-3.303-5.105l-2.342 1.26v13.393l-.18 59.815c0 4.144-.9 7.927-5.165 9.729-6.065 2.522-11.83-1.381-11.89-8.287-.06-10.69.18-21.32.24-32.01.12-20.418.12-40.837.18-61.256 0-.961 0-1.862.06-2.823.3-4.083 1.862-7.266 5.945-8.768 3.904-1.381 7.147-.18 9.85 2.643 9.788 9.969 19.457 19.998 29.186 30.027 3.904 4.144 7.867 8.108 12.131 12.432zm-85.999 33.93c-14.833 0-29.246.36-43.66-.18-6.365-.24-10.809 1.562-15.133 6.126-8.048 8.348-16.636 16.215-25.103 24.142a13.882 13.882 0 0 1-5.525 3.364c-4.084 1.08-7.928.3-10.15-3.844-2.102-3.964-1.2-7.627 1.922-10.69 6.606-6.426 13.332-12.852 19.998-19.217q38.736-37.115 77.471-74.168a43.95 43.95 0 0 1 3.604-3.063 8.848 8.848 0 0 1 9.73-1.021c3.482 1.56 4.623 4.624 4.623 8.047q-.36 47.743-.84 95.548c-.06 6.366-3.004 9.489-8.529 9.428-5.585 0-8.468-3.182-8.528-9.488.12-7.927.12-15.915.12-24.983zm.061-16.394v-33.691c-11.89 11.41-23.002 22.16-34.953 33.69zm400.987 15.014c0 5.465.42 10.99-.18 16.455a13.378 13.378 0 0 1-3.844 8.107c-17.836 15.795-38.435 19.578-60.415 11.29-21.8-8.227-34.05-24.862-36.694-48.104a57.398 57.398 0 0 1 50.086-63.598c17.837-2.282 33.871 2.522 47.324 14.894 5.104 4.684 5.825 9.549 2.041 13.452-4.083 4.264-8.888 4.024-14.052-.661-11.65-10.57-25.163-13.992-40.057-9.188-15.014 4.865-24.503 15.374-27.866 30.928-3.543 16.335 3.423 32.49 17.897 42.459 12.851 8.828 30.988 8.949 44.44.42 3.063-1.921 4.625-4.023 4.505-7.867-.24-6.125.12-12.251.36-18.316.18-5.585 3.123-8.408 8.528-8.408 4.864 0 8.167 3.123 8.407 8.228.181 3.303.06 6.606.06 9.909h-.54zm-497.736-.361a52.18 52.18 0 0 0 .06 7.507c1.201 7.867-2.643 12.852-8.588 17.356C58.493 332.049 6.786 311.03.66 268.09c-4.624-32.37 15.435-60.716 47.684-66.241 18.797-3.243 35.793 1.802 49.966 15.014 4.144 3.843 4.744 9.428 1.561 13.032-3.423 3.843-9.428 3.723-13.812-.301-12.432-11.53-26.845-14.713-42.639-8.648-16.275 6.246-25.584 18.858-26.485 36.153-1.38 27.566 23.302 46.663 47.204 42.64a40.508 40.508 0 0 0 5.945-1.322c13.392-4.384 14.473-5.945 14.533-19.698 0-3.783-.06-7.567.12-11.29.301-5.105 3.604-8.348 8.348-8.348 4.805-.06 8.408 3.484 8.648 8.648.12 2.162-.18 4.384-.18 6.606 0 2.102.06 4.324 0 6.546zM233.914 91.949c0 18.197.06 36.394 0 54.59 0 7.387-.3 14.714-.42 22.1-.12 7.087-4.985 12.252-11.89 12.612-6.727.36-13.213-4.985-13.273-11.891-.18-16.815.18-33.571.3-50.386.12-11.471.3-22.881.36-34.352.18-20.058.601-40.176.421-60.235-.12-9.91 6.486-14.173 12.791-14.293 7.567-.18 12.612 5.585 12.612 14.473-.06 19.158-.3 38.316-.42 57.413v9.909a1.33 1.33 0 0 1-.48.06zM370.06 261.845c0 15.854.06 31.649 0 47.503 0 5.886-3.184 9.309-8.289 9.369-5.224.06-8.648-3.603-8.588-9.61q.362-48.013.841-95.967c.06-5.345 3.363-8.768 8.288-8.768 5.285 0 8.528 3.303 8.588 9.068.06 16.155 0 32.31 0 48.465a3.703 3.703 0 0 0-.84-.06zM566.26 83.602c-1.082 3.242-1.983 7.266-3.845 10.749-.9 1.682-3.723 3.363-5.585 3.183-1.742-.12-4.024-2.342-4.744-4.204a19.454 19.454 0 0 1 1.861-17.956c1.141-1.862 3.904-3.904 5.766-3.723 1.801.18 3.783 2.762 4.924 4.744 1.081 1.862 1.021 4.264 1.622 7.207zM531.727 142.515c-1.08 3.003-1.982 7.207-4.024 10.75-2.702 4.685-8.047 3.904-10.029-1.141-2.522-6.546-1.5-13.032 2.162-18.797 1.081-1.681 3.844-3.423 5.585-3.243 1.742.18 3.724 2.522 4.685 4.444 1.021 1.922 1.021 4.444 1.621 7.987zM551.125 112.848c-1.32 3.964-2.222 8.108-4.084 11.77a7.153 7.153 0 0 1-5.525 3.304c-1.682-.12-3.904-2.462-4.684-4.264a18.785 18.785 0 0 1 1.201-16.695c1.261-2.282 4.324-5.105 6.366-4.925 1.981.18 3.903 3.664 5.345 6.006.78 1.2.48 3.063.66 4.564.24.06.481.18.721.24zM486.145 147.08c-.42 1.98-.42 4.204-1.32 5.885-1.022 1.862-2.823 4.504-4.445 4.624a7.837 7.837 0 0 1-6.066-3.243 20.88 20.88 0 0 1-2.04-18.917c1.86-4.925 7.085-5.765 9.788-1.201 2.222 3.783 3.243 8.287 4.744 12.43a2.47 2.47 0 0 1-.66.422zM469.81 102.098c1.081-7.086 3.183-11.05 6.787-11.23 3.423-.24 7.326 3.664 8.107 9.609a33.027 33.027 0 0 1-.72 12.852c-1.502 5.225-6.727 5.825-9.489 1.2-2.222-3.783-3.183-8.287-4.685-12.431zM452.815 89.847c-.78 6.186-2.943 10.27-6.126 10.63-3.603.42-6.846-2.763-7.807-8.948a30.512 30.512 0 0 1 .48-11.891c1.202-4.684 6.306-5.465 8.83-1.321 2.221 3.483 3.181 7.687 4.623 11.53zM452.815 129.904c-.78 3.243-1.02 5.945-2.102 8.288-1.682 3.663-5.645 3.903-8.348.84-3.723-4.143-4.984-14.593-2.402-19.518 2.162-4.143 6.786-4.384 9.188-.06 1.862 3.243 2.583 7.147 3.664 10.45zM501.94 58.078c-4.504-1.501-8.768-2.222-12.372-4.144-5.525-3.062-5.645-9.188-.72-13.212 6.185-5.104 19.938-4.984 26.064.18 4.444 3.724 4.504 9.729-.48 12.612-3.724 2.222-8.228 3.123-12.492 4.564z"/></g></svg>
