<svg xmlns="http://www.w3.org/2000/svg" fill="currentColor" viewBox="0 0 1117.77917 271.72864"><path d="M0 0h1117.78v137.506H599.853q-296.216 0-592.431.02c-2.475.001-4.949.31-7.423.474zm10.148 10.032v117.5h568.515v-117.5zm1068.822.06c14.412 19.737 9.552 41.408-2.986 53.53a39.645 39.645 0 0 1-50.472 3.599c-17.476-12.58-20.089-31.008-8.014-56.946h-27.53v64.138c-5.385 1.108-9.153.034-12.834-3.906-9.208-9.857-18.97-19.197-28.534-28.722-.963-.96-2.079-1.766-3.93-3.32v35.942h-21.038V10.114h-25.943V74.47h-20.8V9.836c-7.702 0-14.99-.013-22.277.013-1.292.004-2.584.171-3.895.264l1.706 10.033c-5.93 0-11.225.085-16.513-.086a3.812 3.812 0 0 1-2.45-1.866c-1.73-2.944-4.222-4.877-7.335-3.135-1.78.995-3.636 3.803-3.569 5.729.125 3.595 3.054 4.989 6.686 5.258 14.921 1.108 24.653 13.284 22.745 28.231-1.542 12.076-13.322 21.401-25.624 20.284-13.427-1.218-22.903-11.49-22.16-24.3h17.563c.368.731.581 2.008 1.29 2.408 2.106 1.19 4.623 3.092 6.567 2.696 1.684-.344 4.092-3.639 3.846-5.28-.3-2.008-2.868-3.863-4.786-5.36-.898-.701-2.572-.398-3.892-.569a23.399 23.399 0 0 1-20.834-23.521c.019-3.51.86-7.015 1.325-10.525H756.72l30.376 64.726c-5.716 0-10.41-.354-15.024.1-4.565.45-7.225-1.03-8.4-5.463-1.036-3.913-3.533-5.326-7.712-5.068a136.17 136.17 0 0 1-18.981-.012c-5.59-.439-9.15 1.012-10.77 6.735-.416 1.474-2.425 3.44-3.812 3.532-5.912.393-11.866.167-18.61.167l30.217-64.991c-16.408 0-31.727.117-47.042-.075-4.268-.054-7.691.6-10.341 4.353a102.516 102.516 0 0 1-7.268 8.381c-11.031-7.223-20.67-6.923-27.372.139-6.183 6.516-6.777 17.295-.944 24.302 7.527 9.043 18.892 8.28 26.81 2.616l14.5 14.224c-13.336 12.528-33.104 14.605-48.33 4.62a38.582 38.582 0 0 1-17.483-26.793c-1.981-11.566 1.46-21.84 8.141-31.4h-35.316v79.54h518.805V10.091zm-154.976 117.74v-19.295c5.901-1.629 9.986.004 13.61 4.309 3.743 4.444 8.128 8.354 12.312 12.414 1.036 1.004 2.35 2.334 3.597 2.4 5.09.273 10.203.115 15.804.115v-19.536h21.013v19.586c7.691 0 14.683.158 21.657-.129 1.452-.06 3.23-1.47 4.195-2.757 17.198-22.945 47.524-22.842 64.954.251.823 1.09 2.188 2.471 3.335 2.504 7.782.22 15.574.115 23.687.115V93.277h-518.73v34.552c9.909 0 19.397.135 28.873-.133 1.58-.045 3.258-1.67 4.635-2.861 4.614-3.991 8.595-8.998 13.753-12.022 15.075-8.841 36.583-5.283 46.013 6.96l-7.672 8.053c18.754 0 36.222.066 53.687-.13 1.319-.016 3.124-1.623 3.832-2.954 2.415-4.545 4.38-9.328 6.662-13.947a5.225 5.225 0 0 1 2.495-2.655c5.197-1.603 8.483.08 10.882 5.188 1.767 3.764 3.748 7.44 5.287 11.295 1.053 2.637 2.678 3.289 5.341 3.262 12.162-.121 24.326-.141 36.487.008 3.09.038 4.514-.725 5.63-3.94a23.9 23.9 0 0 1 30.33-14.839c8.992 2.986 14.107 9.61 16.446 18.369h25.01v-19.21h20.73v19.217c1.627.143 2.754.324 3.881.328 7.131.026 14.263.013 22.264.013zm143.048-92.5a18.404 18.404 0 0 0-18.305-18.487 18.714 18.714 0 0 0-18.713 18.722c.14 9.923 8.848 18.499 18.683 18.4a18.755 18.755 0 0 0 18.335-18.635zm-98.217-3.5V10.204H947.1c6.761 6.86 13.12 13.322 19.494 19.768.532.538 1.163.977 2.23 1.86zm-223.443-1.62l-7.538 16.3h14.867c-.703-1.77-1.18-3.143-1.784-4.458-1.693-3.688-3.437-7.351-5.545-11.842zM1109.141 195.831h7.46v75.898h-7.46zM1.143 195.83h7.455v75.896H1.143zM108.875 228.96c-2.414 6.419-4.349 12.023-6.677 17.458-.644 1.504-2.418 3.415-3.743 3.47-1.194.05-3.208-1.984-3.613-3.445-2.65-9.555-4.96-19.203-7.503-29.31h5.486l5.35 24.815 1.24.355c1.78-4.953 3.406-9.97 5.406-14.833.969-2.354 2.398-6.056 4.039-6.297 4.36-.643 3.217 4.065 4.279 6.494 2.032 4.65 3.606 9.501 5.37 14.27l1.343-.016c1.427-7.024 2.927-14.036 4.25-21.08.579-3.08 1.62-5.055 6.169-3.24-2.539 10.065-5.06 20.294-7.788 30.468a3.463 3.463 0 0 1-2.778 1.933c-1.338-.238-3.125-1.186-3.626-2.319-1.946-4.4-3.451-8.997-5.14-13.513-.554-1.483-1.164-2.944-2.064-5.21zM634.824 249.876l-4.712.212-1.403-22.912-1.103-.45c-2.237 4.784-4.34 9.637-6.78 14.314-.886 1.695-2.582 2.968-3.907 4.433-1.33-1.45-3.044-2.702-3.919-4.389-2.433-4.69-4.518-9.562-7.84-14.273l-1.484 23.056h-4.817c.776-10.352 1.476-20.426 2.38-30.482.082-.903 1.676-2.499 2.236-2.367 1.395.33 3.168 1.168 3.787 2.334 3.263 6.142 6.215 12.448 9.67 19.504 1.968-4.2 3.659-7.88 5.415-11.53a40.855 40.855 0 0 1 3.698-7.041c1.112-1.474 3.105-2.284 4.705-3.39.687 1.507 1.847 2.971 1.983 4.526.813 9.259 1.39 18.539 2.09 28.455zM209.02 233.295c3.205 1.66 4.247 5.429 3.153 9.933-1.118 4.604-4.79 6.362-8.935 6.704-4.771.394-9.6.092-14.82.092v-33.312c4.37 0 8.93-.69 13.142.225 3.207.696 7.245 2.794 8.567 5.44 1.257 2.518-.528 6.555-1.107 10.918zm-15.86 12.577c3.362 0 6.603.758 9.165-.236 2.115-.82 4.507-3.603 4.72-5.723.148-1.46-2.97-4.066-5.078-4.728-2.652-.831-5.762-.2-8.806-.2zm.17-26.483v12.768c4.47-1.63 8.23-2.8 11.742-4.487.537-.259.419-3.963-.23-4.261a114.716 114.716 0 0 0-11.512-4.02zM944.496 233.351c.046-10.786 6.217-17.409 16.167-17.35 9.53.056 15.758 6.868 15.815 17.296.057 10.594-6.39 17.719-16.016 17.698-9.749-.021-16.012-6.942-15.966-17.644zm27.304.217c-.66-7.968-4.952-13.301-11.232-13.382-6.47-.083-11.277 5.494-10.926 13.32a19.344 19.344 0 0 0 2.324 8.468c3.465 6.054 13.04 6.214 16.723.288 1.589-2.555 2.107-5.776 3.111-8.694zM1011.535 216.204c1.098 1.188 3.117 2.352 3.148 3.567a226.967 226.967 0 0 1-1.042 30.942c-1.572-1.143-3.566-1.982-4.644-3.48-5.094-7.079-9.937-14.337-14.87-21.532l-1.293.476c0 6.729-.124 13.46.051 20.184.092 3.51-1.238 4.484-4.652 3.346v-33.63c2.365 1.276 4.63 1.816 5.804 3.249 5.254 6.409 10.197 13.072 15.704 20.23v-21.979zM665.598 216.095c1.93 1.374 4.27 2.414 5.711 4.185 4.892 6.008 9.465 12.275 15.19 18.327 0-6.039.099-12.08-.04-18.115-.074-3.171 1.059-4.328 4.423-3.23v33.853c-2.35-1.575-4.39-2.314-5.459-3.768-4.63-6.301-8.962-12.82-13.44-19.235-.616-.883-1.438-1.62-2.898-3.236v24.808c-2.885.66-4.98 1.125-4.946-2.67.09-9.816.03-19.633.03-29.45zM426 233.451c-.005 10.68-6.37 17.648-16.023 17.54-9.594-.109-16.074-7.342-15.964-17.82.11-10.314 6.43-17.102 15.991-17.17 9.886-.07 16 6.6 15.996 17.45zm-5.03.593c.27-7.8-4.144-13.618-10.51-13.853-6.257-.231-10.988 5.055-11.286 12.611-.31 7.869 4.03 13.497 10.543 13.675 6.63.182 10.984-4.628 11.254-12.433zM817.999 233.34c.011 10.622-6.418 17.7-16.03 17.65-9.7-.05-16.012-7.044-15.968-17.69.043-10.447 6.21-17.217 15.756-17.299 9.8-.084 16.23 6.78 16.242 17.34zm-5.17-.117c-.09-7.668-4.52-13.003-10.815-13.027-6.387-.023-11.028 5.65-10.975 13.417.053 7.692 4.379 12.813 10.867 12.863 6.648.051 11.018-5.25 10.923-13.253zM309.34 249.821c-.128-1.359-.322-2.485-.325-3.612-.025-9.604-.014-19.207-.014-29.05 9.428-1.122 18.723-2.493 24.785 6.331a17.065 17.065 0 0 1 .078 19.778c-5.992 8.938-15.329 7.511-24.524 6.553zm5-28.738v24.849c5.949.452 11.65.656 14.99-4.928a14.195 14.195 0 0 0-.048-15.207c-3.399-5.573-9.088-5.27-14.942-4.714zM475.522 216.504c4.074 0 7.687-.2 11.27.047 5.15.355 10.058 1.488 11.655 7.426 1.52 5.647-.884 9.654-5.807 12.355l8.05 13.03-1.437 1.56c-1.825-1.283-3.897-2.33-5.407-3.915a26.984 26.984 0 0 1-3.853-5.782c-2.067-3.787-5.06-4.98-9.715-3.482v11.959l-1.36.926c-1.132-.977-3.223-1.93-3.248-2.934-.243-10.088-.148-20.185-.148-31.19zm4.898 4.602v11.634c4.636.242 9.41 1.549 12.36-2.994a6.552 6.552 0 0 0-.186-5.93c-2.951-4.228-7.58-2.936-12.174-2.71zM228.51 217.089c0 6.992-.064 13.471.017 19.948.079 6.345 2.722 9.461 7.777 9.424 4.951-.037 7.649-3.35 7.687-9.568.04-6.469.009-12.938.009-19.719h4.549a6.076 6.076 0 0 1 .399 1.462c.036 6.493.147 12.988.022 19.479-.154 8.043-4.604 12.636-12.196 12.875-7.929.25-12.8-4.104-13.19-12.326-.3-6.312-.082-12.65-.06-18.977a20.395 20.395 0 0 1 .358-2.598zM549.449 221.967c-6.154-2.115-12.35-3.416-16.99 2.986-3.129 4.318-3.152 12.603-.094 17.095 3.346 4.915 8.192 4.944 14.136 3.809a77.988 77.988 0 0 1 .125-9.226c.134-1.12 1.692-2.07 2.6-3.096a19.904 19.904 0 0 1 2.213 3.062 3.808 3.808 0 0 1 .035 2.458c-1 3.57 2.695 8.986-2.148 10.63-6.832 2.321-14.244 2.622-20.03-3.324-5.352-5.497-5.885-16.994-1.32-23.788 4.06-6.041 12.31-8.356 20.106-5.64 3.242 1.13 3.242 1.13 1.367 5.034zM728.867 218.523l-1.393 3.552c-6.296-2.12-12.357-3.55-17.038 2.518-3.347 4.339-3.37 12.82-.288 17.54 2.611 3.997 6.75 5.13 13.502 3.625.462-3.946.87-7.951 1.54-11.913.043-.253 2.113-.164 3.939-.277 0 4.87.098 9.468-.093 14.053a3.18 3.18 0 0 1-1.997 2.234c-6.79 1.466-13.72 2.454-19.36-2.898-5.74-5.448-5.893-12.597-4.116-19.56 2.716-10.644 14.323-14.617 25.304-8.874zM858.158 217.123h4.877c0 7.371-.171 14.49.06 21.597.158 4.862 3.076 7.723 7.414 7.717 4.433-.007 7.21-2.25 7.859-6.72a48.934 48.934 0 0 0 .445-6.444c.06-5.29.02-10.581.02-16.133h4.518c0 7.767.346 15.399-.102 22.984-.411 6.982-5.275 10.848-12.436 10.87-7.12.022-12.067-3.811-12.54-10.818-.51-7.575-.115-15.21-.115-23.053zM442.18 217.623c0 6.633-.142 13.27.043 19.898.16 5.704 2.802 8.682 7.376 8.936 4.975.275 8.174-2.99 8.338-9 .18-6.628.041-13.264.041-19.819 3.808-1.79 4.983-.476 4.895 3.15-.142 5.816.057 11.64-.064 17.456-.161 7.697-4.522 12.3-11.828 12.73-7.699.45-12.736-3.478-13.453-11.433a157.382 157.382 0 0 1-.194-19.917c.043-1.172 2.166-2.267 3.329-3.398l1.517 1.397zM559.519 249.374c4.19-10.278 8.26-20.585 12.63-30.762a3.41 3.41 0 0 1 6.241.086c4.344 10.174 8.42 20.463 12.595 30.704-4.193 1.723-6.211.342-6.834-3.069-.656-3.593-2.526-5.076-6.183-4.537a17.854 17.854 0 0 1-4.983.002c-3.9-.539-6.362.627-7.043 4.838-.536 3.318-2.542 4.405-6.423 2.738zm21.588-11.703l-5.484-14.01-1.162.089c-1.697 4.5-3.393 9-5.25 13.92zM140.341 216.844c6.05 0 11.856-.133 17.644.125 1.021.045 1.97 1.72 2.953 2.643l-.93 1.274h-14.659v9.614c3.42 0 6.723-.208 9.974.108 1.215.118 2.31 1.458 3.461 2.241-1.09.661-2.142 1.803-3.277 1.892-3.283.257-6.599.091-10.202.091v11.171c4.516 0 8.97-.13 13.405.096 1.056.054 2.05 1.304 3.074 2.004-1.054.686-2.09 1.931-3.165 1.966-5.975.193-11.959.093-18.278.093zM774.794 220.637c-4.147 0-7.443-.355-10.594.163a5.262 5.262 0 0 0-3.506 3.458 5.607 5.607 0 0 0 2.215 4.479c2.59 1.728 5.647 2.754 8.502 4.09 4.524 2.119 6.262 5.764 5.557 10.584-.657 4.483-3.878 6.713-7.9 7.05a44.983 44.983 0 0 1-11.774-.796c-2.858-.527-2.777-.971-1.256-4.189 3.691.336 7.308 1.148 10.802.782 1.808-.19 4.525-2.289 4.775-3.854.26-1.626-1.584-4.141-3.193-5.374-2.04-1.562-4.796-2.17-7.199-3.286-4.163-1.936-6.607-5.014-5.973-9.84.58-4.407 4-7.51 9.004-7.784a44.949 44.949 0 0 1 8.375.688c3.135.424 3.3 2.157 2.165 3.829zM374.272 232.274c3.309-5.438 6.193-10.406 9.397-15.158.407-.605 2.485-.083 4.44-.083-4.502 10.823-14.91 19.28-10.71 32.762l-6.067.296c4.044-13.65-6.36-22.11-10.785-32.67 3.862-1.58 5.736-.037 7.247 3.18 1.82 3.879 4.143 7.52 6.478 11.673zM908.273 249.657c-4.296 1.242-5.231-.25-5.163-3.546.168-8.142.055-16.29.055-24.906h-9.519c-1.384-3.004-1.001-4.422 2.241-4.387 6.5.07 13.004-.104 19.495.132 1.19.043 2.328 1.545 3.49 2.373l-.793 1.567h-9.806zM284.146 246.067h14.711l.993 1.235c-1.048.953-2.057 2.674-3.15 2.728-5.61.28-11.24.13-17.196.13v-32.955l4.642-.34zM834.145 217.47v28.533c4.418 0 8.503-.14 12.565.096 1.06.061 2.051 1.296 3.074 1.992-1.046.69-2.07 1.937-3.14 1.977-5.459.203-10.93.093-17.116.093 0-10.576-.09-20.81.14-31.038.023-.99 2.021-1.937 3.102-2.905l1.375 1.252zM651.236 249.91h-4.414v-32.73h4.414zM266.233 249.889l-4.356.198v-32.93l4.356-.25zM928.181 250.274v-33.019l4.498-.513v33.018z"/><path d="M68.63 79.112c4.63-10.053 9.047-19.162 12.993-28.47 1.373-3.24 3.226-3.86 6.398-3.93 3.339-.072 4.974.976 6.281 4.099 3.274 7.817 7 15.444 10.565 23.138.669 1.442 1.439 2.839 2.489 4.897 6.949-14.961 13.62-29.09 20.037-43.331 1.363-3.024 2.966-4.269 6.35-4.102 5.919.292 11.862.081 18.519.081-5.37 11.633-10.358 22.454-15.356 33.27-6.347 13.736-12.785 27.43-18.987 41.232-1.34 2.985-3.036 3.736-6.279 4.194-8.48 1.198-13.081-1.969-15.65-10.053-1.83-5.761-5.052-11.08-8.102-17.55-3.903 8.352-7.575 15.703-10.759 23.26-1.395 3.312-3.375 3.853-6.69 4.331-8.054 1.163-11.865-2.008-15.046-9.421-9.308-21.692-19.577-42.971-29.462-64.416-.611-1.326-1.153-2.685-2.052-4.789 7.433 0 14.363-.181 21.265.176 1.173.06 2.578 2.27 3.28 3.765 6.64 14.14 13.152 28.34 20.207 43.619zM425.528 89.168v20.602h-20.286V31.494h8.756c8.156.002 16.317-.185 24.465.051 11.668.337 20.417 5.855 25.483 16.305 5.17 10.665 3.963 21.154-3.414 30.426-2.357 2.963-2.114 4.865-.376 7.71 4.661 7.634 9.08 15.416 14.091 23.987-8.111 0-15.482.09-22.845-.114-.928-.025-2.045-1.452-2.678-2.475a144.874 144.874 0 0 1-7.531-12.913c-1.986-4.109-4.632-6.11-9.275-5.35a45.405 45.405 0 0 1-6.39.047zm.214-18.015c4.588 0 8.714.12 12.83-.029 5.915-.214 10.151-4.235 10.609-9.822.478-5.837-3.146-11.194-8.922-11.93-4.692-.6-9.52-.122-14.517-.122zM373.474 109.997c-6.45 0-12.286.304-18.054-.193-1.644-.141-3.9-2.339-4.47-4.059-1.65-4.99-4.667-6.367-9.707-6.024a185.402 185.402 0 0 1-20.46.03c-3.547-.151-5.71.894-6.592 4.353-1.193 4.676-3.895 6.618-8.963 6.01-4.554-.544-9.224-.114-14.63-.114 2.922-6.27 5.564-11.935 8.202-17.6 8.832-18.972 17.723-37.917 26.431-56.945 1.368-2.987 2.976-4.282 6.367-4.061 3.113.202 5.374.238 7.026 3.829 10.896 23.68 22.126 47.208 33.235 70.79.486 1.032.862 2.116 1.615 3.984zm-48.881-28.136h15.003l-7.503-16.228-7.5 16.228zM505.241 109.707V31.87h48.474v16.88h-27.58v12.256h24.28v17.599h-24.169v14.17h27.401v16.933zM203.052 78.707V93h27.5v16.625h-48.436V31.904h48.429v16.82h-27.36v12.278h23.977v17.705z"/></svg>
