<svg xmlns="http://www.w3.org/2000/svg" fill="currentColor" viewBox="0 0 517 258.26405"><path d="M517 12.264c-3.172 3.375-6.261 6.831-9.528 10.111q-45.863 46.047-91.773 92.047-21.17 21.246-42.233 42.599c-3.522 3.59-7.197 6.182-12.317 3.932-4.734-2.08-5.188-6.354-5.183-10.932q.083-68.993.038-137.986c.001-9.151 2.68-11.77 11.948-11.77C413.448.263 458.944.34 504.44.158c5.173-.02 9.391.884 12.561 5.106zM0 7.264C2.247 1.77 6.306-.022 12.208 0c45.634.176 91.27.088 136.904.104 9.63.004 12.054 2.48 12.055 12.116q.002 69.451-.007 138.903c-.001 6.846-2.974 10.83-8.44 10.47a11.73 11.73 0 0 1-6.945-3.11Q74.725 87.51 3.92 16.292A51.037 51.037 0 0 1 0 11.264zM179 258.264a18.943 18.943 0 0 1-.798-3.823q-.075-28.972-.02-57.944c.001-.802.162-1.604.282-2.725h12.287v36.308l1.068.385c1.38-2.613 2.81-5.202 4.13-7.846 2.154-4.312 4.34-8.614 6.312-13.009 1.31-2.919 2.71-4.655 6.521-4.713 4.015-.06 5.054 2.16 6.38 4.921a175.58 175.58 0 0 0 10.984 20.203v-36.293h12.172a21.593 21.593 0 0 1 .493 3.269q.047 28.472-.012 56.944a23.91 23.91 0 0 1-.799 4.323h-11l-18.653-35.02L191 258.263zM469 258.264c-.169-3.975-.469-7.95-.483-11.925-.057-15.65-.023-31.301-.023-46.952v-5.273c10.055-1.875 10.508-1.687 15.349 6.078q8.445 13.55 16.893 27.098a9.359 9.359 0 0 0 3.707 3.63v-37.656H517v65h-11l-23.727-38.09-1.273.427v37.663zM356 258.264V194.32c10.523 0 20.679-.847 30.62.247 9.28 1.021 14.819 8.074 15.805 16.968a123.416 123.416 0 0 1-.036 28.264c-1.19 9.785-7.571 15.981-17.71 17.622a6.307 6.307 0 0 0-1.679.844zm13.454-53.06v41.423c3.363 0 6.483.185 9.575-.038 6.544-.472 10.027-3.111 10.592-9.67a147.253 147.253 0 0 0-.07-22.87c-.301-4.277-2.705-8.161-7.546-8.745-4.035-.487-8.175-.1-12.55-.1zM406 258.264a37.823 37.823 0 0 1 1.002-4.797c6.421-18.665 13.109-37.243 19.231-56.005 1.823-5.588 5.728-3.65 9.176-4.028 3.214-.352 5.336.18 6.609 4.025 6.1 18.419 12.653 36.688 18.962 55.038a36.503 36.503 0 0 1 1.02 5.767h-13c-.302-.763-.628-1.518-.903-2.291-3.633-10.202-3.631-10.203-14.49-10.203-9.62 0-9.606.005-13.048 9.409a28.497 28.497 0 0 1-1.559 3.085zm28.173-45.67l-6.953 21.603h13.813l-6.86-21.603zM245 258.264c1.007-3.485 1.866-7.02 3.045-10.445 5.778-16.798 11.885-33.487 17.33-50.39 1.72-5.34 5.322-3.731 8.662-3.992 3.252-.254 5.718-.133 7.098 4.053 6.188 18.761 12.868 37.36 19.29 56.044a22.381 22.381 0 0 1 .575 4.73h-13c-1.366-3.887-1.667-9.148-4.403-11.27-2.674-2.075-7.83-1.13-11.9-1.186-8.79-.122-8.768-.03-11.75 8.462a36.882 36.882 0 0 1-1.947 3.994zm35.165-24.028l-6.91-21.607-6.916 21.607zM305 258.264a14.51 14.51 0 0 1 1.245-12.835c7.016-11.703 13.816-23.535 20.683-35.327.811-1.393 1.51-2.852 2.708-5.13h-25.122v-11.196h43.257c-1.19 4.544-1.494 8.933-3.41 12.442-7.236 13.257-14.997 26.228-23.107 40.25h26.848L347 258.263zM258.487.264c23.482 0 46.965.064 70.446-.056 4.438-.023 8.068 1.047 9.68 5.379 1.533 4.119.206 7.572-2.997 10.774-20.963 20.955-41.759 42.076-62.662 63.09q-38.756 38.964-77.556 77.883c-3.457 3.486-7.077 5.743-11.937 3.639-4.717-2.043-5.32-6.316-5.317-10.883q.05-68.948.026-137.896c.003-9.2 2.75-11.928 11.868-11.93q34.224-.002 68.449 0z"/></svg>
