<svg xmlns="http://www.w3.org/2000/svg" viewBox="0 0 1450 600" fill="currentColor"><title>Yggdrasil</title><path d="M1429.5 241.4h25.8v94.2h54.7v23.6h-80.5V241.4zm-47.3 117.8h25.8V241.4h-25.8v117.8zm-112.4-18c14.1 12.6 32 18.8 49.8 18.8 25.3 0 43.1-13.1 43.1-36.5v-.3c0-20.5-13.4-29.1-37.2-35.3-20.3-5.2-25.3-7.7-25.3-15.5v-.3c0-5.7 5.2-10.3 15.1-10.3 9.9 0 20.1 4.4 30.5 11.6l13.4-19.5c-11.9-9.6-26.5-15-43.6-15-24 0-41.1 14.1-41.1 35.5v.3c0 23.4 15.2 30 38.9 36 19.6 5 23.6 8.4 23.6 15v.3c0 6.9-6.4 11.1-16.9 11.1-13.4 0-24.5-5.6-35-14.3l-15.3 18.4m-5.2 18.4L1214.3 241h-23.8l-50.3 118.6h26.3l35.5-87.5 15.4 38h-20.7l-9.2 22.8h39.1l10.8 26.7h27.2zM955.8 241.4c36.9 0 62.3 25.4 62.3 58.6v.3c0 33.1-25.5 58.9-62.3 58.9h-40.3V241.4h40.3m35.4 58.9c0-20.9-14.2-35.5-35.4-35.5h-14.5v71h14.5c21.1 0 35.4-14.3 35.4-35.2v-.3zm-133.3-2.4v20.3H870v12.5c-6.5 4.7-14.9 7.1-24.3 7.1-20.8 0-35.5-15.8-35.5-37.4v-.4c0-20 14.9-36.7 33.7-36.7 13.6 0 21.6 4.4 30.7 11.9l16.3-19.7c-12.2-10.4-25-16.2-46.1-16.2-35.5 0-61.5 27.4-61.5 60.9v.3c0 34.8 25.1 60.6 61.7 60.6 21.4 0 38-8.4 50.1-18.7v-44.7h-37.2v.2zm-128.9 0v20.3h12.2v12.5c-6.5 4.7-14.9 7.1-24.3 7.1-20.8 0-35.5-15.8-35.5-37.4v-.4c0-20 14.9-36.7 33.7-36.7 13.6 0 21.6 4.4 30.7 11.9l16.3-19.7c-12.2-10.4-25-16.2-46.1-16.2-35.5 0-61.5 27.4-61.5 60.9v.3c0 34.8 25.1 60.6 61.7 60.6 21.4 0 38-8.4 50.1-18.7v-44.7H729v.2zm-142.7 61.3h25.8v-38l45.1-79.8h-29.3l-28.5 52.4-28-52.4h-30.2l45.1 80.3v37.5zm517.3-42.1c14.9-5.6 25.1-17.5 25.1-36.5v-.3c0-11.1-3.5-20.4-10.1-26.9-7.7-7.7-19.3-11.9-34.2-11.9h-49.7v117.8h25.8v-94.4h21.8c12.6 0 20.3 5.7 20.3 16.8v.3c0 9.9-7.2 16.7-19.8 16.7h-12.7v22.9h6.8l25.1 37.7h30.2l-28.6-42.2zM479 320.6c-.8 13-3.1 25.9-7.1 38.6-62.2-3.7-117.7-31.8-157.4-74.8-39.6 43-95.2 71.1-157.3 74.8-3.9-12.5-6.3-25.5-7.1-38.6 20.8-.7 40.8-4.8 59.5-11.6-16.5-13.7-35.7-24.4-56.6-31.1 2.5-12.6 6.5-25 12.1-37 31.2 10 59.2 27.2 82 49.5 13.9-8.8 26.6-19.4 37.8-31.4-38.4-6.7-72.4-26-97.5-53.6 8.4-10.2 17.9-19.2 28.1-26.9a133.1 133.1 0 0 0 54.9 36.7c-7.6-18.4-12.9-38.1-15.6-58.6 12.3-4.7 25-8 38-9.7 2.7 25.4 10.2 49.3 21.7 70.8 11.5-21.5 19-45.4 21.7-70.8 12.9 1.7 25.6 4.9 38 9.8-2.7 20.5-8 40.1-15.6 58.6a133.1 133.1 0 0 0 54.9-36.7c10.6 8 20 17 28.1 26.8-25.1 27.6-59.1 47-97.5 53.7 11.2 12 23.9 22.5 37.8 31.4 22.9-22.4 50.9-39.5 82-49.5 5.5 11.8 9.5 24.3 12.1 37-20.9 6.7-40.1 17.4-56.6 31.1 18.7 6.7 38.7 10.7 59.6 11.5zM334 473.9v-55.3l55.9-72.8c-12-5.3-23.6-11.6-34.6-18.8l-40.7 53-40.7-53c-11 7.2-22.6 13.5-34.6 18.8l55.9 72.8v55.3c12.9 1.5 25.9 1.5 38.8 0z"/></svg>
