<svg xmlns="http://www.w3.org/2000/svg" viewBox="100 0 400 400"><path fill-rule="evenodd" d="M385 112.1h11c4.3 0 7.7 3.4 7.7 7.7V132c0 4.3-3.4 7.7-7.7 7.7h-11a7.7 7.7 0 0 1-7.7-7.7v-12.2c0-4.3 3.5-7.7 7.7-7.7zM249.4 70.7a7.8 7.8 0 0 0-7.8 7.8v12.1c0 4.3 3.5 7.8 7.8 7.8h11c4.3 0 7.7-3.5 7.7-7.8V78.5c0-4.3-3.4-7.8-7.7-7.8h-11zm-45.2 41.4a7.7 7.7 0 0 0-7.8 7.7V132c0 4.3 3.5 7.7 7.8 7.7h11c4.3 0 7.7-3.4 7.7-7.7v-12.2c0-4.3-3.4-7.7-7.7-7.7h-11zM123.6 151c4.2 0 7.7-3.5 7.7-7.8V53.8h158.9c9.2-1 9.2-14.4 0-15.5H123.6a7.9 7.9 0 0 0-7.8 7.7v97.2c0 4.4 3.5 7.8 7.8 7.8zm234.9-31.2c0-4.2-3.5-7.7-7.8-7.7h-11a7.7 7.7 0 0 0-7.7 7.7V132c0 4.3 3.4 7.8 7.7 7.8h11c4.3 0 7.8-3.5 7.8-7.8v-12.2zm-7.7 33.6h-11a7.7 7.7 0 0 0-7.7 7.7v12.2c0 4.2 3.5 7.7 7.7 7.7h11c4.3 0 7.7-3.4 7.8-7.7v-12.2a7.8 7.8 0 0 0-7.8-7.7zm-40.5-96.2c0-12.4 1.6-41.2 16.1-41.2h37.7c14.5 0 16.1 28.8 16.1 41.2 0 12.4-1.6 41.1-16.1 41.1h-37.7c-14.5 0-16.1-28.8-16.1-41.1zm15.4 0c-.3 8.7.9 17.4 3.5 25.7h32.2a95.8 95.8 0 0 0 0-51.5h-32.2c-2.6 8.3-3.8 17-3.5 25.8zm-38.8 62.6V132c0 4.3 3.5 7.8 7.7 7.8h11c4.2 0 7.7-3.5 7.7-7.8v-12.2c0-4.2-3.5-7.7-7.7-7.7h-11a7.6 7.6 0 0 0-7.7 7.7zm18.7 33.6h-11a7.7 7.7 0 0 0-7.8 7.7v12.2c0 4.2 3.5 7.7 7.8 7.7h11c4.2 0 7.7-3.4 7.7-7.7v-12.2c0-4.3-3.5-7.7-7.7-7.7zM177.5 78.5c0-4.3-3.4-7.8-7.7-7.8h-10.9a7.8 7.8 0 0 0-7.8 7.8v12.2c0 4.3 3.5 7.8 7.8 7.8h11c4.3 0 7.8-3.5 7.8-7.8V78.5h-.2zm299-40.2h-75.3c-9.2 1-9.2 14.4 0 15.4h67.7v144.2H298.7c-9.2 1-9.2 14.4 0 15.4h177.8c4.3 0 7.8-3.5 7.8-7.7V46c0-4.2-3.5-7.7-7.8-7.7zm-46.3 60h11c4.3 0 7.8-3.4 7.8-7.7V78.4c0-4.3-3.5-7.7-7.8-7.7h-11a7.6 7.6 0 0 0-7.7 7.7v12.3a7.7 7.7 0 0 0 7.7 7.6zm-77.3 215.1c-3.3 0-6.7.1-10 .4-9.1 1.6-8.2 15.1 1.1 15.4a85 85 0 0 1 8.8-.4 78 78 0 0 1 25.8 3.5v32.2c-8.3 2.6-17 3.8-25.8 3.5-3 0-6-.1-8.8-.4-9.3.3-10.3 13.7-1.1 15.4 3.2.2 6.6.4 10 .4 12.4 0 41.2-1.6 41.2-16.1v-37.7c0-14.6-28.8-16.1-41.2-16.2zm69.6-140.2a7.9 7.9 0 0 0 7.8 7.7h11c4.3 0 7.7-3.4 7.8-7.7V161c0-4.2-3.5-7.7-7.8-7.7h-11a7.8 7.8 0 0 0-7.7 7.7v12.2h-.1zM248.6 369c1.5 4-.6 8.4-4.6 9.8a96 96 0 0 1-97.2-161c-8.9-1.6-17.6-4-26-7.2a7.7 7.7 0 1 1 5.4-14.4c10.7 4 21.8 6.6 33.1 7.8a147.8 147.8 0 0 1-40.6-23.3c-6.4-6.6 1.9-16.9 9.7-12a132.2 132.2 0 0 0 46 24.1L164 168.6a7.8 7.8 0 0 1 7.1-10.8h81.6c5.6 0 9.3 5.7 7.1 10.8L246.6 199a96.5 96.5 0 0 1 60.8 81.3c-.2 9.2-13.6 10.4-15.3 1.3a80.8 80.8 0 0 0-56.3-70 146.5 146.5 0 0 1-48.1.1 80.3 80.3 0 0 0-52.3 102.5 80.8 80.8 0 0 0 103.5 50.3c3.9-1.6 8.3.5 9.7 4.5zm-65.8-195.8l10.1 23.6a130 130 0 0 0 37.9-.1l10.1-23.5h-58.1zm-12.9-61.1h-11a7.8 7.8 0 0 0-7.8 7.7V132c0 4.3 3.5 7.8 7.8 7.8h11c4.3 0 7.8-3.5 7.8-7.8v-12.2a7.8 7.8 0 0 0-7.8-7.7zm-9 175.6c-1-9.2-14.4-9.2-15.4 0a66.3 66.3 0 0 0 66.3 66.3c9.2-1 9.2-14.4 0-15.4a51 51 0 0 1-50.9-50.9zm167.9 55.5c0 12.4-1.6 41.1-16.1 41.1H275c-14.5 0-16.1-28.8-16.1-41.1 0-12.4 1.6-41.2 16.1-41.2h37.7c14.5.1 16.1 28.9 16.1 41.2zm-15.4 0a78 78 0 0 0-3.5-25.8h-32.2a97.8 97.8 0 0 0 0 51.5h32.2a76.8 76.8 0 0 0 3.5-25.7z" clip-rule="evenodd"/></svg>
