<svg class="sb-svg-icon-football" xmlns="http://www.w3.org/2000/svg" viewBox="0 0 30 30" width="30" height="30"><path d="M15.86 29.22h-1.92a14.12 14.12 0 0 1-10.39-5.79A13.72 13.72 0 0 1 1 17.21c-.07-.45-.12-.9-.18-1.35v-1.72-.25A14.19 14.19 0 0 1 6.55 3.56 13.89 13.89 0 0 1 12.77 1c.45-.07.91-.12 1.37-.18h1.97a14.8 14.8 0 0 1 2.89.53A14.11 14.11 0 0 1 22.59 3a14.51 14.51 0 0 1 3.1 2.64 14 14 0 0 1 2.46 4 13.35 13.35 0 0 1 .85 3c.08.53.15 1.07.22 1.6v1.97a14.86 14.86 0 0 1-.57 2.79 14 14 0 0 1-2.36 4.65 14.3 14.3 0 0 1-4 3.56A13.84 13.84 0 0 1 17.21 29c-.45.11-.9.16-1.35.22zm1-5.59a30.5 30.5 0 0 0 4.42-.43.49.49 0 0 0 .42-.27l2.88-5.41a.28.28 0 0 0 0-.22 3.45 3.45 0 0 0-.28-.54c-.67-1.12-1.36-2.24-2-3.36a.32.32 0 0 0-.36-.18l-5.94.61a.37.37 0 0 0-.25.17l-2.18 4.11c-.13.23 0 .38.07.55.89 1.54 1.79 3.07 2.67 4.62.11.27.26.45.53.35zM16 12.92l.94-.1 4.85-.5c.14 0 .24 0 .29-.19.46-1.13.92-2.28 1.32-3.42a.32.32 0 0 0-.06-.28q-2-2.28-4-4.54a.47.47 0 0 0-.34-.14 28.19 28.19 0 0 0-4.5.25.28.28 0 0 0-.27.22q-.8 2.42-1.61 4.82a.26.26 0 0 0 .08.32c.32.33.64.67.94 1l2.07 2.32c.1.17.17.32.29.24zm-2.18 13.69a.9.9 0 0 0 .17-.17c.55-.74 1.1-1.48 1.64-2.23a.28.28 0 0 0 0-.24c-.12-.22-.26-.44-.39-.67l-2.42-4.18a.41.41 0 0 0-.31-.21c-.52-.07-1-.14-1.55-.25-1.08-.22-2.16-.46-3.24-.7a.22.22 0 0 0-.26.12c-.76 1.2-1.52 2.4-2.29 3.59a.25.25 0 0 0 0 .31 21.47 21.47 0 0 0 2.22 3.36.47.47 0 0 0 .28.16c1.49.28 3 .55 4.49.81zM3.75 9.23a1.36 1.36 0 0 0 .17.17c1 .57 1.92 1.14 2.89 1.7a.34.34 0 0 0 .28 0 27.7 27.7 0 0 1 4.47-2.29.54.54 0 0 0 .35-.37c.48-1.48 1-2.95 1.46-4.42 0-.1.05-.17-.07-.24-.56-.32-1.12-.66-1.69-1a2.39 2.39 0 0 0-.92-.36 3 3 0 0 0-.93.33 13.16 13.16 0 0 0-4.2 2.85 2.8 2.8 0 0 0-.56.74c-.35.66-.65 1.37-.95 2.06-.11.26-.19.53-.3.83zm-.52.77c-.32.5-.64 1-1 1.5a1.68 1.68 0 0 0-.26.54 16 16 0 0 0-.28 1.82 12.91 12.91 0 0 0 .64 5.34.93.93 0 0 0 .26.41 8.6 8.6 0 0 0 .85.75c.31.24.65.46 1 .69.08-.11.13-.17.17-.24.74-1.16 1.48-2.33 2.22-3.48a.55.55 0 0 0 .17-.39 23.4 23.4 0 0 1-.48-4.8.3.3 0 0 0-.18-.3c-.41-.23-.81-.48-1.21-.72zm25.05 6c-.14.1-.22.17-.32.23l-2.16 1.3a.91.91 0 0 0-.34.27c-.24.4-.46.81-.68 1.23q-1.19 2.2-2.35 4.42a.56.56 0 0 0 0 .34c.11.53.23 1.06.35 1.59 0 .12.05.23.08.41a13.44 13.44 0 0 0 5.42-9.73zm-8.2-13.32a.86.86 0 0 0 .25 1q1.76 2 3.49 3.92a2.08 2.08 0 0 0 .74.56c.57.23 1.11.51 1.66.79.29.15.56.33.84.5a13.08 13.08 0 0 0-6.98-6.77zM8.58 26.59v.07a13 13 0 0 0 6.84 1.62c-.41-.2-.83-.38-1.24-.56a3.09 3.09 0 0 0-.57-.23l-4.14-.75z"/></svg>
