<svg xmlns="http://www.w3.org/2000/svg" viewBox="0 0 29.86 29.86" width="30" height="30"><path d="M14.93 28.86L1 22.53V7.33l13.93 6.33v15.2zM28.86 22.53l-13.93 6.33v-15.2l13.93-6.33v15.2z"/><path d="M15.27 1L1 7.33l13.93 6.33 13.93-6.33L15.27 1z"/><circle cx="10.22" cy="7.28" r=".55"/><circle cx="18.43" cy="23.11" r=".55"/><circle cx="21.89" cy="21.49" r=".55"/><circle cx="25.48" cy="19.94" r=".55"/><circle cx="25.48" cy="13.15" r=".55"/><circle cx="21.89" cy="14.7" r=".55"/><circle cx="18.43" cy="16.32" r=".55"/><circle cx="10.09" cy="22.47" r=".55"/><circle cx="5.15" cy="19.94" r=".55"/><circle cx="10.09" cy="16.14" r=".55"/><circle cx="5.15" cy="13.61" r=".55"/><circle cx="20.35" cy="7.28" r=".55"/><circle cx="15.28" cy="7.28" r=".55"/></svg>
