<svg xmlns="http://www.w3.org/2000/svg" fill="none" viewBox="0 0 389 270">
  <defs/>
  <path fill="#fff" d="M382.8 143.4l-8.9-26.1-14.9 5-30.3-89L294.8 45l.1.3-11 47-15.4 67 9.1 20 32-10.8 11.5-4 13-4.4 10.5 31 33.9-11.4-10.6-31 15-5.2zm-61.5-8.1l-7.6 2.6-14.7 5 10-49.8 1-4.1 15.3 45-4 1.3z"/>
  <path fill="#2F2F2F" d="M321.2 164.4l-11.6 4 1.8-24V140l2.3-2.2 1.5-1.5 6.2-1.2c0 .2-.5 17.8-.2 29.3z" opacity=".3"/>
  <path fill="#E3E3E3" d="M321.3 135.3s-2.9-3.7-8-3.2c-5 .4-7.8 2.3-8 7.6-.1 5.3 1.1 32 0 42.5-1.2 10.5 6 11.6 6.4 3.7.4-7.8-2.6-32.3-.3-36.3 2.2-4 .8 4.4 3.2 7.1 2.5 2.7 5-2 2.5-8.7-2.7-6.4 4.2-12.7 4.2-12.7z"/>
  <path fill="#fff" d="M11.7 95.8c-.9 0-1.5 0-1.7-.2-.3 0-1.4-.5-10-16l1.5-.8A172 172 0 0010.7 94c1 .2 6.1-.2 10.7-.7l.2 1.8c-3 .3-7.4.7-9.9.7z"/>
  <path fill="#1C1C1C" d="M43 103.3v.5s-.5 9.7-7.8 9.3h-.1a49.4 49.4 0 01-14-4l-4-1.7c-.6.1 5.4 25.2 5.4 26.5v.6c-.5 1.4-2 3-2.9 3.1l-.6-.5c-2.7-3.4-13.5-23-13.8-29.5-.3-7 3.3-11.3 8.1-12a102.6 102.6 0 0122.4 2l7.3 5.7z"/>
  <path fill="#2F2F2F" d="M22.5 134v.6c-.5 1.4-2 3-2.9 3l-.6-.4c4-5.4-6.1-31.7-4-31.8 1.1 0 3.6 1.8 6.3 3.8l-4.2-1.8c-.5.1 5.5 25.2 5.4 26.6zM43 103.3v.5s-.5 9.7-7.8 9.3c1.4-1.1 1.7-3.2 1.6-5.6 0-2.8-2.7-7.7-4.2-10.2l3 .5 7.4 5.5z" opacity=".3"/>
  <path fill="#1C1C1C" d="M27.5 71.2c-.3.4-.4.6-.4 1l-.8-1.3c-.7-1-1.5-2.3-2.1-2.5-.9-.3-3.3 2.8-6.5 3H17c-3.6-.2-7.2-5.3-4.2-11.2a4 4 0 003.2 2.3s-1.4-.3-1.4-2c3.9.7 5.9-2.2 9.2-1.1 3.3 1 3 3 3 3s2.6-.9 3.4 2.2c.5 2.6-1.8 5.1-2.7 6.6z"/>
  <path fill="#fff" d="M27 72.1c-.2.8-.7 1.7-1.3 2.5-.7.8-1.6 1.4-2.7 1.4-2.2-.1-4.4-3-5.5-4.6 3.2-.2 5.6-3.3 6.5-3 .6.2 1.4 1.4 2.1 2.5L27 72z"/>
  <path fill="#5B5B5B" d="M30.3 72.4s-1.7 3.9-2.4 3c-.3-.5-1.3-.8-2-1 .5-.6.9-1.5 1.2-2.4 0-.3.2-.5.4-1 1.1 1.1 2.8 1.4 2.8 1.4z"/>
  <path fill="#E3E3E3" d="M42.2 105c-2.7-.4-10-8.3-10-11.7l-.1-1.6c-.6-3.6-2.6-8.7-3.5-12.4-1-4.3.5-6 .5-6 3.3-5.6 10.8 5.7 15 14.8 1.5 3 2.5 5.9 2.6 7.8.2 6.4-1.8 9.5-4.5 9.1z"/>
  <path fill="#2F2F2F" d="M42.2 105c-2.7-.4-10-8.3-10-11.7l-.1-1.6V90l2.6-13.8s3.7 4.3 4.3 12c.5 7.8 9 9.6 5.2-.3 1.4 3 2.4 5.9 2.5 7.8.2 6.5-1.8 9.6-4.5 9.2z" opacity=".3"/>
  <path fill="#E3E3E3" d="M36.5 87.9l-.4.2c-1.3.4-5 .3-6.4 0a.7.7 0 01-.5-.2c-1-.5 0-1.6-.3-3.7-.3-2-1-8.1 2-10 3.1-1.9 5.5 5.5 5.6 9 0 3.7.6 4.1 0 4.7z"/>
  <path fill="#A3A3A3" d="M36.2 88s-.2 9-1.9 13.2c-.5 1.4-1.2 2.2-2.1 2.2-3.7-.1-12-8.8-12.8-9.2-.7-.3-4.5.2-4.3-.3 0-.6 1.5-1.8 3.2-2.4 1.5-.6 1.3-.2 11.5 4.4v-7-.8c1.4.3 5.1.3 6.4 0z"/>
  <path fill="#E3E3E3" d="M25.6 140c.3 1.6-10.4 12.5-9.8 9.6.5-3 3.8-12 3.8-12 .9 0 2.4-1.6 2.8-3 .9 1.5 3 4 3.2 5.4z"/>
  <path stroke="#fff" stroke-miterlimit="10" stroke-width=".5" d="M35.2 106.7s-17.1-3.2-20.5-1.7c-3.4 1.6 6.2 28.6 6.2 28.6" opacity=".3"/>
  <path fill="#2F2F2F" d="M34.2 101.1c.3-1.7.6-7-.3-9-.5-1.3-2.9-2.6-4.2-3.1v-1c1.5.4 5.1.5 6.4 0 0 0-.1 9-1.9 13.1z" opacity=".3"/>
  <path fill="#fff" d="M255 147.7l-5.1-26c-3.8-19.2-11-33.2-21.9-42.1a46 46 0 00-40-8.6c-15.8 3-27 10.7-33.6 22.9-6.7 12.2-8 28-4.2 47.2l5 26c3.9 19.2 11.1 33.3 21.8 42.1 4.6 3.8 9.6 6.4 15 8a51.3 51.3 0 0025 .7c4.7-1 9-2.4 13-4.1 9.1-4 16-10.4 20.6-18.9 6.8-12.1 8.2-27.8 4.4-47.2zm-31.7 35a13.7 13.7 0 01-11 9.6 13.7 13.7 0 01-14.3-5 37 37 0 01-6.4-13.3c-.7-2.8-1.5-5.8-2.2-9.2l-7.1-36.6c-1.7-9.6-1.7-17 0-22.2 1.6-5.2 5.3-8.4 11-9.5 4.3-.9 8.1-.1 11.2 2.2 1 .8 2 1.8 3 3 3.7 4.5 6.5 12 8.5 22.2l7 35.4c1.8 10.2 2 18 .3 23.4z"/>
  <path fill="#2F2F2F" d="M225.8 187.6c1.4 2.2 3.4 17.6 4.4 26.3-4 1.7-8.3 3-13 4a51.3 51.3 0 01-25-.5l.9-2.2c4.6-14.2-1.2-39.9-1.5-41a38.7 38.7 0 006.4 13.4c3.7 4.4 8.4 6 14.2 5 5.7-1.1 9.3-4.4 11-9.8a50 50 0 00-.2-23.4l-7-35.3a52.4 52.4 0 00-8.5-22.3c-1-1.1-2-2.1-3-2.9 11.2 2.2 20.4 37 24.2 53.8 3.8 16.6 4 24.4-3 34.9z" opacity=".3"/>
  <path fill="#fff" d="M194 180.8s.8 2 4.6 3c3.9 1 7.5-4.8 10-3 2.5 2 6.5 9.8 10.1 8.6 3.6-1.1 4.7 17.8 3 20-1.7 2-3-15-7.4-14.5-4.5.5-1 13.5-3.6 15.8-2.5 2.3-1.5-5.7-4.3-7.2-2.7-1.4 3 64.7-1.2 65.8-4.3 1-7-3-5.3-17.1 1.6-14.1-.4-63-3-65.5-2.4-2.7-2.4-3.2-2.8-5.9zM136 44.4l-34.3-6v.4l-75.6 85-1.5 21.2 10.8 1.9L54 150l25.2 4.3 2.4.4-1.8 10.4-.9 4.9-2.7 16 22.2 3.9 12 2 5.3-31.3 15 2.6 4.6-26.4-15-2.6 15.6-90zM93.2 88l-7 40.6-8.3-1.4-18.2-3.1L69.8 112l2.3-2.8 19.3-23L94 83l-.9 4.9z"/>
  <path fill="#2F2F2F" d="M79.4 154.5l-25.2-4.3c3-9.8 6.7-23.3 5.6-26.2l18.2 3c1.2 2 2.2 4.7 2.4 8.4.3 6.5-.6 13.2-1 19.1z" opacity=".3"/>
  <path fill="#fff" d="M60.8 124.2s2.7-3.8 9-2.7c6.1 1.2 6.6 8.8 3.9 17.3-2.7 8.4-3.3 37.7-2 47.1 1.2 9.5.4 14-2.6 14.3-3 .2-4.4-11.5-2.7-19.7 1.8-8.2 1.6-15.8-1.2-14.6-2.8 1.3-.5 4.5-2 7.3-1.4 2.8-5.7 1-5.5-4.3.1-5.3 8.7-40.3 3.1-44.7z"/>
  <path fill="#2F2F2F" d="M120.5 134.4l15 2.6-4.5 26.4-15-2.6-5.5 31.4-11.9-2.1 21-131L136 44.5l-15.5 90z" opacity=".3"/>
  <path fill="#E3E3E3" d="M174 6.2c0 3.4-2.9 6.2-6.2 6.2a6.2 6.2 0 01-6.2-6.2c0-3.4 2.8-6.2 6.2-6.2 3.3 0 6.2 2.8 6.2 6.2z"/>
  <path fill="#fff" d="M389 84.7c0 3.4-2.8 6.2-6.2 6.2a6.2 6.2 0 01-6.2-6.2c0-3.4 2.8-6.2 6.2-6.2 3.4 0 6.2 2.8 6.2 6.2zM65.8 39.6c0 3.4-2.8 6.2-6.1 6.2a6.2 6.2 0 01-6.2-6.2c0-3.3 2.8-6.1 6.2-6.1 3.3 0 6.1 2.7 6.1 6.1zM167.8 228.6c0 3.4-2.8 6.2-6.2 6.2a6.2 6.2 0 01-6.2-6.2c0-3.4 2.8-6.2 6.2-6.2 3.5 0 6.2 2.8 6.2 6.2z"/>
  <path fill="#E3E3E3" d="M347.4 27.2a2.4 2.4 0 100-4.9 2.4 2.4 0 000 4.9z"/>
  <path fill="#fff" d="M165.4 64.3a2.4 2.4 0 100-4.8 2.4 2.4 0 000 4.8zM96.5 29.7c0 1.3-1 2.4-2.4 2.4s-2.4-1-2.4-2.4 1-2.4 2.4-2.4c1.3 0 2.4 1 2.4 2.4z"/>
</svg>
