<svg viewBox="0 0 15 18" fill="none" xmlns="http://www.w3.org/2000/svg">
<path d="M14.5994 3.62029C14.3722 3.39283 14.1026 3.27908 13.7914 3.27908H12.6423V2.41709C12.6423 2.0221 12.5015 1.68387 12.2202 1.40254C11.9387 1.1212 11.6007 0.980469 11.2055 0.980469H10.631C10.2358 0.980469 9.89767 1.1212 9.61633 1.40257C9.3349 1.68387 9.19424 2.02213 9.19424 2.41712V3.27911H5.74657V2.41712C5.74657 2.02213 5.60584 1.6839 5.32447 1.40257C5.04316 1.1212 4.70497 0.980469 4.30982 0.980469H3.73523C3.34018 0.980469 3.00195 1.1212 2.72059 1.40257C2.43928 1.68387 2.29852 2.02213 2.29852 2.41712V3.27911H1.14934C0.838001 3.27911 0.568678 3.39286 0.341213 3.62033C0.113748 3.84776 0 4.11721 0 4.42845V15.9213C0 16.2323 0.113748 16.5017 0.341213 16.7293C0.568647 16.9567 0.83797 17.0705 1.14934 17.0705H13.7912C14.1024 17.0705 14.372 16.9567 14.5992 16.7293C14.8267 16.5018 14.9405 16.2323 14.9405 15.9213V4.42842C14.9405 4.11708 14.8268 3.84776 14.5994 3.62029ZM10.3437 2.41721C10.3437 2.33334 10.3704 2.26444 10.4242 2.21069C10.478 2.15688 10.5469 2.12993 10.6308 2.12993H11.2053C11.2893 2.12993 11.3579 2.15679 11.4119 2.21069C11.4657 2.26453 11.4926 2.33343 11.4926 2.41721V5.00301C11.4926 5.08685 11.4657 5.15563 11.4119 5.20953C11.3579 5.26327 11.2893 5.29029 11.2053 5.29029H10.6308C10.5469 5.29029 10.478 5.2634 10.4242 5.20953C10.3704 5.1556 10.3437 5.08685 10.3437 5.00301V2.41721ZM3.44795 2.41721C3.44795 2.33334 3.47484 2.26444 3.52871 2.21069C3.58261 2.15688 3.65139 2.12993 3.73523 2.12993H4.30982C4.39369 2.12993 4.4626 2.15679 4.51634 2.21069C4.57015 2.26453 4.59717 2.33343 4.59717 2.41721V5.00301C4.59717 5.08685 4.57028 5.15572 4.51634 5.20953C4.46247 5.26327 4.39369 5.29029 4.30982 5.29029H3.73523C3.65139 5.29029 3.58252 5.2634 3.52871 5.20953C3.47497 5.1556 3.44795 5.08685 3.44795 5.00301V2.41721ZM13.7912 15.9211H1.14934V6.72694H13.7912V15.9211Z" />
</svg>
