<svg xmlns="http://www.w3.org/2000/svg" width="19" height="18" viewBox="0 0 19 18" fill="none">
<path d="M9.29913 0C4.3287 0 0.299316 4.02951 0.299316 8.99976C0.299316 13.97 4.3287 18 9.29907 18C14.2694 18 18.2991 13.9702 18.2991 8.99976C18.2991 4.02933 14.2695 0 9.29913 0ZM9.92062 10.1003C9.92014 10.1239 9.9166 10.1476 9.9133 10.1713C9.91096 10.189 9.90988 10.2072 9.90586 10.2247C9.90184 10.2428 9.89494 10.2608 9.88906 10.279C9.88204 10.3009 9.8755 10.3228 9.86632 10.3435C9.86458 10.3471 9.86398 10.351 9.86242 10.3546C9.84886 10.3835 9.83314 10.4106 9.81592 10.4363C9.81484 10.4378 9.8134 10.4394 9.81232 10.441C9.7927 10.4698 9.77032 10.4959 9.7468 10.5205C9.74026 10.5272 9.7336 10.5332 9.7267 10.5396C9.706 10.5594 9.68422 10.5774 9.66106 10.5939C9.65392 10.5991 9.64708 10.6045 9.63958 10.6095C9.60988 10.6289 9.57874 10.646 9.54634 10.66C9.53932 10.6632 9.532 10.665 9.52486 10.6678C9.4975 10.6784 9.46978 10.6872 9.44115 10.6938C9.43089 10.6963 9.42076 10.6985 9.41031 10.7004C9.37359 10.7071 9.33639 10.7117 9.29871 10.7117C9.29109 10.7117 9.28329 10.7094 9.27567 10.7091C9.23955 10.7077 9.20379 10.7049 9.16941 10.6975C9.15867 10.6952 9.14811 10.6905 9.13737 10.6876C9.10533 10.6789 9.07401 10.6692 9.04413 10.6558C9.04071 10.6541 9.03711 10.6538 9.03369 10.6522L5.58277 9.02448C5.27185 8.8779 5.13865 8.50692 5.28523 8.19599C5.43181 7.88525 5.80279 7.75187 6.11371 7.89845L8.67669 9.1071V3.73497C8.67669 3.39122 8.95539 3.11252 9.29913 3.11252C9.64288 3.11252 9.92158 3.39122 9.92158 3.73497V10.0891H9.9217C9.9217 10.0928 9.92062 10.0965 9.92062 10.1003Z"/>
</svg>
