<svg width="22" height="26" viewBox="0 0 22 26" fill="none" xmlns="http://www.w3.org/2000/svg">
<path d="M16.9202 5.40726H9.84297C9.29199 5.40726 8.8454 5.85385 8.8454 6.40483C8.8454 6.95581 9.29199 7.4024 9.84297 7.4024H16.9202C17.4712 7.4024 17.9178 6.95581 17.9178 6.40483C17.9178 5.85385 17.4711 5.40726 16.9202 5.40726Z"/>
<path d="M16.9202 9.39749H9.84297C9.29199 9.39749 8.8454 9.84409 8.8454 10.3951C8.8454 10.946 9.29199 11.3926 9.84297 11.3926H16.9202C17.4711 11.3926 17.9178 10.946 17.9178 10.3951C17.9178 9.84409 17.4712 9.39749 16.9202 9.39749Z"/>
<path d="M12.8856 13.3878H9.84297C9.29199 13.3878 8.8454 13.8344 8.8454 14.3854C8.8454 14.9363 9.29199 15.3829 9.84297 15.3829H12.8856C13.4365 15.3829 13.8831 14.9363 13.8831 14.3854C13.8831 13.8344 13.4365 13.3878 12.8856 13.3878Z"/>
<path d="M20.9659 13.5872C21.5169 13.5872 21.9634 13.1407 21.9634 12.5897V4.01064C21.9634 1.81038 20.1734 0.0203552 17.9732 0.0203552H8.79552C6.5965 0.0203552 4.80728 1.80839 4.80523 4.00695C2.60502 4.00695 0.814941 5.79698 0.814941 7.99724V21.5641C0.814941 23.7644 2.60497 25.5544 4.80523 25.5544H14.4816C16.6818 25.5544 18.4719 23.7644 18.4719 21.5641V21.5338C20.4375 21.2876 21.9634 19.6057 21.9634 17.5746C21.9634 17.0236 21.5168 16.577 20.9658 16.577C20.4148 16.577 19.9683 17.0236 19.9683 17.5746C19.9683 18.6745 19.0735 19.5695 17.9736 19.5697L8.79597 19.572H8.79552C8.26265 19.572 7.76169 19.3645 7.38492 18.9877C7.00799 18.6109 6.80038 18.1098 6.80038 17.5768V4.01064C6.80038 2.91054 7.69541 2.0155 8.79552 2.0155H17.9732C19.0733 2.0155 19.9684 2.91054 19.9684 4.01064V12.5897C19.9683 13.1407 20.4149 13.5872 20.9659 13.5872ZM8.79552 21.567H8.79652L16.4768 21.5651C16.4762 22.6647 15.5814 23.5592 14.4816 23.5592H4.80528C3.70517 23.5592 2.81014 22.6641 2.81014 21.564V7.99714C2.81014 6.89704 3.70517 6.002 4.80528 6.002V17.5768C4.80528 18.6428 5.22046 19.645 5.97431 20.3986C6.72801 21.1522 7.72977 21.567 8.79552 21.567Z"/>
</svg>
