
<svg width="11" height="12" viewBox="0 0 11 12" fill="none" xmlns="http://www.w3.org/2000/svg">
    <path d="M7.94705 11.1282H3.03958V9.39734L4.61871 8.23072V7.10074C4.10484 6.79596 1.99805 5.2374 1.99805 0.180451V0H8.9892V0.180451C8.9892 5.23722 6.882 6.79578 6.36812 7.10074L6.36792 8.23072L7.94705 9.39734V11.1282Z"/>
    <path d="M4.86497 7.08159C4.83083 7.07035 4.00425 6.79173 1.98736 5.59594C-0.11142 4.35117 -0.00250886 0.363333 0.00297734 0.194112L0.00947947 0H2.49595V0.401473H0.408143C0.414239 1.20562 0.54794 4.27388 2.19665 5.25167C4.16416 6.41835 4.98607 6.69838 4.9942 6.70099L4.86497 7.08159Z"/>
    <path d="M6.1222 7.08159L5.99316 6.70099C6.00129 6.69838 6.82325 6.41835 8.79067 5.25167C10.4399 4.27388 10.5732 1.20542 10.5795 0.401473H8.49115V0H10.978L10.9843 0.194112C10.99 0.363333 11.0991 4.35117 8.99977 5.59594C6.98338 6.79152 6.15654 7.07035 6.1222 7.08159Z"/>
</svg>
