<svg width="144" height="38" viewBox="0 0 144 38" fill="none" xmlns="http://www.w3.org/2000/svg">
<path d="M54.2857 17.4375C53.9619 14.75 51.9278 13.2045 49.2346 13.2045C46.1607 13.2045 43.8141 15.375 43.8141 19.1818C43.8141 22.9773 46.121 25.1591 49.2346 25.1591C52.2176 25.1591 54.0187 23.1761 54.2857 21.0341L51.7971 21.0227C51.5641 22.267 50.5869 22.983 49.2744 22.983C47.5073 22.983 46.3085 21.6705 46.3085 19.1818C46.3085 16.7614 47.4903 15.3807 49.2914 15.3807C50.638 15.3807 51.6096 16.1591 51.7971 17.4375H54.2857ZM58.4931 25.1648C59.7829 25.1648 60.6181 24.6023 61.0443 23.7898H61.1124V25H63.4079V19.1136C63.4079 17.0341 61.6465 16.1591 59.7033 16.1591C57.6124 16.1591 56.2374 17.1591 55.9022 18.75L58.1408 18.9318C58.3056 18.3523 58.8227 17.9261 59.692 17.9261C60.5158 17.9261 60.9874 18.3409 60.9874 19.0568V19.0909C60.9874 19.6534 60.3908 19.7273 58.8738 19.875C57.1465 20.0341 55.5954 20.6136 55.5954 22.5625C55.5954 24.2898 56.8283 25.1648 58.4931 25.1648ZM59.1863 23.4943C58.442 23.4943 57.9079 23.1477 57.9079 22.483C57.9079 21.8011 58.4704 21.4659 59.3227 21.3466C59.8511 21.2727 60.7147 21.1477 61.0045 20.9545V21.8807C61.0045 22.7955 60.2488 23.4943 59.1863 23.4943ZM72.5471 18.7614C72.3312 17.1534 71.0357 16.1591 68.8312 16.1591C66.5982 16.1591 65.1266 17.1932 65.1323 18.875C65.1266 20.1818 65.9505 21.0284 67.6551 21.3693L69.1664 21.6705C69.9278 21.8239 70.2744 22.1023 70.2857 22.5398C70.2744 23.0568 69.7119 23.4261 68.8653 23.4261C68.0016 23.4261 67.4278 23.0568 67.2801 22.3466L64.8994 22.4716C65.1266 24.142 66.5471 25.1705 68.8596 25.1705C71.121 25.1705 72.7403 24.017 72.746 22.2955C72.7403 21.0341 71.9164 20.2784 70.2232 19.9318L68.6437 19.6136C67.8312 19.4375 67.5301 19.1591 67.5357 18.7386C67.5301 18.2159 68.121 17.875 68.871 17.875C69.7119 17.875 70.2119 18.3352 70.3312 18.8977L72.5471 18.7614ZM74.2701 25H76.6906V16.2727H74.2701V25ZM75.486 15.1477C76.2076 15.1477 76.7985 14.5966 76.7985 13.9205C76.7985 13.25 76.2076 12.6989 75.486 12.6989C74.7701 12.6989 74.1792 13.25 74.1792 13.9205C74.1792 14.5966 74.7701 15.1477 75.486 15.1477ZM81.0499 19.9545C81.0556 18.8295 81.7261 18.1705 82.7033 18.1705C83.6749 18.1705 84.2602 18.8068 84.2545 19.875V25H86.6749V19.4432C86.6749 17.4091 85.4818 16.1591 83.6636 16.1591C82.3681 16.1591 81.4306 16.7955 81.0386 17.8125H80.9363V16.2727H78.6295V25H81.0499V19.9545ZM92.5258 25.1705C95.1735 25.1705 96.8212 23.358 96.8212 20.6705C96.8212 17.9659 95.1735 16.1591 92.5258 16.1591C89.8781 16.1591 88.2303 17.9659 88.2303 20.6705C88.2303 23.358 89.8781 25.1705 92.5258 25.1705ZM92.5372 23.2955C91.3156 23.2955 90.6906 22.1761 90.6906 20.6534C90.6906 19.1307 91.3156 18.0057 92.5372 18.0057C93.736 18.0057 94.361 19.1307 94.361 20.6534C94.361 22.1761 93.736 23.2955 92.5372 23.2955ZM108.174 13.3636H105.725V20.6818H105.622L100.6 13.3636H98.4406V25H100.901V17.6761H100.986L106.049 25H108.174V13.3636ZM112.649 25.1648C113.939 25.1648 114.774 24.6023 115.201 23.7898H115.269V25H117.564V19.1136C117.564 17.0341 115.803 16.1591 113.86 16.1591C111.769 16.1591 110.394 17.1591 110.058 18.75L112.297 18.9318C112.462 18.3523 112.979 17.9261 113.848 17.9261C114.672 17.9261 115.144 18.3409 115.144 19.0568V19.0909C115.144 19.6534 114.547 19.7273 113.03 19.875C111.303 20.0341 109.752 20.6136 109.752 22.5625C109.752 24.2898 110.985 25.1648 112.649 25.1648ZM113.343 23.4943C112.598 23.4943 112.064 23.1477 112.064 22.483C112.064 21.8011 112.627 21.4659 113.479 21.3466C114.007 21.2727 114.871 21.1477 115.161 20.9545V21.8807C115.161 22.7955 114.405 23.4943 113.343 23.4943ZM119.442 25H121.862V19.7614C121.862 18.7955 122.476 18.1534 123.283 18.1534C124.078 18.1534 124.612 18.6989 124.612 19.5568V25H126.959V19.6705C126.959 18.767 127.476 18.1534 128.357 18.1534C129.129 18.1534 129.709 18.6364 129.709 19.608V25H132.124V19.1307C132.124 17.2386 130.999 16.1591 129.374 16.1591C128.095 16.1591 127.101 16.8125 126.743 17.8125H126.652C126.374 16.8011 125.482 16.1591 124.283 16.1591C123.107 16.1591 122.215 16.7841 121.851 17.8125H121.749V16.2727H119.442V25ZM138.013 25.1705C140.172 25.1705 141.627 24.1193 141.968 22.5L139.729 22.3523C139.485 23.017 138.86 23.3636 138.053 23.3636C136.843 23.3636 136.076 22.5625 136.076 21.2614V21.2557H142.019V20.5909C142.019 17.625 140.223 16.1591 137.916 16.1591C135.348 16.1591 133.683 17.983 133.683 20.6761C133.683 23.4432 135.326 25.1705 138.013 25.1705ZM136.076 19.7557C136.127 18.7614 136.882 17.9659 137.956 17.9659C139.007 17.9659 139.735 18.7159 139.74 19.7557H136.076Z" fill="#E3E3E3"/>
<path d="M33.4273 0.755127H28.8226C27.4018 0.755127 26.25 1.91474 26.25 3.34528V7.98123C26.25 9.41177 27.4018 10.5715 28.8226 10.5715H33.4273C34.8482 10.5715 36 9.41177 36 7.98123V3.34528C36 1.91474 34.8482 0.755127 33.4273 0.755127Z" fill="#E3E3E3"/>
<path d="M15.3951 10.8477H19.4386C21.1117 10.9435 22.7034 11.6072 23.9538 12.7306L24.1054 12.9003C25.2271 14.1555 25.8871 15.7601 25.9755 17.4462V21.5002C25.9755 22.2064 26.2542 22.8838 26.7502 23.3833C27.2463 23.8827 27.9191 24.1633 28.6207 24.1633H33.3549C34.0564 24.1633 34.7292 23.8827 35.2252 23.3833C35.7213 22.8838 36 22.2064 36 21.5002V16.7338C36 16.0274 35.7213 15.3501 35.2252 14.8507C34.7292 14.3513 34.0564 14.0707 33.3549 14.0707H29.3282C27.6535 13.9816 26.0598 13.3171 24.813 12.1878L24.6446 12.0351C23.5265 10.7777 22.8669 9.17444 22.7744 7.4892V3.41822C22.7744 2.71197 22.4958 2.03457 21.9997 1.53515C21.5036 1.03572 20.8309 0.755127 20.1293 0.755127H15.3951C14.6935 0.755127 14.0208 1.03572 13.5247 1.53515C13.0287 2.03457 12.75 2.71197 12.75 3.41822V8.18473C12.75 8.89097 13.0287 9.5683 13.5247 10.0677C14.0208 10.5672 14.6935 10.8477 15.3951 10.8477Z" fill="#E3E3E3"/>
<path d="M34.1131 27.5362H30.1076C28.4403 27.4273 26.8605 26.7308 25.6349 25.5644L25.1843 25.1016C24.0732 23.8327 23.4193 22.2107 23.3317 20.5064V16.3914C23.3273 15.6789 23.0499 14.9968 22.5595 14.4929C22.069 13.989 21.4051 13.704 20.7115 13.6995H16.706C15.0524 13.628 13.4732 12.9742 12.2333 11.8478L11.7827 11.3848C10.6716 10.116 10.0178 8.49407 9.93015 6.78973V2.69194C9.93015 1.97799 9.65407 1.29326 9.16275 0.788403C8.67135 0.283618 8.0049 0 7.30995 0H2.6202C1.92532 0 1.2588 0.283618 0.767475 0.788403C0.276075 1.29326 0 1.97799 0 2.69194V7.50987C0 8.22382 0.276075 8.90854 0.767475 9.41333C1.2588 9.91819 1.92532 10.2018 2.6202 10.2018H6.609C8.29327 10.2809 9.89827 10.9599 11.1485 12.1221L11.5991 12.5851C12.7067 13.8561 13.36 15.4767 13.4516 17.1801V21.2952C13.456 22.0077 13.7335 22.6898 14.2239 23.1936C14.7143 23.6974 15.3783 23.9825 16.0718 23.987H20.0773C21.7179 24.0925 23.276 24.763 24.5 25.8902L24.9506 26.3531C26.0582 27.6242 26.7116 29.2449 26.8031 30.9482V35.0632C26.8075 35.7758 27.085 36.4578 27.5754 36.9617C28.0658 37.4656 28.7298 37.7506 29.4233 37.7551H34.1297C34.8233 37.7506 35.4873 37.4656 35.9777 36.9617C36.4681 36.4578 36.7457 35.7758 36.75 35.0632V30.2281C36.7456 29.5126 36.4658 28.8279 35.9718 28.3236C35.4778 27.8192 34.8095 27.5362 34.1131 27.5362Z" fill="#E3E3E3"/>
<path d="M7.72942 27.1837H2.77057C1.24042 27.1837 0 28.3434 0 29.7739V34.4099C0 35.8404 1.24042 37 2.77057 37H7.72942C9.25957 37 10.5 35.8404 10.5 34.4099V29.7739C10.5 28.3434 9.25957 27.1837 7.72942 27.1837Z" fill="#E3E3E3"/>
<path d="M20.6049 26.9073H16.5782C14.9035 26.8183 13.3098 26.1538 12.063 25.0246L11.8945 24.8719C10.7693 23.6055 10.1093 21.989 10.0244 20.292V16.221C10.0161 15.5351 9.7452 14.8789 9.26812 14.389C8.79105 13.8993 8.14462 13.6137 7.46355 13.5919H2.6451C1.94355 13.5919 1.2708 13.8725 0.774748 14.3719C0.278698 14.8713 0 15.5486 0 16.255V21.0214C0 21.7277 0.278698 22.405 0.774748 22.9045C1.2708 23.404 1.94355 23.6845 2.6451 23.6845H6.68857C8.36175 23.7802 9.9534 24.4439 11.2038 25.5673L11.3554 25.7369C12.4771 26.9922 13.1371 28.5968 13.2255 30.2829V34.3368C13.2255 34.688 13.2945 35.0357 13.4284 35.3599C13.5625 35.6841 13.7588 35.9784 14.0063 36.226C14.2536 36.4735 14.5472 36.6693 14.8701 36.8021C15.193 36.9349 15.5387 37.0022 15.8875 36.9999H20.6049C21.3064 36.9999 21.9792 36.7194 22.4753 36.22C22.9713 35.7206 23.25 35.0432 23.25 34.3368V29.5704C23.25 28.8642 22.9713 28.1868 22.4753 27.6873C21.9792 27.1879 21.3064 26.9073 20.6049 26.9073Z" fill="#E3E3E3"/>
</svg>
