<svg width="18" height="11" viewBox="0 0 18 11" fill="none" xmlns="http://www.w3.org/2000/svg">
<path d="M17.7992 4.56906C16.8615 3.19324 15.6008 2.08779 14.0172 1.25271C12.4335 0.417601 10.7612 0 9 0C7.23883 0 5.56642 0.417444 3.9827 1.25271C2.39895 2.08779 1.13831 3.19324 0.200819 4.56906C0.0669513 4.77931 0 4.98659 0 5.19091C0 5.39523 0.0669513 5.60252 0.200819 5.81271C1.13831 7.18858 2.39895 8.29413 3.9827 9.12902C5.56642 9.96422 7.23883 10.3815 9 10.3815C10.7612 10.3815 12.4335 9.96561 14.0172 9.13357C15.6008 8.30149 16.8618 7.19448 17.7992 5.81271C17.9331 5.60252 18 5.39533 18 5.19091C18 4.98659 17.9331 4.77931 17.7992 4.56906ZM6.84528 2.10426C7.44457 1.56659 8.16274 1.29766 8.99989 1.29766C9.13376 1.29766 9.24768 1.33983 9.34148 1.42388C9.43513 1.50797 9.4822 1.61015 9.4822 1.73028C9.4822 1.85051 9.43513 1.95263 9.34169 2.03659C9.24803 2.12077 9.13404 2.16281 9.00014 2.16281C8.42428 2.16281 7.93195 2.34614 7.52352 2.71255C7.11495 3.07917 6.91079 3.5207 6.91079 4.03735C6.91079 4.15764 6.86379 4.25969 6.7701 4.34384C6.67627 4.42806 6.56249 4.47007 6.42859 4.47007C6.29458 4.47007 6.18076 4.42796 6.08697 4.34384C5.99314 4.25969 5.94628 4.15752 5.94628 4.03735C5.94628 3.28642 6.24603 2.64197 6.84528 2.10426ZM13.3645 8.13344C12.0218 8.86322 10.567 9.22832 9 9.22832C7.43303 9.22832 5.97826 8.86344 4.63564 8.13344C3.29303 7.40344 2.17639 6.42263 1.28579 5.19091C2.30364 3.77299 3.57931 2.71251 5.11278 2.00973C4.70432 2.63445 4.50002 3.31041 4.50002 4.03732C4.50002 5.1489 4.94039 6.09941 5.82089 6.88957C6.70139 7.67973 7.76121 8.07463 9 8.07463C10.2389 8.07463 11.2984 7.67951 12.1791 6.88957C13.0598 6.09963 13.5 5.1489 13.5 4.03732C13.5 3.31041 13.2957 2.63436 12.8872 2.00973C14.4206 2.71251 15.6963 3.77309 16.7141 5.19091C15.8237 6.42263 14.7071 7.40344 13.3645 8.13344Z" fill="#CBCBCB"/>
</svg>
