<svg width="25" height="25" viewBox="0 0 25 25" fill="none" xmlns="http://www.w3.org/2000/svg">
    <path
        d="M10.7186 1.49072C11.4609 0.0362165 13.5391 0.0362165 14.2814 1.49072L16.3842 5.61107C16.6748 6.18051 17.2201 6.57671 17.8515 6.67712L22.42 7.4037C24.0326 7.66019 24.6749 9.63677 23.5209 10.7922L20.252 14.0653C19.8003 14.5176 19.592 15.1587 19.6916 15.7902L20.4123 20.3596C20.6667 21.9726 18.9853 23.1942 17.5299 22.4538L13.4068 20.3563C12.837 20.0665 12.163 20.0665 11.5932 20.3563L7.47011 22.4538C6.01466 23.1942 4.33328 21.9726 4.5877 20.3596L5.30842 15.7902C5.40802 15.1587 5.19973 14.5176 4.74796 14.0653L1.47906 10.7922C0.325123 9.63677 0.967352 7.66019 2.58004 7.4037L7.14852 6.67712C7.77989 6.57671 8.32521 6.18051 8.61582 5.61107L10.7186 1.49072Z"
        fill="#fff"/>
</svg>
