<svg xmlns="http://www.w3.org/2000/svg" viewBox="0 0 72 72"><path d="M20.668 65.175a4.289 4.289 0 0 1-2.592-.882 4.532 4.532 0 0 1-1.63-4.604l3.652-15.591L8.412 33.753a4.519 4.519 0 0 1-1.303-4.72 4.347 4.347 0 0 1 3.81-3.098l15.187-1.172 5.78-14.794a4.294 4.294 0 0 1 8.047.003l5.778 14.79L60.9 25.936a4.388 4.388 0 0 1 3.8 3.106 4.52 4.52 0 0 1-1.282 4.703L51.718 44.098l3.656 15.58a4.565 4.565 0 0 1-1.617 4.606 4.318 4.318 0 0 1-4.886.23l-12.964-8.4-12.93 8.378a4.249 4.249 0 0 1-2.308.683zm15.238-54a.351.351 0 0 0-.298.254l-6.691 17.129-17.69 1.365a.39.39 0 0 0-.297.295.532.532 0 0 0 .134.54l13.473 11.927-4.194 17.906a.531.531 0 0 0 .165.526.253.253 0 0 0 .296.016l15.102-9.785 15.104 9.786a.34.34 0 0 0 .313-.025.567.567 0 0 0 .152-.537l-4.198-17.887 13.48-11.927a.537.537 0 0 0 .124-.534.392.392 0 0 0-.29-.301L42.9 28.558l-6.695-17.134a.35.35 0 0 0-.299-.248z"/></svg>
