<svg width="23" height="22" viewBox="0 0 23 22" fill="none" xmlns="http://www.w3.org/2000/svg">
    <mask id="path-1-inside-1">
        <path
            d="M9.58727 14.4137C9.73192 15.0045 10.2657 15.4444 10.9005 15.4444C11.6461 15.4444 12.2527 14.8378 12.2527 14.0922C12.2527 13.3466 11.6461 12.74 10.9005 12.74C10.2657 12.74 9.73192 13.1799 9.58727 13.7707H9.16054V13.0004C9.75142 12.8557 10.1913 12.322 10.1913 11.6871C10.1913 10.9415 9.58469 10.335 8.83908 10.335C8.09347 10.335 7.4869 10.9415 7.4869 11.6871C7.4869 12.322 7.92674 12.8557 8.51763 13.0004V13.7707H8.0909C7.94625 13.1799 7.41245 12.74 6.77764 12.74C6.03203 12.74 5.42542 13.3466 5.42542 14.0922C5.42542 14.8378 6.03203 15.4444 6.77764 15.4444C7.4125 15.4444 7.94625 15.0045 8.0909 14.4137H8.51763V15.0339L7.53272 16.6755C7.47315 16.7748 7.47156 16.8985 7.52865 16.9993C7.5857 17.1 7.69255 17.1623 7.80836 17.1623H9.86985C9.98566 17.1623 10.0925 17.1 10.1496 16.9993C10.2067 16.8984 10.2051 16.7748 10.1455 16.6755L9.16059 15.0339V14.4137H9.58727ZM10.9005 13.3829C11.2916 13.3829 11.6098 13.7011 11.6098 14.0922C11.6098 14.4833 11.2916 14.8015 10.9005 14.8015C10.5094 14.8015 10.1913 14.4833 10.1913 14.0922C10.1913 13.7011 10.5094 13.3829 10.9005 13.3829ZM8.12978 11.6871C8.12978 11.296 8.44793 10.9779 8.83904 10.9779C9.23015 10.9779 9.54831 11.296 9.54831 11.6871C9.54831 12.0782 9.23015 12.3964 8.83904 12.3964C8.44793 12.3964 8.12978 12.0782 8.12978 11.6871ZM6.77755 14.8015C6.38645 14.8015 6.06825 14.4833 6.06825 14.0922C6.06825 13.7011 6.38645 13.3829 6.77755 13.3829C7.16866 13.3829 7.48682 13.7011 7.48682 14.0922C7.48682 14.4833 7.16866 14.8015 6.77755 14.8015ZM8.37606 16.5194L8.83904 15.7478L9.30203 16.5194H8.37606Z"/>
    </mask>
    <path
        d="M9.58727 14.4137C9.73192 15.0045 10.2657 15.4444 10.9005 15.4444C11.6461 15.4444 12.2527 14.8378 12.2527 14.0922C12.2527 13.3466 11.6461 12.74 10.9005 12.74C10.2657 12.74 9.73192 13.1799 9.58727 13.7707H9.16054V13.0004C9.75142 12.8557 10.1913 12.322 10.1913 11.6871C10.1913 10.9415 9.58469 10.335 8.83908 10.335C8.09347 10.335 7.4869 10.9415 7.4869 11.6871C7.4869 12.322 7.92674 12.8557 8.51763 13.0004V13.7707H8.0909C7.94625 13.1799 7.41245 12.74 6.77764 12.74C6.03203 12.74 5.42542 13.3466 5.42542 14.0922C5.42542 14.8378 6.03203 15.4444 6.77764 15.4444C7.4125 15.4444 7.94625 15.0045 8.0909 14.4137H8.51763V15.0339L7.53272 16.6755C7.47315 16.7748 7.47156 16.8985 7.52865 16.9993C7.5857 17.1 7.69255 17.1623 7.80836 17.1623H9.86985C9.98566 17.1623 10.0925 17.1 10.1496 16.9993C10.2067 16.8984 10.2051 16.7748 10.1455 16.6755L9.16059 15.0339V14.4137H9.58727ZM10.9005 13.3829C11.2916 13.3829 11.6098 13.7011 11.6098 14.0922C11.6098 14.4833 11.2916 14.8015 10.9005 14.8015C10.5094 14.8015 10.1913 14.4833 10.1913 14.0922C10.1913 13.7011 10.5094 13.3829 10.9005 13.3829ZM8.12978 11.6871C8.12978 11.296 8.44793 10.9779 8.83904 10.9779C9.23015 10.9779 9.54831 11.296 9.54831 11.6871C9.54831 12.0782 9.23015 12.3964 8.83904 12.3964C8.44793 12.3964 8.12978 12.0782 8.12978 11.6871ZM6.77755 14.8015C6.38645 14.8015 6.06825 14.4833 6.06825 14.0922C6.06825 13.7011 6.38645 13.3829 6.77755 13.3829C7.16866 13.3829 7.48682 13.7011 7.48682 14.0922C7.48682 14.4833 7.16866 14.8015 6.77755 14.8015ZM8.37606 16.5194L8.83904 15.7478L9.30203 16.5194H8.37606Z"
    />
    <path
        d="M9.58727 14.4137L10.5586 14.1759L10.372 13.4137H9.58727V14.4137ZM9.58727 13.7707V14.7707H10.372L10.5586 14.0085L9.58727 13.7707ZM9.16054 13.7707H8.16054V14.7707H9.16054V13.7707ZM9.16054 13.0004L8.92275 12.0291L8.16054 12.2157V13.0004H9.16054ZM8.51763 13.0004H9.51763V12.2157L8.75542 12.0291L8.51763 13.0004ZM8.51763 13.7707V14.7707H9.51763V13.7707H8.51763ZM8.0909 13.7707L7.11959 14.0085L7.30618 14.7707H8.0909V13.7707ZM8.0909 14.4137V13.4137H7.30618L7.11959 14.1759L8.0909 14.4137ZM8.51763 14.4137H9.51763V13.4137H8.51763V14.4137ZM8.51763 15.0339L9.37513 15.5484L9.51763 15.3109V15.0339H8.51763ZM7.53272 16.6755L6.67522 16.161L6.6752 16.161L7.53272 16.6755ZM7.52865 16.9993L8.39887 16.5066L8.39871 16.5063L7.52865 16.9993ZM10.1496 16.9993L9.27941 16.5065L9.27934 16.5066L10.1496 16.9993ZM10.1455 16.6755L11.003 16.161L11.003 16.161L10.1455 16.6755ZM9.16059 15.0339H8.16059V15.3109L8.30308 15.5484L9.16059 15.0339ZM9.16059 14.4137V13.4137H8.16059V14.4137H9.16059ZM8.37606 16.5194L7.51857 16.0049L6.60985 17.5194H8.37606V16.5194ZM8.83904 15.7478L9.69653 15.2332L8.83904 13.8041L7.98155 15.2332L8.83904 15.7478ZM9.30203 16.5194V17.5194H11.0682L10.1595 16.0049L9.30203 16.5194ZM8.61595 14.6515C8.8673 15.6782 9.79314 16.4444 10.9005 16.4444V14.4444C10.7383 14.4444 10.5965 14.3309 10.5586 14.1759L8.61595 14.6515ZM10.9005 16.4444C12.1984 16.4444 13.2527 15.3901 13.2527 14.0922H11.2527C11.2527 14.2855 11.0939 14.4444 10.9005 14.4444V16.4444ZM13.2527 14.0922C13.2527 12.7943 12.1984 11.74 10.9005 11.74V13.74C11.0939 13.74 11.2527 13.8989 11.2527 14.0922H13.2527ZM10.9005 11.74C9.79307 11.74 8.8673 12.5063 8.61595 13.533L10.5586 14.0085C10.5965 13.8535 10.7383 13.74 10.9005 13.74V11.74ZM9.58727 12.7707H9.16054V14.7707H9.58727V12.7707ZM10.1605 13.7707V13.0004H8.16054V13.7707H10.1605ZM9.39833 13.9717C10.425 13.7204 11.1913 12.7945 11.1913 11.6871H9.19126C9.19126 11.8494 9.07781 11.9911 8.92275 12.0291L9.39833 13.9717ZM11.1913 11.6871C11.1913 10.3892 10.137 9.33496 8.83908 9.33496V11.335C9.03241 11.335 9.19126 11.4938 9.19126 11.6871H11.1913ZM8.83908 9.33496C7.54119 9.33496 6.4869 10.3892 6.4869 11.6871H8.4869C8.4869 11.4938 8.64576 11.335 8.83908 11.335V9.33496ZM6.4869 11.6871C6.4869 12.7946 7.25315 13.7204 8.27983 13.9717L8.75542 12.0291C8.60034 11.9911 8.4869 11.8494 8.4869 11.6871H6.4869ZM7.51763 13.0004V13.7707H9.51763V13.0004H7.51763ZM8.51763 12.7707H8.0909V14.7707H8.51763V12.7707ZM9.06222 13.533C8.81087 12.5062 7.88503 11.74 6.77764 11.74V13.74C6.93987 13.74 7.08162 13.8535 7.11959 14.0085L9.06222 13.533ZM6.77764 11.74C5.47978 11.74 4.42542 12.7943 4.42542 14.0922H6.42542C6.42542 13.8989 6.58427 13.74 6.77764 13.74V11.74ZM4.42542 14.0922C4.42542 15.3901 5.47978 16.4444 6.77764 16.4444V14.4444C6.58427 14.4444 6.42542 14.2855 6.42542 14.0922H4.42542ZM6.77764 16.4444C7.8851 16.4444 8.81087 15.6781 9.06222 14.6515L7.11959 14.1759C7.08162 14.3309 6.9399 14.4444 6.77764 14.4444V16.4444ZM8.0909 15.4137H8.51763V13.4137H8.0909V15.4137ZM7.51763 14.4137V15.0339H9.51763V14.4137H7.51763ZM7.66012 14.5194L6.67522 16.161L8.39022 17.19L9.37513 15.5484L7.66012 14.5194ZM6.6752 16.161C6.4304 16.5691 6.42371 17.0776 6.65859 17.4922L8.39871 16.5063C8.51941 16.7193 8.51589 16.9805 8.39025 17.1899L6.6752 16.161ZM6.65843 17.4919C6.89292 17.9061 7.33215 18.1623 7.80836 18.1623V16.1623C8.05296 16.1623 8.27848 16.2939 8.39887 16.5066L6.65843 17.4919ZM7.80836 18.1623H9.86985V16.1623H7.80836V18.1623ZM9.86985 18.1623C10.3461 18.1623 10.7853 17.9061 11.0198 17.4919L9.27934 16.5066C9.39974 16.2939 9.62525 16.1623 9.86985 16.1623V18.1623ZM11.0197 17.492C11.2544 17.0776 11.2478 16.5692 11.003 16.161L9.28796 17.1899C9.16228 16.9804 9.15887 16.7193 9.27941 16.5065L11.0197 17.492ZM11.003 16.161L10.0181 14.5194L8.30308 15.5484L9.28799 17.19L11.003 16.161ZM10.1606 15.0339V14.4137H8.16059V15.0339H10.1606ZM9.16059 15.4137H9.58727V13.4137H9.16059V15.4137ZM10.9005 14.3829C10.7394 14.3829 10.6098 14.2534 10.6098 14.0922H12.6098C12.6098 13.1488 11.8439 12.3829 10.9005 12.3829V14.3829ZM10.6098 14.0922C10.6098 13.931 10.7394 13.8015 10.9005 13.8015V15.8015C11.8439 15.8015 12.6098 15.0356 12.6098 14.0922H10.6098ZM10.9005 13.8015C11.0617 13.8015 11.1913 13.931 11.1913 14.0922H9.19126C9.19126 15.0356 9.95714 15.8015 10.9005 15.8015V13.8015ZM11.1913 14.0922C11.1913 14.2534 11.0617 14.3829 10.9005 14.3829V12.3829C9.95714 12.3829 9.19126 13.1488 9.19126 14.0922H11.1913ZM9.12978 11.6871C9.12978 11.8483 9.00022 11.9779 8.83904 11.9779V9.97788C7.89565 9.97788 7.12978 10.7438 7.12978 11.6871H9.12978ZM8.83904 11.9779C8.67786 11.9779 8.54831 11.8483 8.54831 11.6871H10.5483C10.5483 10.7438 9.78243 9.97788 8.83904 9.97788V11.9779ZM8.54831 11.6871C8.54831 11.526 8.67787 11.3964 8.83904 11.3964V13.3964C9.78243 13.3964 10.5483 12.6305 10.5483 11.6871H8.54831ZM8.83904 11.3964C9.00022 11.3964 9.12978 11.526 9.12978 11.6871H7.12978C7.12978 12.6305 7.89565 13.3964 8.83904 13.3964V11.3964ZM6.77755 13.8015C6.93865 13.8015 7.06825 13.9309 7.06825 14.0922H5.06825C5.06825 15.0357 5.83424 15.8015 6.77755 15.8015V13.8015ZM7.06825 14.0922C7.06825 14.2535 6.93865 14.3829 6.77755 14.3829V12.3829C5.83424 12.3829 5.06825 13.1487 5.06825 14.0922H7.06825ZM6.77755 14.3829C6.61638 14.3829 6.48682 14.2534 6.48682 14.0922H8.48682C8.48682 13.1488 7.72094 12.3829 6.77755 12.3829V14.3829ZM6.48682 14.0922C6.48682 13.931 6.61638 13.8015 6.77755 13.8015V15.8015C7.72094 15.8015 8.48682 15.0356 8.48682 14.0922H6.48682ZM9.23354 17.0339L9.69653 16.2623L7.98155 15.2332L7.51857 16.0049L9.23354 17.0339ZM7.98155 16.2623L8.44454 17.0339L10.1595 16.0049L9.69653 15.2332L7.98155 16.2623ZM9.30203 15.5194H8.37606V17.5194H9.30203V15.5194Z"
        mask="url(#path-1-inside-1)"/>
    <mask>
        <path
            d="M14.3363 0.0275879C12.5194 0.0275879 10.7971 0.608227 9.35576 1.70676C7.98241 2.75342 6.95717 4.23157 6.46136 5.87581C3.08245 6.89822 0.615234 10.0405 0.615234 13.7487C0.615234 18.2833 4.30442 21.9725 8.83903 21.9725C12.5472 21.9725 15.6894 19.5053 16.7118 16.1264C18.3492 15.6325 19.8211 14.6148 20.8673 13.2497C21.9747 11.8048 22.5601 10.0764 22.5601 8.25138C22.5601 3.71677 18.8709 0.0275879 14.3363 0.0275879V0.0275879ZM19.9748 3.18992C20.6705 3.96416 21.2093 4.88186 21.541 5.8927C21.0059 5.70059 20.5537 5.32723 20.2629 4.82361C19.9737 4.3227 19.876 3.74716 19.9748 3.18992ZM14.3363 0.670504C14.8714 0.670504 15.3936 0.726566 15.8976 0.832519C15.4641 1.19804 14.9158 1.40189 14.3363 1.40189C13.7554 1.40189 13.2065 1.1974 12.7728 0.830719C13.2815 0.72468 13.8045 0.670504 14.3363 0.670504ZM8.69159 3.19391C8.78927 3.7499 8.69133 4.3239 8.40279 4.82366C8.22509 5.13153 7.97259 5.40331 7.68461 5.6063C7.52148 5.62932 7.35972 5.6567 7.19977 5.68919C7.53005 4.77269 8.04049 3.92207 8.69159 3.19391ZM8.83903 6.16778C9.37411 6.16778 9.89628 6.22384 10.4003 6.32979C9.96675 6.69531 9.41851 6.89916 8.83903 6.89916C8.25908 6.89916 7.71106 6.69536 7.27764 6.32979C7.78173 6.22388 8.30391 6.16778 8.83903 6.16778ZM3.19474 8.69371C3.29169 9.24893 3.19358 9.82194 2.90547 10.321C2.61612 10.8221 2.16698 11.1943 1.6352 11.3872C1.96613 10.3803 2.50249 9.46585 3.19474 8.69371ZM3.19474 18.8036C2.50249 18.0315 1.96613 17.117 1.63524 16.1101C2.16698 16.303 2.61616 16.6752 2.90552 17.1763C3.19358 17.6754 3.29169 18.2484 3.19474 18.8036ZM8.83903 21.3295C8.30202 21.3295 7.77796 21.273 7.27224 21.1663C7.70557 20.8016 8.25325 20.5982 8.83213 20.5982C9.41273 20.5982 9.9613 20.8024 10.3949 21.1687C9.89256 21.2739 9.37218 21.3295 8.83903 21.3295ZM14.4776 18.8101C14.3787 18.2529 14.4765 17.6773 14.7657 17.1764C15.0565 16.6728 15.5086 16.2995 16.0438 16.1073C15.712 17.1181 15.1733 18.0359 14.4776 18.8101ZM16.2417 15.3844C15.3841 15.5624 14.65 16.0908 14.2089 16.8549C13.7694 17.6162 13.6777 18.5137 13.9493 19.3432C13.1454 20.0781 12.1832 20.6424 11.1204 20.9785C10.5376 20.326 9.71365 19.9552 8.83213 19.9552C7.95288 19.9552 7.12956 20.3247 6.54686 20.975C5.48601 20.6377 4.52566 20.073 3.72343 19.3382C3.99294 18.51 3.90088 17.6146 3.46228 16.8549C3.0224 16.093 2.29119 15.5656 1.43684 15.3861C1.32017 14.8585 1.25815 14.3107 1.25815 13.7487C1.25815 13.1866 1.32017 12.6388 1.4368 12.1112C2.29119 11.9317 3.02235 11.4043 3.46228 10.6424C3.90092 9.88268 3.99294 8.98731 3.72343 8.1591C4.52708 7.42301 5.48931 6.85758 6.55235 6.52053C7.13513 7.17197 7.95841 7.54208 8.83907 7.54208C9.7191 7.54208 10.5431 7.17189 11.1259 6.52053C12.1865 6.85681 13.1468 7.42039 13.9493 8.15405C13.6777 8.98362 13.7694 9.88109 14.2089 10.6424C14.6501 11.4065 15.3841 11.9349 16.2417 12.1129C16.358 12.6399 16.4199 13.1871 16.4199 13.7487C16.4199 14.3101 16.358 14.8574 16.2417 15.3844ZM15.9361 9.59829C15.2223 8.38245 14.2053 7.3654 12.9894 6.65164L14.3363 5.30473L17.283 8.25143L15.9361 9.59829ZM16.0438 11.39C15.5086 11.1979 15.0565 10.8245 14.7657 10.3209C14.4765 9.81997 14.3787 9.24443 14.4776 8.68719C15.1733 9.46144 15.712 10.3792 16.0438 11.39ZM20.357 12.8586C20.236 13.0166 20.1086 13.1695 19.9756 13.3171C19.8755 12.7585 19.973 12.1813 20.263 11.6791C20.5545 11.1741 21.0084 10.8001 21.5454 10.6085C21.283 11.4124 20.8844 12.1705 20.357 12.8586ZM19.7062 11.3577C19.2663 12.1196 19.1748 13.018 19.4472 13.8482C18.7074 14.5223 17.8375 15.0492 16.8985 15.3877C17.0061 14.8579 17.0628 14.3098 17.0628 13.7487C17.0628 13.5025 17.0513 13.2589 17.03 13.0182C18.7479 12.0458 19.8114 10.2287 19.8114 8.25138C19.8114 5.23234 17.3553 2.77623 14.3363 2.77623C12.8738 2.77623 11.4989 3.34576 10.4648 4.37987C10.3392 4.50541 10.3392 4.70896 10.4648 4.83446C10.5903 4.96 10.7938 4.96 10.9193 4.83446C11.832 3.92177 13.0455 3.41914 14.3363 3.41914C17.0008 3.41914 19.1685 5.58688 19.1685 8.25138C19.1685 9.90844 18.3224 11.4384 16.9389 12.3234C16.8072 11.5729 16.5737 10.857 16.2527 10.1908L17.9649 8.47868C18.0252 8.41841 18.059 8.33663 18.059 8.25138C18.059 8.16613 18.0252 8.08435 17.9649 8.02409L14.5636 4.62281C14.5033 4.5625 14.4216 4.52864 14.3363 4.52864C14.2511 4.52864 14.1693 4.5625 14.109 4.62281L12.3968 6.33502C11.3196 5.81598 10.1127 5.52491 8.83907 5.52491C8.79227 5.52491 8.74564 5.52589 8.699 5.52671C8.79433 5.40699 8.88172 5.28004 8.95956 5.14516C9.39871 4.3845 9.49052 3.48785 9.21976 2.65879C9.38812 2.50427 9.56334 2.35696 9.7455 2.21817C10.4485 1.68237 11.2242 1.28029 12.0469 1.02042C12.6298 1.67371 13.4543 2.04489 14.3363 2.04489C15.2163 2.04489 16.0403 1.6747 16.6231 1.02334C17.6837 1.35962 18.644 1.9232 19.4465 2.65686C19.175 3.48643 19.2667 4.3839 19.7062 5.14516C20.1473 5.90924 20.8814 6.43767 21.7389 6.61568C21.8553 7.1427 21.9172 7.6899 21.9172 8.25143C21.9172 8.80836 21.8577 9.3554 21.7416 9.88653C20.8829 10.0639 20.1478 10.5928 19.7062 11.3577Z"/>
    </mask>
    <path
        d="M14.3363 0.0275879C12.5194 0.0275879 10.7971 0.608227 9.35576 1.70676C7.98241 2.75342 6.95717 4.23157 6.46136 5.87581C3.08245 6.89822 0.615234 10.0405 0.615234 13.7487C0.615234 18.2833 4.30442 21.9725 8.83903 21.9725C12.5472 21.9725 15.6894 19.5053 16.7118 16.1264C18.3492 15.6325 19.8211 14.6148 20.8673 13.2497C21.9747 11.8048 22.5601 10.0764 22.5601 8.25138C22.5601 3.71677 18.8709 0.0275879 14.3363 0.0275879V0.0275879ZM19.9748 3.18992C20.6705 3.96416 21.2093 4.88186 21.541 5.8927C21.0059 5.70059 20.5537 5.32723 20.2629 4.82361C19.9737 4.3227 19.876 3.74716 19.9748 3.18992ZM14.3363 0.670504C14.8714 0.670504 15.3936 0.726566 15.8976 0.832519C15.4641 1.19804 14.9158 1.40189 14.3363 1.40189C13.7554 1.40189 13.2065 1.1974 12.7728 0.830719C13.2815 0.72468 13.8045 0.670504 14.3363 0.670504ZM8.69159 3.19391C8.78927 3.7499 8.69133 4.3239 8.40279 4.82366C8.22509 5.13153 7.97259 5.40331 7.68461 5.6063C7.52148 5.62932 7.35972 5.6567 7.19977 5.68919C7.53005 4.77269 8.04049 3.92207 8.69159 3.19391ZM8.83903 6.16778C9.37411 6.16778 9.89628 6.22384 10.4003 6.32979C9.96675 6.69531 9.41851 6.89916 8.83903 6.89916C8.25908 6.89916 7.71106 6.69536 7.27764 6.32979C7.78173 6.22388 8.30391 6.16778 8.83903 6.16778ZM3.19474 8.69371C3.29169 9.24893 3.19358 9.82194 2.90547 10.321C2.61612 10.8221 2.16698 11.1943 1.6352 11.3872C1.96613 10.3803 2.50249 9.46585 3.19474 8.69371ZM3.19474 18.8036C2.50249 18.0315 1.96613 17.117 1.63524 16.1101C2.16698 16.303 2.61616 16.6752 2.90552 17.1763C3.19358 17.6754 3.29169 18.2484 3.19474 18.8036ZM8.83903 21.3295C8.30202 21.3295 7.77796 21.273 7.27224 21.1663C7.70557 20.8016 8.25325 20.5982 8.83213 20.5982C9.41273 20.5982 9.9613 20.8024 10.3949 21.1687C9.89256 21.2739 9.37218 21.3295 8.83903 21.3295ZM14.4776 18.8101C14.3787 18.2529 14.4765 17.6773 14.7657 17.1764C15.0565 16.6728 15.5086 16.2995 16.0438 16.1073C15.712 17.1181 15.1733 18.0359 14.4776 18.8101ZM16.2417 15.3844C15.3841 15.5624 14.65 16.0908 14.2089 16.8549C13.7694 17.6162 13.6777 18.5137 13.9493 19.3432C13.1454 20.0781 12.1832 20.6424 11.1204 20.9785C10.5376 20.326 9.71365 19.9552 8.83213 19.9552C7.95288 19.9552 7.12956 20.3247 6.54686 20.975C5.48601 20.6377 4.52566 20.073 3.72343 19.3382C3.99294 18.51 3.90088 17.6146 3.46228 16.8549C3.0224 16.093 2.29119 15.5656 1.43684 15.3861C1.32017 14.8585 1.25815 14.3107 1.25815 13.7487C1.25815 13.1866 1.32017 12.6388 1.4368 12.1112C2.29119 11.9317 3.02235 11.4043 3.46228 10.6424C3.90092 9.88268 3.99294 8.98731 3.72343 8.1591C4.52708 7.42301 5.48931 6.85758 6.55235 6.52053C7.13513 7.17197 7.95841 7.54208 8.83907 7.54208C9.7191 7.54208 10.5431 7.17189 11.1259 6.52053C12.1865 6.85681 13.1468 7.42039 13.9493 8.15405C13.6777 8.98362 13.7694 9.88109 14.2089 10.6424C14.6501 11.4065 15.3841 11.9349 16.2417 12.1129C16.358 12.6399 16.4199 13.1871 16.4199 13.7487C16.4199 14.3101 16.358 14.8574 16.2417 15.3844ZM15.9361 9.59829C15.2223 8.38245 14.2053 7.3654 12.9894 6.65164L14.3363 5.30473L17.283 8.25143L15.9361 9.59829ZM16.0438 11.39C15.5086 11.1979 15.0565 10.8245 14.7657 10.3209C14.4765 9.81997 14.3787 9.24443 14.4776 8.68719C15.1733 9.46144 15.712 10.3792 16.0438 11.39ZM20.357 12.8586C20.236 13.0166 20.1086 13.1695 19.9756 13.3171C19.8755 12.7585 19.973 12.1813 20.263 11.6791C20.5545 11.1741 21.0084 10.8001 21.5454 10.6085C21.283 11.4124 20.8844 12.1705 20.357 12.8586ZM19.7062 11.3577C19.2663 12.1196 19.1748 13.018 19.4472 13.8482C18.7074 14.5223 17.8375 15.0492 16.8985 15.3877C17.0061 14.8579 17.0628 14.3098 17.0628 13.7487C17.0628 13.5025 17.0513 13.2589 17.03 13.0182C18.7479 12.0458 19.8114 10.2287 19.8114 8.25138C19.8114 5.23234 17.3553 2.77623 14.3363 2.77623C12.8738 2.77623 11.4989 3.34576 10.4648 4.37987C10.3392 4.50541 10.3392 4.70896 10.4648 4.83446C10.5903 4.96 10.7938 4.96 10.9193 4.83446C11.832 3.92177 13.0455 3.41914 14.3363 3.41914C17.0008 3.41914 19.1685 5.58688 19.1685 8.25138C19.1685 9.90844 18.3224 11.4384 16.9389 12.3234C16.8072 11.5729 16.5737 10.857 16.2527 10.1908L17.9649 8.47868C18.0252 8.41841 18.059 8.33663 18.059 8.25138C18.059 8.16613 18.0252 8.08435 17.9649 8.02409L14.5636 4.62281C14.5033 4.5625 14.4216 4.52864 14.3363 4.52864C14.2511 4.52864 14.1693 4.5625 14.109 4.62281L12.3968 6.33502C11.3196 5.81598 10.1127 5.52491 8.83907 5.52491C8.79227 5.52491 8.74564 5.52589 8.699 5.52671C8.79433 5.40699 8.88172 5.28004 8.95956 5.14516C9.39871 4.3845 9.49052 3.48785 9.21976 2.65879C9.38812 2.50427 9.56334 2.35696 9.7455 2.21817C10.4485 1.68237 11.2242 1.28029 12.0469 1.02042C12.6298 1.67371 13.4543 2.04489 14.3363 2.04489C15.2163 2.04489 16.0403 1.6747 16.6231 1.02334C17.6837 1.35962 18.644 1.9232 19.4465 2.65686C19.175 3.48643 19.2667 4.3839 19.7062 5.14516C20.1473 5.90924 20.8814 6.43767 21.7389 6.61568C21.8553 7.1427 21.9172 7.6899 21.9172 8.25143C21.9172 8.80836 21.8577 9.3554 21.7416 9.88653C20.8829 10.0639 20.1478 10.5928 19.7062 11.3577Z"
        mask="url(#path-3-inside-2)"/>
    <path d="M12.0694 9.51295C12.0691 9.51273 12.0688 9.5125 12.0685 9.51227L12.0694 9.51295Z" fill="black"
    />
</svg>
