<svg width="22" height="21" viewBox="0 0 22 21" xmlns="http://www.w3.org/2000/svg">
    <path d="M11.1748 0C16.9673 0 21.6748 4.7075 21.6748 10.5C21.6748 16.2925 16.9673 21 11.1748 21C5.3823 21 0.674805 16.2925 0.674805 10.5C0.674805 4.7075 5.3823 0 11.1748 0ZM11.1748 9.33333C10.8654 9.33333 10.5686 9.45625 10.3498 9.67504C10.1311 9.89383 10.0081 10.1906 10.0081 10.5V15.1667C10.0081 15.4761 10.1311 15.7728 10.3498 15.9916C10.5686 16.2104 10.8654 16.3333 11.1748 16.3333C11.4842 16.3333 11.781 16.2104 11.9998 15.9916C12.2186 15.7728 12.3415 15.4761 12.3415 15.1667V10.5C12.3415 10.1906 12.2186 9.89383 11.9998 9.67504C11.781 9.45625 11.4842 9.33333 11.1748 9.33333ZM11.1748 5.83333C10.8654 5.83333 10.5686 5.95625 10.3498 6.17504C10.1311 6.39383 10.0081 6.69058 10.0081 7C10.0081 7.30942 10.1311 7.60616 10.3498 7.82496C10.5686 8.04375 10.8654 8.16667 11.1748 8.16667C11.4842 8.16667 11.781 8.04375 11.9998 7.82496C12.2186 7.60616 12.3415 7.30942 12.3415 7C12.3415 6.69058 12.2186 6.39383 11.9998 6.17504C11.781 5.95625 11.4842 5.83333 11.1748 5.83333Z"/>
</svg>
