<svg width="21" height="17" viewBox="0 0 21 17" fill="none" xmlns="http://www.w3.org/2000/svg">
<path d="M0.8 3.48045V13.3942C0.8 14.8707 2.00395 16.0747 3.48045 16.0747H11.493C12.9695 16.0747 14.1734 14.8707 14.1734 13.3942V11.7885C14.1734 11.4065 13.8642 11.0972 13.4821 11.0972C13.1 11.0972 12.7908 11.4065 12.7908 11.7885V13.3942C12.7908 14.1106 12.2053 14.6961 11.489 14.6961H3.48045C2.76409 14.6961 2.1786 14.1106 2.1786 13.3942V3.48045C2.1786 2.76409 2.76409 2.1786 3.48045 2.1786H11.493C12.2093 2.1786 12.7948 2.76409 12.7948 3.48045V5.08614C12.7948 5.46821 13.104 5.77744 13.4861 5.77744C13.8682 5.77744 14.1774 5.46821 14.1774 5.08614V3.48045C14.1774 2.00395 12.9735 0.8 11.497 0.8H3.48045C2.00416 0.8 0.8 1.99974 0.8 3.48045Z" fill="#C4C4C4" stroke="#C4C4C4" stroke-width="0.4"/>
<path d="M16.2536 12.2742C16.3881 12.4084 16.5631 12.4758 16.7417 12.4758C16.9207 12.4758 17.096 12.4081 17.2307 12.2735L20.5819 8.92227C20.8517 8.65244 20.8517 8.21825 20.5819 7.94842L17.2307 4.59722C16.9608 4.32739 16.5266 4.32739 16.2568 4.59722C15.987 4.86705 15.987 5.30124 16.2568 5.57107L18.4318 7.74605H9.73177C9.34971 7.74605 9.04048 8.05527 9.04048 8.43734C9.04048 8.81941 9.34971 9.12864 9.73177 9.12864H18.4278L16.2543 11.3021C16.254 11.3024 16.2538 11.3026 16.2535 11.3029C15.9827 11.5689 15.9827 12.0083 16.2536 12.2742Z" fill="#C4C4C4" stroke="#C4C4C4" stroke-width="0.4"/>
</svg>
