<svg width="270" height="270" viewBox="0 0 270 270" fill="none" xmlns="http://www.w3.org/2000/svg">
<path d="M266.001 103.598C260.352 109.335 251.08 109.075 245.178 103.598C216.182 76.6938 177.378 60.249 134.742 60.249C92.3387 60.249 53.7274 76.5139 24.7828 103.157C18.875 108.595 9.63476 108.834 3.99989 103.113C-1.24686 97.7855 -1.42348 89.2238 4.01302 84.0909C38.1455 51.8647 84.1416 32.1145 134.742 32.1145C185.616 32.1145 231.837 52.0796 266.025 84.6166C271.424 89.7556 271.232 98.2866 266.001 103.598Z" fill="#3B444E"/>
<path d="M233.975 141.467C228.258 147.272 218.851 146.882 212.799 141.428C191.958 122.647 164.385 111.217 134.148 111.217C104.137 111.217 76.7502 122.476 55.9657 141.008C49.9062 146.411 40.5407 146.772 34.8434 140.987C29.6681 135.732 29.4236 127.291 34.8138 122.258C60.8422 97.9532 95.7619 83.0829 134.148 83.0829C172.815 83.0829 207.965 98.1717 234.052 122.793C239.394 127.835 239.129 136.234 233.975 141.467Z" fill="#3B444E"/>
<path d="M68.8729 175.54C74.7115 181.468 84.392 180.78 90.8485 175.534C102.672 165.928 117.739 160.171 134.148 160.171C150.764 160.171 166.003 166.074 177.893 175.899C184.34 181.227 194.089 181.967 199.958 176.007C204.924 170.966 205.332 162.887 200.159 158.059C182.859 141.914 159.655 132.037 134.148 132.037C108.937 132.037 85.9763 141.686 68.7422 157.499C63.492 162.316 63.8726 170.462 68.8729 175.54Z" fill="#3B444E"/>
<path d="M134.366 236.696C150.959 236.696 164.411 223.218 164.411 206.592C164.411 189.966 150.959 176.488 134.366 176.488C117.772 176.488 104.321 189.966 104.321 206.592C104.321 223.218 117.772 236.696 134.366 236.696Z" fill="#3B444E"/>
<circle r="32.5772" transform="matrix(1 0 0 -1 133.241 206.377)" fill="white"/>
<path fill-rule="evenodd" clip-rule="evenodd" d="M165.818 206.377C165.818 188.37 151.246 173.8 133.241 173.8C115.234 173.8 100.664 188.372 100.664 206.377C100.664 224.384 115.237 238.954 133.241 238.954C151.248 238.954 165.818 224.381 165.818 206.377ZM147.18 192.439C148.452 193.711 148.452 195.773 147.18 197.046L137.85 206.375L147.18 215.704C148.452 216.976 148.452 219.039 147.18 220.311C145.907 221.583 143.845 221.583 142.572 220.311L133.243 210.982L123.909 220.316C122.637 221.588 120.575 221.588 119.302 220.316C118.03 219.044 118.03 216.981 119.302 215.709L128.636 206.375L119.302 197.041C118.03 195.769 118.03 193.706 119.302 192.434C120.575 191.162 122.637 191.162 123.909 192.434L133.243 201.768L142.572 192.439C143.845 191.166 145.907 191.166 147.18 192.439Z" fill="#DD4747"/>
</svg>
