<svg width="18" height="19" viewBox="0 0 18 19" fill="currentColor" xmlns="http://www.w3.org/2000/svg">
<path fill-rule="evenodd" clip-rule="evenodd" d="M0.000991821 9.69385C0.000991821 4.7236 4.03038 0.694092 9.00081 0.694092C13.9712 0.694092 18.0008 4.72342 18.0008 9.69385C18.0008 14.6643 13.9711 18.6941 9.00075 18.6941C4.03038 18.6941 0.000991821 14.6641 0.000991821 9.69385ZM3.00102 9.6939C3.00102 6.38043 5.68727 3.69409 9.00087 3.69409C12.3145 3.69409 15.0009 6.38034 15.0009 9.6939C15.0009 13.0075 12.3144 15.6941 9.00083 15.6941C5.68735 15.6941 3.00102 13.0075 3.00102 9.6939ZM9.00087 2.69409C5.13498 2.69409 2.00102 5.82815 2.00102 9.6939C2.00102 13.5597 5.13498 16.6941 9.00083 16.6941C12.8667 16.6941 16.0009 13.5598 16.0009 9.6939C16.0009 5.82801 12.8667 2.69409 9.00087 2.69409Z"/>
</svg>
