<svg width="88" height="136" viewBox="0 0 88 136" fill="none" xmlns="http://www.w3.org/2000/svg">
<path d="M28.0267 94.5918H52.7869V92.392C52.9176 79.7755 57.4907 73.8877 67.8129 67.7412C80.0297 60.5595 88 51.0485 88 35.844C88 13.1989 69.5768 0 43.6407 0C19.9258 0 0.587973 12.2931 0 38.1732H26.6548C27.0468 27.627 34.9517 21.9981 43.51 21.9981C52.3296 21.9981 59.4506 27.8211 59.4506 36.8145C59.4506 45.2902 53.2442 50.9191 45.2086 55.9657C34.2331 62.824 28.0921 69.7469 28.0267 92.392V94.5918ZM40.8968 136C49.2591 136 56.5108 129.077 56.5761 120.472C56.5108 111.996 49.2591 105.073 40.8968 105.073C32.2732 105.073 25.1522 111.996 25.2175 120.472C25.1522 129.077 32.2732 136 40.8968 136Z" />
</svg>
