<svg width="19" height="19" viewBox="0 0 19 19" fill="currentColor" xmlns="http://www.w3.org/2000/svg">
    <path fill-rule="evenodd" clip-rule="evenodd" d="M0 8.56639C0 3.83531 3.83531 0 8.56639 0C13.2975 0 17.1328 3.83531 17.1328 8.56639C17.1328 10.3124 16.6104 11.9363 15.7135 13.2906L18.3443 15.9213C19.0133 16.5904 19.0133 17.6752 18.3443 18.3443C17.6752 19.0133 16.5904 19.0133 15.9213 18.3443L13.2906 15.7135C11.9363 16.6104 10.3124 17.1328 8.56639 17.1328C3.83531 17.1328 0 13.2975 0 8.56639ZM12.3033 12.0954C12.2661 12.1268 12.2299 12.1599 12.1949 12.1949C12.1599 12.2299 12.1268 12.2661 12.0954 12.3033C11.1748 13.173 9.93286 13.7062 8.56639 13.7062C5.72774 13.7062 3.42656 11.405 3.42656 8.56639C3.42656 5.72774 5.72774 3.42656 8.56639 3.42656C11.405 3.42656 13.7062 5.72774 13.7062 8.56639C13.7062 9.93286 13.173 11.1748 12.3033 12.0954Z"/>
</svg>
