<svg width="34" height="33" viewBox="0 0 34 33" fill="currentColor" xmlns="http://www.w3.org/2000/svg">
<path d="M16.7594 8.63245C12.4602 8.63245 8.96228 12.1304 8.96228 16.4296C8.96228 20.7288 12.4602 24.2268 16.7594 24.2268C21.0587 24.2268 24.5566 20.7288 24.5566 16.4296C24.5566 12.1304 21.0587 8.63245 16.7594 8.63245ZM16.7594 22.2775C13.535 22.2775 10.9116 19.654 10.9116 16.4296C10.9116 13.2052 13.535 10.5817 16.7594 10.5817C19.9839 10.5817 22.6073 13.2052 22.6073 16.4296C22.6073 19.654 19.9839 22.2775 16.7594 22.2775Z"/>
<path d="M32.3009 12.7157L29.7939 12.1707C29.5759 11.5033 29.3059 10.8523 28.9871 10.2252L30.375 8.06633C30.6229 7.6806 30.5684 7.17418 30.2444 6.85017L26.3388 2.94462C26.0148 2.62061 25.5084 2.56611 25.1227 2.81397L22.9638 4.20184C22.3367 3.88306 21.6857 3.61305 21.0183 3.39505L20.4733 0.888077C20.376 0.440137 19.9793 0.120605 19.5209 0.120605H13.9978C13.5394 0.120605 13.1427 0.440137 13.0454 0.888077L12.5004 3.39505C11.833 3.61305 11.182 3.88306 10.5549 4.20184L8.39604 2.81397C8.01031 2.56611 7.50389 2.62061 7.17988 2.94462L3.27434 6.85017C2.95033 7.17418 2.89583 7.6806 3.14369 8.06633L4.53156 10.2252C4.21277 10.8523 3.94276 11.5033 3.72477 12.1707L1.21779 12.7157C0.769849 12.8133 0.450317 13.2097 0.450317 13.6681V19.1912C0.450317 19.6496 0.769849 20.046 1.21779 20.1436L3.72477 20.6886C3.94276 21.356 4.21277 22.007 4.53156 22.6341L3.14369 24.7929C2.89583 25.1787 2.95033 25.6851 3.27434 26.0091L7.17988 29.9146C7.50389 30.2387 8.01031 30.2932 8.39604 30.0453L10.5549 28.6574C11.182 28.9762 11.833 29.2462 12.5004 29.4642L13.0454 31.9712C13.1427 32.4191 13.5394 32.7387 13.9978 32.7387H19.5209C19.9793 32.7387 20.376 32.4191 20.4733 31.9712L21.0183 29.4642C21.6857 29.2462 22.3367 28.9762 22.9638 28.6574L25.1227 30.0453C25.5084 30.2932 26.0148 30.2389 26.3388 29.9146L30.2444 26.0091C30.5684 25.6851 30.6229 25.1787 30.375 24.7929L28.9871 22.6341C29.3059 22.007 29.5759 21.356 29.7939 20.6886L32.3009 20.1436C32.7488 20.046 33.0684 19.6496 33.0684 19.1912V13.6681C33.0684 13.2097 32.7488 12.8133 32.3009 12.7157ZM31.1191 18.4056L28.8204 18.9053C28.4673 18.9822 28.1856 19.2479 28.0885 19.5958C27.8359 20.5019 27.4726 21.3781 27.0087 22.2001C26.831 22.5149 26.842 22.9021 27.0376 23.2062L28.3105 25.1861L25.5161 27.9808L23.5359 26.7079C23.2318 26.5123 22.8446 26.5013 22.5301 26.679C21.7078 27.1429 20.8316 27.5062 19.9255 27.7588C19.5776 27.8559 19.3119 28.1376 19.235 28.4907L18.7353 30.7894H14.7834L14.2837 28.4907C14.2068 28.1376 13.9411 27.8559 13.5932 27.7588C12.6871 27.5062 11.8108 27.1429 10.9889 26.679C10.6741 26.5013 10.2868 26.5125 9.98275 26.7079L8.00285 27.9808L5.20844 25.1861L6.48109 23.2062C6.6767 22.9021 6.68789 22.5149 6.51021 22.2001C6.04634 21.3781 5.68301 20.5019 5.43018 19.5958C5.33312 19.2479 5.05167 18.9822 4.69854 18.9053L2.39961 18.4056V14.4537L4.69829 13.954C5.05142 13.8771 5.33312 13.6113 5.43018 13.2634C5.68276 12.3574 6.04609 11.4811 6.50996 10.6592C6.68764 10.3444 6.6767 9.95714 6.48109 9.65304L5.2082 7.67314L8.0026 4.87848L9.98275 6.15138C10.2868 6.34698 10.6741 6.35793 10.9886 6.18025C11.8108 5.71638 12.6871 5.35305 13.5932 5.10046C13.9411 5.00341 14.2068 4.7217 14.2837 4.36858L14.7834 2.06989H18.7353L19.235 4.36858C19.3119 4.7217 19.5776 5.00341 19.9255 5.10046C20.8316 5.35305 21.7078 5.71638 22.5298 6.18025C22.8446 6.35793 23.2318 6.34673 23.5359 6.15138L25.5158 4.87848L28.3102 7.67314L27.0376 9.65304C26.842 9.95714 26.8308 10.3444 27.0085 10.6592C27.4726 11.4811 27.8357 12.3574 28.0885 13.2634C28.1856 13.6113 28.467 13.8771 28.8202 13.954L31.1191 14.4537V18.4056Z"/>
</svg>
