<svg width="36" height="36" viewBox="0 0 36 36" fill="none" xmlns="http://www.w3.org/2000/svg">
    <circle cx="18" cy="18" r="18" fill="inherit"/>
    <path d="M17.9999 5.3335C11.0248 5.3335 5.33325 11.0261 5.33325 18.0002C5.33325 25.0388 11.0914 30.6668 17.9999 30.6668C21.3638 30.6668 24.5472 29.3458 26.9463 26.9466C29.3454 24.5476 30.6666 21.3703 30.6666 18.0002C30.6666 11.0251 24.974 5.3335 17.9999 5.3335ZM24.6796 26.9629C24.2117 27.3124 23.7154 27.6257 23.1952 27.8998V25.4715C23.1952 25.0616 22.8629 24.7293 22.453 24.7293C22.0432 24.7293 21.7109 25.0616 21.7109 25.4715V28.5487C20.549 28.9586 19.3002 29.1825 17.9999 29.1825C16.6996 29.1825 15.4508 28.9586 14.289 28.5487V25.4715C14.289 25.0616 13.9567 24.7293 13.5468 24.7293C13.1369 24.7293 12.8046 25.0616 12.8046 25.4715V27.8998C12.2845 27.6257 11.7881 27.3124 11.3202 26.9629V25.4715C11.3202 23.398 12.985 21.7111 15.0312 21.7111C15.1647 21.7111 20.8082 21.7111 20.9687 21.7111C23.0149 21.7111 24.6796 23.398 24.6796 25.4715V26.9629ZM14.289 16.5158C14.289 14.4696 15.9537 12.8049 17.9999 12.8049C20.0049 12.8049 21.6437 14.4032 21.7088 16.3926C21.6455 18.4175 20.0961 20.1222 18.2006 20.2214C16.0595 20.3334 14.289 18.6375 14.289 16.5158ZM26.164 25.6329C26.164 22.5701 23.9838 20.5227 21.5257 20.257C21.6225 20.1621 21.7164 20.063 21.8071 19.9597C22.6757 18.9698 23.1952 17.6671 23.1952 16.2638C23.1952 16.2118 23.1899 16.161 23.1797 16.112C22.973 13.4353 20.7287 11.3205 17.9999 11.3205C15.1352 11.3205 12.8046 13.6511 12.8046 16.5158C12.8046 17.9457 13.3725 19.2759 14.4039 20.2651C11.984 20.5604 9.83586 22.5883 9.83586 25.6329C7.96495 23.6331 6.81763 20.9483 6.81763 18.0002C6.81763 11.8342 11.834 6.81787 17.9999 6.81787C24.1659 6.81787 29.1822 11.8342 29.1822 18.0002C29.1822 20.9483 28.0349 23.6331 26.164 25.6329Z" fill="white"/>
</svg>
