<svg width="27" height="27" viewBox="0 0 27 27" fill="none" xmlns="http://www.w3.org/2000/svg">
    <circle cx="13.4999" cy="14.1586" r="12.8415" fill="white"/>
    <circle cx="13.5" cy="13.5" r="13.5" fill="#FFF16D"/>
    <path
        d="M13.4998 4C8.26845 4 3.99976 8.26943 3.99976 13.5C3.99976 18.779 8.3184 23 13.4998 23C16.0226 23 18.4102 22.0093 20.2096 20.2098C22.0089 18.4106 22.9998 16.0276 22.9998 13.5C22.9998 8.26869 18.7303 4 13.4998 4ZM18.5095 20.222C18.1586 20.4842 17.7863 20.7191 17.3962 20.9247V19.1035C17.3962 18.7961 17.147 18.5469 16.8396 18.5469C16.5322 18.5469 16.283 18.7961 16.283 19.1035V21.4114C15.4116 21.7188 14.475 21.8867 13.4998 21.8867C12.5245 21.8867 11.5879 21.7188 10.7166 21.4114V19.1035C10.7166 18.7961 10.4673 18.5469 10.1599 18.5469C9.8525 18.5469 9.60327 18.7961 9.60327 19.1035V20.9247C9.21318 20.7191 8.8409 20.4842 8.48999 20.222V19.1035C8.48999 17.5484 9.73854 16.2832 11.2732 16.2832C11.3734 16.2832 15.606 16.2832 15.7263 16.2832C17.261 16.2832 18.5095 17.5484 18.5095 19.1035V20.222ZM10.7166 12.3867C10.7166 10.8521 11.9651 9.60352 13.4998 9.60352C15.0035 9.60352 16.2326 10.8023 16.2814 12.2944C16.2339 13.813 15.0719 15.0915 13.6502 15.166C12.0445 15.2499 10.7166 13.978 10.7166 12.3867ZM19.6228 19.2246C19.6228 16.9274 17.9877 15.3919 16.1441 15.1926C16.2167 15.1215 16.2872 15.0472 16.3552 14.9696C17.0066 14.2272 17.3962 13.2502 17.3962 12.1977C17.3962 12.1587 17.3922 12.1206 17.3846 12.0839C17.2295 10.0763 15.5464 8.49023 13.4998 8.49023C11.3512 8.49023 9.60327 10.2382 9.60327 12.3867C9.60327 13.4591 10.0292 14.4568 10.8028 15.1987C8.98781 15.4202 7.37671 16.9411 7.37671 19.2246C5.97353 17.7247 5.11304 15.7111 5.11304 13.5C5.11304 8.87554 8.8753 5.11328 13.4998 5.11328C18.1242 5.11328 21.8865 8.87554 21.8865 13.5C21.8865 15.7111 21.026 17.7247 19.6228 19.2246Z"
        fill="#292A29"/>
</svg>
