<svg xmlns="http://www.w3.org/2000/svg" width="16" height="15" viewBox="0 0 300 258.4">
    <path d="M0,244.25V14.17C4.06,3.53,11.86-.29,23.08,0,42.23.54,61.4.36,80.56.06c6.88-.11,12,2.35,15.78,7.76,2.69,3.81,5.34,7.66,7.71,11.67,2.1,3.52,4.77,4.8,9,4.79,48.83-.15,97.65-.1,146.47-.1C275.77,24.19,282,30.48,282,47V60c9.45.79,14.86,6.09,18,14.16v7a7.24,7.24,0,0,0-.85,1.72Q284.57,161.46,270.09,240c-2.36,12.88-8.19,18.22-21.24,18.22-75.26,0-150.53-.13-225.79.16C11.85,258.44,4.08,254.85,0,244.25Zm135.12,2h76q19.74,0,39.49,0c4,0,6.57-1.29,7.38-5.69q14.49-78.85,29.14-157.68c1.63-8.85.06-10.67-9-10.67H48.7c-4,0-6,2-6.72,5.92Q27.46,157,12.85,235.82c-1.57,8.53.05,10.42,8.82,10.42ZM12,170.21l.78.18c.38-1.76.81-3.5,1.14-5.27,5.33-28.65,10.59-57.32,16-86,2.74-14.63,8-19,22.64-19h217a13.49,13.49,0,0,0,.45-1.84c0-4,.06-8,.06-12,0-8.92-1.22-10.16-10-10.16-49.65,0-99.31-.07-149,.09-6.27,0-11-2.07-14.58-7Q91.81,22.75,87.51,16c-1.78-2.8-4-3.92-7.42-3.89-19.49.15-39,.07-58.48.08-8.19,0-9.61,1.4-9.61,9.54V170.21Z"/>
</svg>
