<svg width="109" height="109" viewBox="0 0 109 109" fill="none" xmlns="http://www.w3.org/2000/svg">
<path d="M91.813 35.8378L103.654 30.933C98.3573 19.9053 89.4576 10.9377 78.482 5.55029L73.5755 17.3957C81.4327 21.4515 87.8422 27.9306 91.813 35.8378Z" fill="url(#paint0_linear)"/>
<path d="M54.5001 96.2267C49.8921 96.2267 45.4567 95.4741 41.3087 94.0884L36.4076 105.921C42.0692 107.913 48.1572 109 54.5001 109C60.6801 109 66.6189 107.97 72.1564 106.074L67.2509 94.2317C63.2299 95.5252 58.9457 96.2267 54.5001 96.2267Z" fill="url(#paint1_linear)"/>
<path d="M73.1622 91.8129L78.067 103.654C89.0947 98.3572 98.0623 89.4575 103.45 78.4819L91.6042 73.5754C87.5485 81.4326 81.0694 87.8421 73.1622 91.8129Z" fill="url(#paint2_linear)"/>
<path d="M17.1873 73.1622L5.34607 78.067C10.643 89.0947 19.5427 98.0623 30.5183 103.45L35.4247 91.6042C27.5676 87.5485 21.1581 81.0694 17.1873 73.1622Z" fill="url(#paint3_linear)"/>
<path d="M106.074 36.8437L94.2316 41.7491C95.5251 45.7702 96.2266 50.0544 96.2266 54.5C96.2266 59.108 95.474 63.5434 94.0883 67.6913L105.921 72.5925C107.913 66.9309 109 60.8429 109 54.5C109 48.32 107.97 42.3812 106.074 36.8437Z" fill="url(#paint4_linear)"/>
<path d="M12.7734 54.5001C12.7734 49.8921 13.526 45.4567 14.9117 41.3088L3.07925 36.4076C1.08723 42.0692 0 48.1572 0 54.5001C0 60.6801 1.03039 66.6189 2.92576 72.1564L14.7684 67.251C13.4749 63.2299 12.7734 58.9457 12.7734 54.5001Z" fill="url(#paint5_linear)"/>
<path d="M35.8378 17.1871L30.933 5.34595C19.9052 10.6427 10.9376 19.5423 5.55023 30.5179L17.3957 35.4244C21.4515 27.5675 27.9306 21.158 35.8378 17.1871Z" fill="url(#paint6_linear)"/>
<path d="M54.4999 12.7734C59.1079 12.7734 63.5433 13.526 67.6912 14.9117L72.5924 3.07925C66.9308 1.08723 60.8428 0 54.4999 0C48.3199 0 42.3811 1.03039 36.8436 2.92576L41.749 14.7684C45.7701 13.4749 50.0543 12.7734 54.4999 12.7734Z" fill="url(#paint7_linear)"/>
<circle cx="54" cy="55" r="35" fill="url(#paint8_linear)"/>
<path d="M38.1291 56.5832C38.0467 55.8886 38.0044 55.1987 38.0044 54.5919C38.0044 45.5332 45.3939 38.0606 54.3519 38.0606C58.5304 38.0606 62.4423 39.7643 65.3198 42.4211L63.8768 43.9056C63.5517 44.2345 63.4266 44.7151 63.5517 45.1708C63.7019 45.6007 64.0521 45.9299 64.5024 46.031C64.7542 46.0821 73.0277 48.7781 72.5009 48.671C73.1711 48.8967 74.1622 48.1739 73.9774 47.1782C73.9266 46.9232 72.0949 37.6293 72.2008 38.1617C72.1008 37.7064 71.7753 37.3269 71.3251 37.2004C70.8999 37.0738 70.4242 37.2004 70.0991 37.5292L68.8731 38.7436C65.0947 35.1761 59.9066 33 54.3519 33C42.6168 33 33 42.7248 33 54.5919V54.6423C33 55.3556 33.0323 55.9068 33.0697 56.3285C33.1196 56.8873 33.5268 57.3449 34.0709 57.4553L36.6412 57.9748C37.4779 58.1442 38.2301 57.4348 38.1291 56.5832Z" fill="#313EAE"/>
<path d="M74.9365 51.5568L72.3587 51.026C71.521 50.8535 70.7635 51.5631 70.8665 52.4182C70.9557 53.1561 70.9955 53.8736 70.9955 54.4206C70.9955 63.4737 63.6057 70.9423 54.6474 70.9423C50.4688 70.9423 46.5567 69.2396 43.6791 66.559L45.1221 65.1006C45.4473 64.772 45.5724 64.2916 45.4473 63.8362C45.2971 63.4062 44.9469 63.0776 44.4966 62.9765C44.2447 62.9251 35.971 60.231 36.4978 60.338C36.0723 60.2622 35.6468 60.3887 35.3718 60.6919C35.0714 60.9702 34.9463 61.4252 35.0212 61.8299C35.072 62.0845 36.9041 71.2887 36.7982 70.7566C36.8979 71.212 37.2234 71.5913 37.6737 71.7174C38.196 71.8498 38.6319 71.6898 38.8997 71.3888L40.101 70.1751C43.8792 73.7408 49.0674 76 54.6474 76C66.3829 76 76 66.2808 76 54.4206V54.3445C76 53.7841 75.9798 53.2338 75.9335 52.6869C75.886 52.1281 75.4803 51.6691 74.9365 51.5568Z" fill="#313EAE"/>
<defs>
<linearGradient id="paint0_linear" x1="88.6149" y1="5.55029" x2="88.6149" y2="35.8378" gradientUnits="userSpaceOnUse">
<stop stop-color="#806EEF"/>
<stop offset="1" stop-color="#6BBAF3"/>
</linearGradient>
<linearGradient id="paint1_linear" x1="54.282" y1="94.0884" x2="54.282" y2="109" gradientUnits="userSpaceOnUse">
<stop stop-color="#806EEF"/>
<stop offset="1" stop-color="#6BBAF3"/>
</linearGradient>
<linearGradient id="paint2_linear" x1="88.3059" y1="73.5754" x2="88.3059" y2="103.654" gradientUnits="userSpaceOnUse">
<stop stop-color="#806EEF"/>
<stop offset="1" stop-color="#6BBAF3"/>
</linearGradient>
<linearGradient id="paint3_linear" x1="20.3854" y1="73.1622" x2="20.3854" y2="103.45" gradientUnits="userSpaceOnUse">
<stop stop-color="#806EEF"/>
<stop offset="1" stop-color="#6BBAF3"/>
</linearGradient>
<linearGradient id="paint4_linear" x1="101.544" y1="36.8437" x2="101.544" y2="72.5925" gradientUnits="userSpaceOnUse">
<stop stop-color="#806EEF"/>
<stop offset="1" stop-color="#6BBAF3"/>
</linearGradient>
<linearGradient id="paint5_linear" x1="7.45586" y1="36.4076" x2="7.45586" y2="72.1564" gradientUnits="userSpaceOnUse">
<stop stop-color="#806EEF"/>
<stop offset="1" stop-color="#6BBAF3"/>
</linearGradient>
<linearGradient id="paint6_linear" x1="20.694" y1="5.34595" x2="20.694" y2="35.4244" gradientUnits="userSpaceOnUse">
<stop stop-color="#806EEF"/>
<stop offset="1" stop-color="#6BBAF3"/>
</linearGradient>
<linearGradient id="paint7_linear" x1="54.718" y1="0" x2="54.718" y2="14.9117" gradientUnits="userSpaceOnUse">
<stop stop-color="#806EEF"/>
<stop offset="1" stop-color="#6BBAF3"/>
</linearGradient>
<linearGradient id="paint8_linear" x1="54" y1="20" x2="54" y2="90" gradientUnits="userSpaceOnUse">
<stop stop-color="#806EEF"/>
<stop offset="1" stop-color="#6BBAF3"/>
</linearGradient>
</defs>
</svg>
