<svg width="109" height="109" viewBox="0 0 109 109" fill="none" xmlns="http://www.w3.org/2000/svg">
<path d="M91.8131 35.8378L103.654 30.933C98.3573 19.9053 89.4576 10.9377 78.4821 5.55029L73.5756 17.3957C81.4327 21.4515 87.8422 27.9306 91.8131 35.8378Z" fill="url(#paint0_linear)"/>
<path d="M54.5001 96.2267C49.8921 96.2267 45.4567 95.4741 41.3088 94.0884L36.4076 105.921C42.0692 107.913 48.1572 109 54.5001 109C60.6801 109 66.6189 107.97 72.1564 106.074L67.251 94.2317C63.2299 95.5252 58.9457 96.2267 54.5001 96.2267Z" fill="url(#paint1_linear)"/>
<path d="M73.1622 91.8129L78.067 103.654C89.0947 98.3572 98.0623 89.4575 103.45 78.4819L91.6042 73.5754C87.5485 81.4326 81.0694 87.8421 73.1622 91.8129Z" fill="url(#paint2_linear)"/>
<path d="M17.1873 73.1622L5.34607 78.067C10.643 89.0947 19.5427 98.0623 30.5183 103.45L35.4247 91.6042C27.5676 87.5485 21.1581 81.0694 17.1873 73.1622Z" fill="url(#paint3_linear)"/>
<path d="M106.074 36.8437L94.2315 41.7491C95.5251 45.7702 96.2265 50.0544 96.2265 54.5C96.2265 59.108 95.474 63.5434 94.0883 67.6913L105.921 72.5925C107.913 66.9309 109 60.8429 109 54.5C109 48.32 107.97 42.3812 106.074 36.8437Z" fill="url(#paint4_linear)"/>
<path d="M12.7734 54.5001C12.7734 49.8921 13.526 45.4567 14.9117 41.3088L3.07925 36.4076C1.08723 42.0692 0 48.1572 0 54.5001C0 60.6801 1.03039 66.6189 2.92576 72.1564L14.7684 67.251C13.4749 63.2299 12.7734 58.9457 12.7734 54.5001Z" fill="url(#paint5_linear)"/>
<path d="M35.8378 17.1871L30.933 5.34595C19.9052 10.6427 10.9376 19.5423 5.55023 30.5179L17.3957 35.4244C21.4515 27.5675 27.9306 21.158 35.8378 17.1871Z" fill="url(#paint6_linear)"/>
<path d="M54.4999 12.7734C59.1079 12.7734 63.5433 13.526 67.6913 14.9117L72.5924 3.07925C66.9308 1.08723 60.8428 0 54.4999 0C48.3199 0 42.3811 1.03039 36.8436 2.92576L41.7491 14.7684C45.7701 13.4749 50.0543 12.7734 54.4999 12.7734Z" fill="url(#paint7_linear)"/>
<circle cx="54" cy="55" r="35" fill="url(#paint8_linear)"/>
<path d="M52.3377 79H56.8537L56.892 74.6688C65.1778 74.05 69.9809 69.7375 70 63.2313C69.9809 56.8375 65.063 53.4438 58.2506 51.9438L57.1216 51.6812L57.1982 42.3062C59.7432 42.8875 61.2932 44.4812 61.5228 46.8438H69.4642C69.3685 40.6375 64.642 36.1938 57.2747 35.4063L57.313 31H52.7969L52.7586 35.3688C45.2765 36.0813 39.9951 40.5062 40.0333 46.9C40.0142 52.5625 44.0901 55.8062 50.7111 57.3625L52.5481 57.8125L52.4525 67.7312C49.3333 67.15 47.2284 65.275 47.0179 62.1437H39C39.1914 69.7188 44.2623 73.9563 52.3759 74.65L52.3377 79ZM56.9685 67.7312L57.0451 58.975C60.0111 59.8938 61.6185 61.075 61.6377 63.2125C61.6185 65.4813 59.858 67.1687 56.9685 67.7312ZM52.6056 50.5375C50.2136 49.7313 48.4914 48.5125 48.5296 46.3563C48.5296 44.35 49.984 42.7937 52.6821 42.25L52.6056 50.5375Z" fill="#278E3D"/>
<defs>
<linearGradient id="paint0_linear" x1="88.6149" y1="5.55029" x2="88.6149" y2="35.8378" gradientUnits="userSpaceOnUse">
<stop stop-color="#1EBB2D"/>
<stop offset="1" stop-color="#ACF7D3"/>
</linearGradient>
<linearGradient id="paint1_linear" x1="54.282" y1="94.0884" x2="54.282" y2="109" gradientUnits="userSpaceOnUse">
<stop stop-color="#1EBB2D"/>
<stop offset="1" stop-color="#ACF7D3"/>
</linearGradient>
<linearGradient id="paint2_linear" x1="88.3059" y1="73.5754" x2="88.3059" y2="103.654" gradientUnits="userSpaceOnUse">
<stop stop-color="#1EBB2D"/>
<stop offset="1" stop-color="#ACF7D3"/>
</linearGradient>
<linearGradient id="paint3_linear" x1="20.3854" y1="73.1622" x2="20.3854" y2="103.45" gradientUnits="userSpaceOnUse">
<stop stop-color="#1EBB2D"/>
<stop offset="1" stop-color="#ACF7D3"/>
</linearGradient>
<linearGradient id="paint4_linear" x1="101.544" y1="36.8437" x2="101.544" y2="72.5925" gradientUnits="userSpaceOnUse">
<stop stop-color="#1EBB2D"/>
<stop offset="1" stop-color="#ACF7D3"/>
</linearGradient>
<linearGradient id="paint5_linear" x1="7.45586" y1="36.4076" x2="7.45586" y2="72.1564" gradientUnits="userSpaceOnUse">
<stop stop-color="#1EBB2D"/>
<stop offset="1" stop-color="#ACF7D3"/>
</linearGradient>
<linearGradient id="paint6_linear" x1="20.694" y1="5.34595" x2="20.694" y2="35.4244" gradientUnits="userSpaceOnUse">
<stop stop-color="#1EBB2D"/>
<stop offset="1" stop-color="#ACF7D3"/>
</linearGradient>
<linearGradient id="paint7_linear" x1="54.718" y1="0" x2="54.718" y2="14.9117" gradientUnits="userSpaceOnUse">
<stop stop-color="#1EBB2D"/>
<stop offset="1" stop-color="#ACF7D3"/>
</linearGradient>
<linearGradient id="paint8_linear" x1="54" y1="20" x2="54" y2="90" gradientUnits="userSpaceOnUse">
<stop stop-color="#1EBB2D"/>
<stop offset="1" stop-color="#ACF7D3"/>
</linearGradient>
</defs>
</svg>
