<svg width="109" height="109" viewBox="0 0 109 109" fill="none" xmlns="http://www.w3.org/2000/svg">
<path d="M91.8131 35.8378L103.654 30.933C98.3573 19.9053 89.4576 10.9377 78.4821 5.55029L73.5756 17.3957C81.4327 21.4515 87.8422 27.9306 91.8131 35.8378Z" fill="url(#paint0_linear)"/>
<path d="M54.5001 96.2267C49.8921 96.2267 45.4567 95.4741 41.3088 94.0884L36.4076 105.921C42.0692 107.913 48.1572 109 54.5001 109C60.6801 109 66.6189 107.97 72.1564 106.074L67.251 94.2317C63.2299 95.5252 58.9457 96.2267 54.5001 96.2267Z" fill="url(#paint1_linear)"/>
<path d="M73.1622 91.8129L78.067 103.654C89.0947 98.3572 98.0623 89.4575 103.45 78.4819L91.6042 73.5754C87.5485 81.4326 81.0694 87.8421 73.1622 91.8129Z" fill="url(#paint2_linear)"/>
<path d="M17.1873 73.1622L5.34607 78.067C10.643 89.0947 19.5427 98.0623 30.5183 103.45L35.4247 91.6042C27.5676 87.5485 21.1581 81.0694 17.1873 73.1622Z" fill="url(#paint3_linear)"/>
<path d="M106.074 36.8437L94.2315 41.7491C95.5251 45.7702 96.2265 50.0544 96.2265 54.5C96.2265 59.108 95.474 63.5434 94.0883 67.6913L105.921 72.5925C107.913 66.9309 109 60.8429 109 54.5C109 48.32 107.97 42.3812 106.074 36.8437Z" fill="url(#paint4_linear)"/>
<path d="M12.7734 54.5001C12.7734 49.8921 13.526 45.4567 14.9117 41.3088L3.07925 36.4076C1.08723 42.0692 0 48.1572 0 54.5001C0 60.6801 1.03039 66.6189 2.92576 72.1564L14.7684 67.251C13.4749 63.2299 12.7734 58.9457 12.7734 54.5001Z" fill="url(#paint5_linear)"/>
<path d="M35.8378 17.1871L30.933 5.34595C19.9052 10.6427 10.9376 19.5423 5.55023 30.5179L17.3957 35.4244C21.4515 27.5675 27.9306 21.158 35.8378 17.1871Z" fill="url(#paint6_linear)"/>
<path d="M54.4999 12.7734C59.1079 12.7734 63.5433 13.526 67.6913 14.9117L72.5924 3.07925C66.9308 1.08723 60.8428 0 54.4999 0C48.3199 0 42.3811 1.03039 36.8436 2.92576L41.7491 14.7684C45.7701 13.4749 50.0543 12.7734 54.4999 12.7734Z" fill="url(#paint7_linear)"/>
<circle cx="55" cy="55" r="35" fill="url(#paint8_linear)"/>
<path d="M56.4538 66.3879C56.492 71.0142 59.6975 75 65.6886 75C71.6797 75 75.0378 71.0142 74.9997 66.3879V64.4662C75.0378 59.7687 71.7561 55.8541 65.6886 55.8541C59.7738 55.8541 56.492 59.8399 56.4538 64.4662V66.3879ZM36 45.5338C36.0382 50.1601 39.2436 54.0747 45.2348 54.0747C51.2259 54.0747 54.584 50.2313 54.5458 45.5338V43.6121C54.584 38.9146 51.3022 35 45.2348 35C39.3963 35 36.0382 38.9146 36 43.6121V45.5338ZM38.137 73.2206H43.5557L70.4205 36.7794H65.0017L38.137 73.2206ZM63.0937 64.4662C63.1319 63.0427 63.6661 61.4057 65.6886 61.4057C67.8637 61.4057 68.3216 63.0427 68.2835 64.4662V66.3879C68.3216 67.8114 67.7874 69.3772 65.6886 69.3772C63.6661 69.3772 63.1319 67.7402 63.0937 66.3879V64.4662ZM42.7162 43.6121C42.7543 42.2598 43.2123 40.5516 45.2348 40.5516C47.4099 40.5516 47.8678 42.1886 47.8296 43.6121V45.5338C47.8678 46.9573 47.3336 48.5231 45.2348 48.5231C43.2886 48.5231 42.7543 46.9573 42.7162 45.5338V43.6121Z" fill="#49021C" fill-opacity="0.4"/>
<defs>
<linearGradient id="paint0_linear" x1="88.6149" y1="5.55029" x2="88.6149" y2="35.8378" gradientUnits="userSpaceOnUse">
<stop stop-color="#EC0071"/>
<stop offset="1" stop-color="#F36B87"/>
</linearGradient>
<linearGradient id="paint1_linear" x1="54.282" y1="94.0884" x2="54.282" y2="109" gradientUnits="userSpaceOnUse">
<stop stop-color="#EC0071"/>
<stop offset="1" stop-color="#F36B87"/>
</linearGradient>
<linearGradient id="paint2_linear" x1="88.3059" y1="73.5754" x2="88.3059" y2="103.654" gradientUnits="userSpaceOnUse">
<stop stop-color="#EC0071"/>
<stop offset="1" stop-color="#F36B87"/>
</linearGradient>
<linearGradient id="paint3_linear" x1="20.3854" y1="73.1622" x2="20.3854" y2="103.45" gradientUnits="userSpaceOnUse">
<stop stop-color="#EC0071"/>
<stop offset="1" stop-color="#F36B87"/>
</linearGradient>
<linearGradient id="paint4_linear" x1="101.544" y1="36.8437" x2="101.544" y2="72.5925" gradientUnits="userSpaceOnUse">
<stop stop-color="#EC0071"/>
<stop offset="1" stop-color="#F36B87"/>
</linearGradient>
<linearGradient id="paint5_linear" x1="7.45586" y1="36.4076" x2="7.45586" y2="72.1564" gradientUnits="userSpaceOnUse">
<stop stop-color="#EC0071"/>
<stop offset="1" stop-color="#F36B87"/>
</linearGradient>
<linearGradient id="paint6_linear" x1="20.694" y1="5.34595" x2="20.694" y2="35.4244" gradientUnits="userSpaceOnUse">
<stop stop-color="#EC0071"/>
<stop offset="1" stop-color="#F36B87"/>
</linearGradient>
<linearGradient id="paint7_linear" x1="54.718" y1="0" x2="54.718" y2="14.9117" gradientUnits="userSpaceOnUse">
<stop stop-color="#EC0071"/>
<stop offset="1" stop-color="#F36B87"/>
</linearGradient>
<linearGradient id="paint8_linear" x1="55" y1="20" x2="55" y2="90" gradientUnits="userSpaceOnUse">
<stop stop-color="#EC0071"/>
<stop offset="1" stop-color="#F36B87"/>
</linearGradient>
</defs>
</svg>
