<svg width="50" height="51" viewBox="0 0 50 51" fill="none" xmlns="http://www.w3.org/2000/svg">
<path d="M38.8497 4.22205C33.5935 0.696805 27.2832 -0.686406 21.0604 0.320497C20.9521 0.322567 20.8438 0.333113 20.7354 0.352037C14.1564 1.50392 8.41482 5.17218 4.56696 10.6797C0.723303 16.1894 -0.766298 22.8782 0.37332 29.5189C0.562914 30.6141 0.827428 31.7177 1.16081 32.7898C2.53788 37.303 2.19825 42.14 0.20668 46.4094C-0.141252 47.1493 -0.0266749 48.0281 0.496297 48.6566C1.01917 49.2851 1.84837 49.5458 2.63996 49.3313L11.9793 46.7584C15.9335 49.201 20.3979 50.4644 24.9561 50.4644C26.6124 50.4644 28.281 50.2983 29.9415 49.9599C36.4893 48.6292 42.1308 44.8076 45.8266 39.1971C53.4577 27.6144 50.3286 11.9263 38.8497 4.22205ZM42.3579 36.87C39.2767 41.5473 34.5748 44.732 29.1207 45.8398C23.6708 46.9476 18.1126 45.8461 13.4752 42.735C13.1294 42.5038 12.7272 42.3839 12.321 42.3839C12.1377 42.3839 11.9523 42.4092 11.771 42.4596L5.41276 44.2107C6.48567 40.0779 6.40645 35.7013 5.13985 31.5412C4.85863 30.6352 4.63573 29.7124 4.47944 28.8C3.52942 23.2673 4.77111 17.6924 7.97517 13.1013C11.1251 8.58812 15.8021 5.55894 21.1708 4.5478C21.2708 4.54356 21.3687 4.53311 21.4687 4.51626C26.7374 3.59766 32.0914 4.7391 36.5455 7.7262C46.112 14.144 48.7182 27.2171 42.3579 36.87Z" fill="#FFE0EB"/>
<path d="M25.0082 13.3164C23.8562 13.3164 22.9249 14.2561 22.9249 15.4185V28.0312C22.9249 29.1937 23.8562 30.1333 25.0082 30.1333C26.1602 30.1333 27.0915 29.1916 27.0915 28.0312V15.4185C27.0915 14.2561 26.1603 13.3164 25.0082 13.3164Z" fill="#FFE0EB"/>
<path d="M26.9227 35.8492C26.8186 35.5759 26.6728 35.3446 26.4852 35.1555C26.3811 35.0714 26.2769 34.9663 26.1519 34.9033C26.0478 34.8192 25.9228 34.7582 25.7978 34.714C25.6727 34.6489 25.5478 34.609 25.402 34.5879C24.7374 34.4407 24.0061 34.674 23.5291 35.1555C23.3415 35.3446 23.1958 35.576 23.0916 35.8492C22.9874 36.1014 22.9249 36.3747 22.9249 36.648C22.9249 36.9213 22.9874 37.1945 23.0916 37.4469C23.1957 37.6991 23.3415 37.9303 23.5291 38.1405C23.7374 38.3297 23.9666 38.4768 24.2165 38.582C24.4665 38.6871 24.7374 38.7501 25.0082 38.7501C25.2791 38.7501 25.5478 38.6871 25.7978 38.582C26.0477 38.4769 26.2748 38.3298 26.4852 38.1405C26.6728 37.9303 26.8185 37.6991 26.9227 37.4469C27.0268 37.1946 27.0894 36.9213 27.0894 36.648C27.0894 36.3747 27.0268 36.1014 26.9227 35.8492Z" fill="#FFE0EB"/>
</svg>
