<svg width="119" height="120" viewBox="0 0 119 120" fill="none" xmlns="http://www.w3.org/2000/svg">
    <path d="M118.925 60C118.925 93.165 92.3261 120 59.4627 120C26.5947 120 0 93.1604 0 60C0 26.835 26.5993 0 59.4627 0C92.3307 0 118.925 26.8396 118.925 60ZM109.634 60C109.634 32.0169 87.1916 9.375 59.4627 9.375C31.7302 9.375 9.29105 32.0206 9.29105 60C9.29105 87.9831 31.7338 110.625 59.4627 110.625C87.1952 110.625 109.634 87.9794 109.634 60Z"/>
    <path d="M59.5 95.4688C63.0381 95.4688 65.9062 92.6006 65.9062 89.0625C65.9062 85.5244 63.0381 82.6562 59.5 82.6562C55.9619 82.6562 53.0938 85.5244 53.0938 89.0625C53.0938 92.6006 55.9619 95.4688 59.5 95.4688Z"/>
    <path d="M59.5 25C48.1963 25 39 34.1963 39 45.5C39 48.3305 41.2945 50.625 44.125 50.625C46.9555 50.625 49.25 48.3305 49.25 45.5C49.25 39.8481 53.8481 35.25 59.5 35.25C65.1518 35.25 69.75 39.8481 69.75 45.5C69.75 51.1518 65.1518 55.75 59.5 55.75C56.6695 55.75 54.375 58.0445 54.375 60.875V73.6875C54.375 76.518 56.6695 78.8125 59.5 78.8125C62.3305 78.8125 64.625 76.518 64.625 73.6875V65.3514C73.4569 63.07 80 55.0348 80 45.5C80 34.1963 70.8037 25 59.5 25Z"/>
</svg>
