<svg width="50" height="51" viewBox="0 0 50 51" fill="none" xmlns="http://www.w3.org/2000/svg">
<path d="M36.0512 17.2216C36.8141 17.9914 36.8141 19.2393 36.0512 20.0087L22.9485 33.2302C22.1855 33.9997 20.9492 33.9997 20.1862 33.2302L13.9488 26.9361C13.1859 26.1666 13.1859 24.9187 13.9488 24.1493C14.7114 23.3795 15.9481 23.3795 16.7107 24.1493L21.5672 29.0497L33.289 17.2216C34.0519 16.4521 35.2886 16.4521 36.0512 17.2216ZM50 25.2259C50 39.1695 38.8168 50.4518 25 50.4518C11.1813 50.4518 0 39.1676 0 25.2259C0 11.2823 11.1832 0 25 0C38.8187 0 50 11.2842 50 25.2259ZM46.0938 25.2259C46.0938 13.4609 36.6581 3.94155 25 3.94155C13.3404 3.94155 3.90625 13.4625 3.90625 25.2259C3.90625 36.9909 13.3419 46.5103 25 46.5103C36.6596 46.5103 46.0938 36.9893 46.0938 25.2259Z" fill="#ACF7D3"/>
</svg>
