<svg width="264" height="202" viewBox="0 0 264 202" fill="none" xmlns="http://www.w3.org/2000/svg">
<path d="M164.127 48.0213C163.782 44.6877 165.047 37.848 172.295 35.6639C174.337 35.0604 176.034 34.6581 177.386 34.3707C181.355 33.4798 182.42 33.2499 184.001 29.1691C185.008 26.5539 186.417 25.0596 188.143 24.7722C190.473 24.3699 192.227 26.324 192.4 26.5252L190.243 28.3644C190.041 28.1345 189.236 27.4448 188.603 27.5598C187.942 27.6747 187.223 28.6518 186.619 30.2037C184.49 35.6926 182.189 36.2099 177.99 37.1583C176.61 37.4744 175.057 37.8193 173.101 38.394C166.313 40.4344 166.888 47.4752 166.917 47.7914L164.127 48.0213Z" fill="#FFEF5F"/>
<path d="M191.652 62.0739L189.351 60.4358C189.437 60.2921 191.709 57.1597 195.017 56.6424C196.714 56.3837 198.353 56.8148 199.878 57.9643C201.028 58.8265 202.064 59.2001 202.754 59.0276C203.473 58.8265 203.818 58.0218 203.818 58.0218L206.464 59.0276C206.378 59.2288 205.63 61.1543 203.588 61.729C201.977 62.1888 200.165 61.7003 198.21 60.2346C197.289 59.5449 196.398 59.315 195.477 59.4587C193.32 59.7748 191.652 62.0451 191.652 62.0739Z" fill="url(#paint0_linear)"/>
<path d="M168.7 18.7084L171.231 17.4727C171.318 17.6163 172.986 21.0936 171.864 24.2548C171.289 25.8642 170.11 27.0999 168.384 27.9046C167.061 28.5081 166.256 29.2265 166.083 29.9162C165.91 30.6347 166.457 31.3244 166.457 31.3244L164.3 33.1636C164.156 32.9912 162.833 31.4106 163.293 29.3415C163.638 27.7034 164.961 26.3527 167.176 25.3469C168.211 24.8871 168.873 24.1974 169.189 23.3065C169.908 21.2661 168.729 18.7371 168.7 18.7084Z" fill="url(#paint1_linear)"/>
<path d="M176.696 2.58642L177.847 0C177.99 0.0574761 181.528 1.63807 182.707 4.77051C183.311 6.37984 183.196 8.07539 182.391 9.79967C181.787 11.1216 181.614 12.1849 181.931 12.8172C182.276 13.4781 183.139 13.6506 183.139 13.6506L182.678 16.4382C182.448 16.4094 180.435 16.0358 179.428 14.1679C178.652 12.7022 178.767 10.8342 179.802 8.62141C180.291 7.58684 180.349 6.66722 180.032 5.77635C179.285 3.76468 176.696 2.58642 176.696 2.58642Z" fill="#FFEF5F"/>
<path d="M140.744 24.8008L142.038 27.301C141.894 27.3872 138.443 29.1115 135.279 28.0769C133.64 27.5309 132.403 26.3813 131.569 24.6858C130.936 23.3926 130.188 22.5879 129.498 22.4442C128.779 22.3005 128.089 22.8466 128.089 22.8753L126.219 20.7774C126.392 20.6337 127.945 19.283 130.016 19.6854C131.655 20.0015 133.036 21.266 134.1 23.4788C134.589 24.4846 135.279 25.1456 136.171 25.433C138.213 26.0652 140.715 24.8008 140.744 24.8008Z" fill="#FFEF5F"/>
<path d="M177.469 44.4647L171.892 49.4856L173.779 51.5779L179.356 46.5569L177.469 44.4647Z" fill="url(#paint2_linear)"/>
<path d="M194.795 48.6002L187.298 48.9985L187.448 51.8109L194.944 51.4126L194.795 48.6002Z" fill="#FFEF5F"/>
<path d="M169.116 76.0448L167.175 78.0867L172.617 83.2531L174.558 81.2113L169.116 76.0448Z" fill="#FFEF5F"/>
<path d="M156.009 18.6817L153.203 18.9426L153.898 26.411L156.705 26.15L156.009 18.6817Z" fill="url(#paint3_linear)"/>
<path d="M183.914 74.8924L183.742 77.7034L191.235 78.1608L191.407 75.3498L183.914 74.8924Z" fill="url(#paint4_linear)"/>
<path d="M198.555 35.3193L196.225 33.71C196.369 33.5088 199.82 28.6521 207.011 31.0374C209.686 31.9282 209.945 31.411 210.491 30.3189C210.951 29.3706 211.642 27.9624 213.626 27.7612L213.885 30.5776C213.569 30.6063 213.454 30.6925 213.022 31.5546C212.102 33.3939 210.75 35.2331 206.119 33.71C200.913 32.0145 198.584 35.2906 198.555 35.3193Z" fill="url(#paint5_linear)"/>
<path d="M222.772 64.7178L220.126 63.6833C220.673 62.2464 220.874 60.4646 220.5 60.091C220.385 59.9761 219.752 59.8324 218.199 60.4359C217.106 60.867 215.524 61.3268 214.345 60.4071C213.022 59.3726 213.252 57.5046 213.511 55.2918C213.827 52.5329 214.259 49.0844 211.9 46.929C210.635 45.7795 209.369 45.2622 207.989 45.3771C205.026 45.6071 202.582 48.682 202.553 48.7108L200.309 46.9865C200.424 46.8141 203.502 42.9344 207.73 42.5608C209.916 42.3884 211.958 43.1356 213.799 44.8599C217.221 47.9923 216.675 52.5904 216.33 55.6366C216.243 56.47 216.1 57.5621 216.157 58.1081C216.33 58.0794 216.675 58.0219 217.192 57.8207C219.58 56.9011 221.392 56.9873 222.513 58.1368C224.44 60.0336 223.06 63.9419 222.772 64.7178Z" fill="url(#paint6_linear)"/>
<path d="M135.797 13.1336C135.797 12.9899 135.998 9.68505 138.616 8.01824C140.571 6.7825 143.217 6.86872 146.467 8.2194C147.819 8.79417 148.826 8.96659 149.401 8.70795C150.063 8.39183 150.465 7.27105 150.839 6.09279C151.53 4.05239 152.565 0.94868 156.448 1.20732C158.662 1.35101 161.596 2.55801 162.977 7.32853C163.725 9.94369 163.667 12.4439 163.667 12.5588L160.848 12.4726C160.848 12.3864 160.992 4.33977 156.246 4.02365C154.693 3.9087 154.291 4.71336 153.514 6.98367C152.968 8.62174 152.335 10.461 150.552 11.2656C149.2 11.8691 147.503 11.7254 145.346 10.8058C143.045 9.82873 141.233 9.68504 140.111 10.3748C138.731 11.2369 138.616 13.2198 138.616 13.2486L135.797 13.1336Z" fill="url(#paint7_linear)"/>
<path d="M164.041 44.8025L146.813 23.7087L111.666 87.4784L181.24 65.8962L164.041 44.8025Z" fill="white"/>
<path d="M140.802 34.6008L158.864 38.4805L168.643 50.4355L135.308 44.5442L140.802 34.6008Z" fill="url(#paint8_linear)"/>
<path d="M132.23 50.1479L174.826 57.9934L181.24 65.9251L128.491 56.9589L132.23 50.1479Z" fill="url(#paint9_linear)"/>
<path d="M115.203 81.0415L125.903 83.0244L111.666 87.4788L115.203 81.0415Z" fill="url(#paint10_linear)"/>
<path d="M125.098 63.1084L165.853 70.6665L141.175 78.3108L118.597 74.8335L125.098 63.1084Z" fill="url(#paint11_linear)"/>
<path d="M117.926 28.2434L116.592 30.7246L123.206 34.2739L124.54 31.7927L117.926 28.2434Z" fill="url(#paint12_linear)"/>
<path d="M134.302 46.4119L170.656 52.9067L168.643 50.5215L135.308 44.5439L134.302 46.4119Z" fill="#FFEF5F"/>
<path d="M128.492 56.9587L181.241 65.925L176.265 67.4194L127.111 59.4589L128.492 56.9587Z" fill="#FFEF5F"/>
<path d="M118.597 74.834L141.175 78.3113C141.175 78.3113 136.257 79.9494 136.315 79.8344C136.343 79.7195 117.476 76.9606 117.476 76.9606L118.597 74.834Z" fill="#FFEF5F"/>
<g opacity="0.1">
<g opacity="0.1">
<path opacity="0.1" d="M181.154 66.0973C181.154 66.0973 148.394 74.5175 127.859 58.0793L111.637 87.5358L181.154 66.0973Z" fill="black"/>
</g>
</g>
<path d="M219.149 151.277L219.896 168.75L217.682 198.465L214.374 198.695L210.348 171.71L204.797 148.863L219.149 151.277Z" fill="#3B455A"/>
<path d="M214.489 200.074L218.199 201.626L219.868 199.7L217.941 198.033L214.374 198.292L214.489 200.074Z" fill="#3B455A"/>
<path d="M195.708 145.069L194.989 158.289L197.146 197.574L200.453 197.746L205.429 171.968L209.801 143.719L195.708 145.069Z" fill="#3B455A"/>
<path d="M200.367 199.125L196.714 200.735L194.989 198.867L196.887 197.171L200.453 197.344L200.367 199.125Z" fill="#3B455A"/>
<path d="M214.978 106.158L204.653 105.038C204.653 105.038 198.9 105.641 194.989 119.292C192.832 126.879 192.17 138.834 191.997 147.972C192.228 149.265 193.666 154.984 199.648 154.007C209.945 152.34 215.438 150.674 219.925 151.507C223.75 152.34 223.434 147.081 223.003 143.058L221.478 130.643L214.978 106.158Z" fill="white"/>
<path d="M212.993 93.3128C210.376 92.738 207.701 92.2207 205.113 92.738C204.537 92.8529 203.933 93.0541 203.617 93.5427C203.502 93.7438 203.445 93.945 203.387 94.1749C202.725 96.6176 201.891 100.239 203.502 102.509C203.818 102.94 204.221 103.285 204.653 103.543C205.257 103.917 205.889 104.176 206.58 104.291C206.436 104.894 206.234 105.498 206.004 106.072C206.608 106.963 209.369 107.078 209.887 106.216C209.916 105.469 209.945 104.722 209.973 103.975C210.319 103.831 210.635 103.658 210.951 103.457C212.131 102.681 212.936 101.474 213.367 100.152C213.856 98.7155 214.547 97.3361 215.007 95.8704C215.179 95.3244 215.294 94.7209 215.007 94.2324C214.719 93.7151 214.058 93.5427 213.482 93.399C213.31 93.3702 213.137 93.3415 212.993 93.3128Z" fill="#A36D62"/>
<path d="M204.307 94.6918C205.602 93.8584 207.529 93.5136 208.737 93.5998C212.39 93.8584 213.741 96.5598 213.943 99.9221C214.949 98.6289 216.848 97.0196 216.963 95.3815C217.049 94.0308 216.876 92.1916 216.1 91.0421C215.381 89.95 213.569 89.3466 212.505 88.7143C211.498 88.1108 210.462 87.5361 209.456 86.9326C209.254 86.8176 209.024 86.6739 208.794 86.6452C208.507 86.5877 208.219 86.6739 207.931 86.7314C205.544 87.3636 203.128 87.9671 200.741 88.5994C200.281 88.7143 199.763 88.8867 199.591 89.3465C199.475 89.6052 199.562 89.9213 199.619 90.2087C199.878 91.4444 200.425 92.7376 200.54 93.9734C200.683 94.6918 201.115 98.4565 202.409 98.0254C202.783 97.3932 202.841 96.646 203.157 95.9563C203.387 95.439 203.79 95.0367 204.307 94.6918Z" fill="#3B455A"/>
<path d="M204.653 105.066L200.827 106.215L186.878 120.814L186.044 125.642L192.717 136.649L194.5 132.597L191.681 124.464L196.168 121.303L202.15 107.882L204.653 105.066Z" fill="white"/>
<path d="M66.8259 198.58L66.6533 200.419L62.9718 202L61.3899 200.045L63.3169 198.35L67.0272 196.769L66.8259 198.58Z" fill="#3B455A"/>
<path d="M69.9321 161.623L67.0847 198.005L63.5182 198.494L60.5845 167.486L58.1398 157.657L69.9321 161.623Z" fill="#3B455A"/>
<path d="M78.4459 152.082L80.5743 195.304L77.3242 195.908L70.5652 163.204L66.8262 153.749L78.4459 152.082Z" fill="#3B455A"/>
<path d="M77.612 197.345L81.4661 198.523L82.8754 196.368L80.7758 194.845L77.2668 195.506L77.612 197.345Z" fill="#3B455A"/>
<path d="M73.8441 105.411C71.2267 103.227 64.8704 104.492 61.534 104.492C61.8504 104.492 58.3702 123.085 58.2552 124.723C57.8525 130.643 56.0118 136.621 53.4807 142.024C52.4165 144.294 51.151 146.507 50.3745 148.921C49.1089 152.915 49.1089 157.6 49.4828 161.709C53.0493 162.686 56.4144 164.526 60.0959 165.014C63.1159 165.416 66.1934 164.842 69.2134 164.583C72.8086 164.267 76.4326 164.353 80.0278 164.066C83.6231 163.778 87.2758 163.117 90.4684 161.422C89.0303 158.663 87.9373 155.76 87.0457 152.8C86.1253 149.869 84.9749 146.593 84.6297 143.518C84.3421 140.759 84.2846 137.943 83.8819 135.127C83.4217 131.85 82.8465 128.603 82.0699 125.384C81.1783 121.706 79.9991 118.114 78.5322 114.636C77.4393 111.992 76.1162 107.624 74.0454 105.584C73.9879 105.526 73.9303 105.469 73.8441 105.411Z" fill="#1EBB2D"/>
<path d="M75.282 107.164L84.7158 122.223L89.893 115.038L94.7825 115.872L92.4528 127.511L86.0389 132.281L75.282 125.844V107.164Z" fill="#1EBB2D"/>
<path d="M135.509 109.349L131.368 110.786L124.609 120.873L115.98 115.096L113.248 118.344L117.591 124.81L125.443 130.385L135.509 119.838V109.349Z" fill="#FFEF5F"/>
<path d="M153.571 75.7537L153.888 71.2131L150.235 68.3967L148.682 70.4084L150.35 73.3397L149.746 74.8915L151.385 77.3343L153.571 75.7537Z" fill="#E5BBA3"/>
<path d="M125.73 138.374L125.442 163.98L128.175 196.942H131.885L136.314 166.538L141.405 136.075L125.73 138.374Z" fill="#3B455A"/>
<path d="M131.856 198.522L127.858 200.534L125.845 198.522L127.858 196.511H131.856V198.522Z" fill="#3B455A"/>
<path d="M151.184 138.374L151.271 153.203L148.768 196.942H145.058L138.846 167.916L135.509 136.075L151.184 138.374Z" fill="#3B455A"/>
<path d="M145.058 198.522L149.085 200.534L151.098 198.522L149.085 196.511H145.058V198.522Z" fill="#3B455A"/>
<path d="M155.067 147.311C155.153 149.668 155.096 152.8 154.118 152.915C153.945 152.944 153.744 152.858 153.6 152.772C151.874 151.938 150.638 150.76 148.941 149.955C147.158 149.122 145.144 148.662 143.16 148.346C140.226 147.886 137.206 147.599 134.243 147.57C131.684 147.541 129.038 148.72 126.622 149.352C125.701 149.61 124.925 150.271 124.177 150.817C123.026 151.593 122.537 151.91 122.681 150.3C122.94 147.685 123.199 145.07 123.515 142.483C124.148 137.282 125.04 132.109 126.507 127.08C127.082 125.154 127.715 123.258 128.376 121.39C129.181 119.091 129.958 116.792 130.763 114.464C131.741 111.59 133.409 109.578 136.314 108.573C138.817 107.71 141.952 107.481 144.396 108.688C147.1 110.038 148.394 114.636 149.717 117.079C150.868 119.234 152.335 125.097 152.766 127.396C153.284 130.184 153.773 132.971 154.147 135.73C154.578 138.805 154.866 141.851 154.952 144.897C154.952 145.242 155.009 146.162 155.067 147.311Z" fill="#FFEF5F"/>
<path d="M138.587 109.205C138.644 109.262 138.702 109.291 138.788 109.32C138.932 109.377 139.105 109.349 139.277 109.32C139.939 109.234 140.6 109.176 141.262 109.09C141.032 107.05 142.24 106.59 143.39 105.297C144.569 103.975 144.195 102.193 144.138 100.555C144.109 100.095 144.109 99.6351 143.908 99.2328C143.563 98.5143 142.786 98.112 142.038 97.8821C140.111 97.2786 137.897 97.4223 136.2 98.5143C135.739 98.8017 135.337 99.1753 135.078 99.6639C134.704 100.411 134.79 101.273 134.905 102.107C135.078 103.371 135.452 104.607 136.171 105.67C136.832 106.676 138.098 107.136 138.27 108.343C138.27 108.659 138.357 109.004 138.587 109.205Z" fill="#E5BBA3"/>
<path d="M134.963 100.642C135.078 101.159 135.308 101.676 135.193 102.165C134.388 101.878 133.841 101.073 133.553 100.211C133.41 99.8372 133.323 99.4348 133.352 99.0325C133.381 98.6302 133.553 98.2278 133.87 97.9979C134.301 97.6818 135.107 97.7967 135.25 98.3715C135.394 98.975 134.79 99.8659 134.963 100.642Z" fill="#3B455A"/>
<path d="M130.648 96.158C130.677 95.5545 130.907 95.0085 131.454 94.6349C131.914 94.3187 132.46 94.0601 132.748 93.5428C132.978 93.1405 133.007 92.6519 133.237 92.2783C133.64 91.5599 134.502 91.3587 135.25 91.1001C137.148 90.4966 138.155 89.8069 140.14 90.5828C141.549 91.1288 143.39 91.215 144.713 92.0197C145.259 92.3646 145.719 92.8818 146.122 93.4853C147.445 95.5545 147.762 98.4858 146.899 100.641C146.697 101.13 146.467 101.561 146.208 101.992C145.691 102.854 145.115 103.888 144.195 104.32C144.138 103.917 143.85 103.687 143.735 103.285C143.677 102.998 143.677 102.71 143.706 102.423C143.764 101.273 144.109 99.4916 142.987 98.9168C141.549 98.1984 138.845 98.8594 137.465 99.4628C136.228 100.009 134.157 100.699 132.863 100.124C131.597 99.5778 130.62 97.4512 130.648 96.158Z" fill="#3B455A"/>
<path d="M143.246 108.429L152.306 93.2554L150.206 76.846L154.262 75.3804L160.043 91.7323L160.359 100.009L149.775 117.051L143.246 108.429Z" fill="#FFEF5F"/>
<path d="M37.8054 132.051C37.0864 132.655 34.6416 133.287 33.7213 132.799C31.6216 131.707 34.5841 130.729 35.5332 130.183C35.2456 129.925 34.9293 129.666 34.6992 129.35C34.4978 129.063 37.8054 128.287 38.2369 128.43C39.301 128.775 39.301 129.494 39.7612 130.442C39.1285 130.931 38.467 131.505 37.8054 132.051Z" fill="#F4D3C3"/>
<path d="M65.5894 111.992L55.3502 130.758L37.5466 132.827L39.0998 128.861L51.2948 124.177L57.0183 111.877L63.576 106.474L65.5894 111.992Z" fill="#1EBB2D"/>
<path d="M68.2645 95.3538C69.9327 95.6699 71.9748 97.078 72.3775 98.8311C72.5788 99.6645 72.2912 100.469 72.55 101.36C73.0102 103.142 70.8818 105.728 73.0102 106.964C74.1032 107.596 75.455 107.395 76.6917 107.165C76.8355 107.136 77.0081 107.108 77.1231 107.021C77.3245 106.878 77.3532 106.562 77.267 106.332C77.1807 106.102 77.0369 105.901 76.893 105.671C75.4262 103.487 75.8001 100.325 75.2249 97.854C74.6496 95.3538 73.3266 92.8823 70.8531 91.8765C69.6163 92.6811 68.7247 93.9743 68.4083 95.4112L68.2645 95.3538Z" fill="#3B455A"/>
<path d="M70.3355 106.072C71.9461 105.383 73.0103 103.745 73.3554 102.049C73.7006 100.354 73.4417 98.5718 72.9528 96.8762C71.3709 91.3011 64.3818 92.8817 62.7424 97.6522C61.333 101.819 65.676 108.055 70.3355 106.072Z" fill="#F4D3C3"/>
<path d="M62.1958 109.119C62.9724 108.63 63.749 108.113 64.2091 107.193C64.9569 105.728 64.6406 103.429 64.7269 101.819C64.8131 100.124 64.9857 98.2846 66.1362 97.0776C66.884 96.273 67.8331 96.0431 68.8685 95.9569C69.5876 95.8706 69.6451 96.158 70.2203 95.727C70.6518 95.3821 70.9969 94.4625 71.0544 93.9452C71.1695 93.0543 70.7381 92.1634 70.1053 91.5312C69.1274 90.5541 68.0345 90.123 66.6827 90.2092C61.9945 90.4966 58.6869 93.5716 57.7665 98.2846C57.3063 100.526 57.9966 102.94 57.5077 105.124C57.1913 106.475 56.4435 107.423 56.2134 108.831C55.6381 112.51 54.0275 117.309 54.5164 121.045C54.5452 121.189 54.574 121.333 54.689 121.419C54.9191 121.591 55.2067 121.333 55.3793 121.103C56.3572 119.752 57.3063 118.43 58.2842 117.079C58.6581 116.562 59.0608 116.016 59.2621 115.413C59.8086 113.889 59.2909 112.021 60.24 110.728C60.729 110.01 61.4768 109.579 62.1958 109.119Z" fill="#3B455A"/>
<path d="M215.985 106.158L226.598 117.912L240.231 119.033L242.158 123.401L222.14 128.718L216.445 124.867L212.85 111.647L215.985 106.158Z" fill="white"/>
<path d="M250.844 105.009C250.901 105.929 250.384 106.791 249.866 107.51C246.415 112.28 238.563 117.28 233.5 113.803C234.104 113.717 235.629 113.774 236.866 113.545C239.771 112.998 241.726 109.952 243.366 107.222C244.372 105.555 244.746 100.699 246.616 100.095C248.37 99.4916 250.729 103.141 250.844 105.009Z" fill="#3B455A"/>
<path d="M234.507 107.193C235.888 104.377 237.24 102.566 239.023 100.583C240.806 98.5717 243.222 97.106 245.753 97.1635C246.041 97.1635 246.357 97.1922 246.645 97.3647C246.961 97.5371 247.162 97.8532 247.364 98.1693C248.485 99.8936 250.7 102.221 250.815 104.578C246.443 104.032 241.784 105.498 238.131 108.199C235.399 110.239 233.702 114.033 233.414 114.033C230.682 113.947 233.846 108.544 234.507 107.193Z" fill="url(#paint13_linear)"/>
<path d="M215.064 107.826C215.122 108.745 215.697 109.521 216.301 110.182C220.27 114.522 228.582 118.516 233.242 114.435C232.638 114.407 231.113 114.665 229.877 114.579C226.943 114.378 224.642 111.619 222.715 109.09C221.536 107.538 220.644 102.768 218.717 102.394C216.905 102.078 214.949 105.986 215.064 107.826Z" fill="#3B455A"/>
<path d="M231.545 108.026C229.877 105.383 228.324 103.773 226.31 102.02C224.326 100.267 221.766 99.0889 219.264 99.4338C218.976 99.4913 218.66 99.5487 218.401 99.7499C218.113 99.9798 217.941 100.325 217.768 100.641C216.848 102.48 214.921 105.066 215.036 107.452C219.321 106.36 224.096 107.251 228.036 109.492C230.97 111.188 233.069 114.751 233.357 114.694C236.061 114.263 232.322 109.262 231.545 108.026Z" fill="url(#paint14_linear)"/>
<path d="M262.148 158.721L210.549 161.853L208.018 115.901L259.646 112.74L262.148 158.721Z" fill="#FFEF5F"/>
<path d="M263.816 124.148L205.142 127.712L204.509 116.131L263.154 112.538L263.816 124.148Z" fill="#FFEF5F"/>
<g opacity="0.1">
<g opacity="0.1">
<path opacity="0.1" d="M210.865 127.367L260.278 124.35L260.508 128.488L210.865 127.367Z" fill="black"/>
</g>
</g>
<path d="M239.11 160.128L232.725 160.531L230.165 114.004C230.136 113.544 230.481 113.142 230.884 113.113L235.716 112.826C236.147 112.797 236.521 113.17 236.55 113.63L239.11 160.128Z" fill="url(#paint15_linear)"/>
<path d="M253.116 111.59L254.094 113.774L250.498 115.355L247.162 113.027L248.917 110.01L253.116 111.59Z" fill="#A36D62"/>
<path d="M41.5865 67.3617C49.0405 66.7189 54.4853 59.2756 53.7477 50.7367C53.0102 42.1977 46.3696 35.7966 38.9156 36.4394C31.4616 37.0822 26.0168 44.5255 26.7544 53.0644C27.492 61.6033 34.1325 68.0044 41.5865 67.3617Z" fill="url(#paint16_linear)"/>
<path d="M25.4174 78.8692C32.1965 75.7063 34.7501 66.8468 31.1208 59.0809C27.4916 51.315 19.0539 47.5836 12.2747 50.7465C5.49559 53.9094 2.94208 62.7689 6.57132 70.5347C10.2006 78.3006 18.6382 82.0321 25.4174 78.8692Z" fill="url(#paint17_linear)"/>
<path d="M23.885 79.4605C23.885 79.4605 23.7124 81.7883 24.0863 82.1619C24.4602 82.5355 25.4956 82.4205 25.8408 82.7941C26.2147 83.1677 26.7036 81.4722 26.7036 81.4722L24.9204 79.0869L23.885 79.4605Z" fill="url(#paint18_linear)"/>
<path d="M40.3079 67.3904C40.3079 67.3904 38.9849 69.6032 39.5888 69.9481C40.1928 70.3217 41.746 70.4366 42.0336 70.2067C42.3212 69.9768 40.8544 67.3904 40.8544 67.3904H40.3079Z" fill="url(#paint19_linear)"/>
<g opacity="0.1">
<path opacity="0.1" d="M35.5332 66.2983C37.4027 67.1317 39.4736 67.5341 41.5732 67.3616C49.0225 66.7294 54.4584 59.2863 53.7394 50.751C53.5956 48.9118 53.1642 47.1875 52.5026 45.6069C51.611 55.0905 45.0533 63.4533 35.5332 66.2983Z" fill="black"/>
</g>
<g opacity="0.1">
<path opacity="0.1" d="M23.7698 51.2686C24.4601 52.2744 25.0641 53.3664 25.6105 54.516C29.6372 63.1374 28.084 72.937 22.418 79.8342C23.4246 79.6617 24.4313 79.3456 25.4092 78.8858C32.197 75.7246 34.728 66.8733 31.104 59.114C29.4646 55.5505 26.8185 52.8491 23.7698 51.2686Z" fill="black"/>
</g>
<g opacity="0.25">
<path opacity="0.25" d="M14.1634 52.2746C14.5086 52.1022 14.8537 51.9298 15.2276 51.7573C14.1059 51.9298 12.9842 52.2746 11.9488 52.8206C6.85796 55.5507 5.04597 62.2467 7.577 68.1955C6.2252 61.7294 8.69871 55.2059 14.1634 52.2746Z" fill="#B0B0B0"/>
</g>
<path d="M39.1287 38.394C39.5026 38.2791 39.8765 38.1929 40.2504 38.1066C39.1 38.0492 37.9495 38.1641 36.8278 38.509C31.2768 40.1758 28.1705 46.3832 29.4935 52.7056C29.4935 46.0958 33.2038 40.1758 39.1287 38.394Z" fill="#B13D4A"/>
<path d="M39.4738 150.472L39.0136 150.041C39.0711 149.984 43.3854 145.242 43.1265 140.443C43.0115 138.402 42.0911 136.62 40.3941 135.126C39.7901 134.609 39.2149 134.12 38.6972 133.689C32.7435 128.689 30.5288 126.821 32.5709 105.181C34.613 83.3976 25.8982 79.7767 24.9203 79.4605L23.8561 79.8341L23.6548 79.2306L24.9203 78.7996L25.0066 78.8283C25.438 78.9432 35.4183 81.817 33.2037 105.267C31.1904 126.591 33.3475 128.401 39.0999 133.201C39.6463 133.66 40.2216 134.12 40.8256 134.666C42.6663 136.276 43.673 138.201 43.788 140.414C44.0469 145.501 39.6751 150.271 39.4738 150.472Z" fill="#4E4E4E"/>
<path d="M36.0222 157.887C34.0951 156.824 33.0597 155.731 32.7721 154.496C32.3407 152.8 33.4336 151.105 34.6991 149.15C36.6262 146.133 39.0422 142.397 36.7987 136.994C34.7854 132.08 34.469 126.649 35.9359 121.706C37.0001 118.056 39.0422 114.78 40.998 111.619C41.4869 110.843 41.9759 110.038 42.436 109.262C47.2968 101.1 43.6728 90.6973 40.7679 82.3345C40.4802 81.4724 40.1639 80.639 39.905 79.8056C39.79 79.4607 39.6462 79.0871 39.5311 78.7135C38.9846 77.1904 38.4094 75.6098 38.2943 74.0005C37.8054 68.5403 39.8762 67.1321 39.9625 67.1034L40.0488 67.0459H40.9117V67.6781H40.2501C39.9338 67.9655 38.5532 69.4599 38.9271 73.943C39.0709 75.4661 39.6174 77.018 40.1351 78.5124C40.2789 78.886 40.394 79.2596 40.509 79.6044C40.7966 80.4091 41.0842 81.2712 41.3719 82.1046C44.3343 90.5824 48.0158 101.158 42.9825 109.578C42.5223 110.354 42.0334 111.159 41.5444 111.935C39.6174 115.067 37.6041 118.315 36.5399 121.849C35.1306 126.649 35.4182 131.936 37.4027 136.707C39.7612 142.426 37.2589 146.334 35.2456 149.438C34.0664 151.277 33.0597 152.829 33.4048 154.266C33.6637 155.3 34.6128 156.278 36.3673 157.226L36.0222 157.887Z" fill="#4E4E4E"/>
<path d="M71.5255 74.3224C73.7565 66.0466 69.7087 57.7615 62.4844 55.8171C55.2601 53.8727 47.595 59.0054 45.3639 67.2812C43.1329 75.557 47.1807 83.8421 54.405 85.7865C61.6293 87.7309 69.2944 82.5982 71.5255 74.3224Z" fill="#FFEF5F"/>
<path d="M51.0074 84.2883C51.0074 84.2883 49.0516 85.5815 49.5981 86.2138C50.1446 86.846 51.0074 87.6219 51.4676 86.9322C51.9278 86.2425 51.5251 84.6332 51.5251 84.6332L51.0074 84.2883Z" fill="#FFEF5F"/>
<g opacity="0.1">
<path opacity="0.1" d="M51.4389 82.9088C50.7199 82.9662 50.0296 82.9662 49.3105 82.9662C50.7486 84.2882 52.4456 85.2653 54.4014 85.7826C61.6206 87.7367 69.3 82.5926 71.5146 74.3161C72.0899 72.1895 72.2337 70.0341 72.0323 68.0225C68.696 76.2415 60.9015 82.2765 51.4389 82.9088Z" fill="black"/>
</g>
<path d="M61.8214 57.9358C62.2241 57.9645 62.598 58.022 62.9719 58.0795C61.9364 57.6197 60.8147 57.3036 59.6355 57.2173C53.8544 56.7575 48.7348 61.4131 47.6418 67.8217C50.0291 61.6143 55.6376 57.476 61.8214 57.9358Z" fill="#F0C871"/>
<path d="M43.7018 155.386C41.8035 154.783 40.0778 153.777 38.726 152.484C33.9228 147.914 33.5489 140.701 34.0666 135.442C34.7857 128.344 38.3521 122.337 43.6731 119.349L44.047 119.148C45.3125 118.429 46.6355 117.711 47.5559 116.59C49.5117 114.233 49.4829 110.469 49.2241 107.451C49.1666 106.761 49.109 106.072 49.0515 105.382C48.5913 100.209 48.1024 94.8639 48.994 89.5761C48.994 89.5186 50.2307 84.317 50.8347 84.0296L50.9786 83.9722L51.1511 84.0584L51.6688 84.3745L51.3237 84.9205L51.0361 84.7481C50.6334 85.6677 49.6555 89.3749 49.598 89.691C48.7351 94.9214 49.1953 100.209 49.6555 105.353C49.713 106.043 49.7706 106.733 49.8281 107.422C50.0869 110.555 50.1445 114.492 48.0161 117.021C47.0094 118.228 45.6289 119.004 44.3058 119.722L43.9319 119.923C38.8123 122.797 35.3321 128.631 34.6419 135.528C34.1241 140.644 34.4981 147.656 39.0999 152.053C40.3942 153.288 42.0336 154.237 43.8456 154.811L43.7018 155.386Z" fill="#4E4E4E"/>
<path d="M66.251 114.693C65.9921 119.32 62.023 122.855 57.3924 122.596L55.3215 159.726C59.9522 159.985 63.4899 163.95 63.231 168.577L154.607 173.635C156.132 173.721 157.426 172.543 157.512 171.02L160.216 122.625C160.302 121.102 159.123 119.809 157.598 119.723L66.251 114.693Z" fill="white"/>
<path d="M203.215 167.974L205.285 130.844C200.655 130.586 197.117 126.62 197.376 121.993L162.977 120.096C161.567 120.01 160.331 121.102 160.273 122.51L157.57 171.279C157.483 172.687 158.576 173.923 159.986 173.98L194.385 175.877C194.615 171.25 198.584 167.715 203.215 167.974Z" fill="url(#paint20_linear)"/>
<path opacity="0.19" d="M157.972 119.809L155.527 119.665C156.85 119.751 157.857 121.045 157.771 122.568L155.067 170.963C154.981 172.486 153.83 173.664 152.507 173.578L154.952 173.722C156.275 173.808 157.426 172.629 157.512 171.106L160.215 122.712C160.331 121.16 159.295 119.866 157.972 119.809Z" fill="#2B292A"/>
<path opacity="0.45" d="M181.959 135.097L185.238 142.77L193.435 144.437L187.137 149.926L188.086 158.231L180.924 153.949L173.302 157.427L175.172 149.265L169.506 143.115L177.847 142.368L181.959 135.097Z" fill="white"/>
<path d="M89.318 114.205L93.2583 113.86L95.7894 116.993L94.0637 118.372L91.4464 116.964L90.1233 117.51L87.9662 116.13L89.318 114.205Z" fill="#E5BBA3"/>
<path d="M115.06 114.578L110.803 116.159L109.767 120.671L112.212 121.246L114.225 118.515L115.865 118.401L117.418 115.9L115.06 114.578Z" fill="#E5BBA3"/>
<path d="M189.524 120.153L190.502 122.337L186.906 123.889L183.57 121.59L185.325 118.573L189.524 120.153Z" fill="#A36D62"/>
<defs>
<linearGradient id="paint0_linear" x1="197.908" y1="56.5698" x2="197.908" y2="62.0739" gradientUnits="userSpaceOnUse">
<stop stop-color="#FFC700"/>
<stop offset="1" stop-color="#FFE380"/>
</linearGradient>
<linearGradient id="paint1_linear" x1="166.406" y1="15.5113" x2="175.11" y2="20.6476" gradientUnits="userSpaceOnUse">
<stop stop-color="#DBFFAE"/>
<stop offset="1" stop-color="#87CF3F"/>
</linearGradient>
<linearGradient id="paint2_linear" x1="173.634" y1="47.4439" x2="176.598" y2="49.0094" gradientUnits="userSpaceOnUse">
<stop stop-color="#DBFFAE"/>
<stop offset="1" stop-color="#87CF3F"/>
</linearGradient>
<linearGradient id="paint3_linear" x1="154.606" y1="18.8121" x2="155.3" y2="26.2806" gradientUnits="userSpaceOnUse">
<stop stop-color="#FFC700"/>
<stop offset="1" stop-color="#FFE380"/>
</linearGradient>
<linearGradient id="paint4_linear" x1="182.867" y1="76.6496" x2="184.279" y2="73.5483" gradientUnits="userSpaceOnUse">
<stop stop-color="#DBFFAE"/>
<stop offset="1" stop-color="#87CF3F"/>
</linearGradient>
<linearGradient id="paint5_linear" x1="202.486" y1="26.8165" x2="205.897" y2="34.9669" gradientUnits="userSpaceOnUse">
<stop stop-color="#DBFFAE"/>
<stop offset="1" stop-color="#87CF3F"/>
</linearGradient>
<linearGradient id="paint6_linear" x1="211.915" y1="42.5366" x2="211.915" y2="64.7178" gradientUnits="userSpaceOnUse">
<stop stop-color="#FFC700"/>
<stop offset="1" stop-color="#FFE380"/>
</linearGradient>
<linearGradient id="paint7_linear" x1="149.732" y1="1.19214" x2="149.732" y2="13.2486" gradientUnits="userSpaceOnUse">
<stop stop-color="#FFC700"/>
<stop offset="1" stop-color="#FFE380"/>
</linearGradient>
<linearGradient id="paint8_linear" x1="147.127" y1="32.6215" x2="154.793" y2="49.1269" gradientUnits="userSpaceOnUse">
<stop stop-color="#DBFFAE"/>
<stop offset="1" stop-color="#87CF3F"/>
</linearGradient>
<linearGradient id="paint9_linear" x1="147.193" y1="48.1758" x2="152.58" y2="66.5937" gradientUnits="userSpaceOnUse">
<stop stop-color="#DBFFAE"/>
<stop offset="1" stop-color="#87CF3F"/>
</linearGradient>
<linearGradient id="paint10_linear" x1="116.713" y1="80.2368" x2="119.73" y2="87.0606" gradientUnits="userSpaceOnUse">
<stop stop-color="#DBFFAE"/>
<stop offset="1" stop-color="#87CF3F"/>
</linearGradient>
<linearGradient id="paint11_linear" x1="135.352" y1="61.2081" x2="140.866" y2="78.7384" gradientUnits="userSpaceOnUse">
<stop stop-color="#DBFFAE"/>
<stop offset="1" stop-color="#87CF3F"/>
</linearGradient>
<linearGradient id="paint12_linear" x1="116.239" y1="29.4013" x2="118.82" y2="27.1748" gradientUnits="userSpaceOnUse">
<stop stop-color="#DBFFAE"/>
<stop offset="1" stop-color="#87CF3F"/>
</linearGradient>
<linearGradient id="paint13_linear" x1="238.877" y1="95.053" x2="249.497" y2="106.96" gradientUnits="userSpaceOnUse">
<stop stop-color="#DBFFAE"/>
<stop offset="1" stop-color="#87CF3F"/>
</linearGradient>
<linearGradient id="paint14_linear" x1="221.871" y1="97.4587" x2="231.276" y2="109.571" gradientUnits="userSpaceOnUse">
<stop stop-color="#DBFFAE"/>
<stop offset="1" stop-color="#87CF3F"/>
</linearGradient>
<linearGradient id="paint15_linear" x1="233.335" y1="106.861" x2="244.519" y2="109.006" gradientUnits="userSpaceOnUse">
<stop stop-color="#DBFFAE"/>
<stop offset="1" stop-color="#87CF3F"/>
</linearGradient>
<linearGradient id="paint16_linear" x1="34.6554" y1="32.9127" x2="55.6244" y2="48.6135" gradientUnits="userSpaceOnUse">
<stop stop-color="#DBFFAE"/>
<stop offset="1" stop-color="#87CF3F"/>
</linearGradient>
<linearGradient id="paint17_linear" x1="12.2747" y1="50.7465" x2="25.3996" y2="78.8775" gradientUnits="userSpaceOnUse">
<stop stop-color="#FFC700"/>
<stop offset="1" stop-color="#FFE380"/>
</linearGradient>
<linearGradient id="paint18_linear" x1="25.2744" y1="79.0869" x2="25.2744" y2="82.8479" gradientUnits="userSpaceOnUse">
<stop stop-color="#FFC700"/>
<stop offset="1" stop-color="#FFE380"/>
</linearGradient>
<linearGradient id="paint19_linear" x1="40.3669" y1="67.0235" x2="42.2199" y2="68.7284" gradientUnits="userSpaceOnUse">
<stop stop-color="#DBFFAE"/>
<stop offset="1" stop-color="#87CF3F"/>
</linearGradient>
<linearGradient id="paint20_linear" x1="181.425" y1="120.092" x2="181.425" y2="175.877" gradientUnits="userSpaceOnUse">
<stop stop-color="#FFC700"/>
<stop offset="1" stop-color="#FFE380"/>
</linearGradient>
</defs>
</svg>
