<svg width="45" height="45" viewBox="0 0 45 45" fill="none" xmlns="http://www.w3.org/2000/svg">
<path d="M32.1057 14.7685C25.2475 14.8305 18.6912 17.5984 13.8636 22.47C9.03605 27.3417 6.32777 33.9228 6.32814 40.7813C6.32814 41.3407 6.1059 41.8772 5.71032 42.2728C5.31473 42.6684 4.7782 42.8906 4.21876 42.8906C3.65932 42.8906 3.12279 42.6684 2.72721 42.2728C2.33162 41.8772 2.10939 41.3407 2.10939 40.7813C2.10206 32.8005 5.25358 25.1412 10.8754 19.4766C16.4973 13.8121 24.1326 10.6027 32.1131 10.5497L34.922 12.6563L32.1057 14.7685ZM30.7969 22.7813L42.0469 14.3438C42.3089 14.1473 42.5215 13.8925 42.6679 13.5996C42.8144 13.3067 42.8906 12.9837 42.8906 12.6563C42.8906 12.3288 42.8144 12.0058 42.6679 11.7129C42.5215 11.42 42.3089 11.1652 42.0469 10.9688L30.7969 2.53126C30.3493 2.19559 29.7868 2.05147 29.233 2.13058C28.6791 2.2097 28.1794 2.50558 27.8438 2.95313C27.5081 3.40069 27.364 3.96325 27.4431 4.51707C27.5222 5.07089 27.8181 5.57059 28.2656 5.90626L37.2656 12.6563L28.2656 19.4063C28.044 19.5725 27.8573 19.7807 27.7162 20.019C27.5751 20.2574 27.4823 20.5212 27.4431 20.7954C27.4039 21.0697 27.4191 21.3489 27.4879 21.6173C27.5566 21.8856 27.6776 22.1378 27.8438 22.3594C28.1794 22.8069 28.6791 23.1028 29.233 23.1819C29.5072 23.2211 29.7864 23.2059 30.0548 23.1371C30.3231 23.0684 30.5753 22.9475 30.7969 22.7813Z" fill="white"/>
</svg>
