<svg width="30" height="30" viewBox="1 0 29 30" fill="none" xmlns="http://www.w3.org/2000/svg">
    <path d="M8.04968 14.9376C8.04968 14.4644 8.04968 13.9913 8.04968 13.5182C8.04968 13.1057 8.23693 12.9112 8.65112 12.9224C9.02314 12.9323 9.39517 12.9063 9.76719 12.9385C10.6154 13.0141 11.1251 13.7906 10.8213 14.5821C10.7696 14.6992 10.7429 14.8257 10.7429 14.9537C10.7429 15.0816 10.7696 15.2082 10.8213 15.3253C11.1077 16.0969 10.6228 16.8499 9.81308 16.9577C8.16129 17.1745 8.04968 17.0778 8.04968 15.4318V14.9376ZM9.41377 13.7349C9.15459 13.7349 8.88798 13.6705 8.87558 14.1065C8.86317 14.5425 9.07275 14.5722 9.40137 14.5524C9.72999 14.5326 10.076 14.5623 10.0586 14.1213C10.0437 13.7275 9.70643 13.7337 9.41377 13.7349ZM9.28976 15.3451C9.11987 15.3277 8.88178 15.3191 8.8793 15.7365C8.8793 16.1217 9.05291 16.1799 9.37533 16.1576C9.69775 16.1353 10.0599 16.1811 10.0549 15.7389C10.0437 15.3414 9.69651 15.3513 9.28976 15.3438V15.3451Z" fill="#232426"/>
    <path d="M14.0023 14.9598C14.004 15.2498 13.9853 15.5395 13.9465 15.8268C13.8886 16.1556 13.7128 16.452 13.4519 16.6606C13.191 16.8692 12.8629 16.9757 12.5291 16.9601C12.1851 16.9492 11.8572 16.8125 11.6075 16.5759C11.3579 16.3394 11.2039 16.0194 11.1749 15.677C11.1344 15.2238 11.1307 14.7682 11.1637 14.3145C11.217 13.4933 11.8445 12.9161 12.6208 12.9335C13.3649 12.9496 13.9303 13.5342 13.9849 14.3442C13.9973 14.5498 13.9849 14.7567 13.9849 14.9635L14.0023 14.9598ZM11.9946 14.9598C11.9946 15.1456 11.9884 15.3314 11.9946 15.5159C12.007 15.8764 12.1868 16.1241 12.5514 16.1352C12.9507 16.1451 13.1429 15.8875 13.1503 15.4998C13.1578 15.1122 13.1578 14.7567 13.1503 14.3851C13.1429 14.0135 12.9668 13.7745 12.5985 13.7658C12.2004 13.7571 12.0119 14.0135 11.9958 14.4012C11.9809 14.5845 11.9884 14.7703 11.9884 14.9549L11.9946 14.9598Z" fill="#232426"/>
    <path d="M14.3189 15.3536C14.3189 14.9821 14.2953 14.6105 14.3189 14.2389C14.3771 13.4648 14.9476 12.9334 15.6904 12.9297C15.8712 12.9261 16.051 12.9583 16.2193 13.0243C16.3877 13.0904 16.5413 13.1891 16.6713 13.3147C16.8013 13.4403 16.9052 13.5903 16.9769 13.7561C17.0486 13.922 17.0868 14.1004 17.0892 14.281C17.119 14.9783 17.1004 15.6794 17.0991 16.3792C17.0991 16.669 17.0384 16.939 16.675 16.9303C16.3489 16.9229 16.2931 16.6628 16.2881 16.4015C16.2782 15.8664 16.2881 15.3313 16.2732 14.7913C16.2621 14.3491 16.3588 13.7596 15.704 13.762C15.0158 13.762 15.1199 14.3727 15.1125 14.8371C15.1038 15.3512 15.1125 15.8652 15.1125 16.3792C15.1125 16.6727 15.0468 16.9378 14.6834 16.9242C14.3573 16.913 14.3114 16.6554 14.3027 16.3928C14.3027 16.0423 14.3027 15.693 14.3027 15.3437L14.3189 15.3536Z" fill="#232426"/>
    <path d="M17.5633 14.54C17.5633 14.1486 17.5633 13.7572 17.5633 13.3671C17.5633 13.133 17.6774 12.962 17.9266 12.9496C18.2081 12.936 18.3396 13.1131 18.3433 13.3745C18.3532 14.0124 18.3495 14.6502 18.3544 15.2893C18.3544 15.708 18.4363 16.1279 18.9559 16.1217C19.4755 16.1155 19.5499 15.7067 19.5462 15.2807C19.5462 14.6837 19.5462 14.0867 19.5462 13.4897C19.5462 13.2246 19.6032 12.9707 19.9269 12.9558C20.2989 12.9385 20.3547 13.2172 20.3584 13.5021C20.3659 14.1808 20.3907 14.8645 20.3584 15.5395C20.315 16.4065 19.6826 16.9899 18.8852 16.9602C18.1176 16.9317 17.5856 16.3409 17.5608 15.4665C17.5558 15.158 17.5633 14.8484 17.5633 14.54Z" fill="#232426"/>
    <path d="M21.7807 16.9675C21.4782 16.9006 20.8904 17.1484 20.8767 16.586C20.8606 15.9544 21.4732 16.2145 21.839 16.1587C22.056 16.1241 22.3065 16.2281 22.4777 16.0225C22.5278 15.9557 22.5582 15.8762 22.5654 15.793C22.5727 15.7098 22.5564 15.6263 22.5186 15.5518C22.4169 15.3115 22.1813 15.3623 21.9804 15.3524C21.0057 15.3029 20.5605 14.857 20.6411 13.99C20.6994 13.3707 21.0875 12.9706 21.715 12.9273C22.0235 12.9087 22.3328 12.9087 22.6413 12.9273C22.6946 12.9247 22.7478 12.9336 22.7973 12.9534C22.8468 12.9732 22.8915 13.0034 22.9283 13.0419C22.9651 13.0804 22.9932 13.1264 23.0106 13.1767C23.0281 13.227 23.0345 13.2805 23.0295 13.3335C23.0295 13.5812 22.872 13.7051 22.6389 13.7249C22.3722 13.7447 22.1032 13.7398 21.8353 13.7472C21.7835 13.7435 21.7316 13.7513 21.6832 13.7701C21.6348 13.7889 21.5912 13.8182 21.5556 13.8559C21.52 13.8936 21.4932 13.9388 21.4773 13.9881C21.4613 14.0374 21.4565 14.0897 21.4633 14.1411C21.4568 14.1925 21.4618 14.2448 21.4778 14.2941C21.4939 14.3435 21.5206 14.3887 21.5561 14.4265C21.5916 14.4643 21.6351 14.4939 21.6833 14.5131C21.7316 14.5322 21.7835 14.5406 21.8353 14.5374C21.9171 14.5374 22.0002 14.5374 22.0833 14.5374C22.9514 14.5746 23.3916 14.9846 23.3904 15.7537C23.3891 16.5229 22.9253 16.9502 22.0784 16.9663C21.9953 16.9688 21.9122 16.9675 21.7807 16.9675Z" fill="#232426"/>
    <path fill-rule="evenodd" clip-rule="evenodd" d="M22.1558 27.5199H22.1088C26.6796 25.0773 29.7998 20.2604 29.7998 14.7258C29.7998 6.73034 23.2953 0.22583 15.2998 0.22583C7.30431 0.22583 0.799805 6.73034 0.799805 14.7258C0.799805 20.2604 3.92004 25.0773 8.49085 27.5199H8.38797C9.88504 28.3119 12.3071 29.1656 15.4245 29.2258H15.8012C17.9766 29.1845 20.226 28.4384 22.1558 27.5199ZM16.1527 25.7708V27.4766C20.2196 27.2068 23.7747 25.0423 25.9241 21.8446L24.4406 20.988C22.5923 23.6784 19.5891 25.5071 16.1527 25.7708ZM25.2885 19.5074L26.7683 20.362C27.6087 18.6586 28.0939 16.7499 28.0939 14.7258C28.0939 12.7018 27.6087 10.7931 26.7675 9.08967L25.2998 9.93761C26.007 11.4132 26.388 13.0429 26.388 14.7258C26.388 16.4392 25.9853 18.0572 25.2885 19.5074ZM14.4469 3.68091V1.97503C10.38 2.2449 6.82495 4.40932 4.67552 7.60702L6.15901 8.46371C8.00732 5.77328 11.0105 3.94454 14.4469 3.68091ZM5.31106 9.94428L3.83133 9.08967C2.99088 10.7931 2.50569 12.7018 2.50569 14.7258C2.50569 16.7499 2.99088 18.6586 3.83216 20.362L5.29982 19.514C4.59264 18.0385 4.21157 16.4088 4.21157 14.7258C4.21157 13.0125 4.6143 11.3944 5.31106 9.94428ZM6.16484 20.9846L4.67552 21.8446C6.82495 25.0423 10.38 27.2068 14.4469 27.4775V25.7782C12.7751 25.6471 11.1442 25.1369 9.68405 24.276L10.5507 22.8067C11.9955 23.658 13.6372 24.1082 15.2998 24.1082C20.4728 24.1082 24.6822 19.8989 24.6822 14.7258C24.6822 11.9188 23.4394 9.28083 21.2729 7.48874L22.3586 6.17435C23.1683 6.84362 23.8546 7.6216 24.4348 8.46621L25.9241 7.60619C23.7747 4.40932 20.2196 2.2449 16.1527 1.97419V3.67341C17.8236 3.8046 19.4554 4.31395 20.9156 5.17439L20.0489 6.64413C18.6041 5.79285 16.9615 5.34348 15.2998 5.34348C10.1268 5.34348 5.91745 9.55279 5.91745 14.7258C5.91745 17.5329 7.16021 20.1708 9.32672 21.9621L8.24097 23.2765C7.43134 22.6072 6.74499 21.8292 6.16484 20.9846Z" fill="#232426"/>
</svg>
