<svg width="25" height="26" viewBox="0 0 25 26" fill="none" xmlns="http://www.w3.org/2000/svg">
    <path d="M18.9013 7.5657C18.7371 7.5657 18.5708 7.57407 18.4024 7.59063C18.5424 7.08146 18.6129 6.58638 18.6129 6.10822C18.6129 2.77563 15.8815 0.0644531 12.5242 0.0644531C9.16684 0.0644531 6.4355 2.77563 6.4355 6.10822C6.4355 6.5742 6.50248 7.05654 6.63548 7.55219C6.43474 7.52879 6.23705 7.51699 6.04221 7.51699C2.7138 7.51699 0.00585938 10.2483 0.00585938 13.6057C0.00585938 16.963 2.7138 19.6943 6.04221 19.6943C7.98317 19.6943 9.9127 18.5438 11.499 17.2083C11.4735 19.8155 11.2164 21.4178 10.6951 22.2307C10.3602 22.7529 9.87636 23.0553 8.39434 23.0553C7.85625 23.0553 7.42015 23.4914 7.42015 24.0295C7.42015 24.5676 7.85625 25.0037 8.39434 25.0037H16.5566C17.0947 25.0037 17.5308 24.5676 17.5308 24.0295C17.5308 23.4914 17.0947 23.0553 16.5566 23.0553C15.0746 23.0553 14.5907 22.7529 14.2558 22.2307C13.7381 21.4235 13.4809 19.8386 13.4523 17.2634C15.0384 18.5997 16.9619 19.7431 18.9013 19.7431C19.4141 19.7431 19.9242 19.678 20.4168 19.5497C20.9376 19.4143 21.2498 18.8823 21.1143 18.3617C20.9789 17.8409 20.4469 17.5287 19.9263 17.6641C19.5935 17.7507 19.2487 17.7947 18.9013 17.7947C17.3512 17.7947 15.258 16.5214 13.1585 14.3011C12.9751 14.1072 12.72 13.9969 12.4528 13.9963C12.4521 13.9963 12.4515 13.9963 12.4507 13.9963C12.1844 13.9963 11.9296 14.1053 11.7458 14.2983C10.5178 15.5858 8.14394 17.746 6.04221 17.746C3.78807 17.746 1.95424 15.8885 1.95424 13.6057C1.95424 11.3228 3.78807 9.46537 6.04221 9.46537C6.6056 9.46537 7.23768 9.62824 7.92057 9.94923C8.30587 10.1302 8.76404 10.0402 9.0523 9.72661C9.34037 9.41323 9.39136 8.94897 9.17845 8.58023C8.65121 7.66731 8.38388 6.83563 8.38388 6.10822C8.38388 3.85009 10.2413 2.01283 12.5242 2.01283C14.807 2.01283 16.6645 3.85009 16.6645 6.10822C16.6645 6.83563 16.3971 7.66712 15.8701 8.57985C15.6585 8.94631 15.7076 9.40733 15.9915 9.7209C16.2756 10.0345 16.7294 10.129 17.1148 9.95474C17.7618 9.6623 18.3628 9.51408 18.9013 9.51408C21.1594 9.51408 22.9967 11.3715 22.9967 13.6544C22.9967 14.1871 22.8983 14.7054 22.7041 15.1948C22.5058 15.6948 22.7503 16.2611 23.2503 16.4595C23.7504 16.658 24.3168 16.4135 24.5152 15.9133C24.8005 15.1944 24.9451 14.4343 24.9451 13.6544C24.9451 10.297 22.2339 7.5657 18.9013 7.5657Z" fill="#232426"/>
</svg>
