<svg width="22" height="26" viewBox="0 0 22 26" fill="none" xmlns="http://www.w3.org/2000/svg">
    <path d="M10.7441 14.0921C10.7689 14.0921 10.7936 14.0921 10.8233 14.0921C10.8331 14.0921 10.843 14.0921 10.8529 14.0921C10.8678 14.0921 10.8875 14.0921 10.9024 14.0921C12.3512 14.0673 13.5231 13.558 14.3884 12.5839C16.2922 10.4379 15.9757 6.75901 15.9411 6.40793C15.8175 3.77238 14.5714 2.51147 13.5429 1.92304C12.7764 1.48296 11.8814 1.24561 10.8826 1.22583H10.848C10.843 1.22583 10.8331 1.22583 10.8282 1.22583H10.7985C10.2497 1.22583 9.17171 1.31484 8.13826 1.90326C7.09986 2.49169 5.83401 3.7526 5.71039 6.40793C5.67577 6.75901 5.35931 10.4379 7.26304 12.5839C8.12343 13.558 9.29533 14.0673 10.7441 14.0921ZM7.03064 6.53155C7.03064 6.51671 7.03558 6.50188 7.03558 6.49199C7.19876 2.9466 9.71564 2.56586 10.7936 2.56586H10.8134C10.8233 2.56586 10.8381 2.56586 10.8529 2.56586C12.188 2.59553 14.4577 3.13945 14.6109 6.49199C14.6109 6.50682 14.6109 6.52166 14.6159 6.53155C14.6208 6.56616 14.967 9.92859 13.3945 11.6988C12.7715 12.401 11.9408 12.7471 10.848 12.757C10.8381 12.757 10.8331 12.757 10.8233 12.757C10.8134 12.757 10.8084 12.757 10.7985 12.757C9.71069 12.7471 8.87503 12.401 8.25693 11.6988C6.68945 9.93848 7.02569 6.56122 7.03064 6.53155Z" fill="#232426" stroke="#232426" stroke-width="0.5"/>
    <path d="M20.9852 20.1939C20.9852 20.1889 20.9852 20.184 20.9852 20.1791C20.9852 20.1395 20.9803 20.0999 20.9803 20.0554C20.9506 19.0764 20.8863 16.787 18.7403 16.0551C18.7255 16.0502 18.7057 16.0452 18.6909 16.0403C16.4608 15.4717 14.6065 14.186 14.5867 14.1712C14.2851 13.9586 13.8697 14.0327 13.6571 14.3344C13.4445 14.636 13.5186 15.0513 13.8203 15.264C13.9043 15.3233 15.8723 16.693 18.3348 17.3259C19.487 17.7363 19.6155 18.9676 19.6501 20.095C19.6501 20.1395 19.6501 20.1791 19.6551 20.2186C19.66 20.6636 19.6304 21.351 19.5512 21.7465C18.7502 22.2015 15.6103 23.7739 10.8336 23.7739C6.07679 23.7739 2.9171 22.1965 2.1111 21.7416C2.03199 21.346 1.99738 20.6587 2.00726 20.2137C2.00726 20.1741 2.01221 20.1346 2.01221 20.09C2.04682 18.9626 2.17539 17.7314 3.32751 17.321C5.79 16.6881 7.75801 15.3134 7.84207 15.259C8.1437 15.0464 8.21787 14.631 8.00525 14.3294C7.79262 14.0278 7.37726 13.9536 7.07563 14.1662C7.05585 14.1811 5.21146 15.4667 2.97149 16.0354C2.95171 16.0403 2.93688 16.0452 2.92204 16.0502C0.776022 16.787 0.71174 19.0764 0.682072 20.0505C0.682072 20.095 0.682072 20.1346 0.677127 20.1741C0.677127 20.1791 0.677127 20.184 0.677127 20.1889C0.672182 20.4461 0.667238 21.7663 0.929309 22.4289C0.978757 22.5575 1.06776 22.6663 1.18644 22.7404C1.33478 22.8393 4.89005 25.104 10.8386 25.104C16.7871 25.104 20.3424 22.8344 20.4907 22.7404C20.6045 22.6663 20.6984 22.5575 20.7479 22.4289C20.9951 21.7713 20.9902 20.451 20.9852 20.1939Z" fill="#232426" stroke="#232426" stroke-width="0.5"/>
</svg>
