<svg width="24" height="23" viewBox="0 0 23 23" fill="none" xmlns="http://www.w3.org/2000/svg">
    <path d="M22.893 0.774408C22.8954 0.570757 22.8121 0.374734 22.6626 0.229814C22.5127 0.0852749 22.3085 0.00366211 22.0956 0.00366211H18.5735C18.4957 0.00366211 18.4212 0.0177727 18.3498 0.0379853H17.67C17.5452 0.0379853 17.4176 0.045994 17.2701 0.063537H6.17261C6.02509 0.045994 5.89751 0.0379853 5.77232 0.0379853H5.20137C5.13 0.0177727 5.05585 0.00366211 4.9773 0.00366211H1.45516C1.24265 0.00366211 1.03851 0.0852749 0.888599 0.229814C0.738687 0.374734 0.655756 0.570757 0.65775 0.774408C0.66094 1.03831 0.766596 6.84084 4.19664 7.60967V7.64514C4.19664 7.6726 4.20023 7.70044 4.20701 7.7279C4.33978 11.2708 7.23077 14.2253 10.8873 14.6169V20.408H7.88584C7.66536 20.408 7.48714 20.5785 7.48714 20.7894V21.6223C7.48714 21.8332 7.66536 22.0037 7.88584 22.0037H15.5569C15.777 22.0037 15.9556 21.8332 15.9556 21.6223V20.7894C15.9556 20.5785 15.777 20.408 15.5569 20.408H12.5551V14.6173C16.1697 14.2375 18.9654 11.4623 19.2202 7.98151C19.2648 7.91935 19.2904 7.84422 19.2904 7.76527V7.62417C22.783 6.91406 22.8898 1.04022 22.893 0.774408ZM11.7214 13.0739C8.49147 13.0739 5.86402 10.5603 5.86402 7.47086V1.65918H17.5795V7.47086C17.5795 10.5603 14.9517 13.0739 11.7214 13.0739ZM4.18029 5.9736C2.84264 5.26388 2.43038 2.80024 2.30599 1.52952H4.18029V5.9736ZM19.3709 5.97475V1.52952H21.2468C21.1236 2.80062 20.7137 5.26655 19.3709 5.97475Z" fill="#232426"/>
</svg>
