<svg width="132" height="37" viewBox="0 0 132 37" fill="none" xmlns="http://www.w3.org/2000/svg">
<path d="M0.763123 35.706V1.44037H8.02875V29.706H21.9272V35.706H0.763123ZM59.0053 18.5263C59.0053 24.1982 57.5991 28.5576 54.7866 31.6044C51.9741 34.6513 47.9428 36.1747 42.6928 36.1747C37.4428 36.1747 33.4116 34.6513 30.5991 31.6044C27.7866 28.5576 26.3803 24.1826 26.3803 18.4794C26.3803 12.7763 27.7866 8.42474 30.5991 5.42474C33.4272 2.40912 37.4741 0.901306 42.7397 0.901306C48.0053 0.901306 52.0287 2.41693 54.81 5.44818C57.6069 8.47943 59.0053 12.8388 59.0053 18.5263ZM33.9975 18.5263C33.9975 22.3544 34.7241 25.2372 36.1772 27.1747C37.6303 29.1122 39.8022 30.081 42.6928 30.081C48.4897 30.081 51.3881 26.2294 51.3881 18.5263C51.3881 10.8076 48.5053 6.94818 42.7397 6.94818C39.8491 6.94818 37.6694 7.92474 36.2006 9.87787C34.7319 11.8154 33.9975 14.6982 33.9975 18.5263ZM79.1147 16.4638H92.7084V34.2294C90.5053 34.9482 88.4272 35.4482 86.4741 35.7294C84.5366 36.0263 82.5522 36.1747 80.5209 36.1747C75.3491 36.1747 71.3959 34.6591 68.6616 31.6279C65.9428 28.581 64.5834 24.2138 64.5834 18.5263C64.5834 12.9951 66.1616 8.68256 69.3178 5.58881C72.4897 2.49506 76.8803 0.948181 82.4897 0.948181C86.0053 0.948181 89.3959 1.65131 92.6616 3.05756L90.2475 8.87006C87.7475 7.62006 85.1459 6.99506 82.4428 6.99506C79.3022 6.99506 76.7866 8.04974 74.8959 10.1591C73.0053 12.2685 72.06 15.1044 72.06 18.6669C72.06 22.3857 72.8178 25.2294 74.3334 27.1982C75.8647 29.1513 78.0834 30.1279 80.9897 30.1279C82.5053 30.1279 84.0444 29.9716 85.6069 29.6591V22.5107H79.1147V16.4638ZM131.99 18.5263C131.99 24.1982 130.583 28.5576 127.771 31.6044C124.958 34.6513 120.927 36.1747 115.677 36.1747C110.427 36.1747 106.396 34.6513 103.583 31.6044C100.771 28.5576 99.3647 24.1826 99.3647 18.4794C99.3647 12.7763 100.771 8.42474 103.583 5.42474C106.412 2.40912 110.458 0.901306 115.724 0.901306C120.99 0.901306 125.013 2.41693 127.794 5.44818C130.591 8.47943 131.99 12.8388 131.99 18.5263ZM106.982 18.5263C106.982 22.3544 107.708 25.2372 109.162 27.1747C110.615 29.1122 112.787 30.081 115.677 30.081C121.474 30.081 124.372 26.2294 124.372 18.5263C124.372 10.8076 121.49 6.94818 115.724 6.94818C112.833 6.94818 110.654 7.92474 109.185 9.87787C107.716 11.8154 106.982 14.6982 106.982 18.5263Z" fill="white"/>
</svg>
